<?xml version="1.0" encoding="utf-8"?>
<!-- Generator: Adobe Illustrator 24.2.3, SVG Export Plug-In . SVG Version: 6.00 Build 0)  -->
<svg version="1.1" id="Layer_1" xmlns="http://www.w3.org/2000/svg" xmlns:xlink="http://www.w3.org/1999/xlink" x="0px" y="0px"
	 viewBox="0 0 1920 1080" style="enable-background:new 0 0 1920 1080;" xml:space="preserve">
<style type="text/css">
	.st0{fill:#FFFFFF;}
	.st1{fill:#E0E0E0;}
	.st2{opacity:0.3;}
	.st3{fill:none;}
	.st4{fill-rule:evenodd;clip-rule:evenodd;fill:#E0E0E0;}
	.st5{fill:#263238;}
	.st6{fill:#AFCDFB;}
	.st7{opacity:0.7;fill:#AFCDFB;enable-background:new    ;}
	.st8{fill:#E8505B;}
	.st9{fill:#EBEBEB;}
	.st10{font-family:'ArialMT';}
	.st11{font-size:34.7708px;}
	.st12{fill:#455A64;}
	.st13{fill:#FAFAFA;}
	.st14{fill:#FFBE9D;}
	.st15{opacity:0.6;}
	.st16{fill:#EB996E;}
</style>
<g id="Background_Complete">
	<g>
		<g>
			<g>
				<g>
					<rect x="247.5" y="193.8" class="st0" width="485.5" height="194.3"/>
				</g>
			</g>
			<g>
				<g>
					<g>
						<path class="st1" d="M733,388.3c0,0,0-1.2,0-3.5s0-5.8,0-10.2c0-9,0-22.3,0-39.2c0-33.8-0.4-82.3-0.4-141.4l0.8,0.5
							c-133.8,0-302.5,0-485.5,0l0,0l0.8-0.5c0,69.3,0,135.1,0,194.3l-0.8-0.5c143.1,0,264.1,0.2,349.8,0.2c42.7,0,76.8,0,100,0.2
							c11.6,0,20.6,0,26.8,0c3.1,0,5.4,0,7,0C732.2,388,733,388.3,733,388.3s-0.8,0-2.3,0s-3.9,0-6.6,0c-6.2,0-14.7,0-26.4,0
							c-23.3,0-57,0-99.7,0.2c-85.7,0-207.1,0.2-350.2,0.2h-0.8v-0.5c0-59.3,0-125.2,0-194.3v-0.5h0.8l0,0c183,0,351.7,0,485.5,0
							h0.8v0.5c0,59.3-0.4,107.8-0.4,141.6c0,16.9,0,30.1,0,38.9c0,4.4,0,7.9,0,10.2C733.4,387.1,733,388.3,733,388.3z"/>
					</g>
				</g>
			</g>
		</g>
		<g>
			<g>
				<g>
					<path class="st1" d="M247.5,211.2c0-0.2,108.6-0.5,242.8-0.5s242.8,0.2,242.8,0.5c0,0.2-108.6,0.5-242.8,0.5
						S247.5,211.4,247.5,211.2z"/>
				</g>
			</g>
		</g>
		<g>
			<g class="st2">
				<g>
					<path class="st1" d="M266.9,202.4c0,1.4-1.6,2.3-3.9,2.3c-2.3,0-3.9-0.9-3.9-2.3c0-1.4,1.6-2.3,3.9-2.3
						C264.9,200,266.9,201.2,266.9,202.4z"/>
				</g>
			</g>
			<g class="st2">
				<g>
					<ellipse class="st1" cx="276.2" cy="202.4" rx="3.9" ry="2.3"/>
				</g>
			</g>
			<g class="st2">
				<g>
					<path class="st1" d="M293.2,202.4c0,1.4-1.6,2.3-3.9,2.3c-2.3,0-3.9-0.9-3.9-2.3c0-1.4,1.6-2.3,3.9-2.3
						C291.7,200,293.2,201.2,293.2,202.4z"/>
				</g>
			</g>
		</g>
		<g>
			<g>
				<rect x="289.3" y="231.3" class="st1" width="129.5" height="77.4"/>
			</g>
		</g>
		<g>
			<g>
				<g>
					<path class="st1" d="M666.7,253.4c0,0.2-50.4,0.5-112.8,0.5S441,253.6,441,253.4c0-0.2,50.4-0.5,112.8-0.5
						C616.3,252.9,666.7,253.1,666.7,253.4z"/>
				</g>
			</g>
		</g>
		<g>
			<g>
				<g>
					<path class="st1" d="M666.7,267.7c0,0.2-50.4,0.5-112.8,0.5S441,268,441,267.7c0-0.2,50.4-0.5,112.8-0.5
						S666.7,267.5,666.7,267.7z"/>
				</g>
			</g>
		</g>
		<g>
			<g>
				<g>
					<path class="st1" d="M666.7,282.1c0,0.2-50.4,0.5-112.8,0.5S441,282.3,441,282.1s50.4-0.5,112.8-0.5S666.7,281.9,666.7,282.1z"
						/>
				</g>
			</g>
		</g>
		<g>
			<g>
				<g>
					<path class="st1" d="M574.4,296.5c0,0-1.9,0.2-5.4,0.2c-3.9,0-8.5,0-14.3,0.2c-12,0-28.7,0.2-47.3,0.2c-18.2,0-34.9,0-47.3-0.2
						c-5.8,0-10.5-0.2-14.3-0.2c-3.5,0-5.4-0.2-5.4-0.2s1.9-0.2,5.4-0.2c3.9,0,8.5,0,14.3-0.2c12,0,28.7-0.2,47.3-0.2
						c18.2,0,34.9,0,47.3,0.2c5.8,0,10.5,0.2,14.3,0.2C572.4,296.2,574.4,296.5,574.4,296.5z"/>
				</g>
			</g>
		</g>
		<g>
			<g>
				<rect x="297.5" y="335" class="st1" width="60.9" height="36.4"/>
			</g>
		</g>
		<g>
			<g>
				<rect x="408" y="335" class="st1" width="60.9" height="36.4"/>
			</g>
		</g>
		<g>
			<g>
				<rect x="518.1" y="335" class="st1" width="60.9" height="36.4"/>
			</g>
		</g>
		<g>
			<g>
				<rect x="628.7" y="335" class="st1" width="60.9" height="36.4"/>
			</g>
		</g>
	</g>
	<g>
		<g>
			<g>
				<g>
					<g>
						<g>
							<g>
								<path class="st3" d="M1641.2,257.1c-3.1,2.5-6.6,4.6-10.5,6.5l2.7,8.1l-20.9,5.6l-8.1-6.7c-5,0.5-10.1,0.5-15.1,0.2l-7.8,7
									l-21.3-4.9l1.9-8.1c-4.3-1.9-7.8-3.9-10.9-6.3l-13.6,1.6l-9.3-12.5l11.2-4.9c-0.8-3-0.8-6-0.4-9l-11.6-4.6l8.1-12.7
									l13.6,1.2c3.1-2.5,6.6-4.6,10.5-6.5l-2.7-8.1l20.9-5.6l8.1,6.7c5-0.5,10.1-0.5,15.1-0.2l7.8-7l21.3,4.9l-1.9,8.1
									c4.3,1.9,7.8,3.9,10.9,6.3l13.6-1.6l9.3,12.5l-11.2,4.9c0.8,3,0.8,6,0.4,9l11.6,4.6l-8.1,12.7L1641.2,257.1L1641.2,257.1z
									 M1617.9,242.9c5-7.6-1.6-16-14-19c-12.8-3-26.8,0.9-31.8,8.3c-5,7.6,1.6,16,14,19C1598.9,254.3,1613.2,250.6,1617.9,242.9z
									"/>
							</g>
						</g>
					</g>
				</g>
			</g>
			<g>
				<g>
					<g>
						<g>
							<g>
								<g>
									<path class="st1" d="M1617.9,242.9c0,0-0.4,1.4-2.7,3.2c-2.3,1.9-6.6,4.6-13.2,5.8c-3.5,0.7-7.4,0.9-11.6,0.5
										c-4.3-0.5-8.5-1.6-12-3.5c-1.9-0.9-3.5-2.1-4.7-3.2c-1.6-1.2-2.3-2.5-3.1-4.2c-1.6-3-1.2-6.3,0.8-9.5
										c1.9-3,5.4-5.6,10.1-7.2c2.3-0.9,4.7-1.4,7-1.9c2.3-0.5,4.7-0.7,7.4-0.5c4.7,0,9.3,0.9,12.8,2.3c3.5,1.4,6.2,3,8.1,4.9
										c3.9,3.7,3.9,7.4,3.5,9.7C1619.1,241.8,1617.9,242.9,1617.9,242.9s0.8-1.2,1.2-3.5c0.4-2.3,0-5.8-3.5-9.3
										c-1.9-1.6-4.3-3.5-7.8-4.6c-3.5-1.2-7.8-2.1-12-2.1c-2.3,0-4.7,0.2-7,0.5c-2.3,0.5-4.7,0.9-6.6,1.9c-4.3,1.6-7.4,3.9-9.3,7
										c-1.9,3-1.9,6-0.8,8.8c0.8,1.4,1.6,2.8,2.7,3.9c1.2,1.2,2.7,2.3,4.7,3c3.5,1.9,7.4,2.8,11.2,3.2c3.9,0.5,7.8,0.2,11.2-0.2
										c6.6-1.2,10.9-3.7,13.2-5.3C1617.1,244.3,1617.9,242.9,1617.9,242.9z"/>
								</g>
							</g>
						</g>
					</g>
				</g>
			</g>
			<g>
				<g>
					<g>
						<g>
							<g>
								<g>
									<path class="st1" d="M1641.2,257.1c0,0,0.4,0,0.8,0c0.8,0,1.6,0,2.7,0.2c2.3,0.2,5.8,0.5,10.5,0.9h-0.4
										c1.9-3.2,4.7-7.6,8.1-12.7v0.2c-3.5-1.4-7.4-3-11.6-4.6h-0.4v-0.2c0.4-2.8,0.4-5.8-0.4-8.8v-0.2h0.4
										c3.5-1.6,7.4-3.2,11.2-4.9v0.5c-3.1-3.9-6.2-8.1-9.3-12.5l0.8,0.2c-4.3,0.5-8.9,1.2-13.6,1.6h-0.4l-0.4-0.2
										c-2.7-2.1-6.6-4.2-10.9-6l-0.4-0.2V210c0.8-2.5,1.2-5.3,1.9-8.1l0.4,0.5c-6.6-1.6-14-3.2-21.3-4.9l0.8-0.2
										c-2.3,2.1-5,4.4-7.8,7l-0.4,0.2h-0.4c-4.7-0.2-9.7-0.2-14.7,0.2h-0.4l-0.4-0.2c-2.7-2.1-5.4-4.4-8.1-6.7l0.8,0.2
										c-6.6,1.9-13.6,3.7-20.9,5.6l0.4-0.5c0.8,2.5,1.9,5.3,2.7,8.1v0.2l-0.4,0.2c-3.5,1.9-7.4,3.9-10.1,6.5l0,0l0,0
										c-0.4,0,0.8-0.2-0.8,0.2l0,0l0,0l0,0l0,0h-0.4h-0.4h-0.8l-1.6-0.2l-3.5-0.2c-2.3-0.2-4.7-0.5-7-0.7l0.8-0.2
										c-2.7,4.4-5.4,8.6-8.1,12.7l-0.4-0.5c3.9,1.6,7.8,3,11.6,4.6l0.4,0.2v0.2c-0.4,3-0.4,6,0.4,8.8v0.2l-0.4,0.2
										c-3.9,1.6-7.4,3.2-11.2,4.9l0.4-0.5c3.1,4.2,6.2,8.6,9.3,12.5l-0.8-0.2c4.7-0.5,9.3-1.2,13.6-1.6h0.4l0.4,0.2
										c3.1,2.3,6.6,4.4,10.9,6l0.4,0.2v0.2c-0.8,2.8-1.6,5.6-1.9,8.1l-0.4-0.5c7.4,1.9,14.7,3.5,21.3,4.9l-0.8,0.2
										c2.7-2.3,5.4-4.6,7.8-7V271h0.4c5.4,0.2,10.1,0.2,14.7-0.2h0.4v0.2c3.1,2.3,5.8,4.6,8.1,6.7h-0.4
										c8.1-2.1,15.1-3.9,20.9-5.6v0.2c-1.2-3.2-1.9-6-2.7-8.1l0,0l0,0c3.9-1.9,6.6-3.5,8.1-4.6c0.8-0.5,1.2-0.9,1.9-1.4
										C1640.8,257.1,1641.2,257.1,1641.2,257.1s0,0.2-0.4,0.5c-0.4,0.2-0.8,0.7-1.6,1.4c-1.6,1.2-3.9,2.8-8.1,4.9v-0.2
										c0.8,2.3,1.6,4.9,2.7,8.1v0.2h-0.4c-5.8,1.6-12.8,3.5-20.9,5.6h-0.4l-0.4-0.2c-2.7-2.1-5.4-4.2-8.1-6.7h0.4
										c-4.7,0.5-9.7,0.7-15.1,0.2l0.4-0.2c-2.3,2.1-5,4.4-7.8,7l-0.4,0.2h-0.4c-6.6-1.6-14-3.2-21.3-4.9h-0.4v-0.2
										c0.8-2.5,1.2-5.3,1.9-8.1l0.4,0.5c-3.9-1.6-7.8-3.7-10.9-6.3l0.8,0.2c-4.3,0.5-8.9,1.2-13.6,1.6h-0.4l-0.4-0.2
										c-3.1-4.2-6.2-8.3-9.3-12.5l-0.4-0.2l0.4-0.2c3.5-1.6,7.4-3.2,11.2-4.9l-0.4,0.5c-0.8-3-0.8-6-0.4-9l0.4,0.5
										c-3.9-1.6-7.8-3-11.6-4.6l-0.4-0.2l0.4-0.2c2.7-4.2,5.4-8.6,8.1-12.7l0.4-0.2h0.4c2.3,0.2,4.7,0.5,7,0.7l3.5,0.2l1.6,0.2
										h0.8h0.4h0.4l0,0l0,0l0,0l0,0c-1.2,0.2-0.4,0-0.8,0.2l0,0l0,0c3.1-2.5,6.6-4.9,10.5-6.5l-0.4,0.5c-0.8-2.8-1.9-5.6-2.7-8.1
										v-0.2l0.4-0.2c7.4-1.9,14.3-3.7,20.9-5.6l0.4-0.2l0.4,0.2c2.7,2.3,5.8,4.6,8.1,6.7l-0.8-0.2c5-0.5,10.5-0.5,15.1-0.2
										l-0.8,0.2c2.7-2.3,5.4-4.6,7.8-7l0.4-0.2h0.4c7.4,1.6,14.7,3.5,21.3,4.9h0.4v0.2c-0.8,2.8-1.6,5.6-1.9,8.1l-0.4-0.2
										c4.3,1.9,8.1,3.9,10.9,6.3l-0.4-0.2c4.7-0.5,9.3-1.2,13.6-1.6h0.4v0.2c3.1,4.4,6.2,8.6,9.3,12.5v0.2l-0.4,0.2
										c-3.9,1.6-7.8,3.5-11.2,4.9V232c0.8,3.2,0.8,6.3,0.4,9v-0.2c4.3,1.6,8.1,3.2,11.6,4.6h0.4v0.2c-3.5,5.1-6.2,9.5-8.5,12.7
										l0,0l0,0c-4.3-0.5-7.8-0.7-10.1-0.9c-1.2,0-1.9-0.2-2.7-0.2C1641.6,257.1,1641.2,257.1,1641.2,257.1z"/>
								</g>
							</g>
						</g>
					</g>
				</g>
			</g>
		</g>
		<g>
			<g>
				<g>
					<g>
						<g>
							<path class="st4" d="M1763.3,217.9c-2.3,2.1-5.4,3.9-8.5,5.3l2.3,6.7l-17.5,4.6l-7-5.6c-3.9,0.5-8.1,0.5-12.4,0.2l-6.6,5.8
								l-17.8-4.2l1.6-6.7c-3.5-1.4-6.6-3.2-8.9-5.1l-11.2,1.4l-7.8-10.4l9.3-4.2c-0.8-2.3-0.8-4.9-0.4-7.4l-9.7-3.9l7-10.7
								l11.2,0.9c2.3-2.1,5.4-3.9,8.5-5.3l-2.3-6.7l17.5-4.6l7,5.6c3.9-0.5,8.1-0.5,12.4-0.2l6.6-5.8l17.8,4.2l-1.6,6.7
								c3.5,1.4,6.6,3.2,8.9,5.1l11.2-1.4l7.8,10.4l-9.3,4.2c0.8,2.3,0.8,4.9,0.4,7.4l9.7,3.9l-7,10.7L1763.3,217.9L1763.3,217.9z
								 M1743.9,206.3c3.9-6.3-1.2-13.4-11.6-15.8c-10.5-2.3-22.5,0.7-26.4,7c-3.9,6.3,1.2,13.4,11.6,15.8
								C1728,215.8,1740.1,212.6,1743.9,206.3z"/>
						</g>
					</g>
				</g>
			</g>
		</g>
		<g>
			<g>
				<g>
					<g>
						<g>
							<path class="st4" d="M1688.1,154.6c-3.9,3.2-8.5,6-13.6,8.3l3.5,10.7l-27.1,7.2l-10.9-8.6c-6.2,0.7-12.8,0.7-19.4,0.2
								l-10.1,9l-27.9-6.5l2.7-10.7c-5.4-2.3-10.1-5.1-14-8.1l-17.8,2.1l-12-16.2l14.3-6.5c-1.2-3.7-1.2-7.6-0.4-11.6l-15.1-6
								l10.9-16.7l17.8,1.6c3.9-3.2,8.5-6,13.6-8.3l-3.5-10.7l27.1-7.2l10.9,8.6c6.2-0.7,12.8-0.7,19.4-0.2l10.1-9l27.9,6.5
								l-2.7,10.7c5.4,2.3,10.1,5.1,14,8.1l17.8-2.1l12,16.2l-14.3,6.5c1.2,3.7,1.2,7.6,0.4,11.6l15.1,6l-10.9,16.7L1688.1,154.6
								L1688.1,154.6z M1657.8,136.3c6.2-10-1.9-20.9-18.2-24.8c-16.7-3.7-34.9,1.2-41.5,10.9c-6.2,10,1.9,20.9,18.2,24.8
								C1633,151.1,1651.6,146.3,1657.8,136.3z"/>
						</g>
					</g>
				</g>
			</g>
		</g>
	</g>
	<g>
		<g>
			<g>
				<g>
					<path class="st1" d="M1414.3,66.3c0,0,0.8-0.5,1.9-1.4c1.6-0.9,3.5-2.1,5.8-3.5c5-3,12-7,19.8-11.4l0,0v0.7
						c-7.8-4.4-14.7-8.3-19.8-11.1c-2.3-1.4-4.3-2.5-5.8-3.5c-1.6-0.9-1.9-1.4-1.9-1.4s0.8,0.5,2.3,1.2c1.6,0.9,3.9,2.1,6.2,3.2
						c5,2.8,12.4,6.7,20.2,11.1l0.4,0.2l-0.4,0.2l0,0c-7.8,4.4-14.7,8.3-20.2,11.4c-2.3,1.4-4.7,2.5-6.2,3.2
						C1415.5,65.8,1414.3,66.3,1414.3,66.3z"/>
				</g>
			</g>
		</g>
		<g>
			<g>
				<g>
					<path class="st1" d="M1353.8,34.3c0,0-0.8,0.5-1.9,1.4c-1.6,0.9-3.5,2.1-5.8,3.5c-5,3-12,7-19.8,11.4l0,0v-0.7
						c7.8,4.4,14.7,8.3,19.8,11.1c2.3,1.4,4.3,2.5,5.8,3.5c1.6,0.9,1.9,1.4,1.9,1.4s-0.8-0.5-2.3-1.2c-1.6-0.9-3.9-2.1-6.2-3.2
						c-5-2.8-12.4-6.7-20.2-11.1l-0.4-0.2l0.4-0.2l0,0c7.8-4.4,14.7-8.3,20.2-11.4c2.3-1.4,4.7-2.5,6.2-3.2
						C1353,34.8,1353.8,34.3,1353.8,34.3z"/>
				</g>
			</g>
		</g>
		<g>
			<g>
				<g>
					<path class="st1" d="M1369.3,73.7c-0.4,0,5.8-10.7,14.3-23.9c8.1-13,15.1-23.6,15.5-23.6s-5.8,10.7-14.3,23.9
						C1376.7,63.3,1369.7,73.7,1369.3,73.7z"/>
				</g>
			</g>
		</g>
		<g>
			<g>
				<g>
					<path class="st1" d="M1483.3,96.7c0,0,0-0.7,0-1.9s0-3,0-5.1c0-4.4,0-11.1,0-19.5c0-16.7,0-40.6-0.4-69.5l0.4,0.2
						c-56.2,0-124.1,0-197,0l0,0l0.8-0.5c0,34.8,0,67.5,0,96l-0.8-0.5c58.6,0,107.4,0.2,142.3,0.2c17.5,0,31,0,40.3,0
						c4.7,0,8.1,0,10.9,0c1.2,0,1.9,0,2.7,0C1483,96.7,1483.3,96.7,1483.3,96.7s-0.4,0-0.8,0c-0.8,0-1.6,0-2.7,0
						c-2.3,0-5.8,0-10.5,0c-9.3,0-22.9,0-40.3,0c-34.5,0-83.8,0-142.7,0.2h-0.8v-0.5c0-28.5,0-61.2,0-96V0h0.8l0,0
						c72.9,0,140.4,0,197,0h0.4v0.2c0,29-0.4,52.9-0.4,69.8c0,8.3,0,14.8,0,19.5c0,2.3,0,3.9,0,5.1
						C1483.3,96,1483.3,96.7,1483.3,96.7z"/>
				</g>
			</g>
		</g>
		<g>
			<g>
				<g>
					<path class="st1" d="M1484.9,14.8c0,0.2-44.6,0.5-99.3,0.5c-54.7,0-99.3-0.2-99.3-0.5c0-0.2,44.6-0.5,99.3-0.5
						C1440.3,14.6,1484.9,14.6,1484.9,14.8z"/>
				</g>
			</g>
		</g>
		<g>
			<g>
				<g>
					<path class="st1" d="M1302.2,7.9c0,0.9-1.2,1.6-2.7,1.6c-1.6,0-2.7-0.7-2.7-1.6s1.2-1.6,2.7-1.6
						C1301.1,6.3,1302.2,7,1302.2,7.9z"/>
				</g>
			</g>
			<g>
				<g>
					<ellipse class="st1" cx="1309.2" cy="7.9" rx="2.7" ry="1.6"/>
				</g>
			</g>
			<g>
				<g>
					<path class="st1" d="M1321.6,7.9c0,0.9-1.2,1.6-2.7,1.6c-1.6,0-2.7-0.7-2.7-1.6s1.2-1.6,2.7-1.6
						C1320.5,6.3,1321.6,7,1321.6,7.9z"/>
				</g>
			</g>
		</g>
	</g>
	<g>
		<g>
			<g>
				<g>
					<path class="st1" d="M899.6,169c0,0,0.9-0.5,2.2-1.6c1.7-1.1,3.9-2.4,6.5-4c5.6-3.5,13.4-8,22.1-13l0,0v0.8
						c-8.7-5.1-16.4-9.6-22.1-12.8c-2.6-1.6-4.8-2.9-6.5-4c-1.7-1.1-2.2-1.6-2.2-1.6s0.9,0.5,2.6,1.3c1.7,1.1,4.3,2.4,6.9,3.7
						c5.6,3.2,13.8,7.7,22.5,12.8l0.4,0.3l-0.4,0.3l0,0c-8.7,5.1-16.4,9.6-22.5,13c-2.6,1.6-5.2,2.9-6.9,3.7
						C900.9,168.5,899.6,169,899.6,169z"/>
				</g>
			</g>
		</g>
		<g>
			<g>
				<g>
					<path class="st1" d="M832.1,132.3c0,0-0.9,0.5-2.2,1.6c-1.7,1.1-3.9,2.4-6.5,4c-5.6,3.5-13.4,8-22.1,13l0,0v-0.8
						c8.7,5.1,16.4,9.6,22.1,12.8c2.6,1.6,4.8,2.9,6.5,4s2.2,1.6,2.2,1.6s-0.9-0.5-2.6-1.3c-1.7-1.1-4.3-2.4-6.9-3.7
						c-5.6-3.2-13.8-7.7-22.5-12.8l-0.4-0.3l0.4-0.3l0,0c8.7-5.1,16.4-9.6,22.5-13c2.6-1.6,5.2-2.9,6.9-3.7
						C831.3,132.9,832.1,132.3,832.1,132.3z"/>
				</g>
			</g>
		</g>
		<g>
			<g>
				<g>
					<path class="st1" d="M849.4,177.5c-0.4,0,6.5-12.2,16-27.4c9.1-14.9,16.9-27.1,17.3-27.1s-6.5,12.2-16,27.4
						C857.6,165.6,849.9,177.5,849.4,177.5z"/>
				</g>
			</g>
		</g>
		<g>
			<g>
				<g>
					<path class="st1" d="M976.6,203.8c0,0,0-0.8,0-2.1s0-3.5,0-5.8c0-5.1,0-12.8,0-22.3c0-19.1,0-46.5-0.4-79.7l0.4,0.3
						c-62.7,0-138.4,0-219.7,0l0,0l0.9-0.5c0,39.9,0,77.4,0,110.1l-0.9-0.5c65.3,0,119.8,0.3,158.7,0.3c19.5,0,34.6,0,45,0
						c5.2,0,9.1,0,12.1,0c1.3,0,2.2,0,3,0C976.2,203.8,976.6,203.8,976.6,203.8s-0.4,0-0.9,0c-0.9,0-1.7,0-3,0c-2.6,0-6.5,0-11.7,0
						c-10.4,0-25.5,0-45,0c-38.5,0-93.4,0-159.2,0.3H756v-0.5c0-32.7,0-70.2,0-110.1V93h0.9l0,0c81.3,0,156.6,0,219.7,0h0.4v0.3
						c0,33.2-0.4,60.6-0.4,80c0,9.6,0,17,0,22.3c0,2.7,0,4.5,0,5.8C976.6,203.1,976.6,203.8,976.6,203.8z"/>
				</g>
			</g>
		</g>
		<g>
			<g>
				<g>
					<path class="st1" d="M978.3,110c0,0.3-49.7,0.5-110.7,0.5s-110.7-0.3-110.7-0.5c0-0.3,49.7-0.5,110.7-0.5
						C928.6,109.7,978.3,109.7,978.3,110z"/>
				</g>
			</g>
		</g>
		<g>
			<g>
				<g>
					<path class="st1" d="M774.6,102c0,1.1-1.3,1.9-3,1.9c-1.7,0-3-0.8-3-1.9s1.3-1.9,3-1.9C773.3,100.2,774.6,101,774.6,102z"/>
				</g>
			</g>
			<g>
				<g>
					<ellipse class="st1" cx="782.4" cy="102" rx="3" ry="1.9"/>
				</g>
			</g>
			<g>
				<g>
					<path class="st1" d="M796.2,102c0,1.1-1.3,1.9-3,1.9c-1.7,0-3-0.8-3-1.9s1.3-1.9,3-1.9C794.9,100.2,796.2,101,796.2,102z"/>
				</g>
			</g>
		</g>
	</g>
</g>
<g id="Floor">
	<g>
		<g>
			<path class="st5" d="M1814.9,955.7c0,0.2-387,0.7-864.4,0.7s-864.4-0.2-864.4-0.7s387-0.7,864.4-0.7
				C1427.9,955,1814.9,955.3,1814.9,955.7z"/>
		</g>
	</g>
</g>
<path class="st6" d="M959.8,1080c243.5,1.2,476.6-54.2,658.8-132.1c1.6-0.7,2.7-1.2,4.3-1.9c182.3-78.8,402.9-214.7,240.4-391.3"/>
<path class="st6" d="M1863.4,554.7C1650.1,323.4,1072.3,405.9,954,293.2c-60.5-57.7-128-124.5-226.1-159
	c-93.5-33.1-202-45-296.7-40.6C93.5,109.4-49.6,300.9,15.2,511.1c86.5,280.5,478.9,566.8,944.6,568.9"/>
<path class="st7" d="M959.8,1080c243.5,1.2,476.6-54.2,658.8-132.1c1.6-0.7,2.7-1.2,4.3-1.9c182.3-78.8,402.9-214.7,240.4-391.3"/>
<path class="st7" d="M1863.4,554.7C1650.1,323.4,1072.3,405.9,954,293.2c-60.5-57.7-128-124.5-226.1-159
	c-93.5-33.1-202-45-296.7-40.6C93.5,109.4-49.6,300.9,15.2,511.1c86.5,280.5,478.9,566.8,944.6,568.9"/>
<g>
	<g>
		<g>
			<rect x="181.9" y="424.2" class="st8" width="153.2" height="65.1"/>
		</g>
	</g>
	<g>
		<g>
			<g>
				<g>
					<path class="st0" d="M336.3,433.7c0,0.2-34.5,0.2-77.2,0.2s-77.2-0.2-77.2-0.2s34.5-0.2,77.2-0.2
						C301.8,433.5,336.3,433.7,336.3,433.7z"/>
				</g>
			</g>
		</g>
		<g>
			<g>
				<g>
					<path class="st0" d="M194.3,429.1c0,0.7-0.8,1.2-1.9,1.2c-1.2,0-1.9-0.5-1.9-1.2s0.8-1.2,1.9-1.2
						C193.6,427.9,194.3,428.4,194.3,429.1z"/>
				</g>
			</g>
			<g>
				<g>
					<path class="st0" d="M201.7,429.1c0,0.7-0.8,1.2-1.9,1.2s-1.9-0.5-1.9-1.2s0.8-1.2,1.9-1.2S201.7,428.4,201.7,429.1z"/>
				</g>
			</g>
			<g>
				<g>
					<path class="st0" d="M209.5,429.1c0,0.7-0.8,1.2-1.9,1.2c-1.2,0-1.9-0.5-1.9-1.2s0.8-1.2,1.9-1.2
						C208.3,427.9,209.5,428.4,209.5,429.1z"/>
				</g>
			</g>
		</g>
	</g>
</g>
<g>
	<g>
		<g>
			<path class="st8" d="M1094.4,172.7c0-10,12.8-17.4,29.9-17.4c8.1,0,15.5,1.6,20.6,4.6l-2.7,1.6c-5-2.8-10.9-4.2-17.5-4.2
				c-14.7,0-25.6,6.5-25.6,15.1s11.2,15.1,25.6,15.1c6.6,0,12.8-1.2,17.5-4.2l2.7,1.6c-5,3.2-12.4,4.9-20.6,4.9
				C1106.8,190.1,1094.4,182.7,1094.4,172.7z"/>
		</g>
		<g>
			<path class="st8" d="M1152.2,185.4l1.9-1.9c3.9,2.5,11.2,4.4,19,4.4c11.6,0,16.7-3,16.7-6.7c0-10.2-35.7-4.2-35.7-16.7
				c0-4.9,6.2-9,20.2-9c6.2,0,12.8,1.2,17.5,3l-1.6,2.1c-4.7-1.9-10.5-2.8-15.9-2.8c-11.2,0-16.3,3-16.3,7
				c0,10.2,35.7,4.2,35.7,16.7c0,4.9-6.6,9-20.6,9C1164.6,190.1,1156.4,188.2,1152.2,185.4z"/>
		</g>
		<g>
			<path class="st8" d="M1202.2,185.4l1.9-1.9c3.9,2.5,11.2,4.4,19,4.4c11.6,0,16.7-3,16.7-6.7c0-10.2-35.7-4.2-35.7-16.7
				c0-4.9,6.2-9,20.2-9c6.2,0,12.8,1.2,17.5,3l-1.6,2.1c-4.7-1.9-10.5-2.8-15.9-2.8c-11.2,0-16.3,3-16.3,7
				c0,10.2,35.7,4.2,35.7,16.7c0,4.9-6.6,9-20.6,9C1214.6,190.1,1206.5,188.2,1202.2,185.4z"/>
		</g>
	</g>
	<g>
		<g>
			<g>
				<g>
					<path class="st8" d="M1292.5,217.2c0,0,0-0.7,0-1.9s0-3,0-5.3c0-4.6,0-11.4-0.4-19.9c0-17.2-0.4-41.7-0.4-71.9l0.8,0.5
						c-69.8,0-159,0-255.6,0.2l0,0l1.2-0.7c0,35,0,68.4,0,98.7l-0.8-0.5c74.8,0,138.8,0.2,183.8,0.2c22.5,0,40.3,0,52.7,0.2
						c6.2,0,10.9,0,14,0c1.6,0,2.7,0,3.5,0C1292.2,217.2,1292.5,217.2,1292.5,217.2s-0.4,0-1.2,0s-1.9,0-3.5,0c-3.1,0-7.8,0-14,0
						c-12.4,0-30.2,0-52.4,0.2c-45.4,0-109.4,0.2-184.6,0.2h-0.8v-0.5c0-30.4,0-63.5,0-98.7v-0.7h1.2l0,0c96.6,0,185.4,0,255.6,0.2
						h0.8v0.5c0,30.1-0.4,54.9-0.4,72.1c0,8.6,0,15.1-0.4,19.7c0,2.3,0,3.9,0,5.1C1292.5,216.7,1292.5,217.2,1292.5,217.2z"/>
				</g>
			</g>
		</g>
		<g>
			<g>
				<g>
					<path class="st8" d="M1292.5,133.3c0,0.2-57.4,0.7-128,0.7s-128-0.2-128-0.7c0-0.2,57.4-0.7,128-0.7
						C1235.2,132.6,1292.5,132.8,1292.5,133.3z"/>
				</g>
			</g>
		</g>
		<g>
			<g>
				<g>
					<path class="st8" d="M1056,126.1c0,0.9-1.6,1.6-3.1,1.6c-1.6,0-3.1-0.7-3.1-1.6s1.6-1.6,3.1-1.6
						C1054.4,124.5,1056,125.2,1056,126.1z"/>
				</g>
			</g>
			<g>
				<g>
					<path class="st8" d="M1067.2,126.1c0,0.9-1.6,1.6-3.1,1.6s-3.1-0.7-3.1-1.6s1.6-1.6,3.1-1.6S1067.2,125.2,1067.2,126.1z"/>
				</g>
			</g>
			<g>
				<g>
					<path class="st8" d="M1078.5,126.1c0,0.9-1.6,1.6-3.1,1.6s-3.1-0.7-3.1-1.6s1.6-1.6,3.1-1.6
						C1077.3,124.5,1078.5,125.2,1078.5,126.1z"/>
				</g>
			</g>
		</g>
	</g>
</g>
<g>
	<g>
		<rect x="1125" y="237.8" class="st1" width="543.3" height="264.7"/>
	</g>
	<g>
		<rect x="1086.6" y="254.8" class="st9" width="543.3" height="264.7"/>
	</g>
	<g>
		<g>
			<rect x="1033.1" y="273.1" class="st0" width="558" height="271.7"/>
		</g>
		<g>
			<g>
				<path class="st5" d="M1591.1,544.7c0,0,0-1.6,0-5.1c0-3.2,0-8.1,0-14.6c0-12.7,0-31.3-0.4-54.9c0-47.5-0.4-115.2-0.4-197
					l0.8,0.5c-159.8,0-351.3,0-558,0l0,0l1.2-0.7c0,98.3,0,191,0,271.7l-0.8-0.5c166,0,305.2,0.2,403.3,0.2c48.9,0,87.6,0,114,0.2
					c13.2,0,23.3,0,30.2,0c3.5,0,5.8,0,7.8,0C1590.4,544.7,1591.1,544.7,1591.1,544.7s-0.8,0-2.7,0s-4.3,0-7.8,0c-7,0-17.1,0-29.9,0
					c-26.4,0-64.8,0-114,0.2c-98.1,0-237.7,0.2-403.7,0.2h-0.8v-0.5c0-80.7,0-173.4,0-271.7v-0.7h1.2l0,0c206.3,0,398.3,0,558,0h0.8
					v0.5c0,82.1-0.4,150-0.4,197.5c0,23.6,0,42.2-0.4,54.9c0,6.3,0,11.1,0,14.4C1591.1,543.1,1591.1,544.7,1591.1,544.7z"/>
			</g>
		</g>
	</g>
	<g>
		<path class="st8" d="M1101.4,312.2l-5.8,1.4l5.8,1.4v1.4l-8.5-1.9v-1.4l8.5-1.9V312.2z"/>
		<path class="st8" d="M1115.3,309.9v7.4h-3.1v-3h-5.8v3h-3.1v-7.4h3.1v3h5.8v-3H1115.3z"/>
		<path class="st8" d="M1121.1,311.3h-3.9v-1.4h10.9v1.4h-3.9v6h-3.1V311.3z"/>
		<path class="st8" d="M1140.9,317.3v-4.4l-3.9,3.7h-1.2l-3.9-3.7v4.4h-2.7v-7.4h2.3l4.7,4.6l4.7-4.6h2.3v7.4H1140.9z"/>
		<path class="st8" d="M1146.7,309.9h3.1v6h6.2v1.4h-9.3V309.9z"/>
		<path class="st8" d="M1165.7,312.9v1.4l-8.5,1.9v-1.4l5.8-1.4l-5.8-1.4v-0.9L1165.7,312.9z"/>
	</g>
	<g>
		<path class="st8" d="M1096.3,518.3l-6.2,1.4l5.8,1.4v1.4l-8.5-1.9v-1.4l8.5-1.9v0.9H1096.3z"/>
		<path class="st8" d="M1102.5,514.4h2.3l-5.8,10.2h-2.3L1102.5,514.4z"/>
		<path class="st8" d="M1117.3,516v7.4h-3.1v-3h-5.8v3h-2.7V516h3.1v3h5.8v-3L1117.3,516L1117.3,516z"/>
		<path class="st8" d="M1123.1,517.4h-3.9V516h10.9v1.4h-3.9v6h-3.1V517.4z"/>
		<path class="st8" d="M1142.9,523.4V519l-3.9,3.7h-1.2l-3.9-3.7v4.4h-2.7V516h2.3l4.7,4.6l4.7-4.6h2.3v7.4L1142.9,523.4
			L1142.9,523.4z"/>
		<path class="st8" d="M1148.7,516h3.1v6h6.2v1.4h-9.3V516z"/>
		<path class="st8" d="M1167.7,519v1.4l-8.5,1.9v-1.4l5.8-1.4l-5.8-1.4v-1.4L1167.7,519z"/>
	</g>
	<g>
		<path d="M1140.9,332.9l-6.2,1.4l6.2,1.4v0.9l-8.1-1.9v-0.9l8.1-1.9V332.9z"/>
		<path d="M1154.9,330.6v7.4h-1.9v-3.2h-7.4v3.2h-1.9v-7.4h1.9v3.2h7.4v-3.2H1154.9z"/>
		<path d="M1167.7,337.3v0.9h-9.3v-7.4h8.9v0.9h-7v2.3h6.2v0.9h-6.2v2.3L1167.7,337.3L1167.7,337.3z"/>
		<path d="M1178.5,336.3h-6.6l-1.6,1.9h-1.9l5.8-7.4h1.9l5.8,7.4h-1.9L1178.5,336.3z M1177.8,335.4l-2.7-3.7l-2.7,3.7H1177.8z"/>
		<path d="M1183.6,330.6h5.4c3.9,0,7,1.6,7,3.7c0,2.3-2.7,3.7-7,3.7h-5.4V330.6z M1189,337.3c3.1,0,5-1.2,5-2.8c0-1.6-1.9-2.8-5-2.8
			h-3.5v5.6H1189z"/>
		<path d="M1206.1,334v0.9l-8.1,1.9v-0.9l6.6-1.4l-6.6-1.4v-0.9L1206.1,334z"/>
		<path d="M1140.9,358.8l-6.2,1.4l6.2,1.4v0.9l-8.1-1.9v-0.9l8.1-1.9V358.8z"/>
		<path d="M1146.4,357.4h-4.3v-0.9h10.5v0.9h-4.3v6.5h-1.9V357.4z"/>
		<path d="M1154.5,356.5h1.9v7.4h-1.9V356.5z"/>
		<path d="M1162.6,357.4h-4.3v-0.9h10.5v0.9h-4.3v6.5h-1.9V357.4z"/>
		<path d="M1170.4,356.5h1.9v6.5h7v0.9h-8.5v-7.4H1170.4z"/>
		<path d="M1190.2,363v0.9h-9.3v-7.4h8.9v0.9h-6.6v2.3h6.2v0.9h-6.2v2.3L1190.2,363L1190.2,363z"/>
		<path d="M1200.6,359.8v0.9l-8.1,1.9v-0.9l6.6-1.4l-6.6-1.4v-0.9L1200.6,359.8z"/>
		<path d="M1208.4,356.5h1.9v6.5h7v0.9h-8.5v-7.4H1208.4z"/>
		<path d="M1218.1,361.2c0-1.6,1.9-3,5-3c2.7,0,5,1.2,5,3c0,1.6-1.9,3-5,3C1220,363.9,1218.1,362.8,1218.1,361.2z M1226.2,361.2
			c0-1.2-1.6-2.1-3.1-2.1c-1.9,0-3.1,0.7-3.1,2.1c0,1.2,1.6,2.1,3.1,2.1S1226.2,362.3,1226.2,361.2z"/>
		<path d="M1235.5,358.1v0.9h-0.4c-1.9,0-3.1,0.7-3.1,1.9v2.8h-1.6v-5.8h1.6v0.9C1232.4,358.6,1233.6,358.1,1235.5,358.1z"/>
		<path d="M1246,361.4h-7.8c0.4,0.9,1.6,1.6,3.5,1.6c1.2,0,1.9-0.2,2.7-0.7l0.8,0.7c-0.8,0.7-2.3,0.9-3.9,0.9c-3.1,0-5-1.2-5-3
			c0-1.6,1.9-3,4.7-3c2.7,0,4.7,1.2,4.7,3C1246,361.2,1246,361.4,1246,361.4z M1238.3,360.7h6.2c0-0.9-1.6-1.6-3.1-1.6
			C1239.8,359.1,1238.3,359.8,1238.3,360.7z"/>
		<path d="M1264.2,360.7v3.2h-1.6v-3.2c0-1.2-0.8-1.6-2.3-1.6s-2.7,0.7-2.7,1.9v3h-1.6v-3.2c0-1.2-0.8-1.6-2.3-1.6
			c-1.6,0-2.7,0.7-2.7,1.9v3h-1.6v-5.8h1.6v0.9c0.8-0.7,1.9-0.9,3.1-0.9c1.6,0,2.7,0.2,3.5,1.2c0.8-0.7,1.9-1.2,3.5-1.2
			C1262.7,358.1,1264.2,359.1,1264.2,360.7z"/>
		<path d="M1272,356.5c0-0.5,0.4-0.7,1.2-0.7c0.8,0,1.2,0.2,1.2,0.7c0,0.5-0.4,0.7-1.2,0.7C1272.4,357.2,1272,357,1272,356.5z
			 M1272.4,358.4h1.6v5.8h-1.6V358.4z"/>
		<path d="M1287.1,361.2c0,1.9-1.9,3-4.7,3c-1.2,0-2.7-0.2-3.5-0.9v3h-1.6v-7.9h1.6v0.9c0.8-0.7,1.9-0.9,3.5-0.9
			C1285.2,358.1,1287.1,359.3,1287.1,361.2z M1285.6,361.2c0-1.2-1.6-2.1-3.1-2.1c-1.9,0-3.1,0.7-3.1,2.1c0,1.2,1.6,2.1,3.1,2.1
			S1285.6,362.3,1285.6,361.2z"/>
		<path d="M1288.3,363.5l0.8-0.9c0.8,0.2,1.9,0.7,3.5,0.7s2.3-0.2,2.3-0.7c0-1.4-6.2-0.2-6.2-2.5c0-0.9,1.6-1.6,3.9-1.6
			c1.2,0,2.7,0.2,3.5,0.5l-0.8,0.9c-0.8-0.2-1.9-0.5-2.7-0.5c-1.6,0-2.3,0.2-2.3,0.7c0,1.4,6.2,0.2,6.2,2.5c0,0.9-1.6,1.6-4.3,1.6
			C1290.6,363.9,1289.1,363.7,1288.3,363.5z"/>
		<path d="M1307.3,358.4v5.8h-1.6v-0.9c-0.8,0.7-1.9,0.9-3.1,0.9c-2.3,0-4.3-0.7-4.3-2.5v-3.2h1.6v3.2c0,1.2,0.8,1.6,2.7,1.6
			c1.9,0,3.1-0.7,3.1-1.9v-3L1307.3,358.4L1307.3,358.4z"/>
		<path d="M1326.7,360.7v3.2h-1.6v-3.2c0-1.2-0.8-1.6-2.3-1.6c-1.6,0-2.7,0.7-2.7,1.9v3h-1.6v-3.2c0-1.2-0.8-1.6-2.3-1.6
			c-1.6,0-2.7,0.7-2.7,1.9v3h-1.6v-5.8h1.6v0.9c0.8-0.7,1.9-0.9,3.1-0.9c1.6,0,2.7,0.2,3.5,1.2c0.8-0.7,1.9-1.2,3.5-1.2
			C1324.7,358.1,1326.7,359.1,1326.7,360.7z"/>
		<path d="M1342.2,358.8l-6.2,1.4l6.2,1.4v0.9l-8.1-1.9v-0.9l8.1-1.9V358.8z"/>
		<path d="M1348.8,354.9h1.6l-5.8,10.2h-1.6L1348.8,354.9z"/>
		<path d="M1354.6,357.4h-4.3v-0.9h10.5v0.9h-4.3v6.5h-1.9V357.4z"/>
		<path d="M1362.7,356.5h1.9v7.4h-1.9V356.5z"/>
		<path d="M1370.9,357.4h-4.3v-0.9h10.5v0.9h-4.3v6.5h-1.9V357.4z"/>
		<path d="M1378.6,356.5h1.9v6.5h7v0.9h-8.5v-7.4H1378.6z"/>
		<path d="M1398.4,363v0.9h-9.3v-7.4h8.9v0.9h-7v2.3h6.2v0.9h-6.2v2.3L1398.4,363L1398.4,363z"/>
		<path d="M1408.9,359.8v0.9l-8.1,1.9v-0.9l6.6-1.4l-6.6-1.4v-0.9L1408.9,359.8z"/>
		<path d="M1140.9,384.6l-6.2,1.4l6.2,1.4v0.9l-8.1-1.9v-0.9l8.1-1.9V384.6z"/>
		<path d="M1147.5,380.6h1.6l-5.8,10.2h-1.6L1147.5,380.6z"/>
		<path d="M1161.1,382.2v7.4h-1.9v-3.2h-7v3.2h-1.9v-7.4h1.9v3.2h7.4v-3.2H1161.1z"/>
		<path d="M1173.9,388.7v0.9h-9.3v-7.4h8.9v0.9h-7v2.3h6.2v0.9h-6.2v2.3L1173.9,388.7L1173.9,388.7z"/>
		<path d="M1184.7,387.8h-6.6l-1.6,1.9h-1.9l5.8-7.4h1.9l5.8,7.4h-1.9L1184.7,387.8z M1184.4,387.1l-2.7-3.7l-2.7,3.7H1184.4z"/>
		<path d="M1190.2,382.2h5.4c3.9,0,7,1.6,7,3.7c0,2.3-2.7,3.7-7,3.7h-5.4V382.2z M1195.2,388.7c3.1,0,5-1.2,5-2.8
			c0-1.6-1.9-2.8-5-2.8h-3.5v5.6H1195.2z"/>
		<path d="M1212.3,385.5v0.9l-8.1,1.9v-0.7l6.6-1.4l-6.6-1.4v-0.9L1212.3,385.5z"/>
	</g>
	<g>
		<path d="M1107.6,406.8l-6.2,1.4l6.2,1.4v0.9l-8.1-1.9v-0.9l8.1-1.9V406.8z"/>
		<path d="M1121.1,410.1c0,1.4-1.6,2.1-4.7,2.1h-5.8v-7.4h5.8c2.7,0,4.7,0.7,4.7,1.9c0,0.9-0.8,1.4-1.6,1.6
			C1120.4,408.4,1121.1,409.1,1121.1,410.1z M1112.2,405.4v2.3h3.9c1.9,0,2.7-0.5,2.7-1.2c0-0.7-1.2-1.2-2.7-1.2H1112.2z
			 M1119.6,410.1c0-0.9-1.2-1.2-3.1-1.2h-4.3v2.5h4.3C1118.4,411.2,1119.6,411,1119.6,410.1z"/>
		<path d="M1123.1,408.4c0-2.3,2.7-3.9,6.6-3.9c3.9,0,6.6,1.6,6.6,3.9s-2.7,3.9-6.6,3.9C1125.8,412.2,1123.1,410.5,1123.1,408.4z
			 M1134.7,408.4c0-1.6-1.9-2.8-5-2.8c-2.7,0-5,1.2-5,2.8s1.9,2.8,5,2.8C1132.4,411.2,1134.7,410.1,1134.7,408.4z"/>
		<path d="M1139,404.5h5.4c3.9,0,7,1.6,7,3.7c0,2.3-2.7,3.7-7,3.7h-5.4V404.5z M1144.4,411.2c3.1,0,5-1.2,5-2.8s-1.9-2.8-5-2.8h-3.5
			v5.6H1144.4z"/>
		<path d="M1158.4,409.6v2.5h-1.9v-2.5l-5-4.9h1.9l3.9,3.9l3.9-3.9h1.9L1158.4,409.6z"/>
		<path d="M1172.3,408v0.9l-8.1,1.9v-0.9l6.6-1.4l-6.6-1.4v-0.9L1172.3,408z"/>
		<path d="M1107.6,432.8l-6.2,1.4l6.2,1.4v0.9l-8.1-1.9v-0.9l8.1-1.9V432.8z"/>
		<path d="M1121.1,430.5v7.4h-1.9v-3.2h-7.4v3.2h-1.9v-7.4h1.9v3.2h7.4v-3.2H1121.1z"/>
		<path d="M1128.1,430.5v7.4h-1.9v-6.5h-2.7v-0.9H1128.1z"/>
		<path d="M1139,433.7v0.9l-8.1,1.9v-0.9l6.6-1.4l-6.6-1.4v-0.9L1139,433.7z"/>
		<path d="M1147.1,430.5h1.2v7h7v0.7h-8.5v-7.6H1147.1z"/>
		<path d="M1156.4,435.1c0-1.6,1.9-2.8,4.7-2.8c2.7,0,4.7,1.2,4.7,2.8c0,1.6-1.9,2.8-4.7,2.8
			C1158.4,437.9,1156.4,436.7,1156.4,435.1z M1164.6,435.1c0-1.4-1.6-2.3-3.5-2.3c-1.9,0-3.5,0.9-3.5,2.3c0,1.4,1.6,2.3,3.5,2.3
			C1163,437.2,1164.6,436.5,1164.6,435.1z"/>
		<path d="M1173.5,432.3v0.7h-0.4c-1.9,0-3.1,0.7-3.1,2.1v2.8h-1.2v-5.6h1.2v1.2C1170.4,432.5,1171.6,432.3,1173.5,432.3z"/>
		<path d="M1184,435.3h-7.8c0,1.2,1.6,1.9,3.9,1.9c1.2,0,2.3-0.2,2.7-0.7l0.8,0.5c-0.8,0.7-2.3,0.9-3.5,0.9c-3.1,0-5-1.2-5-2.8
			c0-1.6,1.9-2.8,4.7-2.8c2.7,0,4.7,1.2,4.7,2.8C1184,435.1,1184,435.3,1184,435.3z M1175.8,434.6h6.6c0-1.2-1.6-1.9-3.5-1.9
			C1177.4,432.8,1176.2,433.7,1175.8,434.6z"/>
		<path d="M1202.2,434.6v3.2h-1.2v-3.2c0-1.2-1.2-1.9-2.7-1.9c-1.9,0-3.1,0.7-3.1,2.1v3h-1.2v-3.2c0-1.2-1.2-1.9-2.7-1.9
			c-1.9,0-3.1,0.7-3.1,2.1v3h-1.2v-5.6h1.2v0.9c0.8-0.7,1.9-1.2,3.5-1.2s2.7,0.5,3.5,1.2c0.8-0.7,1.9-1.2,3.9-1.2
			C1200.6,432.3,1202.2,433,1202.2,434.6z"/>
		<path d="M1210,430.5c0-0.2,0.4-0.5,0.8-0.5s0.8,0.2,0.8,0.5c0,0.2-0.4,0.5-0.8,0.5S1210,430.7,1210,430.5z M1210.3,432.3h1.2v5.6
			h-1.2V432.3z"/>
		<path d="M1224.7,435.1c0,1.6-1.9,2.8-4.7,2.8c-1.6,0-2.7-0.5-3.5-1.2v3.2h-1.2v-7.6h1.2v1.2c0.8-0.7,1.9-1.2,3.5-1.2
			C1222.7,432.3,1224.7,433.5,1224.7,435.1z M1223.5,435.1c0-1.4-1.6-2.3-3.5-2.3c-1.9,0-3.5,0.9-3.5,2.3c0,1.4,1.6,2.3,3.5,2.3
			C1222,437.2,1223.5,436.5,1223.5,435.1z"/>
		<path d="M1225.8,437.2l0.4-0.7c0.8,0.5,1.9,0.7,3.5,0.7c1.9,0,2.7-0.5,2.7-0.9c0-1.4-6.2-0.2-6.2-2.5c0-0.9,1.2-1.6,3.9-1.6
			c1.2,0,2.7,0.2,3.5,0.5l-0.4,0.7c-0.8-0.2-1.9-0.5-2.7-0.5c-1.6,0-2.3,0.5-2.3,0.9c0,1.6,6.2,0.5,6.2,2.5c0,0.9-1.6,1.6-3.9,1.6
			C1228.2,437.9,1226.6,437.6,1225.8,437.2z"/>
		<path d="M1244.5,432.3v5.6h-1.2V437c-0.8,0.7-1.9,1.2-3.5,1.2c-2.3,0-3.9-0.7-3.9-2.3v-3.2h1.2v3.2c0,1.2,1.2,1.9,2.7,1.9
			c1.9,0,3.1-0.7,3.1-2.1v-3h1.6V432.3z"/>
		<path d="M1263.9,434.6v3.2h-1.2v-3.2c0-1.2-1.2-1.9-2.7-1.9c-1.9,0-3.1,0.7-3.1,2.1v3h-1.2v-3.2c0-1.2-1.2-1.9-2.7-1.9
			c-1.9,0-3.1,0.7-3.1,2.1v3h-1.2v-5.6h1.2v0.9c0.8-0.7,1.9-1.2,3.5-1.2c1.6,0,2.7,0.5,3.5,1.2c0.8-0.7,1.9-1.2,3.9-1.2
			C1262.3,432.3,1263.9,433,1263.9,434.6z"/>
		<path d="M1280.5,430v7.9h-1.2v-1.2c-0.8,0.7-1.9,1.2-3.5,1.2c-2.7,0-4.7-1.2-4.7-2.8c0-1.6,1.9-2.8,4.7-2.8c1.6,0,2.7,0.5,3.5,1.2
			V430H1280.5z M1279.4,435.1c0-1.4-1.6-2.3-3.5-2.3s-3.5,0.9-3.5,2.3c0,1.4,1.6,2.3,3.5,2.3
			C1277.8,437.2,1279.4,436.5,1279.4,435.1z"/>
		<path d="M1283.2,435.1c0-1.6,1.9-2.8,4.7-2.8s4.7,1.2,4.7,2.8c0,1.6-1.9,2.8-4.7,2.8S1283.2,436.7,1283.2,435.1z M1291.4,435.1
			c0-1.4-1.6-2.3-3.5-2.3s-3.5,0.9-3.5,2.3c0,1.4,1.6,2.3,3.5,2.3C1289.8,437.2,1291.4,436.5,1291.4,435.1z"/>
		<path d="M1295.3,430h1.2v7.9h-1.2V430z"/>
		<path d="M1299.1,435.1c0-1.6,1.9-2.8,4.7-2.8c2.7,0,4.7,1.2,4.7,2.8c0,1.6-1.9,2.8-4.7,2.8
			C1301.1,437.9,1299.1,436.7,1299.1,435.1z M1307.7,435.1c0-1.4-1.6-2.3-3.5-2.3c-1.9,0-3.5,0.9-3.5,2.3c0,1.4,1.6,2.3,3.5,2.3
			C1306.1,437.2,1307.7,436.5,1307.7,435.1z"/>
		<path d="M1316.2,432.3v0.7h-0.4c-1.9,0-3.1,0.7-3.1,2.1v2.8h-1.2v-5.6h1.2v1.2C1313.1,432.5,1314.3,432.3,1316.2,432.3z"/>
		<path d="M1322,437.2l0.4-0.7c0.8,0.5,1.9,0.7,3.5,0.7c1.9,0,2.7-0.5,2.7-0.9c0-1.4-6.2-0.2-6.2-2.5c0-0.9,1.2-1.6,3.9-1.6
			c1.2,0,2.7,0.2,3.5,0.5l-0.4,0.7c-0.8-0.2-1.9-0.5-2.7-0.5c-1.6,0-2.3,0.5-2.3,0.9c0,1.6,6.2,0.5,6.2,2.5c0,0.9-1.6,1.6-3.9,1.6
			C1324.3,437.9,1322.8,437.6,1322,437.2z"/>
		<path d="M1331.7,430.5c0-0.2,0.4-0.5,0.8-0.5s0.8,0.2,0.8,0.5c0,0.2-0.4,0.5-0.8,0.5S1331.7,430.7,1331.7,430.5z M1332.1,432.3
			h1.2v5.6h-1.2V432.3z"/>
		<path d="M1341.8,437.6c-0.4,0.2-1.2,0.5-1.9,0.5c-1.9,0-2.7-0.7-2.7-1.6V433h-1.6v-0.7h1.6v-1.2h1.2v1.2h2.7v0.7h-2.7v3.5
			c0,0.7,0.4,0.9,1.6,0.9c0.4,0,1.2,0,1.6-0.2L1341.8,437.6z"/>
		<path d="M1356.1,434.4v3.5h-1.2V437c-0.4,0.7-1.6,0.9-3.1,0.9c-2.3,0-3.5-0.7-3.5-1.6c0-0.9,0.8-1.6,3.5-1.6h3.1v-0.2
			c0-0.9-0.8-1.4-2.7-1.4c-1.2,0-2.3,0.2-3.1,0.7l-0.4-0.5c0.8-0.5,2.3-0.7,3.9-0.7C1354.6,432.3,1356.1,433,1356.1,434.4z
			 M1355,436.3v-0.9h-3.1c-1.9,0-2.3,0.5-2.3,0.9c0,0.7,0.8,1.2,2.3,1.2S1354.2,437,1355,436.3z"/>
		<path d="M1375.1,434.6v3.2h-1.2v-3.2c0-1.2-1.2-1.9-2.7-1.9c-1.9,0-3.1,0.7-3.1,2.1v3h-1.2v-3.2c0-1.2-1.2-1.9-2.7-1.9
			c-1.9,0-3.1,0.7-3.1,2.1v3h-1.2v-5.6h1.2v0.9c0.8-0.7,1.9-1.2,3.5-1.2s2.7,0.5,3.5,1.2c0.8-0.7,1.9-1.2,3.9-1.2
			C1373.6,432.3,1375.1,433,1375.1,434.6z"/>
		<path d="M1386.8,435.3h-7.8c0,1.2,1.6,1.9,3.9,1.9c1.2,0,2.3-0.2,2.7-0.7l0.8,0.5c-0.8,0.7-2.3,0.9-3.5,0.9c-3.1,0-5-1.2-5-2.8
			c0-1.6,1.9-2.8,4.7-2.8c2.7,0,4.7,1.2,4.7,2.8C1386.8,435.1,1386.8,435.3,1386.8,435.3z M1379,434.6h6.6c0-1.2-1.6-1.9-3.5-1.9
			C1380.6,432.8,1379,433.7,1379,434.6z"/>
		<path d="M1394.5,437.6c-0.4,0.2-1.2,0.5-1.9,0.5c-1.9,0-2.7-0.7-2.7-1.6V433h-1.6v-0.7h1.6v-1.2h1.2v1.2h2.7v0.7h-2.7v3.5
			c0,0.7,0.4,0.9,1.6,0.9c0.4,0,1.2,0,1.6-0.2L1394.5,437.6z"/>
		<path d="M1398,437.4c0,0.2,0,0.2-0.4,0.7l-0.8,1.4h-0.8l0.8-1.6c-0.4,0-0.8-0.2-0.8-0.5c0-0.2,0.4-0.7,0.8-0.7
			C1397.6,436.7,1398,437,1398,437.4z"/>
		<path d="M1404.6,435.1c0-1.6,1.9-2.8,5-2.8c1.6,0,3.1,0.5,3.9,1.2l-0.8,0.5c-0.8-0.5-1.6-0.9-2.7-0.9c-1.9,0-3.5,0.9-3.5,2.3
			c0,1.4,1.6,2.3,3.5,2.3c1.2,0,1.9-0.2,2.7-0.9l0.8,0.5c-0.8,0.7-1.9,1.2-3.9,1.2C1406.6,437.9,1404.6,436.7,1404.6,435.1z"/>
		<path d="M1414.7,435.1c0-1.6,1.9-2.8,4.7-2.8c2.7,0,4.7,1.2,4.7,2.8c0,1.6-1.9,2.8-4.7,2.8
			C1416.6,437.9,1414.7,436.7,1414.7,435.1z M1422.8,435.1c0-1.4-1.6-2.3-3.5-2.3c-1.9,0-3.5,0.9-3.5,2.3c0,1.4,1.6,2.3,3.5,2.3
			C1421.3,437.2,1422.8,436.5,1422.8,435.1z"/>
		<path d="M1435.3,434.6v3.2h-1.2v-3.2c0-1.2-1.2-1.9-2.7-1.9c-1.9,0-3.5,0.7-3.5,2.1v3h-1.2v-5.6h1.2v1.2c0.8-0.7,1.9-1.2,3.5-1.2
			C1433.7,432.3,1435.3,433,1435.3,434.6z"/>
		<path d="M1437.6,437.2l0.4-0.7c0.8,0.5,1.9,0.7,3.5,0.7c1.9,0,2.7-0.5,2.7-0.9c0-1.4-6.2-0.2-6.2-2.5c0-0.9,1.2-1.6,3.9-1.6
			c1.2,0,2.7,0.2,3.5,0.5l-0.4,0.7c-0.8-0.2-1.9-0.5-2.7-0.5c-1.6,0-2.3,0.5-2.3,0.9c0,1.6,6.2,0.5,6.2,2.5c0,0.9-1.6,1.6-3.9,1.6
			C1439.9,437.9,1438.4,437.6,1437.6,437.2z"/>
		<path d="M1455.8,435.3h-7.8c0,1.2,1.6,1.9,3.9,1.9c1.2,0,2.3-0.2,2.7-0.7l0.8,0.5c-0.8,0.7-2.3,0.9-3.5,0.9c-3.1,0-5-1.2-5-2.8
			c0-1.6,1.9-2.8,4.7-2.8c2.7,0,4.7,1.2,4.7,2.8C1455.8,435.1,1455.8,435.3,1455.8,435.3z M1448.1,434.6h6.6c0-1.2-1.6-1.9-3.5-1.9
			C1449.6,432.8,1448.1,433.7,1448.1,434.6z"/>
		<path d="M1457.7,435.1c0-1.6,1.9-2.8,5-2.8c1.6,0,3.1,0.5,3.9,1.2l-0.8,0.5c-0.8-0.5-1.6-0.9-2.7-0.9c-1.9,0-3.5,0.9-3.5,2.3
			c0,1.4,1.6,2.3,3.5,2.3c1.2,0,1.9-0.2,2.7-0.9l0.8,0.5c-0.8,0.7-1.9,1.2-3.9,1.2C1459.7,437.9,1457.7,436.7,1457.7,435.1z"/>
		<path d="M1473.6,437.6c-0.4,0.2-1.2,0.5-1.9,0.5c-1.9,0-2.7-0.7-2.7-1.6V433h-1.6v-0.7h1.6v-1.2h1.2v1.2h2.7v0.7h-2.7v3.5
			c0,0.7,0.4,0.9,1.6,0.9c0.4,0,1.2,0,1.6-0.2L1473.6,437.6z"/>
		<path d="M1484.1,435.3h-7.8c0,1.2,1.6,1.9,3.9,1.9c1.2,0,2.3-0.2,2.7-0.7l0.8,0.5c-0.8,0.7-2.3,0.9-3.5,0.9c-3.1,0-5-1.2-5-2.8
			c0-1.6,1.9-2.8,4.7-2.8s4.7,1.2,4.7,2.8C1484.1,435.1,1484.1,435.3,1484.1,435.3z M1476,434.6h6.6c0-1.2-1.6-1.9-3.5-1.9
			C1477.5,432.8,1476.4,433.7,1476,434.6z"/>
		<path d="M1491.5,437.6c-0.4,0.2-1.2,0.5-1.9,0.5c-1.9,0-2.7-0.7-2.7-1.6V433h-1.6v-0.7h1.6v-1.2h1.2v1.2h2.7v0.7h-2.7v3.5
			c0,0.7,0.4,0.9,1.6,0.9c0.4,0,1.2,0,1.6-0.2L1491.5,437.6z"/>
		<path d="M1502.3,432.3v5.6h-1.2V437c-0.8,0.7-1.9,1.2-3.5,1.2c-2.3,0-3.9-0.7-3.9-2.3v-3.2h1.2v3.2c0,1.2,1.2,1.9,2.7,1.9
			c1.9,0,3.1-0.7,3.1-2.1v-3h1.6V432.3z"/>
		<path d="M1514.4,435.3h-7.8c0,1.2,1.6,1.9,3.9,1.9c1.2,0,2.3-0.2,2.7-0.7l0.8,0.5c-0.8,0.7-2.3,0.9-3.5,0.9c-3.1,0-5-1.2-5-2.8
			c0-1.6,1.9-2.8,4.7-2.8c2.7,0,4.7,1.2,4.7,2.8C1514.4,435.1,1514.4,435.3,1514.4,435.3z M1506.2,434.6h6.6c0-1.2-1.6-1.9-3.5-1.9
			C1507.8,432.8,1506.6,433.7,1506.2,434.6z"/>
		<path d="M1521.7,432.3v0.7h-0.4c-1.9,0-3.1,0.7-3.1,2.1v2.8h-1.6v-5.6h1.2v1.2C1518.6,432.5,1519.8,432.3,1521.7,432.3z"/>
		<path d="M1107.2,447.4v3.5h-1.6v-0.9c-0.4,0.7-1.6,0.9-3.1,0.9c-2.3,0-3.5-0.7-3.5-1.6s0.8-1.6,3.5-1.6h3.1v-0.2
			c0-0.9-0.8-1.4-2.7-1.4c-1.2,0-2.3,0.2-3.1,0.7l-0.4-0.5c0.8-0.5,2.3-0.7,3.9-0.7C1105.6,445.1,1107.2,445.8,1107.2,447.4z
			 M1105.6,449v-0.9h-3.1c-1.9,0-2.3,0.5-2.3,0.9c0,0.7,0.8,1.2,2.3,1.2S1105.2,449.9,1105.6,449z"/>
		<path d="M1119.2,442.7v7.9h-1.2v-1.2c-0.8,0.7-1.9,1.2-3.5,1.2c-2.7,0-4.7-1.2-4.7-2.8c0-1.6,1.9-2.8,4.7-2.8
			c1.6,0,2.7,0.5,3.5,1.2v-3.5H1119.2z M1118,448.1c0-1.4-1.6-2.3-3.5-2.3s-3.5,0.9-3.5,2.3s1.6,2.3,3.5,2.3
			C1116.5,450.2,1118,449.2,1118,448.1z"/>
		<path d="M1122.3,443.4c0-0.2,0.4-0.5,0.8-0.5s0.8,0.2,0.8,0.5c0,0.2-0.4,0.5-0.8,0.5S1122.3,443.7,1122.3,443.4z M1122.7,445.1
			h1.2v5.6h-1.2V445.1z"/>
		<path d="M1137,448.1c0,1.6-1.9,2.8-4.7,2.8c-1.6,0-2.7-0.5-3.5-1.2v3.2h-1.2v-7.6h1.2v1.2c0.8-0.7,1.9-1.2,3.5-1.2
			C1135.1,445.1,1137,446.2,1137,448.1z M1135.9,448.1c0-1.4-1.6-2.3-3.5-2.3c-1.9,0-3.5,0.9-3.5,2.3s1.6,2.3,3.5,2.3
			C1134.3,450.2,1135.9,449.2,1135.9,448.1z"/>
		<path d="M1139.4,443.4c0-0.2,0.4-0.5,0.8-0.5s0.8,0.2,0.8,0.5c0,0.2-0.4,0.5-0.8,0.5C1139.8,443.9,1139.4,443.7,1139.4,443.4z
			 M1139.8,445.1h1.2v5.6h-1.2V445.1z"/>
		<path d="M1143.3,450.2l0.4-0.7c0.8,0.5,1.9,0.7,3.5,0.7c1.9,0,2.7-0.5,2.7-0.9c0-1.4-6.2-0.2-6.2-2.5c0-0.9,1.2-1.6,3.9-1.6
			c1.2,0,2.7,0.2,3.5,0.5l-0.4,0.7c-0.8-0.2-1.9-0.5-2.7-0.5c-1.6,0-2.3,0.5-2.3,0.9c0,1.6,6.2,0.5,6.2,2.5c0,0.9-1.6,1.6-3.9,1.6
			C1145.6,450.9,1144,450.6,1143.3,450.2z"/>
		<path d="M1152.6,448.1c0-1.6,1.9-2.8,5-2.8c1.6,0,3.1,0.5,3.9,1.2l-0.8,0.5c-0.8-0.5-1.6-0.9-2.7-0.9c-1.9,0-3.5,0.9-3.5,2.3
			c0,1.4,1.6,2.3,3.5,2.3c1.2,0,1.9-0.2,2.7-0.9l0.8,0.5c-0.8,0.7-1.9,1.2-3.9,1.2C1154.5,450.9,1152.6,449.7,1152.6,448.1z"/>
		<path d="M1163,443.4c0-0.2,0.4-0.5,0.8-0.5s0.8,0.2,0.8,0.5c0,0.2-0.4,0.5-0.8,0.5S1163,443.7,1163,443.4z M1163.4,445.1h1.2v5.6
			h-1.2V445.1z"/>
		<path d="M1177,447.6v3.2h-1.2v-3.2c0-1.2-1.2-1.9-2.7-1.9c-1.9,0-3.5,0.7-3.5,2.1v3h-1.2v-5.6h1.2v1.2c0.8-0.7,1.9-1.2,3.5-1.2
			C1175.4,445.1,1177,446,1177,447.6z"/>
		<path d="M1189.4,445.1v4.9c0,1.9-1.6,2.8-4.7,2.8c-1.6,0-3.5-0.2-4.3-0.9l0.8-0.7c0.8,0.5,2.3,0.7,3.9,0.7c2.3,0,3.5-0.7,3.5-2.1
			V449c-0.8,0.7-2.3,1.2-3.9,1.2c-2.7,0-4.7-1.2-4.7-2.8c0-1.6,1.9-2.8,4.7-2.8c1.6,0,3.1,0.5,3.9,1.2v-1.2h0.8V445.1z
			 M1187.8,447.8c0-1.2-1.6-2.1-3.5-2.1s-3.5,0.9-3.5,2.1s1.6,2.1,3.5,2.1C1186.7,449.9,1187.8,449,1187.8,447.8z"/>
		<path d="M1205.7,448.3h-7.8c0,1.2,1.6,1.9,3.9,1.9c1.2,0,2.3-0.2,2.7-0.7l0.8,0.5c-0.8,0.7-2.3,0.9-3.5,0.9c-3.1,0-5-1.2-5-2.8
			c0-1.6,1.9-2.8,4.7-2.8c2.7,0,4.7,1.2,4.7,2.8C1205.7,448.1,1205.7,448.1,1205.7,448.3z M1197.9,447.6h6.6c0-1.2-1.6-1.9-3.5-1.9
			C1199.5,445.8,1197.9,446.5,1197.9,447.6z"/>
		<path d="M1208.4,442.7h1.2v7.9h-1.2V442.7z"/>
		<path d="M1213.1,443.4c0-0.2,0.4-0.5,0.8-0.5c0.4,0,0.8,0.2,0.8,0.5c0,0.2-0.4,0.5-0.8,0.5S1213.1,443.7,1213.1,443.4z
			 M1213.1,445.1h1.2v5.6h-1.2V445.1z"/>
		<path d="M1223.1,450.4c-0.4,0.2-1.2,0.5-1.9,0.5c-1.9,0-2.7-0.7-2.7-1.6v-3.5h-1.6v-0.7h1.6v-1.2h1.2v1.2h2.7v0.7h-2.7v3.5
			c0,0.7,0.4,0.9,1.6,0.9c0.4,0,1.2,0,1.6-0.2L1223.1,450.4z"/>
		<path d="M1226.6,450.2c0,0.2,0,0.2-0.4,0.7l-0.8,1.4h-0.8l0.8-1.6c-0.4,0-0.8-0.2-0.8-0.5c0-0.2,0.4-0.7,0.8-0.7
			C1226.2,449.7,1226.6,449.9,1226.6,450.2z"/>
		<path d="M1232.8,450.2l0.4-0.7c0.8,0.5,1.9,0.7,3.5,0.7c1.9,0,2.7-0.5,2.7-0.9c0-1.4-6.2-0.2-6.2-2.5c0-0.9,1.2-1.6,3.9-1.6
			c1.2,0,2.7,0.2,3.5,0.5l-0.4,0.7c-0.8-0.2-1.9-0.5-2.7-0.5c-1.6,0-2.3,0.5-2.3,0.9c0,1.6,6.2,0.5,6.2,2.5c0,0.9-1.6,1.6-3.9,1.6
			S1233.6,450.6,1232.8,450.2z"/>
		<path d="M1251.1,448.3h-7.8c0,1.2,1.6,1.9,3.9,1.9c1.2,0,2.3-0.2,2.7-0.7l0.8,0.5c-0.8,0.7-2.3,0.9-3.5,0.9c-3.1,0-5-1.2-5-2.8
			c0-1.6,1.9-2.8,4.7-2.8c2.7,0,4.7,1.2,4.7,2.8C1251.1,448.1,1251.1,448.1,1251.1,448.3z M1243.3,447.6h6.6c0-1.2-1.6-1.9-3.5-1.9
			C1244.9,445.8,1243.3,446.5,1243.3,447.6z"/>
		<path d="M1262.3,442.7v7.9h-1.2v-1.2c-0.8,0.7-1.9,1.2-3.5,1.2c-2.7,0-4.7-1.2-4.7-2.8c0-1.6,1.9-2.8,4.7-2.8
			c1.6,0,2.7,0.5,3.5,1.2v-3.5H1262.3z M1261.1,448.1c0-1.4-1.6-2.3-3.5-2.3c-1.9,0-3.5,0.9-3.5,2.3s1.6,2.3,3.5,2.3
			C1259.6,450.2,1261.1,449.2,1261.1,448.1z"/>
		<path d="M1279.4,442.7v7.9h-1.2v-1.2c-0.8,0.7-1.9,1.2-3.5,1.2c-2.7,0-4.7-1.2-4.7-2.8c0-1.6,1.9-2.8,4.7-2.8
			c1.6,0,2.7,0.5,3.5,1.2v-3.5H1279.4z M1277.8,448.1c0-1.4-1.6-2.3-3.5-2.3s-3.5,0.9-3.5,2.3s1.6,2.3,3.5,2.3
			C1276.6,450.2,1277.8,449.2,1277.8,448.1z"/>
		<path d="M1282.5,443.4c0-0.2,0.4-0.5,0.8-0.5s0.8,0.2,0.8,0.5c0,0.2-0.4,0.5-0.8,0.5S1282.5,443.7,1282.5,443.4z M1282.9,445.1
			h1.2v5.6h-1.2V445.1z"/>
		<path d="M1294.9,447.4v3.5h-1.2v-0.9c-0.4,0.7-1.6,0.9-3.1,0.9c-2.3,0-3.5-0.7-3.5-1.6s0.8-1.6,3.5-1.6h3.1v-0.2
			c0-0.9-0.8-1.4-2.7-1.4c-1.2,0-2.3,0.2-3.1,0.7l-0.4-0.5c0.8-0.5,2.3-0.7,3.9-0.7C1293.3,445.1,1294.9,445.8,1294.9,447.4z
			 M1293.3,449v-0.9h-3.1c-1.9,0-2.3,0.5-2.3,0.9c0,0.7,0.8,1.2,2.3,1.2C1291.8,450.2,1292.9,449.9,1293.3,449z"/>
		<path d="M1313.9,447.6v3.2h-1.2v-3.2c0-1.2-1.2-1.9-2.7-1.9c-1.9,0-3.1,0.7-3.1,2.1v3h-1.2v-3.2c0-1.2-1.2-1.9-2.7-1.9
			c-1.9,0-3.1,0.7-3.1,2.1v3h-1.2v-5.6h1.2v0.9c0.8-0.7,1.9-1.2,3.5-1.2c1.6,0,2.7,0.5,3.5,1.2c0.8-0.7,1.9-1.2,3.9-1.2
			C1312.3,445.1,1313.9,446,1313.9,447.6z"/>
		<path d="M1324.7,445.5l-6.2,1.4l6.2,1.4v0.9l-8.1-1.9v-0.9l8.1-1.9V445.5z"/>
		<path d="M1331.3,441.8h1.6l-5.8,10.2h-1.6L1331.3,441.8z"/>
		<path d="M1344.9,443.2v7.4h-1.9v-3.2h-7.4v3.2h-1.9v-7.4h1.9v3.2h7.4v-3.2H1344.9z"/>
		<path d="M1351.5,443.2v7.4h-1.6v-6.5h-2.7v-0.9H1351.5z"/>
		<path d="M1362.7,446.5v0.9l-8.1,1.9v-0.9l6.6-1.4l-6.6-1.4v-0.9L1362.7,446.5z"/>
		<path d="M1107.6,471.3l-6.2,1.4l6.2,1.4v0.9l-8.1-1.9v-0.9l8.1-1.9V471.3z"/>
		<path d="M1120.8,471.7c0,1.6-1.9,2.5-5.4,2.5h-3.1v2.3h-1.9v-7.4h5C1118.8,468.9,1120.8,470.1,1120.8,471.7z M1118.8,471.7
			c0-1.2-1.2-1.6-3.5-1.6h-3.1v3.5h3.1C1117.7,473.3,1118.8,472.7,1118.8,471.7z"/>
		<path d="M1130.8,472.4v0.9l-8.1,1.9v-0.9l6.6-1.4l-6.6-1.4v-0.9L1130.8,472.4z"/>
		<path d="M1146,471.3l-6.2,1.4l6.2,1.4v0.9l-8.1-1.9v-0.9l8.1-1.9V471.3z"/>
		<path d="M1149.1,468.9h1.9v7.4h-1.9V468.9z"/>
		<path d="M1166.5,476.6V471l-4.7,4.6h-0.8l-4.7-4.6v5.6h-1.6v-7.4h1.6l5.4,5.3l5-5.3h1.6v7.4H1166.5z"/>
		<path d="M1180.5,472.9h1.6v3c-1.2,0.7-3.1,0.9-4.7,0.9c-3.9,0-6.6-1.6-6.6-3.9s2.7-3.9,6.6-3.9c1.9,0,3.9,0.5,4.7,1.2l-1.2,0.7
			c-1.2-0.7-2.3-0.9-3.5-0.9c-3.1,0-5,1.2-5,2.8c0,1.6,1.9,2.8,5,2.8c1.2,0,1.9-0.2,3.1-0.5V472.9z"/>
		<path d="M1189.4,475.7l0.8-0.9c0.8,0.5,2.7,0.9,4.3,0.9c2.3,0,3.1-0.5,3.1-1.2c0-1.9-7.8-0.7-7.8-3.5c0-1.2,1.6-2.1,4.7-2.1
			c1.6,0,3.1,0.2,3.9,0.7l-0.8,0.9c-1.2-0.5-2.3-0.7-3.5-0.7c-2.3,0-3.1,0.5-3.1,1.2c0,1.9,7.8,0.7,7.8,3.5c0,1.2-1.6,2.1-5,2.1
			C1192.5,476.6,1190.6,476.4,1189.4,475.7z"/>
		<path d="M1210.3,476.6l-2.7-2.3c-0.4,0-0.4,0-0.8,0h-3.1v2.3h-1.9v-7.4h5c3.1,0,5.4,0.9,5.4,2.5c0,1.2-1.2,2.1-2.7,2.3l3.1,2.5
			L1210.3,476.6L1210.3,476.6z M1210.3,471.7c0-1.2-1.2-1.6-3.5-1.6h-3.1v3.5h3.1C1208.8,473.3,1210.3,472.7,1210.3,471.7z"/>
		<path d="M1213.8,472.9c0-2.3,2.7-3.9,6.6-3.9c1.9,0,3.5,0.5,4.7,1.2l-1.2,0.7c-1.2-0.7-2.3-0.9-3.5-0.9c-2.7,0-5,1.2-5,2.8
			c0,1.6,1.9,2.8,5,2.8c1.6,0,2.7-0.2,3.5-0.9l1.2,0.7c-1.2,0.7-2.7,1.2-4.7,1.2C1216.5,476.6,1213.8,475,1213.8,472.9z"/>
		<path d="M1227,471h8.1v0.9h-8.1V471z M1227,473.6h8.1v0.9h-8.1V473.6z"/>
		<path d="M1242.5,468.9h1.6v3h-1.2L1242.5,468.9z M1245.6,468.9h1.6v3h-1.2L1245.6,468.9z"/>
		<path d="M1250.3,468.9h1.9v6.5h7v0.9h-8.5v-7.4H1250.3z"/>
		<path d="M1259.6,473.8c0-1.6,1.9-3,5-3c2.7,0,5,1.2,5,3c0,1.6-1.9,3-5,3C1261.5,476.6,1259.6,475.4,1259.6,473.8z M1267.7,473.8
			c0-1.2-1.6-2.1-3.1-2.1c-1.9,0-3.1,0.7-3.1,2.1c0,1.2,1.6,2.1,3.1,2.1C1266.6,475.7,1267.7,475,1267.7,473.8z"/>
		<path d="M1277,470.8v0.9h-0.4c-1.9,0-3.1,0.7-3.1,1.9v2.8h-1.6v-5.8h1.6v0.9C1274.3,471.3,1275.5,470.8,1277,470.8z"/>
		<path d="M1287.5,474h-7.8c0.4,0.9,1.6,1.6,3.5,1.6c1.2,0,1.9-0.2,2.7-0.7l0.8,0.7c-0.8,0.7-2.3,0.9-3.9,0.9c-3.1,0-5-1.2-5-3
			c0-1.6,1.9-3,4.7-3c2.7,0,4.7,1.2,4.7,3C1287.5,473.8,1287.5,474,1287.5,474z M1279.8,473.3h6.2c0-0.9-1.6-1.6-3.1-1.6
			C1281.3,471.7,1280.1,472.4,1279.8,473.3z"/>
		<path d="M1305.7,473.3v3.2h-1.6v-3.2c0-1.2-0.8-1.6-2.3-1.6s-2.7,0.7-2.7,1.9v3h-1.6v-3.2c0-1.2-0.8-1.6-2.3-1.6s-2.7,0.7-2.7,1.9
			v3h-1.6v-5.8h1.6v0.9c0.8-0.7,1.9-0.9,3.1-0.9c1.6,0,2.7,0.2,3.5,1.2c0.8-0.7,1.9-1.2,3.5-1.2
			C1304.2,470.8,1305.7,471.7,1305.7,473.3z"/>
		<path d="M1313.5,469.2c0-0.5,0.4-0.7,1.2-0.7c0.8,0,1.2,0.2,1.2,0.7c0,0.5-0.4,0.7-1.2,0.7S1313.5,469.4,1313.5,469.2z
			 M1313.9,470.8h1.6v5.8h-1.6V470.8z"/>
		<path d="M1328.6,473.8c0,1.9-1.9,3-4.7,3c-1.2,0-2.7-0.2-3.5-0.9v3h-1.6V471h1.6v0.9c0.8-0.7,1.9-0.9,3.5-0.9
			C1326.7,470.8,1328.6,472,1328.6,473.8z M1327.1,473.8c0-1.2-1.6-2.1-3.1-2.1c-1.9,0-3.1,0.7-3.1,2.1c0,1.2,1.6,2.1,3.1,2.1
			C1325.5,475.7,1327.1,475,1327.1,473.8z"/>
		<path d="M1329.8,475.9l0.8-0.9c0.8,0.2,1.9,0.7,3.5,0.7s2.3-0.2,2.3-0.7c0-1.4-6.2-0.2-6.2-2.5c0-0.9,1.6-1.6,3.9-1.6
			c1.2,0,2.7,0.2,3.5,0.5l-0.8,0.9c-0.8-0.2-1.9-0.5-2.7-0.5c-1.6,0-2.3,0.2-2.3,0.7c0,1.4,6.2,0.2,6.2,2.5c0,0.9-1.6,1.6-4.3,1.6
			C1332.1,476.6,1330.6,476.4,1329.8,475.9z"/>
		<path d="M1349.2,470.8v5.8h-1.6v-0.9c-0.8,0.7-1.9,0.9-3.1,0.9c-2.3,0-4.3-0.7-4.3-2.5v-3.2h1.6v3.2c0,1.2,0.8,1.6,2.7,1.6
			s3.1-0.7,3.1-1.9v-3L1349.2,470.8L1349.2,470.8z"/>
		<path d="M1368.2,473.3v3.2h-1.6v-3.2c0-1.2-0.8-1.6-2.3-1.6s-2.7,0.7-2.7,1.9v3h-1.6v-3.2c0-1.2-0.8-1.6-2.3-1.6s-2.7,0.7-2.7,1.9
			v3h-1.6v-5.8h1.6v0.9c0.8-0.7,1.9-0.9,3.1-0.9c1.6,0,2.7,0.2,3.5,1.2c0.8-0.7,1.9-1.2,3.5-1.2
			C1366.6,470.8,1368.2,471.7,1368.2,473.3z"/>
		<path d="M1370.9,468.9h1.6v3h-1.2L1370.9,468.9z M1374,468.9h1.6v3h-1.2L1374,468.9z"/>
		<path d="M1386,472.4v0.9l-8.1,1.9v-0.9l6.6-1.4l-6.6-1.4v-0.9L1386,472.4z"/>
		<path d="M1396.5,471.3l-6.2,1.4l6.2,1.4v0.9l-8.1-1.9v-0.9l8.1-1.9V471.3z"/>
		<path d="M1403.1,467.6h1.6l-5.8,10.2h-1.6L1403.1,467.6z"/>
		<path d="M1415.9,471.7c0,1.6-1.9,2.5-5.4,2.5h-3.1v2.3h-1.9v-7.4h5C1413.9,468.9,1415.9,470.1,1415.9,471.7z M1414.3,471.7
			c0-1.2-1.2-1.6-3.5-1.6h-3.1v3.5h3.1C1413.2,473.3,1414.3,472.7,1414.3,471.7z"/>
		<path d="M1426.3,472.4v0.9l-8.1,1.9v-0.9l6.6-1.4l-6.6-1.4v-0.9L1426.3,472.4z"/>
		<path d="M1107.6,497.2l-6.2,1.4l6.2,1.4v0.9l-8.1-1.9v-0.9l8.1-1.9V497.2z"/>
		<path d="M1114.2,493.3h1.6l-6.2,10.2h-1.6L1114.2,493.3z"/>
		<path d="M1127.7,500.2c0,1.4-1.6,2.1-4.7,2.1h-5.8v-7.4h5.8c2.7,0,4.7,0.7,4.7,1.9c0,0.9-0.8,1.4-1.6,1.6
			C1126.6,498.6,1127.7,499.3,1127.7,500.2z M1118.4,495.6v2.3h3.9c1.9,0,2.7-0.5,2.7-1.2s-1.2-1.2-2.7-1.2H1118.4z M1125.8,500.2
			c0-0.9-1.2-1.2-3.1-1.2h-4.3v2.5h4.3C1124.6,501.4,1125.8,501.2,1125.8,500.2z"/>
		<path d="M1129.3,498.6c0-2.3,2.7-3.9,6.6-3.9c3.9,0,6.6,1.6,6.6,3.9c0,2.3-2.7,3.9-6.6,3.9
			C1132.4,502.6,1129.3,500.7,1129.3,498.6z M1140.9,498.6c0-1.6-1.9-2.8-5-2.8c-2.7,0-5,1.2-5,2.8c0,1.6,1.9,2.8,5,2.8
			C1139,501.4,1140.9,500.2,1140.9,498.6z"/>
		<path d="M1145.6,494.9h5.4c3.9,0,7,1.6,7,3.7s-2.7,3.7-7,3.7h-5.4V494.9z M1150.6,501.4c3.1,0,5-1.2,5-2.8c0-1.6-1.9-2.8-5-2.8
			h-3.5v5.6H1150.6z"/>
		<path d="M1164.6,499.8v2.5h-1.9v-2.5l-5-4.9h1.9l3.9,3.9l3.9-3.9h1.9L1164.6,499.8z"/>
		<path d="M1178.9,498.2v0.9l-8.1,1.9V500l6.6-1.4l-6.6-1.4v-0.9L1178.9,498.2z"/>
	</g>
	<g>
		<g>
			<path class="st5" d="M1591.1,295.8c0,0.2-124.5,0.7-278,0.7s-278-0.2-278-0.7c0-0.2,124.5-0.7,278-0.7
				C1466.7,295.1,1591.1,295.3,1591.1,295.8z"/>
		</g>
	</g>
	<g>
		<g>
			<path class="st5" d="M1052.1,283.7c0,1.2-1.6,2.1-3.5,2.1c-1.9,0-3.5-0.9-3.5-2.1s1.6-2.1,3.5-2.1
				C1050.2,281.6,1052.1,282.6,1052.1,283.7z"/>
		</g>
		<g>
			<ellipse class="st5" cx="1062.2" cy="283.7" rx="3.5" ry="2.1"/>
		</g>
		<g>
			<path class="st5" d="M1079.3,283.7c0,1.2-1.6,2.1-3.5,2.1s-3.5-0.9-3.5-2.1s1.6-2.1,3.5-2.1
				C1077.7,281.6,1079.3,282.6,1079.3,283.7z"/>
		</g>
	</g>
	<g>
		<g>
			<path class="st1" d="M1070.7,547.1c-0.4,0-1.2-56.3-1.2-125.9s0.4-125.9,1.2-125.9s1.2,56.3,1.2,125.9
				C1071.5,490.7,1071.1,547.1,1070.7,547.1z"/>
		</g>
	</g>
</g>
<g>
	<g>
		<g>
			<rect x="1541.5" y="425.4" class="st8" width="207.9" height="88.5"/>
		</g>
	</g>
	<g>
		<g>
			<path class="st0" d="M1611.7,466.4V484h-7v-7.2h-13.2v7.2h-7v-17.6h7v7h13.2v-7H1611.7z"/>
		</g>
		<g>
			<path class="st0" d="M1624.5,469.9h-9.3v-3.5h25.6v3.2h-9.3v14.1h-7L1624.5,469.9L1624.5,469.9z"/>
		</g>
		<g>
			<path class="st0" d="M1679.2,466.4h7v14.1h14.7v3.2h-21.7L1679.2,466.4L1679.2,466.4z"/>
		</g>
		<g>
			<path class="st0" d="M1670.3,484v-10.4l-8.5,8.6h-3.1l-8.5-8.3V484h-6.2v-17.6h5.8l10.9,10.9l10.9-10.9h5.4V484H1670.3z"/>
		</g>
	</g>
	<g>
		<g>
			<g>
				<g>
					<path class="st0" d="M1750.9,438.6c0,0.2-46.9,0.5-104.7,0.5s-104.7-0.2-104.7-0.5c0-0.2,46.9-0.5,104.7-0.5
						S1750.9,438.3,1750.9,438.6z"/>
				</g>
			</g>
		</g>
		<g>
			<g>
				<g>
					<path class="st0" d="M1558.6,432.1c0,0.7-1.2,1.4-2.7,1.4c-1.6,0-2.7-0.7-2.7-1.4c0-0.7,1.2-1.4,2.7-1.4
						C1557,430.7,1558.6,431.2,1558.6,432.1z"/>
				</g>
			</g>
			<g>
				<g>
					<path class="st0" d="M1568.7,432.1c0,0.7-1.2,1.4-2.7,1.4c-1.6,0-2.7-0.7-2.7-1.4c0-0.7,1.2-1.4,2.7-1.4
						C1567.5,430.7,1568.7,431.2,1568.7,432.1z"/>
				</g>
			</g>
			<g>
				<g>
					<path class="st0" d="M1578.7,432.1c0,0.7-1.2,1.4-2.7,1.4c-1.6,0-2.7-0.7-2.7-1.4c0-0.7,1.2-1.4,2.7-1.4
						C1577.6,430.7,1578.7,431.2,1578.7,432.1z"/>
				</g>
			</g>
		</g>
	</g>
</g>
<g>
	<g>
		<g>
			<g>
				<rect x="292.1" y="51" class="st8" width="230" height="97.8"/>
			</g>
		</g>
		<g>
			<g>
				<g>
					<path class="st0" d="M523.6,65.4c0,0.2-52,0.7-115.9,0.7s-115.9-0.2-115.9-0.7c0-0.2,52-0.7,115.9-0.7
						C472,64.9,523.6,65.1,523.6,65.4z"/>
				</g>
			</g>
		</g>
		<g>
			<g>
				<g>
					<path class="st0" d="M310.7,58.4c0,0.9-1.6,1.6-3.1,1.6s-3.1-0.7-3.1-1.6c0-0.9,1.6-1.6,3.1-1.6
						C309.5,56.8,310.7,57.5,310.7,58.4z"/>
				</g>
			</g>
			<g>
				<g>
					<path class="st0" d="M322.3,58.4c0,0.9-1.6,1.6-3.1,1.6s-3.1-0.7-3.1-1.6c0-0.9,1.6-1.6,3.1-1.6S322.3,57.5,322.3,58.4z"/>
				</g>
			</g>
			<g>
				<g>
					<ellipse class="st0" cx="330.5" cy="58.4" rx="3.1" ry="1.6"/>
				</g>
			</g>
		</g>
	</g>
	<text transform="matrix(1.4665 0 0 1 333.4053 115.3154)" class="st0 st10 st11">REACT</text>
</g>
<g id="Character">
	<g>
		<g>
			<g>
				<g>
					<g>
						<g>
							<path class="st12" d="M554.6,554.2l101.2,204.5c4.7,9,18.6,15.3,34.1,15.3l411.1,0.7c21.7,0,39.2-10.9,38-23.9l0,0
								c-1.2-12.1-17.8-21.6-38-21.6H943.9L818.3,519.7H598C567.8,519.7,546.1,537.1,554.6,554.2z"/>
						</g>
					</g>
				</g>
				<g>
					<g>
						<g>
							<g>
								<path class="st5" d="M902.4,746.2c0,0.5-41.9,0.9-93.5,0.9s-93.5-0.5-93.5-0.9c0-0.5,41.9-0.9,93.5-0.9
									C860.6,745.3,902.4,745.7,902.4,746.2z"/>
							</g>
						</g>
					</g>
				</g>
				<g>
					<g>
						<g>
							<g>
								<path class="st5" d="M584.8,526.2c0.8-0.2,28.7,48.7,62.4,109.4c33.7,60.5,60.5,109.6,59.7,109.9
									c-0.8,0.2-28.7-48.7-62.4-109.4C610.8,575.6,584.1,526.2,584.8,526.2z"/>
							</g>
						</g>
					</g>
				</g>
			</g>
			<g>
				<polygon class="st12" points="885.4,955.7 860.2,955.3 860.2,774 885.4,774 				"/>
			</g>
			<g>
				<polygon class="st12" points="756.2,954.8 989.3,954.8 883.4,933 858.6,933 				"/>
			</g>
		</g>
		<g>
			<g>
				<g>
					<g>
						<g>
							<g>
								<g>
									<g>
										<path class="st8" d="M696.9,472.9l38.4,115.2l-7,86.5l259.4-25.7l-10.1-75.6l-0.4-62.6l63.6,73.7l49.6-57.3l-90.7-98.1
											l0,0c-16.7-10.2-36.1-17.8-59.3-22.9c-11.2-2.5-23.3-3.9-37.2-4.2l0,0c-29.9,5.6-59.7,5.6-90,0c-3.5,0.2-8.5,0.5-15.1,0.9
											c-0.4,0-0.8,0-1.2,0c-55.1,3.9-96.9,31.3-100,64.4L696.9,472.9z"/>
									</g>
								</g>
							</g>
						</g>
					</g>
					<g>
						<g>
							<g>
								<path class="st8" d="M798.9,402.6c0,0-106.6,0.5-119.8,67.7l-1.9,49.4l91.9-0.5L798.9,402.6z"/>
							</g>
						</g>
					</g>
				</g>
			</g>
			<g>
				<g>
					<g>
						<g>
							<path class="st13" d="M1053.3,489.1c0,0.5-83.8,0.9-187.3,0.9s-187.3-0.5-187.3-0.9c0-0.5,83.8-0.9,187.3-0.9
								C969.5,488.2,1053.3,488.6,1053.3,489.1z"/>
						</g>
					</g>
				</g>
			</g>
			<g>
				<g>
					<g>
						<g>
							<path class="st13" d="M1053.3,499.8c0,0.5-83.8,0.9-187.3,0.9s-187.3-0.5-187.3-0.9c0-0.5,83.8-0.9,187.3-0.9
								S1053.3,499.3,1053.3,499.8z"/>
						</g>
					</g>
				</g>
			</g>
			<g>
				<g>
					<g>
						<g>
							<path class="st13" d="M1047.5,480.3c0,0.5-82.6,0.9-184.2,0.9s-184.2-0.5-184.2-0.9c0-0.5,82.6-0.9,184.2-0.9
								S1047.5,479.8,1047.5,480.3z"/>
						</g>
					</g>
				</g>
			</g>
			<g>
				<g>
					<g>
						<g>
							<path class="st5" d="M976.5,584.1c-0.8,0-0.4-27.4,0.8-61c1.2-33.6,2.7-61,3.9-61c0.8,0,0.4,27.4-0.8,61
								C978.8,556.8,977.3,584.1,976.5,584.1z"/>
						</g>
					</g>
				</g>
			</g>
			<g>
				<g>
					<g>
						<path class="st14" d="M940.1,539.9c0,0,50.4,2.1,59.3,10.2c8.9,7.9,22.9,30.6,17.8,30.8c-5.4,0.2-8.9-1.6-8.9-1.6l-14-14.6
							c0,0,2.3,14.1-6.2,14.4c-8.1,0.2-49.2,5.1-49.2,5.1L940.1,539.9z"/>
					</g>
				</g>
			</g>
			<g>
				<g>
					<g>
						<path class="st8" d="M677.5,506.5v77.7c1.6,18.1,30.2,31.1,59.7,27.4l203.2-25l-0.4-49.8l-175.7,20.2l-2.3-52.6L677.5,506.5z"
							/>
					</g>
				</g>
			</g>
			<g>
				<g>
					<g>
						<g>
							<path class="st5" d="M793.5,605.2c0,0,0.8-0.2,2.7-0.5c1.9-0.2,4.7-0.7,7.8-1.2c7-0.9,17.1-2.1,29.9-3.7
								c26-3.2,62.4-7.6,105.9-13l-1.2,0.7c0-15.5,0-32.9,0-51.2l1.6,0.9c-11.6,1.4-23.7,2.8-35.7,4.2c-51.2,5.8-99.3,11.4-139.6,16
								l-1.6,0.2v-0.9c1.2-23.2,2.3-42.4,3.1-56.1c0.4-6.7,0.8-11.8,1.2-15.5c0-1.6,0.4-3,0.4-4.2c0-0.9,0.4-1.4,0.4-1.4
								s0,0.5,0,1.4c0,1.2,0,2.3,0,4.2c0,3.7-0.4,9-0.4,15.8c-0.4,13.7-1.2,32.9-2.3,56.1l-1.6-0.7c40.3-4.6,88.4-10.2,139.6-16.2
								c12.4-1.4,24.4-2.8,35.7-4.2l1.6-0.2v0.9c0,18.3,0,35.5,0,51.2v0.7l-1.2,0.2c-43.4,5.1-79.9,9.3-105.9,12.3
								c-12.8,1.4-22.9,2.5-29.9,3.2c-3.5,0.2-5.8,0.7-8.1,0.9C794.2,605.2,793.5,605.2,793.5,605.2z"/>
						</g>
					</g>
				</g>
			</g>
			<g>
				<g>
					<g>
						<g>
							<path class="st5" d="M909.8,402.6c0,0,0.4,0.5,0.8,1.2c0.4,0.7,1.2,1.9,1.6,3.5c1.2,3,1.6,7.6-0.8,13
								c-2.3,5.3-8.5,11.4-17.5,16.2c-9.3,5.1-22.5,8.3-36.8,8.3c-14.3,0-27.9-3.5-36.5-8.8c-8.5-5.3-12.4-12.1-13.6-17.6
								c-1.2-5.6,0.8-10.2,2.7-13c0.8-1.4,1.9-2.5,2.7-3.2s1.2-1.2,1.2-0.9c0.4,0-1.2,1.6-2.7,4.4c-1.6,2.8-2.7,7.2-1.6,12.5
								c1.2,5.3,5,11.6,13.6,16.7c8.1,5.1,20.9,8.3,34.5,8.3s26.4-3,35.3-7.9c8.9-4.6,14.7-10.2,17.5-15.5c2.7-5.1,2.3-9.7,1.9-12.5
								C910.6,404.3,909.4,402.6,909.8,402.6z"/>
						</g>
					</g>
				</g>
			</g>
			<g>
				<g>
					<g>
						<g>
							<path class="st13" d="M919.5,590.6c-0.4,0-0.4-3,0-7.6s0.8-11.1,0.8-18.3s0-13.7-0.4-18.3s-0.4-7.6,0-7.6s1.2,2.8,1.9,7.6
								c0.8,4.6,1.2,11.4,1.2,18.5s-0.8,13.7-1.6,18.5C921.1,587.6,919.9,590.6,919.5,590.6z"/>
						</g>
					</g>
				</g>
			</g>
			<g>
				<g>
					<g>
						<g>
							<path class="st13" d="M909,591.8c-0.4,0-0.4-3-0.4-7.6c0-5.3,0.4-11.6,0.4-18.3s0-13,0-18.3c0-4.6,0-7.6,0.4-7.6
								s1.2,2.8,1.6,7.6c0.4,4.6,0.8,11.1,0.8,18.3c0,7.2-0.4,13.7-1.2,18.3C910.2,589,909.4,591.8,909,591.8z"/>
						</g>
					</g>
				</g>
			</g>
		</g>
		<g>
			<g>
				<g>
					<g>
						<path class="st8" d="M1112.6,900.3l38.4,63.3l54.7,44.7c3.9,3.2,2.3,7.9-3.1,10l0,0c-3.1,1.2-7,1.4-10.5,0.5
							c-22.1-5.6-102.8-25.7-105.1-30.4c-2.7-5.6-54.7-73.5-54.7-73.5L1112.6,900.3z"/>
					</g>
				</g>
				<g class="st15">
					<g>
						<path class="st0" d="M1202.6,1018.3l-118.3-34.1l1.6,2.5c1.6,2.3,4.3,4.2,7.8,5.3c9.7,3,36.8,11.4,97.7,26.7
							C1195.2,1019.9,1199.1,1019.7,1202.6,1018.3L1202.6,1018.3z"/>
					</g>
				</g>
				<g class="st15">
					<g>
						<g>
							<path class="st0" d="M1092.5,959c3.5,0.5,5.8,2.5,5,4.6s-4.3,3.5-7.8,3c-3.5-0.5-6.2-3-5.4-4.9c1.2-1.9,5.4-3.5,8.5-2.5"/>
						</g>
					</g>
				</g>
				<g>
					<g>
						<g>
							<path class="st5" d="M1160.7,996.5c0.8,0,0.8-3.7,6.2-7c5-3.2,11.2-3.7,11.2-4.2c0-0.2-1.6-0.5-4.3,0
								c-2.7,0.5-5.8,1.4-8.9,3.2c-2.7,1.9-4.3,3.9-4.7,5.6C1159.9,995.6,1160.3,996.5,1160.7,996.5z"/>
						</g>
					</g>
				</g>
				<g>
					<g>
						<g>
							<path class="st5" d="M1173.5,1003.3c0.8,0.2,2.7-2.8,7.4-4.9c4.7-2.3,9.7-2.8,9.7-3.2c0-0.5-5.8-0.5-11.2,2.1
								C1174.3,999.8,1172.7,1003.3,1173.5,1003.3z"/>
						</g>
					</g>
				</g>
				<g>
					<g>
						<g>
							<path class="st5" d="M1139.8,989.1c0.8,0.2,3.9-4.2,10.9-7.9c7-3.9,14.3-5.3,14-5.8c0-0.5-8.5,0.5-15.9,4.6
								C1141.3,984,1139,988.9,1139.8,989.1z"/>
						</g>
					</g>
				</g>
				<g>
					<g>
						<g>
							<path class="st5" d="M1125.4,970.3c0.4,0.2,5.4-2.5,12.8-4.4c7.4-2.1,14-2.3,14-2.5c0-0.5-7-0.7-15.1,1.4
								C1129.3,966.6,1125,970.1,1125.4,970.3z"/>
						</g>
					</g>
				</g>
				<g>
					<g>
						<g>
							<path class="st5" d="M1113.4,952c0.4,0.2,5-3.2,13.2-4.9c8.1-1.9,15.1-0.7,15.1-1.2c0-0.2-1.6-0.7-4.7-0.9s-7.4-0.2-11.6,0.7
								c-4.3,0.9-7.8,2.3-9.7,3.7C1113.8,950.9,1113,951.8,1113.4,952z"/>
						</g>
					</g>
				</g>
				<g>
					<g>
						<g>
							<path class="st5" d="M1123.9,943.7c0,0,0-0.9-1.6-2.3c-1.2-1.4-3.5-3.5-7.4-5.6c-1.9-0.9-3.9-2.1-7.4-2.3
								c-1.6,0-3.9,0.7-4.7,1.6c-0.8,1.2-0.4,2.3,0,3.2c2.7,3.9,10.9,6.5,18.6,5.3c7.8-1.2,12.8-5.3,13.6-9.5c0-0.9,0-2.3-1.6-3
								c-1.6-0.9-3.9-0.9-5.4-0.2c-3.1,0.9-4.3,2.5-5.4,3.7c-2.3,2.5-3.5,4.9-3.9,6.5c-0.4,1.6-0.4,2.5-0.4,2.5
								c0.4,0,0.8-3.7,5.8-8.6c1.2-1.2,2.7-2.5,5-3.2c1.2-0.2,2.3-0.2,2.7,0.2c0.8,0.5,1.2,1.2,0.8,2.1c-0.8,3.5-5.4,7.2-12,8.1
								c-6.6,0.9-14-1.2-15.9-4.4c-0.4-0.7-0.8-1.6-0.4-2.3c0.4-0.7,1.2-0.9,2.3-0.9c2.3,0,4.7,0.9,6.6,1.9
								C1121.5,940.2,1123.5,943.9,1123.9,943.7z"/>
						</g>
					</g>
				</g>
			</g>
		</g>
		<g>
			<g>
				<g>
					<path class="st8" d="M1274.7,883.9l-3.5,51.5c0,0,86.1,19.2,87.3,28.7l-166.7-0.2l-0.4-80.2L1274.7,883.9z"/>
				</g>
				<g class="st15">
					<g>
						<path class="st0" d="M1220,930.9c-3.1,0.5-5.4,2.8-4.7,4.6c0.8,1.9,4.3,3.2,7.8,2.8c3.1-0.5,6.2-3,5-4.9
							c-1.2-1.9-5.4-3.5-8.5-2.3"/>
					</g>
				</g>
				<g class="st15">
					<path class="st0" d="M1191.7,963.8V956l160.5,3.2c0,0,7.4,1.9,6.6,5.1L1191.7,963.8z"/>
				</g>
				<g>
					<g>
						<path class="st5" d="M1274.3,934.9c0,0.5-4.3,0.7-8.1,2.3c-4.3,1.4-6.2,3.7-7,3.5c-0.8,0,0.4-3,5.4-4.9
							C1269.7,933.7,1274.3,934.4,1274.3,934.9z"/>
					</g>
				</g>
				<g>
					<g>
						<path class="st5" d="M1291.8,939c0,0.5-3.5,1.4-6.2,3.2c-2.7,2.1-3.5,4.2-4.3,4.2s-1.2-2.8,2.3-5.3
							C1287.1,938.8,1291.8,938.6,1291.8,939z"/>
					</g>
				</g>
				<g>
					<g>
						<path class="st5" d="M1301.5,951.8c-0.8,0-1.9-2.3,0.4-5.1c1.9-2.8,5.8-3.7,6.2-3.2s-1.9,1.9-3.9,3.9
							C1302.6,949.5,1302.6,951.6,1301.5,951.8z"/>
					</g>
				</g>
				<g>
					<g>
						<path class="st5" d="M1272.8,923c-0.4,0.5-4.3-0.2-8.5,0c-4.7,0.2-8.1,0.9-8.5,0.7c-0.4-0.5,3.1-2.1,8.5-2.3
							C1269.3,921.2,1273.2,922.6,1272.8,923z"/>
					</g>
				</g>
			</g>
			<g class="st2">
				<polygon points="1274.3,894.1 1273.5,903.3 1191.7,902.7 1191.3,894.3 				"/>
			</g>
			<g>
				<g>
					<path class="st5" d="M1273.2,912.6c0,0.2-3.1,0.5-8.5,0c-2.7-0.2-5.4-0.7-8.9-1.6c-1.6-0.5-3.1-0.9-4.7-1.6
						c-0.8-0.2-1.6-0.7-2.3-1.2c-0.8-0.5-1.6-1.9-0.4-2.5c0.8-0.7,2.3-1.2,3.5-1.2c1.2,0,2.3,0.2,3.1,0.2c1.9,0.2,3.5,0.7,5,1.2
						c3.1,0.9,5.8,2.1,7.8,3c3.9,2.1,5,3.9,5,4.2c-0.4,0.2-2.3-1.4-6.2-3.2c-1.9-0.9-4.7-1.9-7.4-2.5c-1.6-0.5-3.1-0.7-4.7-0.9
						c-1.9-0.2-3.1-0.2-3.9,0.2c0,0.2,0,0.2,0,0.5c0.4,0.2,1.2,0.5,1.9,0.9c1.6,0.5,3.1,1.2,4.3,1.6c2.7,0.9,5.8,1.4,8.1,1.9
						C1270.1,912.2,1273.2,912.4,1273.2,912.6z"/>
				</g>
			</g>
			<g>
				<g>
					<path class="st5" d="M1272,913.3c-0.4,0-1.9-1.6-2.3-4.9c0-1.6,0-3.5,1.2-5.6c0.4-0.9,1.2-2.1,2.3-3c1.2-0.9,2.3-2.3,5.4-2.5
						c1.6,0,3.1,0.7,3.5,1.4s0.8,1.2,0.8,1.9c0.4,1.2,0.4,2.3,0,3.5c-0.4,2.1-1.9,3.9-3.5,5.1c-3.1,2.5-6.6,3.2-6.6,3
						c-0.4-0.2,2.7-1.2,5-3.7c1.2-1.2,2.3-2.8,2.7-4.6c0-0.9,0-1.9,0-2.8c-0.4-1.2-0.8-1.9-1.6-1.9s-2.3,0.7-3.1,1.6
						c-0.8,0.9-1.6,1.9-1.9,2.8c-1.2,1.9-1.6,3.5-1.6,4.9C1271.6,911.5,1272.4,913.3,1272,913.3z"/>
				</g>
			</g>
		</g>
		<g>
			<g>
				<g>
					<g>
						<g>
							<path class="st5" d="M1191.7,637.5c-98.5,6-229.2,14.1-229.2,14.1l17.8,96c0,0,192-30.4,190.8-27.8
								c-1.6,2.5,8.9,204.2,8.9,204.2h115.6l2.3-228.3C1298.4,661.1,1248.7,634,1191.7,637.5z"/>
						</g>
					</g>
				</g>
				<g>
					<g>
						<g>
							<path class="st5" d="M726.4,676.2v29.7c0,20.2,38.8,41.7,72.5,41.7h26.4c20.6,0,53.1-9,69.8-16.2l10.1-4.4l120.6,223
								c0,0,137.7-14.8,137.7-17.4s-93.5-182.7-136.5-266.3c-17.5-34.1-78.7-54-135.3-42.4c-1.9,0.5-3.9,0.9-5.8,1.4
								C823.7,640.2,726.4,676.2,726.4,676.2z"/>
						</g>
					</g>
				</g>
				<g>
					<g>
						<g>
							<g>
								<path class="st12" d="M1163,932.8c0,0-0.4-0.2-0.8-0.7c-0.4-0.7-0.8-1.4-1.6-2.3c-1.2-2.1-3.1-5.1-5.4-9.3
									c-4.7-8.1-10.9-19.7-18.6-34.3c-15.5-29-36.1-69.3-58.6-113.8c-11.2-22.3-21.7-43.6-31.4-62.8c-4.7-9.7-9.3-18.8-13.6-27.4
									c-2.3-4.4-4.3-8.3-6.2-12.5c-1.9-3.9-3.9-7.9-6.2-11.4c-4.7-7-12-12.3-19.4-16.5c-7.4-4.2-14.3-7.2-20.6-9.5
									c-5.8-2.3-10.5-4.2-14-5.3c-1.6-0.5-2.7-0.9-3.5-1.4c-0.8-0.2-1.2-0.5-1.2-0.5s0.4,0,1.2,0.5c1.2,0.2,2.3,0.7,3.9,1.2
									c3.5,1.2,8.1,2.8,14,5.1c6.2,2.3,13.2,5.3,20.9,9.3c7.4,4.2,15.1,9.5,20.2,16.7c2.7,3.5,4.7,7.4,6.6,11.4
									c1.9,3.9,4.3,8.1,6.2,12.3c4.3,8.6,8.9,17.8,14,27.4c9.7,19.2,20.6,40.6,31.8,62.8c22.5,44.5,42.7,84.6,57.4,114
									c7.4,14.4,13.6,26.2,17.8,34.5c1.9,3.9,3.9,7.2,5,9.3c0.4,0.9,0.8,1.9,1.2,2.5C1163,932.6,1163,932.8,1163,932.8z"/>
							</g>
						</g>
					</g>
				</g>
				<g>
					<g>
						<g>
							<g>
								<path class="st12" d="M1192.1,691c0.8,0.2-5.8,6.3-11.2,14.1c-5.4,7.9-7.8,14.8-8.9,14.8c-0.8,0,0.4-7.2,6.2-15.5
									C1183.6,696.3,1191.3,690.8,1192.1,691z"/>
							</g>
						</g>
					</g>
				</g>
				<g>
					<g>
						<g>
							<g>
								<path class="st12" d="M1214.2,700.3c0.4,0.5-9.7,3-19.8,7.9c-10.5,4.9-17.1,10-17.8,9.7c-0.8-0.2,5-6,15.9-11.1
									C1203,701.7,1213.8,699.8,1214.2,700.3z"/>
							</g>
						</g>
					</g>
				</g>
				<g>
					<g>
						<g>
							<g>
								<path class="st12" d="M1026.5,950.2c-0.8,0.2-33.3-59.6-72.5-133.3c-39.6-73.7-70.6-133.8-69.8-133.8
									c0.8-0.2,33.3,59.6,72.5,133.3C995.9,890.1,1027.3,949.9,1026.5,950.2z"/>
							</g>
						</g>
					</g>
				</g>
			</g>
		</g>
		<g>
			<g>
				<g>
					<polygon class="st12" points="878.8,602.2 1272.8,604.5 1346.5,480.3 1059.5,481.5 993.2,593.2 878.8,594.1 					"/>
				</g>
			</g>
			<g>
				<path class="st0" d="M1177.4,553.1c-8.9-0.7-14.7-5.6-13.6-10.9c1.2-5.3,9.3-8.8,18.2-8.1c8.9,0.7,14.7,5.6,13.6,10.9
					C1194.4,550.1,1186.3,553.8,1177.4,553.1z"/>
			</g>
		</g>
		<g>
			<g>
				<g>
					<path class="st5" d="M846.6,266.1c3.9-8.3,14-12.3,27.5-15.1s29.5-1.2,40.7,3.9c7.8,3.5,13.6,8.6,22.5,10.4
						c14.7,3,32.2-3.5,46.5,0.5c8.5,2.3,13.2,8.6,11.2,13.9c-2.3,5.3-11.2,9.5-20.6,9.3c9.7,2.1,12.8,10.4,7,15.5
						c-5.8,5.1-17.5,7.2-27.5,6s-19-4.9-26.8-9c-7.8-4.2-14.7-8.8-22.9-12.5c-8.1-3.7-18.2-6.5-28.7-6.3c-14,0.5-26,6.7-32.2,14.1
						c-6.2,7.4-7.8,16-8.5,24.3c-0.8,8.3-1.2,16.9-5,24.8c-0.4,0.9-1.2,2.1-2.7,2.3c-2.3,0.5-4.3-0.9-5.4-2.3
						c-12.8-14.1-20.9-29.7-23.7-45.7c-1.6-9.3-1.2-18.1,7.4-25.7C814.4,266.8,836.1,261,846.6,266.1"/>
				</g>
			</g>
			<g>
				<g>
					<g>
						<g>
							<g>
								<g>
									<g>
										<g>
											<g>
												<g>
													<g>
														<g>
															<g>
																<g>
																	<g>
																		<path class="st14" d="M819.5,304.8l-7,93.9c-1.2,16,2.3,39.6,44.6,39.6l0,0c36.8-1.6,47.7-22.3,48.5-37.1
																			c0.4-7,1.2-13,1.2-13.7c0,0,39.9-1.2,45-24.8c2.3-11.4,3.9-35,4.7-56.6c1.2-22.9-27.9-42.7-65.9-45l-3.9-0.2
																			C845,259.9,820.2,280,819.5,304.8z"/>
																	</g>
																</g>
															</g>
														</g>
													</g>
												</g>
											</g>
										</g>
									</g>
									<g>
										<g>
											<g>
												<g>
													<g>
														<g>
															<g>
																<g>
																	<g>
																		<path class="st16" d="M906.7,387.1c0,0-25.2-0.5-50-12.1c0,0,9.3,17.8,48.9,18.1L906.7,387.1z"/>
																	</g>
																</g>
															</g>
														</g>
													</g>
												</g>
											</g>
										</g>
									</g>
								</g>
							</g>
						</g>
						<g>
							<g>
								<g>
									<g>
										<g>
											<g>
												<g>
													<g>
														<g>
															<g>
																<g>
																	<g>
																		<g>
																			<g>
																				<g>
																					<path class="st5" d="M942,321.3c-0.4,1.9-3.1,3.2-6.2,3c-3.1,0-5.4-1.6-5.4-3.5c0.4-1.9,3.1-3.2,6.2-3
																						C939.7,318,942,319.7,942,321.3z"/>
																				</g>
																			</g>
																		</g>
																	</g>
																</g>
															</g>
														</g>
													</g>
												</g>
												<g>
													<g>
														<g>
															<g>
																<g>
																	<g>
																		<g>
																			<g>
																				<g>
																					<g>
																						<path class="st5" d="M945.9,317.3c-0.8,0.5-4.7-1.9-10.9-2.1c-6.2-0.5-10.9,1.2-11.2,0.7
																							c-0.4-0.2,0.4-0.9,2.7-1.6c1.9-0.7,5.4-1.4,9.3-1.2s7,1.4,8.5,2.3C945.5,316.2,946.3,317.1,945.9,317.3z"/>
																					</g>
																				</g>
																			</g>
																		</g>
																	</g>
																</g>
															</g>
														</g>
													</g>
												</g>
											</g>
											<g>
												<g>
													<g>
														<g>
															<g>
																<g>
																	<g>
																		<g>
																			<g>
																				<g>
																					<path class="st5" d="M882.3,318.7c-0.4,1.9-3.1,3.2-6.2,3c-3.1,0-5.4-1.6-5.4-3.5c0.4-1.9,3.1-3.2,6.2-3
																						S882.3,316.9,882.3,318.7z"/>
																				</g>
																			</g>
																		</g>
																	</g>
																</g>
															</g>
														</g>
													</g>
												</g>
												<g>
													<g>
														<g>
															<g>
																<g>
																	<g>
																		<g>
																			<g>
																				<g>
																					<g>
																						<path class="st5" d="M886.1,314.1c-0.8,0.5-4.7-1.9-10.9-2.1c-6.2-0.5-10.9,1.2-11.2,0.7
																							c-0.4-0.2,0.4-0.9,2.7-1.6c1.9-0.7,5.4-1.4,9.3-1.2c3.9,0.2,7,1.4,8.5,2.3
																							C885.8,313.2,886.5,314.1,886.1,314.1z"/>
																					</g>
																				</g>
																			</g>
																		</g>
																	</g>
																</g>
															</g>
														</g>
													</g>
												</g>
											</g>
											<g>
												<g>
													<g>
														<g>
															<g>
																<g>
																	<g>
																		<g>
																			<g>
																				<g>
																					<path class="st5" d="M903.2,342.4c0-0.2,3.9-0.5,10.1-0.5c1.6,0,3.1,0,3.5-0.7c0.4-0.7,0-1.6-0.4-2.8
																						c-1.2-2.3-2.3-4.9-3.5-7.4c-4.7-10.4-7.8-19-7-19s5,8.3,9.7,18.8c1.2,2.5,2.3,5.1,3.1,7.4
																						c0.4,1.2,1.2,2.3,0,3.7c-0.4,0.7-1.9,1.2-2.7,1.2c-1.2,0.2-1.9,0-2.7,0C907.1,342.8,903.2,342.6,903.2,342.4z"
																						/>
																				</g>
																			</g>
																		</g>
																	</g>
																</g>
															</g>
														</g>
													</g>
												</g>
											</g>
											<g>
												<g>
													<g>
														<g>
															<g>
																<g>
																	<g>
																		<g>
																			<g>
																				<g>
																					<path class="st5" d="M885,343.8c1.2,0,0.4,3.9,5.4,7.2c5,3.2,12.4,3.2,12,3.7c0,0.2-1.6,0.7-4.7,0.5
																						s-7-0.9-10.1-2.8c-3.1-1.9-4.3-4.4-4.3-6C883.4,344.7,884.6,343.8,885,343.8z"/>
																				</g>
																			</g>
																		</g>
																	</g>
																</g>
															</g>
														</g>
													</g>
												</g>
											</g>
										</g>
									</g>
								</g>
								<g>
									<g>
										<g>
											<g>
												<g>
													<g>
														<g>
															<g>
																<g>
																	<path class="st5" d="M890,300.2c-0.8,0.9-6.6,0-14,0.2c-7.4,0-13.2,0.9-14,0c-0.4-0.5,0.8-1.4,3.5-2.1
																		c2.3-0.7,6.2-1.4,10.5-1.4c4.3,0,8.1,0.7,10.5,1.4C889.3,298.8,890.4,299.7,890,300.2z"/>
																</g>
															</g>
														</g>
													</g>
												</g>
											</g>
										</g>
									</g>
								</g>
								<g>
									<g>
										<g>
											<g>
												<g>
													<g>
														<g>
															<g>
																<g>
																	<path class="st5" d="M945.5,306.7c-1.2,0.7-5.4-0.5-10.1-0.7c-5-0.5-9.3,0-10.1-0.9c-0.4-0.5,0.4-1.2,2.3-1.9
																		c1.9-0.7,5-1.2,8.5-0.9c3.5,0.2,6.2,1.2,7.8,2.1C945.5,305.5,945.9,306.2,945.5,306.7z"/>
																</g>
															</g>
														</g>
													</g>
												</g>
											</g>
										</g>
									</g>
								</g>
							</g>
						</g>
					</g>
				</g>
			</g>
			<g>
				<g>
					<g>
						<g>
							<g>
								<g>
									<g>
										<g>
											<g>
												<g>
													<path class="st14" d="M819.5,322.4c-0.8-0.2-26.4-6.5-28.3,9.7c-1.9,16.2,25.6,14.1,25.6,13.7
														C817.1,345.4,819.5,322.4,819.5,322.4z"/>
												</g>
											</g>
										</g>
									</g>
								</g>
							</g>
						</g>
					</g>
				</g>
				<g>
					<g>
						<g>
							<g>
								<g>
									<g>
										<g>
											<g>
												<g>
													<g>
														<path class="st16" d="M809.4,339.4c0,0-0.4,0.2-1.2,0.5c-0.8,0.2-2.3,0.2-3.5,0c-2.7-0.7-5-3.5-4.7-6.5
															c0-1.4,0.8-2.8,1.9-3.9c1.2-1.2,2.3-1.9,3.9-2.1c1.6-0.2,2.3,0.5,2.7,0.9c0.4,0.5,0,0.7,0.4,0.9c0,0,0.8-0.2,0.4-0.9
															c0-0.2-0.4-0.7-0.8-1.2c-0.8-0.2-1.6-0.5-2.7-0.5c-1.9,0-4.3,1.2-5.4,2.3c-1.2,1.2-1.9,2.8-2.3,4.4
															c-0.4,3.2,2.3,6.5,5.8,7.2c1.9,0.5,3.5,0,4.3-0.2C809.4,339.6,809.8,339.4,809.4,339.4z"/>
													</g>
												</g>
											</g>
										</g>
									</g>
								</g>
							</g>
						</g>
					</g>
				</g>
			</g>
			<g>
				<g>
					<path class="st5" d="M965.3,301.8c-17.8,1.6-36.8-2.3-49.2-10c-8.9-5.6-14.7-13-26.4-16c-7.8-2.1-17.1-1.6-24.8,0.5
						c-7.8,2.1-14.3,5.3-20.6,9c5.4,12.5-1.9,25.5-9.3,37.6c-0.8,1.4-1.9,2.8-3.9,3.5c-3.5,1.2-8.1-0.2-10.5-2.1
						c-3.9-3-5-7.2-5.4-10.9c-1.2-8.8,0-17.8,5-26.2c4.7-8.3,13.2-16,24.8-21.6c14.7-6.7,33.7-9.5,52.4-8.1
						c18.2,1.4,35.7,6.5,48.9,14.1c6.2,3.5,12,7.6,14.3,12.5"/>
				</g>
			</g>
		</g>
	</g>
</g>
<g id="Plant">
	<g>
		<g>
			<g>
				<g>
					<path class="st8" d="M207.1,800.4c14-4.2,30.2-4.9,45.4-3.2c8.1,0.9,16.7,2.3,22.5,6c5.4,3.7,6.6,10.2,0.4,13.4
						c-3.9,1.9-9.3,2.1-14.3,2.1c-12,0-25.2-1.4-34.9,3c-5.4,2.5-9.3,6.5-15.5,7.9c-6.6,1.2-13.6-1.2-17.1-4.6
						c-3.5-3.5-3.5-7.9-1.9-11.6C191.6,813.2,193.2,804.6,207.1,800.4z"/>
				</g>
			</g>
			<g>
				<g>
					<path class="st8" d="M175.7,763.8c8.5,7.2,24.8,4.9,32.6,0.5c7.8-4.4,10.9-10.9,14-16.9c6.6-13.9,13.6-28.5,8.5-42.7
						c-1.6-4.2-4.3-8.3-9.3-11.6c-5-3.2-12.8-5.1-19.8-3.9c-8.1,1.4-13.6,6.3-17.1,10.7c-10.9,13.7-16.7,28.5-16.7,43.6
						C167.6,750.6,168.7,758,175.7,763.8"/>
				</g>
			</g>
			<g>
				<g>
					<path class="st8" d="M152.5,774.2c9.3-6.5,10.9-16,7-24.1c-4.3-8.1-13.2-15.1-24-20.9c-12.4-6.7-27.1-11.8-43-15.1
						c-6.2-1.4-12.8-2.3-19.4-1.9c-6.6,0.5-13.2,2.3-16.3,5.8c-4.7,5.1,0,11.4,4.7,16.5c8.1,9,17.8,17.6,28.3,25.7
						c8.5,6.5,18.2,13,31,15.8c12.8,3,26.4,2.5,33-2.8"/>
				</g>
			</g>
			<g>
				<g>
					<g>
						<path class="st5" d="M175,872.7c0,0,0.4-1.2,0.8-3.2c0.4-2.3,0.8-5.3,1.6-9c0.8-3.7,1.6-8.3,3.5-13.2
							c1.6-4.9,4.7-10.2,8.1-15.5s8.1-10.2,13.2-13.9c5-3.9,11.2-6.7,16.7-8.3c5.4-1.6,10.5-2.3,14-2.5s5.4-0.5,5.4-0.5
							s-1.9,0-5.4,0c-3.5,0.2-8.9,0.7-14.7,2.3c-5.8,1.6-12.4,4.4-17.8,8.3s-10.1,8.8-13.6,14.4c-3.5,5.3-6.2,10.7-7.8,15.8
							c-1.6,4.9-2.3,9.5-3.1,13.2c-0.4,3.7-0.8,7-0.8,9C175,871.6,175,872.7,175,872.7z"/>
					</g>
				</g>
			</g>
			<g>
				<g>
					<g>
						<path class="st5" d="M176.1,865.8c0,0,0-0.5,0-1.6c0-1.2,0-2.5,0-4.4c0-3.7,0-9.3,0.4-16c0.4-13.4,2.3-28,6.2-48.4
							c3.5-19.2,8.1-41.7,13.2-56.3c1.2-3.2,2.3-6.3,3.1-8.8c1.2-2.5,1.9-4.9,2.7-6.7c0.8-1.6,1.2-3,1.6-4.2
							c0.4-0.9,0.4-1.4,0.4-1.4s-0.4,0.5-0.8,1.4c-0.4,1.2-1.2,2.5-1.9,4.2c-0.8,1.9-1.9,3.9-3.1,6.7c-1.2,2.5-2.3,5.6-3.5,8.8
							c-5,13.2-10.1,31.8-14,52.2c-3.9,20.6-5.4,39.2-5.4,52.9c0,6.7,0,12.3,0.4,16c0,1.9,0.4,3.2,0.4,4.4
							C175.7,865.3,175.7,865.8,176.1,865.8z"/>
					</g>
				</g>
			</g>
			<g>
				<g>
					<g>
						<path class="st5" d="M176.1,829.9c0,0,0-1.6,0-4.6c-0.4-3-0.8-7.2-2.3-12.3c-1.6-5.1-3.5-11.4-6.6-17.8
							c-1.6-3-4.7-10.4-12.4-21.3c-10.5-14.8-24.4-26.9-36.8-34.3c-2.7-2.1-6.2-3.5-8.5-4.9c-1.2-0.7-2.3-1.4-3.9-1.9
							c-1.2-0.5-2.3-0.9-3.5-1.4c-3.9-1.6-6.2-2.5-6.6-2.5c-0.4,0.2,8.9,3.7,20.9,11.1c12,7.6,25.6,19.5,36.1,34.1
							c5.8,7.9,9.7,15.1,12.8,21.1c3.1,6.5,5.4,12.7,7,17.8c1.6,5.1,2.3,9.3,3.1,12.3C175.7,828.2,176.1,829.9,176.1,829.9z"/>
					</g>
				</g>
			</g>
		</g>
		<g>
			<g>
				<polygon class="st5" points="117.9,893.4 123.8,942.8 230.4,942.8 236.2,893.4 				"/>
			</g>
		</g>
		<g>
			<g>
				<rect x="107.5" y="873.9" class="st5" width="141.5" height="19.5"/>
			</g>
		</g>
		<g>
			<g>
				<polygon class="st12" points="107.5,940.9 107.5,946.2 114.1,946.2 246.7,946.2 246.7,940.9 				"/>
			</g>
		</g>
		<g>
			<g>
				<polygon class="st12" points="120.7,955.7 114.1,946.2 241.6,946.2 233.9,955.7 				"/>
			</g>
		</g>
		<g>
			<g>
				<g>
					<path class="st1" d="M234.3,909.6c0,0,0,0.2-0.4,0.5c-0.4,0.2-0.8,0.7-1.6,1.2c-1.6,1.2-3.5,2.8-6.2,4.6l-0.4,0.2l-0.4-0.2
						c-3.9-3.2-8.9-7.4-15.1-12.5h0.8c-4.7,3.9-9.7,8.1-15.1,12.7l-0.4,0.5l-0.4-0.5c-5.4-3.9-11.6-8.1-17.8-12.7h1.2
						c-0.4,0.2-0.8,0.5-1.2,0.7c-5.4,4.2-10.9,8.1-15.9,11.8l-0.4,0.5l-0.4-0.5c-5.4-4.6-10.5-8.8-15.1-12.7h0.8
						c-7.4,5.1-13.6,9.3-18.6,12.5l-0.4,0.2l-0.4-0.2c-2.3-2.5-4.3-4.4-5.8-5.8c-0.8-0.7-1.2-1.2-1.6-1.6c-0.4-0.5-0.4-0.5-0.4-0.5
						s0.4,0.2,0.8,0.5c0.4,0.5,1.2,0.9,1.6,1.4c1.6,1.4,3.5,3.2,6.2,5.8h-0.4c4.7-3.2,10.9-7.6,18.2-12.7l0.4-0.2l0.4,0.2
						c4.7,3.9,9.7,8.1,15.1,12.5h-1.2c5-3.7,10.5-7.9,15.9-11.8c0.4-0.2,0.8-0.5,1.2-0.7l0.4-0.5l0.4,0.5c6.2,4.4,12,8.8,17.8,12.7
						h-1.2c5.4-4.6,10.5-8.8,15.1-12.5l0.4-0.5l0.4,0.5c5.8,5.1,11.2,9.5,14.7,12.7H225c2.7-1.9,5-3.5,6.6-4.6
						c0.8-0.5,1.2-0.9,1.6-1.2C233.9,909.6,234.3,909.6,234.3,909.6z"/>
				</g>
			</g>
		</g>
		<g>
			<g>
				<g>
					<path class="st12" d="M237.8,892.9c0,0.2-26.8,0.5-59.3,0.5c-33,0-59.3-0.2-59.3-0.5s26.8-0.5,59.3-0.5
						C211,892.7,237.8,892.7,237.8,892.9z"/>
				</g>
			</g>
		</g>
		<g>
			<g>
				<g>
					<path class="st5" d="M243.2,946.9c0,0.2-29.1,0.5-64.8,0.5s-64.8-0.2-64.8-0.5s29.1-0.5,64.8-0.5
						C214.1,946.5,243.2,946.7,243.2,946.9z"/>
				</g>
			</g>
		</g>
	</g>
</g>
<g id="Devices">
	<g>
		<g>
			<polygon class="st5" points="1500,377.4 1426.3,561.9 1446.9,561.9 1519.8,377.4 			"/>
		</g>
		<g>
			<path class="st5" d="M1471.7,498.8c-1.2,3.5,33.3,104.1,33.3,104.1h-16.7l-26.4-79.7L1471.7,498.8z"/>
		</g>
	</g>
	<g>
		<g>
			<g>
				<g>
					<rect x="1371.7" y="736" class="st8" width="345.9" height="219.3"/>
				</g>
				<g>
					<rect x="1717.6" y="768" class="st5" width="17.1" height="10.2"/>
				</g>
				<g>
					<rect x="1717.6" y="800.4" class="st5" width="17.1" height="10.2"/>
				</g>
				<g>
					<rect x="1717.6" y="832.6" class="st5" width="17.1" height="10.2"/>
				</g>
				<g>
					<rect x="1717.6" y="864.9" class="st5" width="17.1" height="10.2"/>
				</g>
				<g>
					<g>
						<path class="st5" d="M1735.4,835.7c0,0,1.9-0.2,5-0.7c3.5-0.2,8.1-0.9,14.7-0.9c6.2,0,14,0.7,20.9,3.2c3.5,1.4,7,3.2,8.9,5.8
							c2.3,2.5,3.1,5.3,2.7,8.3c-0.4,2.8-1.9,5.6-4.3,7.9c-2.3,2.3-5.4,4.2-8.9,5.6c-6.6,3-14,4.2-20.2,4.9
							c-6.2,0.5-11.2,0.5-14.7,0.2c-3.5-0.2-5.4-0.5-5.4-0.5s1.9,0,5.4,0c3.5,0,8.5,0,14.3-0.7c5.8-0.7,12.8-2.1,19.4-4.9
							c6.2-2.8,12-7.4,12.4-12.7c0.4-2.8-0.4-5.3-2.3-7.6c-1.9-2.3-5-3.9-8.1-5.3c-6.6-2.5-14-3.2-20.2-3.5
							c-6.2,0-10.9,0.2-14.3,0.5C1737.3,835.4,1735.4,835.7,1735.4,835.7z"/>
					</g>
				</g>
				<g>
					<g>
						<path class="st5" d="M1731.1,803.4c0,0,0.4-0.2,1.6-0.7c1.2-0.2,2.7-0.7,5-1.2c4.7-0.9,11.6-1.6,19.8-0.7
							c1.9,0.2,4.3,0.7,6.2,1.4c1.9,0.7,3.9,2.1,4.7,3.7c1.6,3-0.4,6.5-3.9,9.3c-1.9,1.4-4.3,2.5-7,3.2c-2.7,0.7-6.6,0.7-9.3-0.2
							s-5.4-2.8-5.4-4.9s2.3-4.2,5.4-5.1c3.1-0.9,6.6-0.9,10.1-0.7c3.1,0.5,6.2,1.4,8.5,2.5c5,2.3,8.1,5.8,8.5,9.3
							c0.8,3.5-1.6,6.7-4.3,9.3c-3.1,2.5-7,4.2-10.5,5.3c-7.8,2.3-14.7,2.8-19.4,3c-2.3,0-4.3,0.2-5.4,0.2s-1.9,0-1.9,0
							s2.7-0.2,7.4-0.5c4.7-0.5,11.2-0.9,18.6-3.2c3.5-1.2,7.4-2.8,10.1-5.1c2.7-2.3,4.7-5.3,3.9-8.6c-0.8-3.2-3.5-6.3-8.1-8.3
							c-2.3-1.2-5-1.9-7.8-2.3c-2.7-0.5-5.8-0.2-8.5,0.5c-2.7,0.7-4.3,2.3-4.3,3.9s1.9,3,4.3,3.9c2.3,0.9,5.4,0.9,7.8,0.2
							c2.7-0.5,4.7-1.6,6.2-2.8c3.5-2.3,5-5.6,3.9-8.3c-1.2-2.8-5.4-4.2-9.7-4.6c-8.1-1.2-14.7-0.5-19.4,0.2
							C1733.5,803,1731.1,803.7,1731.1,803.4z"/>
					</g>
				</g>
				<g>
					<g>
						<path class="st5" d="M1731.1,771.9c0,0,1.2-0.2,3.9-0.5c2.3,0,6.2,0,10.5,0.9c4.3,0.9,8.9,2.5,12.8,5.1
							c3.9,2.8,6.6,6.5,6.6,10.7c0.4,4.2-1.9,8.1-5.4,10.9c-3.5,2.8-8.1,4.6-12.4,5.6c-4.3,0.9-7.8,1.2-10.1,1.2s-3.9-0.2-3.9-0.2
							c0-0.2,5.8,0.2,13.6-1.9c3.9-1.2,8.1-2.8,11.2-5.6c3.5-2.8,5.4-6.3,5-10.2c-0.4-3.9-2.7-7.4-6.2-10c-3.5-2.5-8.1-4.2-12-5.1
							C1737,771.4,1731.1,772.4,1731.1,771.9z"/>
					</g>
				</g>
				<g>
					<g>
						<path class="st5" d="M1474.4,619.6c0,0,1.6,1.4,3.1,4.2c1.6,2.8,3.1,7,4.7,12.5c1.6,5.6,2.7,12.3,3.9,19.9
							c1.2,7.9,2.3,16.7,4.3,26.7c0.4,2.5,1.2,4.9,1.9,7.4c0.8,2.5,1.9,5.1,3.9,7.4c1.9,2.3,5,4.4,8.5,6.3c3.5,1.9,7,3.7,11.2,5.1
							c8.1,3,17.8,5.1,27.9,5.8c10.1,0.7,20.9-0.2,30.6-3.2c9.7-2.8,17.5-8.3,19.8-14.8c1.2-3.2,0.8-6.7-1.2-10
							c-1.9-3.2-5.8-5.8-10.9-7.6c-4.7-1.9-10.5-3-16.3-3.2c-5.8-0.2-12,0.7-16.7,3c-2.3,1.2-4.3,2.3-5.4,3.9
							c-1.2,1.6-1.6,3.2-1.2,5.1c1.2,3.5,5.4,6.5,10.9,8.1c5.4,1.9,11.6,2.5,17.8,3c6.2,0.5,12.4,0.7,18.2,0.7
							c12.4,0.2,24.4-0.5,36.1-1.2c23.7-1.6,46.5-3.9,68.3-3.9c21.7-0.2,43,1.6,60.9,7c8.9,2.5,16.7,6,22.5,10.2
							c6.2,4.2,10.1,9,11.6,13.9c3.5,10-0.4,19.2-6.6,26.2c-6.6,7-15.5,11.6-22.9,14.6c-7.8,3-14.3,4.9-19,5.8c-4.7,0.9-7,1.4-7,1.4
							s0.8-0.2,1.9-0.5s3.1-0.7,5-1.2c4.7-1.2,11.2-2.8,18.6-6c7.4-3.2,16.3-7.9,22.5-14.6c6.2-6.7,9.7-16,6.2-25.5
							c-1.9-4.6-5.4-9.5-11.6-13.4c-5.8-3.9-13.6-7.4-22.1-9.7c-17.5-5.1-38.4-7-60.1-6.7c-21.7,0.2-44.6,2.5-68.3,3.9
							c-12,0.7-24,1.4-36.5,1.2c-6.2,0-12.4-0.2-18.6-0.7c-6.2-0.5-12.8-1.2-18.2-3c-5.8-1.9-10.5-5.1-11.6-9
							c-0.8-1.9,0-3.9,1.2-5.8c1.6-1.9,3.5-3.2,6.2-4.4c5-2.3,11.6-3.2,17.8-3.2c6.2,0.2,12.4,1.4,17.5,3.5s9.3,4.9,11.6,8.3
							c2.3,3.5,2.3,7.2,1.2,10.4c-2.7,7-10.9,12.5-20.9,15.5c-10.1,3-21.3,3.9-31.4,3.2c-10.5-0.7-20.2-2.8-28.7-5.8
							c-4.3-1.6-8.1-3.2-11.2-5.3c-3.5-2.1-6.6-3.9-8.9-6.5c-1.9-2.5-3.1-5.1-3.9-7.6c-0.8-2.5-1.6-5.1-1.9-7.4
							c-1.9-9.7-3.1-18.8-4.3-26.7c-1.2-7.9-2.3-14.6-3.5-19.9c-1.2-5.6-2.7-9.7-4.3-12.5c-0.8-1.4-1.2-2.5-1.9-3
							C1474.4,619.8,1474.4,619.6,1474.4,619.6z"/>
					</g>
				</g>
			</g>
			<g>
				<g>
					<path class="st5" d="M1697.8,946.2c0,0,0-0.2,0-0.9s0-1.6,0-2.8c0-2.5,0-6,0-10.9c0-9.5,0-23.4-0.4-41
						c0-35.2-0.4-85.5-0.4-145.8l0.8,0.5c-91.5,0-198.5,0-312.9,0l0,0l1.2-0.7c0,74.2,0,143.3,0,201.4l-0.8-0.5
						c93.8,0,171.8,0.2,226.5,0.2c27.5,0,48.9,0,63.6,0.2c7.4,0,12.8,0,16.7,0C1695.8,946,1697.8,946.2,1697.8,946.2s-1.9,0-5.8,0
						s-9.3,0-16.7,0c-14.7,0-36.1,0-63.2,0.2c-54.7,0-133,0.2-227.2,0.2h-0.8v-0.5c0-58.2,0-127.5,0-201.4v-0.7h1.2l0,0
						c114,0,221,0,312.9,0h0.8v0.5c0,60.3-0.4,110.8-0.4,146c0,17.6,0,31.5-0.4,41c0,4.6,0,8.3,0,10.7c0,1.2,0,2.1,0,2.8
						C1698.2,945.8,1697.8,946.2,1697.8,946.2z"/>
				</g>
			</g>
		</g>
		<g>
			<g>
				<path class="st5" d="M1609.8,769.4c0,0.5-0.8,0.9-1.6,0.9c-0.8,0-1.6-0.5-1.6-0.9s0.8-0.9,1.6-0.9
					C1609,768.4,1609.8,768.9,1609.8,769.4z"/>
			</g>
			<g>
				<path class="st5" d="M1618.7,769.4c0,0.5-0.8,0.9-1.6,0.9c-0.8,0-1.6-0.5-1.6-0.9s0.8-0.9,1.6-0.9
					C1617.9,768.4,1618.7,768.9,1618.7,769.4z"/>
			</g>
			<g>
				<path class="st5" d="M1627.6,769.4c0,0.5-0.8,0.9-1.6,0.9c-0.8,0-1.6-0.5-1.6-0.9s0.8-0.9,1.6-0.9
					C1626.8,768.4,1627.6,768.9,1627.6,769.4z"/>
			</g>
			<g>
				<path class="st5" d="M1636.5,769.4c0,0.5-0.8,0.9-1.6,0.9c-0.8,0-1.6-0.5-1.6-0.9s0.8-0.9,1.6-0.9
					C1635.7,768.4,1636.5,768.9,1636.5,769.4z"/>
			</g>
			<g>
				<path class="st5" d="M1645,769.4c0,0.5-0.8,0.9-1.6,0.9c-0.8,0-1.6-0.5-1.6-0.9s0.8-0.9,1.6-0.9
					C1644.7,768.4,1645,768.9,1645,769.4z"/>
			</g>
			<g>
				<path class="st5" d="M1654,769.4c0,0.5-0.8,0.9-1.6,0.9c-0.8,0-1.6-0.5-1.6-0.9s0.8-0.9,1.6-0.9
					C1653.2,768.4,1654,768.9,1654,769.4z"/>
			</g>
			<g>
				<path class="st5" d="M1662.9,769.4c0,0.5-0.8,0.9-1.6,0.9c-0.8,0-1.6-0.5-1.6-0.9s0.8-0.9,1.6-0.9
					C1662.1,768.4,1662.9,768.9,1662.9,769.4z"/>
			</g>
			<g>
				<ellipse class="st5" cx="1657.1" cy="773.1" rx="1.6" ry="0.9"/>
			</g>
			<g>
				<ellipse class="st5" cx="1648.1" cy="773.1" rx="1.6" ry="0.9"/>
			</g>
			<g>
				<path class="st5" d="M1640.8,773.1c0,0.5-0.8,0.9-1.6,0.9c-0.8,0-1.6-0.5-1.6-0.9c0-0.5,0.8-0.9,1.6-0.9
					S1640.8,772.4,1640.8,773.1z"/>
			</g>
			<g>
				<ellipse class="st5" cx="1629.9" cy="773.1" rx="1.6" ry="0.9"/>
			</g>
			<g>
				<ellipse class="st5" cx="1621" cy="773.1" rx="1.6" ry="0.9"/>
			</g>
			<g>
				<path class="st5" d="M1613.6,773.1c0,0.5-0.8,0.9-1.6,0.9s-1.6-0.5-1.6-0.9c0-0.5,0.8-0.9,1.6-0.9
					C1612.9,772.1,1613.6,772.4,1613.6,773.1z"/>
			</g>
			<g>
				<path class="st5" d="M1609.8,777c0,0.5-0.8,0.9-1.6,0.9c-0.8,0-1.6-0.5-1.6-0.9c0-0.5,0.8-0.9,1.6-0.9S1609.8,776.5,1609.8,777z
					"/>
			</g>
			<g>
				<path class="st5" d="M1618.7,777c0,0.5-0.8,0.9-1.6,0.9c-0.8,0-1.6-0.5-1.6-0.9c0-0.5,0.8-0.9,1.6-0.9
					C1617.9,776.1,1618.7,776.5,1618.7,777z"/>
			</g>
			<g>
				<path class="st5" d="M1627.6,777c0,0.5-0.8,0.9-1.6,0.9c-0.8,0-1.6-0.5-1.6-0.9c0-0.5,0.8-0.9,1.6-0.9S1627.6,776.5,1627.6,777z
					"/>
			</g>
			<g>
				<path class="st5" d="M1636.5,777c0,0.5-0.8,0.9-1.6,0.9c-0.8,0-1.6-0.5-1.6-0.9c0-0.5,0.8-0.9,1.6-0.9
					C1635.7,776.1,1636.5,776.5,1636.5,777z"/>
			</g>
			<g>
				<path class="st5" d="M1645,777c0,0.5-0.8,0.9-1.6,0.9c-0.8,0-1.6-0.5-1.6-0.9c0-0.5,0.8-0.9,1.6-0.9
					C1644.7,776.1,1645,776.5,1645,777z"/>
			</g>
			<g>
				<path class="st5" d="M1654,777c0,0.5-0.8,0.9-1.6,0.9c-0.8,0-1.6-0.5-1.6-0.9c0-0.5,0.8-0.9,1.6-0.9
					C1653.2,776.1,1654,776.5,1654,777z"/>
			</g>
			<g>
				<path class="st5" d="M1662.9,777c0,0.5-0.8,0.9-1.6,0.9c-0.8,0-1.6-0.5-1.6-0.9c0-0.5,0.8-0.9,1.6-0.9S1662.9,776.5,1662.9,777z
					"/>
			</g>
			<g>
				<path class="st5" d="M1659,780.5c0,0.5-0.8,0.9-1.6,0.9c-0.8,0-1.6-0.5-1.6-0.9c0-0.5,0.8-0.9,1.6-0.9S1659,780,1659,780.5z"/>
			</g>
			<g>
				<path class="st5" d="M1649.7,780.5c0,0.5-0.8,0.9-1.6,0.9c-0.8,0-1.6-0.5-1.6-0.9c0-0.5,0.8-0.9,1.6-0.9
					C1648.9,779.6,1649.7,780,1649.7,780.5z"/>
			</g>
			<g>
				<path class="st5" d="M1640.8,780.5c0,0.5-0.8,0.9-1.6,0.9c-0.8,0-1.6-0.5-1.6-0.9c0-0.5,0.8-0.9,1.6-0.9
					S1640.8,780,1640.8,780.5z"/>
			</g>
			<g>
				<path class="st5" d="M1631.9,780.5c0,0.5-0.8,0.9-1.6,0.9c-0.8,0-1.6-0.5-1.6-0.9c0-0.5,0.8-0.9,1.6-0.9
					C1631.1,779.6,1631.9,780,1631.9,780.5z"/>
			</g>
			<g>
				<path class="st5" d="M1622.6,780.5c0,0.5-0.8,0.9-1.6,0.9c-0.8,0-1.6-0.5-1.6-0.9c0-0.5,0.8-0.9,1.6-0.9
					C1621.8,779.6,1622.6,780,1622.6,780.5z"/>
			</g>
			<g>
				<path class="st5" d="M1613.6,780.5c0,0.5-0.8,0.9-1.6,0.9s-1.6-0.5-1.6-0.9c0-0.5,0.8-0.9,1.6-0.9
					C1612.9,779.6,1613.6,780,1613.6,780.5z"/>
			</g>
			<g>
				<path class="st5" d="M1609.8,784.7c0,0.5-0.8,0.9-1.6,0.9c-0.8,0-1.6-0.5-1.6-0.9c0-0.5,0.8-0.9,1.6-0.9
					C1609,783.5,1609.8,784,1609.8,784.7z"/>
			</g>
			<g>
				<path class="st5" d="M1618.7,784.7c0,0.5-0.8,0.9-1.6,0.9c-0.8,0-1.6-0.5-1.6-0.9c0-0.5,0.8-0.9,1.6-0.9
					C1617.9,783.5,1618.7,784,1618.7,784.7z"/>
			</g>
			<g>
				<path class="st5" d="M1627.6,784.7c0,0.5-0.8,0.9-1.6,0.9c-0.8,0-1.6-0.5-1.6-0.9c0-0.5,0.8-0.9,1.6-0.9
					C1626.8,783.5,1627.6,784,1627.6,784.7z"/>
			</g>
			<g>
				<path class="st5" d="M1636.5,784.7c0,0.5-0.8,0.9-1.6,0.9c-0.8,0-1.6-0.5-1.6-0.9c0-0.5,0.8-0.9,1.6-0.9
					C1635.7,783.5,1636.5,784,1636.5,784.7z"/>
			</g>
			<g>
				<path class="st5" d="M1645,784.7c0,0.5-0.8,0.9-1.6,0.9c-0.8,0-1.6-0.5-1.6-0.9c0-0.5,0.8-0.9,1.6-0.9
					C1644.7,783.5,1645,784,1645,784.7z"/>
			</g>
			<g>
				<path class="st5" d="M1654,784.7c0,0.5-0.8,0.9-1.6,0.9c-0.8,0-1.6-0.5-1.6-0.9c0-0.5,0.8-0.9,1.6-0.9
					C1653.2,783.5,1654,784,1654,784.7z"/>
			</g>
			<g>
				<path class="st5" d="M1662.9,784.7c0,0.5-0.8,0.9-1.6,0.9c-0.8,0-1.6-0.5-1.6-0.9c0-0.5,0.8-0.9,1.6-0.9
					C1662.1,783.5,1662.9,784,1662.9,784.7z"/>
			</g>
			<g>
				<ellipse class="st5" cx="1657.1" cy="788.1" rx="1.6" ry="0.9"/>
			</g>
			<g>
				<ellipse class="st5" cx="1648.1" cy="788.1" rx="1.6" ry="0.9"/>
			</g>
			<g>
				<path class="st5" d="M1640.8,788.1c0,0.5-0.8,0.9-1.6,0.9c-0.8,0-1.6-0.5-1.6-0.9c0-0.5,0.8-0.9,1.6-0.9
					S1640.8,787.7,1640.8,788.1z"/>
			</g>
			<g>
				<ellipse class="st5" cx="1629.9" cy="788.1" rx="1.6" ry="0.9"/>
			</g>
			<g>
				<ellipse class="st5" cx="1621" cy="788.1" rx="1.6" ry="0.9"/>
			</g>
			<g>
				<path class="st5" d="M1613.6,788.1c0,0.5-0.8,0.9-1.6,0.9s-1.6-0.5-1.6-0.9c0-0.5,0.8-0.9,1.6-0.9
					C1612.9,787.2,1613.6,787.7,1613.6,788.1z"/>
			</g>
		</g>
	</g>
	<g>
		<g>
			<g>
				<path class="st1" d="M1487.6,552.9c0,0,2.3,0,6.2,0.7c3.9,0.7,9.7,2.5,15.1,6c5.4,3.5,10.1,8.8,13.6,15.3
					c3.5,6.5,6.6,13.9,8.5,22.5c4.3,16.9,5,37.3,2.3,59.8c-0.8,5.6-3.1,11.6-8.5,16.5c-2.7,2.5-6.6,4.6-10.9,6.3
					c-4.3,1.6-9.7,2.5-15.1,2.1c-5.4-0.2-10.5-1.6-14.3-3.9c-1.9-1.2-3.5-2.5-4.3-4.2c-0.8-1.6-0.8-3.5,0-5.1
					c1.6-3.2,5.4-6,10.9-7.2c2.7-0.7,5.8-0.5,8.5,0c2.7,0.7,5,1.6,7,3c3.5,2.8,4.7,6.3,3.9,9.5c-0.8,3.2-3.1,6.3-5.4,9
					c-5.4,5.6-13.2,10.2-22.1,13.2c-18.2,6.3-40.7,6-57.4,0.5c-8.5-2.8-15.5-6.5-20.9-10.9c-5.4-4.2-9.7-8.8-12.8-13.7
					c-6.2-9.5-7.8-18.8-8.5-27.4s0-16.2-1.6-22.9c-0.8-3.2-1.9-6.5-3.5-9c-1.6-2.8-3.9-4.9-6.6-6.7c-5-3.7-10.5-5.6-14.3-6.3
					c-3.9-0.7-6.2-0.7-6.2-0.9c0,0,2.3,0,6.2,0.7c3.9,0.7,9.7,2.5,14.7,6.3c2.7,1.9,5,4.2,6.6,7c1.9,2.8,3.1,5.8,3.9,9.3
					c1.6,6.7,0.8,14.4,1.6,22.9c0.8,8.3,2.7,17.8,8.5,27.1c3.1,4.6,7,9.3,12.4,13.2c5.4,4.2,12.4,7.9,20.6,10.4
					c16.3,5.3,38,5.6,55.5-0.5c8.5-3,16.3-7.4,21.3-13c2.3-2.8,4.7-5.6,5.4-8.6c0.8-3-0.4-6.3-3.5-8.8c-1.6-1.2-3.5-2.1-5.8-2.8
					c-2.3-0.5-5-0.5-7.4,0c-4.7,0.9-8.1,3.7-9.7,6.5c-1.6,2.8,0.4,6,3.9,8.1c3.5,2.1,8.1,3.2,13.2,3.7c5,0.2,9.7-0.5,14-2.1
					c4.3-1.4,7.8-3.7,10.5-6c5.4-4.9,7.4-10.4,8.5-16c2.7-22.3,1.9-42.7-1.9-59.3c-1.9-8.3-5-16-8.1-22.3
					c-3.1-6.5-7.8-11.6-13.2-15.1c-5.4-3.5-10.9-5.3-14.7-6C1489.9,552.9,1487.6,552.9,1487.6,552.9z"/>
			</g>
		</g>
		<g>
			<rect x="1328.2" y="586.5" class="st1" width="128.7" height="14.6"/>
		</g>
	</g>
	<g>
		<g>
			<g>
				<rect x="359.1" y="738.1" class="st5" width="167.9" height="216.3"/>
			</g>
			<g>
				<g>
					<path class="st12" d="M512.7,931.4c0,0,0-0.2,0-0.9c0-0.7,0-1.6,0-2.8c0-2.3,0-5.8,0-10.4c0-9,0-22.3-0.4-38.7
						c0-32.9-0.4-79.3-0.4-133.3l0.8,0.5c-43.4,0-91.1,0-140.4,0l0,0l1.2-0.7c0,72.3-0.4,137.9-0.4,185.9l-0.8-0.5
						c43.4,0,78.3,0.2,102.8,0.2c12,0,21.7,0,27.9,0c3.1,0,5.4,0,7.4,0C511.9,931.4,512.7,931.4,512.7,931.4s-0.8,0-2.3,0
						c-1.6,0-4.3,0-7.4,0c-6.6,0-15.9,0-27.9,0c-24.4,0-59.7,0.2-103.2,0.2h-0.8v-0.5c0-48.2,0-113.8-0.4-185.9v-0.7h1.2l0,0
						c49.2,0,96.9,0,140.4,0h0.8v0.5c0,54.2-0.4,100.6-0.4,133.8c0,16.5-0.4,29.4-0.4,38.5c0,4.4,0,7.9,0,10.2c0,1.2,0,2.1,0,2.5
						C512.7,931.2,512.7,931.4,512.7,931.4z"/>
				</g>
			</g>
			<g>
				<g>
					<path class="st12" d="M504.2,761.2c0,0,0-0.7,0-2.3s0-3.7-0.4-6.3l0.4,0.2c-21.7,0.2-68.3,0.2-122.2,0.2l0,0
						c0.4-0.2-1.2,0.7,1.2-0.7l0,0l0,0l0,0l0,0l0,0v0.2v0.2v0.5v1.2c0,0.7,0,1.4,0,2.1c0,1.4,0,2.8,0,4.2l-1.2-0.7
						c34.1,0,64.8,0.2,86.5,0.2c10.9,0,19.8,0.2,26,0.2c3.1,0,5.4,0,7,0C503.4,761.2,504.2,761.2,504.2,761.2s-0.8,0-2.3,0
						c-1.9,0-3.9,0-7,0c-6.2,0-15.1,0-25.6,0.2c-22.1,0.2-52.7,0.2-87.3,0.2h-1.2V761c0-1.4,0-2.8,0-4.2c0-0.7,0-1.4,0-2.1v-1.2
						v-0.5v-0.2v-0.2l0,0l0,0l0,0l0,0l0,0c1.9-1.2,0.4-0.2,1.2-0.7l0,0c53.9,0,100.4,0.2,122.2,0.2h0.4v0.2c0,2.8,0,4.9-0.4,6.5
						C504.2,760.6,504.2,761.2,504.2,761.2z"/>
				</g>
			</g>
			<g>
				<g>
					<path class="st12" d="M394,767.5c0,0.2-2.7,0.7-5.8,0.7s-5.8-0.2-5.8-0.7c0-0.5,2.7-0.7,5.8-0.7C391.7,766.8,394,767,394,767.5
						z"/>
				</g>
			</g>
			<g>
				<g>
					<path class="st12" d="M500.7,778.6c0,0.2-26,0.7-58.2,0.7s-58.2-0.2-58.2-0.7c0-0.5,26-0.7,58.2-0.7
						C474.7,777.9,500.7,778.2,500.7,778.6z"/>
				</g>
			</g>
			<g>
				<g>
					<path class="st12" d="M501.5,792.1c0,0.2-25.6,0.7-57,0.7s-57-0.2-57-0.7c0-0.2,25.6-0.7,57-0.7S501.5,791.6,501.5,792.1z"/>
				</g>
			</g>
			<g>
				<ellipse class="st8" cx="442.9" cy="823.6" rx="9.3" ry="5.6"/>
			</g>
			<g>
				<g>
					<path class="st12" d="M416.5,823.4c0,0.2-5.4,0.7-12.4,0.7c-7,0-12.4-0.2-12.4-0.7c0-0.2,5.4-0.7,12.4-0.7
						S416.5,822.9,416.5,823.4z"/>
				</g>
			</g>
			<g>
				<g>
					<path class="st12" d="M491.8,821.8c0,0.2-5.4,0.7-11.6,0.7c-6.6,0-11.6-0.2-11.6-0.7c0-0.2,5.4-0.7,11.6-0.7
						C486.3,821.3,491.8,821.5,491.8,821.8z"/>
				</g>
			</g>
		</g>
		<g>
			<g>
				<path class="st5" d="M365,846.6c0,0-2.3,0-6.2-0.7c-3.9-0.7-10.1-1.9-16.7-4.6c-6.6-2.5-14-6.7-20.2-12.5
					c-6.2-5.8-11.2-13-14.7-21.3c-3.5-8.3-5.8-17.6-4.7-27.6c1.2-10,6.2-20.9,17.5-29.9c5.4-4.6,12.8-8.8,20.9-12.1
					c4.3-1.6,8.9-3,13.6-3.9s9.7-1.6,15.1-2.1c10.1-0.9,20.6-0.7,31.4-1.2c10.5-0.5,21.3-1.4,30.6-4.2c9.7-2.8,17.1-7.9,19-13.9
					c2.3-6-0.4-12.5-7-16.9c-6.6-4.4-16.3-7.2-25.6-7c-4.7,0.2-9.3,1.2-12.8,2.8s-5.8,4.4-5.4,7c0.8,5.3,8.9,9.7,17.5,10
					c8.5,0.5,16.7-2.3,22.1-6c5.4-3.7,8.5-8.1,10.9-12.5c1.9-4.4,3.5-8.8,4.7-13c3.9-16.9,2.7-30.6,1.9-40.1
					c-0.4-4.6-0.8-8.3-0.8-10.9c0-1.2,0-2.1-0.4-2.8c0-0.7,0-0.9,0-0.9s0,0.2,0.4,0.9c0,0.7,0.4,1.6,0.4,2.8
					c0.4,2.5,0.8,6.3,1.2,10.9c0.8,9.5,2.3,23.4-1.6,40.3c-1.2,4.2-2.3,8.6-4.3,13.2c-1.9,4.4-5.4,9-10.9,13
					c-5.8,3.7-14,6.7-23.7,6.3c-9.3-0.2-18.2-4.9-19-10.9c-0.4-3,1.9-6,6.2-7.9c3.9-1.9,8.9-3,14-3.2c10.1-0.5,20.6,2.5,27.5,7.2
					c7,4.6,9.7,11.6,7.4,18.1c-1.2,3.2-3.5,6.3-7,8.8c-3.5,2.5-8.1,4.6-12.8,6c-10.1,3-20.9,3.9-31.4,4.4c-10.5,0.5-20.9,0.2-31,1.2
					c-5,0.5-10.1,1.2-14.7,2.1c-4.7,0.9-8.9,2.3-13.2,3.9c-8.1,3.2-15.1,7.2-20.6,11.6c-11.2,9-16.3,19.5-17.5,29.4
					s0.8,19.2,4.3,27.4c3.5,8.1,8.1,15.3,14.3,21.1c5.8,5.8,13.2,9.7,19.4,12.5c6.6,2.8,12.4,3.9,16.3,4.9c1.9,0.5,3.5,0.5,4.7,0.7
					C364.6,846.6,365,846.6,365,846.6z"/>
			</g>
		</g>
	</g>
	<g>
		<g>
			<rect x="307.6" y="402.6" class="st5" width="397.9" height="163.4"/>
		</g>
		<g>
			<rect x="475.9" y="543.8" class="st5" width="54.3" height="61.7"/>
		</g>
	</g>
</g>
<g id="Desk">
	<g>
		<g>
			<polygon class="st5" points="347.5,602.9 347.5,625.2 552.7,625.2 552.7,955.3 571.7,955.3 571.7,625.2 1429,627.7 1429,955.3 
				1447.3,955.3 1447.3,627 1579.9,627.7 1579.9,601.1 			"/>
		</g>
		<g>
			<polygon class="st5" points="478.6,620.8 559.6,655.8 552.7,659.7 471.2,622.9 			"/>
		</g>
		<g>
			<polygon class="st5" points="1523.7,624 1429.8,664.1 1436.8,668.1 1531.4,626.1 			"/>
		</g>
		<g>
			<rect x="645.7" y="594.8" class="st5" width="212.1" height="9.3"/>
		</g>
	</g>
</g>
</svg>
