<?xml version="1.0" encoding="utf-8"?>
<!-- Generator: Adobe Illustrator 24.2.3, SVG Export Plug-In . SVG Version: 6.00 Build 0)  -->
<svg version="1.1" xmlns="http://www.w3.org/2000/svg" xmlns:xlink="http://www.w3.org/1999/xlink" x="0px" y="0px"
	 viewBox="0 0 500 500" style="enable-background:new 0 0 500 500;" xml:space="preserve">
<style type="text/css">
	.st0{fill:#FFF7F1;}
	.st1{fill:#FB4C47;}
	.st2{fill:#FF9A40;}
	.st3{fill:#E96D17;}
	.st4{fill:#FFB8A1;}
	.st5{fill:#3F2037;}
	.st6{fill:#FF8A8A;}
	.st7{opacity:0.5;}
	.st8{fill:#FFFFFF;}
	.st9{fill:#734669;}
</style>
<g id="BACKGROUND">
	<rect class="st0" width="500" height="500"/>
</g>
<g id="OBJECTS">
	<circle class="st1" cx="251" cy="251" r="249"/>
	<g>
		<g>
			<g>
				<path class="st2" d="M164.7,363.3c0,0-25-19.2-10.2-50.6c14.8-31.3,58-36,99.6-36c63.5,0,139.3,19.9,88.7,86.5
					C342.8,363.3,279.8,401.3,164.7,363.3z"/>
			</g>
		</g>
		<g>
			<g>
				<path class="st3" d="M227.3,325.8c-0.8,0-1.5-0.5-1.8-1.2c-4.6-13.1-17.4-21.4-17.6-21.4c-0.9-0.5-1.1-1.6-0.5-2.4
					c0.6-0.8,1.8-1,2.6-0.4c0.6,0.4,14,9,19,23.2c0.3,0.9-0.2,1.9-1.2,2.2C227.7,325.8,227.5,325.8,227.3,325.8z"/>
			</g>
		</g>
		<g>
			<g>
				<path class="st3" d="M254.2,349.1c-0.6,0-1.2-0.3-1.6-0.8c-16.6-23.5-65.8-30.4-66.3-30.4c-1-0.1-1.8-1-1.6-2
					c0.2-0.9,1.1-1.6,2.2-1.5c2.1,0.3,51.5,7.1,69,32c0.6,0.8,0.3,1.9-0.6,2.4C254.9,349,254.6,349.1,254.2,349.1z"/>
			</g>
		</g>
		<g>
			<g>
				<path class="st2" d="M425,423.2H88c0,0,3.4-38.4,23.7-45.8c8.2-3,27.1-11.6,46.6-20.7c27.3-12.8,56-26.7,58.9-28.1
					c0.2-0.1,0.2-0.1,0.2-0.1l2.6,0.5c3.2,0.7,6.5,1.2,9.7,1.7c3.2,0.5,6.4,0.9,9.7,1.1c17.8,1.6,35.8,0.5,53.3-3.4c0,0,0.1,0,0.1,0
					c0,0,22,10.4,46.6,21.7c3.1,1.4,6.3,2.9,9.5,4.4c21.7,9.9,43.5,19.6,52.3,22.9C421.6,384.8,425,423.2,425,423.2z"/>
			</g>
		</g>
		<g>
			<g>
				<g>
					<g>
						<g>
							<g>
								<path class="st3" d="M272.1,374.4c-18.5,0-33.9-4.5-44.8-9c-17.3-7.2-27.1-16.1-27.5-16.5c-0.7-0.6-0.7-1.7,0-2.3
									c0.7-0.6,1.8-0.6,2.5,0c0.1,0.1,9.9,8.9,26.6,15.9c15.4,6.4,40,12.6,69.9,5.5c1-0.2,1.9,0.3,2.2,1.2c0.2,0.9-0.3,1.7-1.3,2
									C289.9,373.4,280.7,374.4,272.1,374.4z"/>
							</g>
						</g>
					</g>
				</g>
			</g>
			<g>
				<g>
					<g>
						<g>
							<g>
								<path class="st3" d="M263.4,390c-6,0-12.5-0.5-19.6-1.9c-1-0.2-1.6-1-1.4-1.9c0.2-0.9,1.1-1.4,2.1-1.3
									c35,6.7,56.9-7.3,57.1-7.5c0.8-0.5,1.9-0.4,2.5,0.4c0.6,0.7,0.4,1.7-0.4,2.3C303,380.5,288.2,390,263.4,390z"/>
							</g>
						</g>
					</g>
				</g>
			</g>
		</g>
		<g>
			<g>
				<g>
					<g>
						<g>
							<g>
								<g>
									<path class="st4" d="M294.5,336.3c0,0-6.6,19-37,19c-35.4,0-43.8-17.2-43.8-17.2c3.1-7.4,5.2-14.3,6.6-20.5h0
										c2.6-11.3,3-20.2,2.8-25.6l62.2-2.2c0.6,4.8,1.5,10.5,2.6,16.2C290.8,321,294.5,336.3,294.5,336.3z"/>
								</g>
							</g>
						</g>
					</g>
				</g>
				<g>
					<g>
						<g>
							<g>
								<g>
									<path class="st5" d="M288,305.9c-9.6,6.1-30.7,15.2-67.6,11.7c2.6-11.3,3-20.2,2.8-25.6l62.2-2.2
										C286,294.5,287,300.2,288,305.9z"/>
								</g>
							</g>
						</g>
					</g>
				</g>
			</g>
			<g>
				<g>
					<g>
						<g>
							<g>
								<g>
									<g>
										<path class="st4" d="M199.5,217.9c0,0-19.3-23.9-34.2-9.8c-15,14.2,13.9,63.5,40.1,52.7L199.5,217.9z"/>
									</g>
								</g>
							</g>
						</g>
					</g>
					<g>
						<g>
							<g>
								<g>
									<g>
										<path class="st6" d="M190.3,246.2c-0.7,0-1.2-0.4-1.3-1c-2.5-16.6-17-26.8-17.2-26.9c-0.6-0.4-0.7-1.2-0.3-1.7
											s1.3-0.6,1.9-0.2c0.6,0.4,15.5,10.9,18.2,28.5c0.1,0.7-0.4,1.3-1.1,1.4C190.4,246.2,190.3,246.2,190.3,246.2z"/>
									</g>
								</g>
							</g>
						</g>
					</g>
					<g>
						<g>
							<g>
								<g>
									<g>
										<path class="st6" d="M186.2,234.2c-0.4,0-0.8-0.2-1.1-0.5c-1.9-2.6-7.7-2.9-9.8-2.8c-0.7,0-1.4-0.5-1.4-1.1
											c0-0.7,0.5-1.2,1.2-1.3c0.4,0,9-0.5,12.1,3.8c0.4,0.6,0.3,1.3-0.4,1.7C186.8,234.2,186.5,234.2,186.2,234.2z"/>
									</g>
								</g>
							</g>
						</g>
					</g>
				</g>
			</g>
			<g>
				<g>
					<g>
						<g>
							<g>
								<g>
									<g>
										<path class="st4" d="M316.8,217.9c0,0,19.3-23.9,34.2-9.8c15,14.2-13.9,63.5-40.1,52.7L316.8,217.9z"/>
									</g>
								</g>
							</g>
						</g>
					</g>
					<g>
						<g>
							<g>
								<g>
									<g>
										<path class="st6" d="M326,246.2c-0.1,0-0.1,0-0.2,0c-0.7-0.1-1.2-0.7-1.1-1.4c2.7-17.6,17.5-28.1,18.2-28.5
											c0.6-0.4,1.4-0.3,1.9,0.2c0.4,0.5,0.3,1.3-0.3,1.7c-0.1,0.1-14.6,10.3-17.2,26.9C327.2,245.7,326.6,246.2,326,246.2z"/>
									</g>
								</g>
							</g>
						</g>
					</g>
					<g>
						<g>
							<g>
								<g>
									<g>
										<path class="st6" d="M330,234.2c-0.3,0-0.5-0.1-0.7-0.2c-0.6-0.4-0.8-1.1-0.4-1.7c3.2-4.3,11.8-3.8,12.1-3.8
											c0.7,0,1.3,0.6,1.2,1.3c0,0.7-0.7,1.2-1.4,1.1c-2.1-0.1-7.8,0.2-9.8,2.8C330.8,234,330.4,234.2,330,234.2z"/>
									</g>
								</g>
							</g>
						</g>
					</g>
				</g>
			</g>
			<g>
				<g>
					<g>
						<g>
							<g>
								<path class="st4" d="M274.4,148.1c-53.9-12-102.6,32.5-90.5,81.8c8.6,34.9,27.4,78.8,73.6,79.8c48.2,1,67.5-46.9,74.4-83.2
									c6.3-33.3-14.9-66-50.1-76.5C279.4,149.4,276.9,148.7,274.4,148.1z"/>
							</g>
						</g>
					</g>
				</g>
			</g>
			<g>
				<g>
					<path class="st6" d="M261.4,260c-2.3,0-4.8-0.5-7.6-1.6c-0.8-0.3-1.2-1-1.1-1.8l3.9-27c0.1-0.9,1.1-1.6,2.1-1.5
						c1,0.1,1.8,1,1.6,1.9l-3.7,25.7c3.8,1.3,6.7,1.2,9.1-0.3c0.9-0.5,2-0.3,2.6,0.5c0.6,0.8,0.4,1.9-0.5,2.4
						C265.9,259.4,263.7,260,261.4,260z"/>
				</g>
			</g>
			<g>
				<g>
					<path class="st6" d="M257.8,277.8c-10.9,0-19.1-4.1-19.3-4.2c-0.9-0.5-1.2-1.5-0.7-2.4c0.5-0.8,1.7-1.1,2.6-0.7
						c0.9,0.5,21.9,10.8,40.1-4.6c0.8-0.6,2-0.6,2.7,0.1c0.7,0.7,0.7,1.8-0.1,2.4C274.7,275.8,265.6,277.8,257.8,277.8z"/>
				</g>
			</g>
			<g>
				<g>
					<path class="st6" d="M260.9,287.8c-4.3,0-7.7-1-8-1c-1-0.3-1.6-1.3-1.2-2.2c0.3-0.9,1.4-1.4,2.4-1.1l0,0
						c0.1,0,8.5,2.3,14.4-0.7c0.9-0.5,2.1-0.2,2.6,0.7c0.5,0.8,0.2,1.9-0.7,2.4C267.3,287.3,263.9,287.8,260.9,287.8z"/>
				</g>
			</g>
			<g>
				<g>
					<path class="st5" d="M220.8,210.8c4.1-2,10.1-4.5,15.9-5.3c3.1-0.4,5.1-3.3,4-6l-0.2-0.5c-0.8-2-2.9-3.2-5.2-3
						c-5.2,0.5-14.4,2.2-20.3,7.6c-1.3,1.2-1.7,2.9-1.2,4.5l0,0C214.7,210.8,218.1,212.1,220.8,210.8z"/>
				</g>
			</g>
			<g>
				<g>
					<path class="st5" d="M299.4,210.8c-4.1-2-10.1-4.5-15.9-5.3c-3.1-0.4-5.1-3.3-4-6l0.2-0.5c0.8-2,2.9-3.2,5.2-3
						c5.2,0.5,14.4,2.2,20.3,7.6c1.3,1.2,1.7,2.9,1.2,4.5l0,0C305.5,210.8,302.1,212.1,299.4,210.8z"/>
				</g>
			</g>
			<g class="st7">
				<g>
					<path class="st6" d="M234.7,241.9c0,4.3-8.6,7.7-19.2,7.7c-10.6,0-19.2-3.4-19.2-7.7c0-4.2,8.6-7.7,19.2-7.7
						C226.1,234.2,234.7,237.7,234.7,241.9z"/>
				</g>
			</g>
			<g class="st7">
				<g>
					<path class="st6" d="M325.1,241.9c0,4.3-8.6,7.7-19.2,7.7c-10.6,0-19.2-3.4-19.2-7.7c0-4.2,8.6-7.7,19.2-7.7
						C316.5,234.2,325.1,237.7,325.1,241.9z"/>
				</g>
			</g>
			<g>
				<g>
					<g>
						<g>
							<g>
								<path class="st5" d="M185.9,237.6c0,0-10.1-50.9-7-62.5c3.1-11.6,9.7-9.5,9.7-9.5s-54.6-40.8-27.4-64
									c19.6-16.8,42.2,19.1,42.2,19.1s-11.2-35.2,4.7-40.1c19.8-6,28.8,36.2,28.8,36.2s-1.6-31.5,14.5-30.9
									c22.3,0.9,9.8,24.4,34,33.6c24.2,9.2,60.9,13.9,47.7,50.9c0,0,17.8-0.7-4.3,65.4l0,0c-5.7-7.2-8.6-16-8.1-25
									c0.4-6.8,0.3-14.8-1.2-19.6c0,0-13.8-8.8-13.2-21.8c0,0-48.8,26.4-93.8,2.9c0,0,2.8,15.2-11.3,17.5c0,0-4.6,9.9-6.2,24
									c-0.9,8.2-3.7,16.1-8.5,23L185.9,237.6z"/>
							</g>
						</g>
					</g>
				</g>
			</g>
			<g>
				<g>
					<g>
						<g>
							<g>
								<path class="st5" d="M328.5,147.2c0,0,7.7-24,20.2-17.9c8.9,4.4-11.8,22.7-11.8,22.7s17.4-8.6,26-2.5
									c8.6,6.1-14.2,13.2-27.4,11.2C322.4,158.6,328.5,147.2,328.5,147.2z"/>
							</g>
						</g>
					</g>
				</g>
			</g>
			<g>
				<g>
					<g>
						<g>
							<g>
								<g>
									<g>
										<path class="st5" d="M236.1,224c0.1,4.7-1.8,8.5-4.2,8.6c-2.4,0-4.5-3.7-4.6-8.4c-0.1-4.7,1.8-8.5,4.2-8.6
											C233.9,215.5,236,219.3,236.1,224z"/>
									</g>
								</g>
							</g>
						</g>
					</g>
				</g>
				<g>
					<g>
						<g>
							<g>
								<g>
									<g>
										<path class="st5" d="M282,224c-0.1,4.7,1.8,8.5,4.2,8.6c2.4,0,4.5-3.7,4.6-8.4c0.1-4.7-1.8-8.5-4.2-8.6
											C284.2,215.5,282.1,219.3,282,224z"/>
									</g>
								</g>
							</g>
						</g>
					</g>
				</g>
			</g>
		</g>
		<g>
			<g>
				<path class="st8" d="M207.2,375v48.2h-3.8V375c0-0.4,0.1-0.7,0.4-1c0.3-0.4,0.9-0.7,1.5-0.7c0.9,0,1.7,0.6,1.9,1.4
					C207.2,374.7,207.2,374.8,207.2,375z"/>
			</g>
		</g>
		<g>
			<g>
				<path class="st8" d="M312.8,375v48.2H309V375c0-1,0.8-1.7,1.9-1.7c0.8,0,1.6,0.5,1.8,1.2C312.8,374.6,312.8,374.8,312.8,375z"/>
			</g>
		</g>
	</g>
	<g>
		<g>
			<g>
				<path class="st5" d="M29,426.8c0,0,0.1-1.4,0.5-3.6"/>
			</g>
			<g>
				<g>
					<g>
						<path class="st9" d="M29.5,423.2"/>
					</g>
				</g>
			</g>
		</g>
	</g>
</g>
</svg>
