<svg id="Capa_1" enable-background="new 0 0 512 512" height="512" viewBox="0 0 512 512" width="512" xmlns="http://www.w3.org/2000/svg"><g><g><g><g><path d="m497 343.464c-8.284 0-15 6.716-15 15v.195c-.625-.079-1.258-.134-1.905-.134h-70.358l49.751-49.751c.458-.457.866-.944 1.252-1.442l.138.138c2.929 2.93 6.768 4.394 10.606 4.394 3.839 0 7.678-1.465 10.606-4.394 5.858-5.858 5.858-15.355 0-21.213l-21.3-21.299c-5.857-5.859-15.355-5.857-21.213 0-5.858 5.858-5.858 15.355 0 21.213l.138.138c-.498.386-.984.795-1.441 1.252l-49.75 49.75v-70.357c0-.647-.055-1.279-.134-1.904h.195c8.284 0 15-6.716 15-15s-6.716-15-15-15h-30.121c-8.284 0-15 6.716-15 15s6.716 15 15 15h.194c-.079.625-.134 1.258-.134 1.904v70.358l-49.731-49.731c-.464-.464-.958-.878-1.464-1.268l.141-.141c5.858-5.857 5.858-15.355 0-21.213-5.857-5.857-15.355-5.857-21.213 0l-21.299 21.299c-5.858 5.857-5.858 15.355 0 21.213 2.929 2.929 6.768 4.394 10.606 4.394 3.839 0 7.678-1.465 10.606-4.394l.141-.141c.391.506.805 1 1.269 1.464l49.731 49.731h-70.33c-.656 0-1.298.057-1.933.138v-.199c0-8.284-6.716-15-15-15s-15 6.716-15 15v30.121c0 8.284 6.716 15 15 15s15-6.716 15-15v-.199c.634.082 1.276.138 1.933.138h70.329l-49.73 49.73c-.464.464-.878.958-1.269 1.464l-.141-.141c-5.857-5.859-15.355-5.857-21.213 0s-5.858 15.354 0 21.213l21.299 21.3c2.929 2.93 6.768 4.394 10.607 4.394s7.678-1.465 10.606-4.394c5.858-5.857 5.858-15.354 0-21.213l-.141-.141c.506-.391 1-.805 1.465-1.269l49.731-49.732v70.331c0 .656.057 1.298.138 1.933h-.199c-8.284 0-15 6.716-15 15s6.716 15 15 15h30.121c8.284 0 15-6.716 15-15s-6.716-15-15-15h-.199c.082-.634.138-1.276.138-1.933v-70.33l49.75 49.75c.457.457.944.866 1.442 1.252l-.138.138c-5.858 5.858-5.858 15.355 0 21.213 2.929 2.929 6.768 4.394 10.606 4.394 3.839 0 7.678-1.465 10.606-4.394l21.3-21.3c5.858-5.857 5.858-15.355 0-21.213-5.857-5.857-15.355-5.857-21.213 0l-.138.138c-.386-.498-.795-.984-1.252-1.442l-49.75-49.75h70.357c.647 0 1.28-.055 1.905-.134v.195c0 8.284 6.716 15 15 15s15-6.716 15-15v-30.121c.002-8.282-6.714-14.998-14.998-14.998z" fill="#d9225b"/><path d="m497 343.464c-8.284 0-15 6.716-15 15v.195c-.625-.079-1.258-.134-1.905-.134h-70.358l49.751-49.751c.458-.457.866-.944 1.252-1.442l.138.138c2.929 2.93 6.768 4.394 10.606 4.394 3.839 0 7.678-1.465 10.606-4.394 5.858-5.858 5.858-15.355 0-21.213l-21.3-21.299c-5.857-5.859-15.355-5.857-21.213 0-5.858 5.858-5.858 15.355 0 21.213l.138.138c-.498.386-.984.795-1.441 1.252l-49.75 49.75v-70.357c0-.647-.055-1.279-.134-1.904h.195c8.284 0 15-6.716 15-15s-6.716-15-15-15h-15.061v276.95h15.061c8.284 0 15-6.716 15-15s-6.716-15-15-15h-.199c.082-.634.138-1.276.138-1.933v-70.33l49.75 49.75c.457.457.944.866 1.442 1.252l-.138.138c-5.858 5.858-5.858 15.355 0 21.213 2.929 2.929 6.768 4.394 10.606 4.394 3.839 0 7.678-1.465 10.606-4.394l21.3-21.3c5.858-5.857 5.858-15.355 0-21.213-5.857-5.857-15.355-5.857-21.213 0l-.138.138c-.386-.498-.795-.984-1.252-1.442l-49.75-49.75h70.357c.647 0 1.28-.055 1.905-.134v.195c0 8.284 6.716 15 15 15s15-6.716 15-15v-30.121c.001-8.283-6.715-14.999-14.999-14.999z" fill="#bd0055"/></g><g><g><path d="m373.524 452.08c-43.323 0-78.569-35.246-78.569-78.569s35.246-78.569 78.569-78.569 78.569 35.246 78.569 78.569c.001 43.323-35.245 78.569-78.569 78.569z" fill="#de5958"/><path d="m373.524 294.941v157.139c43.323 0 78.569-35.246 78.569-78.569.001-43.323-35.245-78.57-78.569-78.57z" fill="#d9225b"/></g><g><path d="m347.952 339.669h-45.324c-4.392 9.164-7.058 19.304-7.576 30h52.9c8.284 0 15-6.716 15-15s-6.716-15-15-15z" fill="#d9225b"/><path d="m451.925 378.422h-48.71c-8.284 0-15 6.716-15 15s6.716 15 15 15h40.669c4.553-9.139 7.376-19.28 8.041-30z" fill="#bd0055"/></g></g></g><g><g><path d="m261.951 108.415c-8.284 0-15 6.716-15 15v.195c-.625-.079-1.258-.134-1.905-.134h-70.358l49.751-49.751c.458-.457.866-.944 1.252-1.442l.138.138c2.929 2.93 6.768 4.394 10.606 4.394 3.839 0 7.678-1.465 10.607-4.394 5.858-5.858 5.858-15.355 0-21.213l-21.3-21.299c-5.857-5.859-15.355-5.857-21.213 0-5.858 5.858-5.858 15.355 0 21.213l.138.138c-.498.386-.984.795-1.441 1.252l-49.75 49.75v-70.358c0-.647-.055-1.279-.134-1.904h.194c8.284 0 15-6.716 15-15s-6.716-15-15-15h-30.121c-8.284 0-15 6.716-15 15s6.716 15 15 15h.195c-.079.625-.134 1.258-.134 1.904v70.358l-49.732-49.731c-.464-.464-.958-.878-1.464-1.269l.141-.141c5.858-5.858 5.858-15.355 0-21.213-5.857-5.857-15.355-5.857-21.213 0l-21.299 21.3c-5.858 5.857-5.858 15.355 0 21.213 2.929 2.929 6.768 4.394 10.606 4.394 3.839 0 7.678-1.465 10.606-4.394l.141-.141c.391.506.804 1 1.269 1.464l49.731 49.731h-70.33c-.656 0-1.298.057-1.933.138v-.199c0-8.284-6.716-15-15-15s-15 6.716-15 15v30.121c0 8.284 6.716 15 15 15s15-6.716 15-15v-.199c.634.082 1.276.138 1.933.138h70.329l-49.73 49.73c-.464.464-.878.958-1.269 1.464l-.141-.141c-5.857-5.859-15.355-5.857-21.213 0s-5.858 15.355 0 21.213l21.299 21.3c2.929 2.93 6.768 4.393 10.606 4.393 3.839 0 7.678-1.465 10.606-4.393 5.858-5.857 5.858-15.355 0-21.213l-.141-.141c.506-.391 1-.805 1.465-1.269l49.731-49.731v70.331c0 .656.057 1.298.138 1.933h-.199c-8.284 0-15 6.716-15 15s6.716 15 15 15h30.121c8.284 0 15-6.716 15-15s-6.716-15-15-15h-.199c.082-.634.138-1.276.138-1.933v-70.33l49.75 49.75c.458.457.944.866 1.442 1.252l-.138.138c-5.858 5.857-5.858 15.355 0 21.213 2.929 2.929 6.768 4.393 10.606 4.393 3.839 0 7.678-1.465 10.606-4.393l21.3-21.3c5.858-5.857 5.858-15.355 0-21.213-5.857-5.857-15.356-5.857-21.213 0l-.138.138c-.386-.498-.795-.984-1.252-1.442l-49.75-49.75h70.357c.647 0 1.28-.055 1.905-.134v.195c0 8.284 6.716 15 15 15s15-6.716 15-15v-30.121c.003-8.282-6.713-14.998-14.997-14.998z" fill="#d9225b"/><path d="m261.951 108.415c-8.284 0-15 6.716-15 15v.195c-.625-.079-1.258-.134-1.905-.134h-70.358l49.751-49.751c.458-.457.866-.944 1.252-1.442l.138.138c2.929 2.93 6.768 4.394 10.606 4.394 3.839 0 7.678-1.465 10.607-4.394 5.858-5.858 5.858-15.355 0-21.213l-21.3-21.299c-5.857-5.859-15.355-5.857-21.213 0-5.858 5.858-5.858 15.355 0 21.213l.138.138c-.498.386-.984.795-1.441 1.252l-49.75 49.75v-70.358c0-.647-.055-1.279-.134-1.904h.194c8.284 0 15-6.716 15-15s-6.716-15-15-15h-15.061v276.951h15.061c8.284 0 15-6.716 15-15s-6.716-15-15-15h-.199c.082-.634.138-1.276.138-1.933v-70.33l49.75 49.75c.458.457.944.866 1.442 1.252l-.138.138c-5.858 5.857-5.858 15.355 0 21.213 2.929 2.929 6.768 4.393 10.606 4.393 3.839 0 7.678-1.465 10.606-4.393l21.3-21.3c5.858-5.857 5.858-15.355 0-21.213-5.857-5.857-15.356-5.857-21.213 0l-.138.138c-.386-.498-.795-.984-1.252-1.442l-49.75-49.75h70.357c.647 0 1.28-.055 1.905-.134v.195c0 8.284 6.716 15 15 15s15-6.716 15-15v-30.121c.001-8.283-6.715-14.999-14.999-14.999z" fill="#bd0055"/></g><g><g><path d="m138.476 217.031c-43.323 0-78.569-35.246-78.569-78.569s35.246-78.569 78.569-78.569 78.569 35.246 78.569 78.569-35.246 78.569-78.569 78.569z" fill="#de5958"/><path d="m138.476 59.893v157.139c43.323 0 78.569-35.246 78.569-78.569 0-43.324-35.246-78.57-78.569-78.57z" fill="#d9225b"/></g><g><path d="m112.903 104.62h-45.324c-4.392 9.164-7.058 19.304-7.576 30h52.9c8.284 0 15-6.716 15-15s-6.716-15-15-15z" fill="#d9225b"/><path d="m216.876 143.373h-48.71c-8.284 0-15 6.716-15 15s6.716 15 15 15h40.669c4.553-9.139 7.376-19.28 8.041-30z" fill="#bd0055"/></g></g></g></g><g><g><path d="m477.91 100.923h-35.62l25.187-25.188c5.858-5.857 5.858-15.355 0-21.213-5.857-5.857-15.355-5.857-21.213 0l-25.187 25.188v-35.62c0-8.284-6.716-15-15-15s-15 6.716-15 15v35.619l-25.186-25.187c-5.857-5.857-15.355-5.857-21.213 0s-5.858 15.355 0 21.213l25.188 25.188h-35.62c-8.284 0-15 6.716-15 15s6.716 15 15 15h35.619l-25.187 25.187c-5.858 5.857-5.858 15.355 0 21.213 2.929 2.929 6.768 4.394 10.607 4.394s7.678-1.465 10.606-4.394l25.186-25.187v35.619c0 8.284 6.716 15 15 15s15-6.716 15-15v-35.62l25.188 25.188c2.929 2.929 6.768 4.394 10.607 4.394s7.678-1.465 10.606-4.394c5.858-5.857 5.858-15.355 0-21.213l-25.186-25.187h35.619c8.284 0 15-6.716 15-15-.001-8.284-6.717-15-15.001-15z" fill="#d9225b"/><path d="m477.91 100.923h-35.62l25.187-25.188c5.858-5.857 5.858-15.355 0-21.213-5.857-5.857-15.355-5.857-21.213 0l-25.187 25.188v-35.62c0-8.284-6.716-15-15-15v173.665c8.284 0 15-6.716 15-15v-35.62l25.188 25.188c2.929 2.929 6.768 4.394 10.607 4.394s7.678-1.465 10.606-4.394c5.858-5.857 5.858-15.355 0-21.213l-25.186-25.187h35.619c8.284 0 15-6.716 15-15-.001-8.284-6.717-15-15.001-15z" fill="#bd0055"/></g><g><path d="m406.077 173.516c-31.757 0-57.593-25.836-57.593-57.593s25.836-57.594 57.593-57.594 57.594 25.837 57.594 57.594-25.837 57.593-57.594 57.593z" fill="#de5958"/><path d="m406.078 58.329v115.186c31.757 0 57.593-25.836 57.593-57.593 0-31.756-25.837-57.593-57.593-57.593z" fill="#d9225b"/></g></g><g><g><path d="m186.857 381.004h-35.621l25.187-25.188c5.858-5.857 5.858-15.355 0-21.213-5.857-5.857-15.355-5.857-21.213 0l-25.186 25.187v-35.619c0-8.284-6.716-15-15-15s-15 6.716-15 15v35.619l-25.187-25.187c-5.856-5.859-15.354-5.857-21.213 0-5.858 5.857-5.858 15.356 0 21.213l25.187 25.188h-35.62c-8.284 0-15 6.716-15 15s6.716 15 15 15h35.619l-25.185 25.186c-5.858 5.858-5.858 15.355 0 21.213 2.929 2.929 6.768 4.394 10.606 4.394 3.839 0 7.678-1.465 10.606-4.394l25.187-25.187v35.619c0 8.284 6.716 15 15 15s15-6.716 15-15v-35.619l25.186 25.187c2.929 2.93 6.768 4.394 10.607 4.394 3.838 0 7.678-1.465 10.606-4.394 5.858-5.857 5.858-15.355 0-21.213l-25.186-25.186h35.62c8.284 0 15-6.716 15-15s-6.715-15-15-15z" fill="#d9225b"/><path d="m186.857 381.004h-35.621l25.187-25.188c5.858-5.857 5.858-15.355 0-21.213-5.857-5.857-15.355-5.857-21.213 0l-25.186 25.187v-35.619c0-8.284-6.716-15-15-15v173.665c8.284 0 15-6.716 15-15v-35.619l25.186 25.187c2.929 2.93 6.768 4.394 10.607 4.394 3.838 0 7.678-1.465 10.606-4.394 5.858-5.857 5.858-15.355 0-21.213l-25.186-25.186h35.62c8.284 0 15-6.716 15-15 0-8.285-6.715-15.001-15-15.001z" fill="#bd0055"/></g><g><path d="m115.024 453.597c-31.757 0-57.593-25.836-57.593-57.593s25.836-57.594 57.593-57.594 57.593 25.837 57.593 57.594-25.836 57.593-57.593 57.593z" fill="#de5958"/><path d="m115.024 338.41v115.187c31.757 0 57.593-25.836 57.593-57.593s-25.836-57.594-57.593-57.594z" fill="#d9225b"/></g></g></g></svg>