<?xml version="1.0" encoding="utf-8"?>
<!-- Generator: Adobe Illustrator 24.2.3, SVG Export Plug-In . SVG Version: 6.00 Build 0)  -->
<svg version="1.1" id="Layer_1" xmlns="http://www.w3.org/2000/svg" xmlns:xlink="http://www.w3.org/1999/xlink" x="0px" y="0px"
	 viewBox="0 0 1920 1080" style="enable-background:new 0 0 1920 1080;" xml:space="preserve">
<style type="text/css">
	.st0{fill:#1C1058;}
	.st1{fill:#FFFFFF;}
	.st2{font-family:'Montserrat-ExtraBold';}
	.st3{font-size:39.8442px;}
	.st4{fill:none;stroke:#1C1058;stroke-width:1.2954;stroke-linecap:round;stroke-linejoin:round;stroke-miterlimit:10;}
</style>
<g>
	<g>
		<g>
			<g>
				<path class="st0" d="M633.8,98.3c-34.8,0-63.1-13.5-63.1-30.1s28.3-30.1,63.1-30.1c34.8,0,63.1,13.5,63.1,30.1
					S668.6,98.3,633.8,98.3z M633.8,45.6c-26.1,0-47.4,10.1-47.4,22.6s21.3,22.6,47.4,22.6c26.1,0,47.4-10.1,47.4-22.6
					S659.9,45.6,633.8,45.6z"/>
				<path class="st0" d="M752.8,159h-238c-4.4,0-7.9-1.7-7.9-3.8c0-24,29.9-45.8,76.2-55.4c3.6-0.8,7.9-0.1,9.9,1.5
					c8.6,7,23.9,11.1,40.7,11.1c16.9,0,32.1-4.2,40.7-11.1c2-1.6,6.3-2.3,9.9-1.5c46.3,9.6,76.2,31.4,76.2,55.4
					C760.7,157.3,757.2,159,752.8,159z M523,151.5h221.7c-2.8-18.5-25.7-35-60.6-43.4c-11.9,7.4-30.5,11.9-50.3,11.9
					c-19.7,0-38.4-4.5-50.3-11.9C548.7,116.5,525.7,133,523,151.5z"/>
			</g>
			<g>
				<ellipse class="st0" cx="1081.2" cy="98.6" rx="127.1" ry="60.6"/>
				<g>
					<path class="st1" d="M1081.2,91.7c-21,0-38.1-8.1-38.1-18.2s17.1-18.2,38.1-18.2c21,0,38.1,8.1,38.1,18.2
						S1102.2,91.7,1081.2,91.7z M1081.2,60c-15.8,0-28.6,6.1-28.6,13.6c0,7.5,12.8,13.6,28.6,13.6c15.8,0,28.6-6.1,28.6-13.6
						C1109.8,66.1,1097,60,1081.2,60z"/>
					<path class="st1" d="M1153,128.4h-143.6c-2.6,0-4.8-1-4.8-2.3c0-14.5,18.1-27.6,46-33.4c2.2-0.5,4.8-0.1,6,0.9
						c5.2,4.2,14.4,6.7,24.6,6.7c10.2,0,19.4-2.5,24.6-6.7c1.2-1,3.8-1.4,6-0.9c27.9,5.8,46,18.9,46,33.4
						C1157.8,127.4,1155.7,128.4,1153,128.4z M1014.3,123.9h133.8c-1.7-11.2-15.5-21.1-36.5-26.2c-7.2,4.5-18.4,7.2-30.3,7.2
						c-11.9,0-23.2-2.7-30.3-7.2C1029.8,102.7,1016,112.7,1014.3,123.9z"/>
				</g>
			</g>
			<g>
				<path class="st0" d="M187.6,98.3c34.8,0,63.1-13.5,63.1-30.1s-28.3-30.1-63.1-30.1c-34.8,0-63.1,13.5-63.1,30.1
					S152.8,98.3,187.6,98.3z M203.4,89.4c-0.9,0.2-1.8,0.3-2.8,0.4L203.4,89.4z"/>
				<path class="st0" d="M238.3,99.8c-3.6-0.8-7.9-0.1-9.9,1.5c-8.6,7-23.9,11.1-40.7,11.1s-32.1-4.2-40.7-11.1
					c-2-1.6-6.3-2.3-9.9-1.5c-46.3,9.6-76.2,31.4-76.2,55.4c0,2.1,3.5,3.8,7.9,3.8h238c4.4,0,7.9-1.7,7.9-3.8
					C314.5,131.2,284.6,109.5,238.3,99.8z"/>
			</g>
		</g>
		<text transform="matrix(2.0989 0 0 1 1525.3848 110.7607)" class="st0 st2 st3">NAME</text>
	</g>
	<g>
		<g>
			<path class="st0" d="M521.7,316.4c0-3.1,2.4-6.2,6.9-8.5c5-2.6,12.1-4.1,19.4-4.1h35.3c13.4,0,24.7,4.8,26.1,11.1
				c0.9,3.7,2.5,7.4,4.8,11c2.9,4.5,0.4,9.3-6.5,12.6l-14.3,6.8c15,13.1,37.9,24,65.3,31.1l14.3-6.8c6.9-3.3,17-4.5,26.4-3.1
				c7.5,1.1,15.2,1.9,23.1,2.3c13.3,0.7,23.3,6.1,23.3,12.5v16.8c0,3.5-3.1,6.9-8.6,9.3c-5.5,2.4-12.8,3.6-20.2,3.2
				c-25.4-1.1-49.8-4.3-72.8-9.5c-22.3-5.1-42.5-11.9-60-20.2c-17.5-8.3-31.8-18-42.4-28.6c-10.9-10.9-17.6-22.6-20-34.7
				C521.7,317.2,521.7,316.8,521.7,316.4L521.7,316.4z M598,329.7c0-0.4-0.1-0.9-0.4-1.3c-2.6-4.1-4.4-8.3-5.4-12.5
				c-0.5-2.1-4.3-3.7-8.8-3.7H548c-2.5,0-4.8,0.5-6.5,1.4c-1.7,0.9-2.5,2-2.3,3.3c8.8,45.3,84.2,81.3,179.3,85.4
				c2.5,0.1,5-0.3,6.8-1.1c1.8-0.8,2.9-1.9,2.9-3.1v-16.8c0-2.1-3.3-3.9-7.7-4.2c-8.9-0.5-17.7-1.3-26.2-2.6c-3.2-0.5-6.6-0.1-8.9,1
				l-23.3,11.1l-5.6-1.3c-35.1-8.3-64.1-22.1-81.6-38.9l-2.8-2.7l23.3-11.1C597.1,331.8,598,330.8,598,329.7L598,329.7z M598,329.7"
				/>
			<g>
				<ellipse class="st0" cx="1081.2" cy="357.2" rx="127.1" ry="60.6"/>
				<path class="st1" d="M1013.6,332.6c0-1.9,1.5-3.7,4.2-5.1c3-1.6,7.3-2.5,11.7-2.5h21.3c8.1,0,14.9,2.9,15.8,6.7
					c0.5,2.2,1.5,4.5,2.9,6.6c1.7,2.7,0.2,5.6-3.9,7.6l-8.6,4.1c9.1,7.9,22.9,14.5,39.4,18.8l8.6-4.1c4.2-2,10.2-2.7,15.9-1.9
					c4.5,0.7,9.2,1.1,13.9,1.4c8,0.4,14,3.7,14,7.5v10.2c0,2.1-1.9,4.2-5.2,5.6c-3.3,1.4-7.8,2.1-12.2,1.9
					c-15.3-0.7-30.1-2.6-43.9-5.7c-13.5-3.1-25.6-7.2-36.2-12.2c-10.6-5-19.2-10.8-25.6-17.2c-6.6-6.6-10.6-13.6-12.1-20.9
					C1013.6,333.1,1013.6,332.9,1013.6,332.6L1013.6,332.6z M1059.6,340.6c0-0.3-0.1-0.5-0.2-0.8c-1.6-2.4-2.7-5-3.3-7.5
					c-0.3-1.3-2.6-2.2-5.3-2.2h-21.3c-1.5,0-2.9,0.3-3.9,0.8c-1,0.5-1.5,1.2-1.4,2c5.3,27.4,50.8,49,108.2,51.6
					c1.5,0.1,3-0.2,4.1-0.7c1.1-0.5,1.7-1.1,1.7-1.9v-10.2c0-1.3-2-2.4-4.7-2.5c-5.4-0.3-10.7-0.8-15.8-1.6c-1.9-0.3-4,0-5.3,0.6
					l-14.1,6.7l-3.4-0.8c-21.2-5-38.7-13.4-49.2-23.5l-1.7-1.6l14.1-6.7C1059.1,341.9,1059.6,341.3,1059.6,340.6L1059.6,340.6z
					 M1059.6,340.6"/>
			</g>
			<path class="st0" d="M276.3,368.8c-7.8-0.4-15.6-1.2-23.1-2.3c-9.4-1.4-19.5-0.2-26.4,3.1l-14.3,6.8c-27.4-7.1-50.3-18-65.3-31.1
				l14.3-6.8c6.9-3.3,9.4-8.1,6.5-12.6c-2.3-3.6-3.9-7.3-4.8-11c-1.5-6.3-12.7-11.1-26.1-11.1h-35.3c-7.4,0-14.5,1.5-19.4,4.1
				c-4.4,2.3-6.9,5.4-6.9,8.5c0,0.4,0,0.8,0.1,1.1c2.3,12.1,9.1,23.7,20,34.7c10.6,10.6,24.9,20.2,42.4,28.6
				c17.5,8.3,37.7,15.1,60,20.2c22.9,5.2,47.4,8.4,72.8,9.5c7.4,0.3,14.8-0.9,20.2-3.2c5.4-2.4,8.6-5.7,8.6-9.3v-16.8
				C299.6,374.9,289.6,369.5,276.3,368.8z"/>
		</g>
		<text transform="matrix(2.0989 0 0 1 1525.3848 368.835)" class="st0 st2 st3">PHONE</text>
	</g>
	<g>
		<g>
			<g>
				<path class="st0" d="M716,711.1h-55.3c-4.4,0-7.9-1.7-7.9-3.8v-18.6c0-5-8.5-9.1-19-9.1c-10.5,0-19,4.1-19,9.1v18.6
					c0,2.1-3.5,3.8-7.9,3.8h-55.3c-4.4,0-7.9-1.7-7.9-3.8v-51.6h-29.2c-3.2,0-6-0.9-7.3-2.3c-1.2-1.4-0.6-3,1.6-4.1l119.3-58.1
					c3-1.4,8.3-1.4,11.3,0l59.6,29l0,0l59.6,29c2.2,1.1,2.9,2.7,1.6,4.1c-1.2,1.4-4.1,2.3-7.3,2.3h-29.2v51.6
					C723.9,709.4,720.3,711.1,716,711.1z M668.6,703.6h39.5V652c0-2.1,3.5-3.8,7.9-3.8h18.3l-100.5-48.9l-100.5,48.9h18.3
					c4.4,0,7.9,1.7,7.9,3.8v51.6H599v-14.8c0-9.1,15.6-16.6,34.8-16.6c19.2,0,34.8,7.4,34.8,16.6V703.6z"/>
				<path class="st0" d="M555.1,636c-1,0-2-0.1-3-0.3c-3-0.6-4.9-2-4.9-3.5v-30c0-2.1,3.5-3.8,7.9-3.8h23.4c4.4,0,7.9,1.7,7.9,3.8
					v18.6c0,1-0.8,1.9-2.2,2.6l-23.4,11.4C559.2,635.6,557.2,636,555.1,636z M563,606v17l7.6-3.7V606H563z"/>
			</g>
			<g>
				<ellipse class="st0" cx="1081.2" cy="650.7" rx="127.1" ry="60.6"/>
				<g>
					<path class="st1" d="M1130.8,683.8h-33.3c-2.6,0-4.8-1-4.8-2.3v-11.2c0-3-5.2-5.5-11.5-5.5c-6.3,0-11.5,2.5-11.5,5.5v11.2
						c0,1.3-2.1,2.3-4.8,2.3h-33.3c-2.6,0-4.8-1-4.8-2.3v-31.1h-17.6c-1.9,0-3.6-0.5-4.4-1.4c-0.7-0.8-0.4-1.8,1-2.5l72-35
						c1.8-0.9,5-0.9,6.8,0l36,17.5l0,0l36,17.5c1.3,0.7,1.7,1.6,1,2.5c-0.7,0.8-2.5,1.4-4.4,1.4h-17.6v31.1
						C1135.6,682.8,1133.4,683.8,1130.8,683.8z M1102.2,679.3h23.8v-31.1c0-1.3,2.1-2.3,4.8-2.3h11.1l-60.7-29.5l-60.7,29.5h11.1
						c2.6,0,4.8,1,4.8,2.3v31.1h23.8v-8.9c0-5.5,9.4-10,21-10c11.6,0,21,4.5,21,10V679.3z"/>
					<path class="st1" d="M1033.7,638.5c-0.6,0-1.2-0.1-1.8-0.2c-1.8-0.3-3-1.2-3-2.1v-18.1c0-1.3,2.1-2.3,4.8-2.3h14.1
						c2.6,0,4.8,1,4.8,2.3v11.2c0,0.6-0.5,1.2-1.3,1.6l-14.1,6.9C1036.2,638.3,1035,638.5,1033.7,638.5z M1038.5,620.4v10.3l4.6-2.2
						v-8H1038.5z"/>
				</g>
			</g>
			<path class="st0" d="M312.6,649.4l-59.6-29l-59.6-29c-3-1.4-8.3-1.4-11.3,0l-41.8,20.3v-9.4c0-2.1-3.5-3.8-7.9-3.8h-23.4
				c-4.4,0-7.9,1.7-7.9,3.8v28.5l-38.3,18.7c-2.2,1.1-2.9,2.7-1.6,4.1c1.2,1.4,4.1,2.3,7.3,2.3h29.2v51.6c0,2.1,3.5,3.8,7.9,3.8
				h55.3c4.4,0,7.9-1.7,7.9-3.8v-18.6c0-5,8.5-9.1,19-9.1s19,4.1,19,9.1v18.6c0,2.1,3.5,3.8,7.9,3.8h55.3c4.4,0,7.9-1.7,7.9-3.8
				v-51.6h29.2c3.2,0,6-0.9,7.3-2.3C315.4,652.1,314.8,650.4,312.6,649.4z"/>
		</g>
		<text transform="matrix(2.0989 0 0 1 1525.3848 662.2598)" class="st0 st2 st3">ADDRESS</text>
	</g>
	<g>
		<g>
			<g>
				<path class="st0" d="M752.8,1033.5h-238c-4.4,0-7.9-1.7-7.9-3.8v-76.5c0-2.1,3.5-3.8,7.9-3.8h238c4.4,0,7.9,1.7,7.9,3.8v76.5
					C760.7,1031.8,757.2,1033.5,752.8,1033.5z M522.7,1025.9h222.3v-69H522.7V1025.9z"/>
				<path class="st0" d="M633.8,1003.2c-8.3,0-16.6-1.4-23.3-4.2l-101-43c-2.4-1-3.3-2.7-2.1-4.1c1.2-1.5,4.1-2.4,7.4-2.4h238
					c3.3,0,6.2,1,7.4,2.4c1.2,1.5,0.3,3.1-2.1,4.1l-101,43C650.4,1001.8,642.1,1003.2,633.8,1003.2z M535.5,956.9l85.6,36.4
					c7.3,3.1,18.2,3.1,25.5,0l0,0l85.6-36.4H535.5z"/>
				<path class="st0" d="M752.8,1032.9h-238c-3.3,0-6.2-1-7.4-2.4c-1.2-1.5-0.3-3.1,2.1-4.1l88.7-37.7c3.2-1.4,8.2-1.2,11.1,0.3
					c2.9,1.5,2.6,3.9-0.6,5.3l-73.2,31.2h196.7l-73.2-31.2c-3.2-1.4-3.5-3.8-0.6-5.3c2.9-1.5,7.9-1.7,11.1-0.3l88.6,37.7
					c2.4,1,3.3,2.7,2.1,4.1C759,1032,756.1,1032.9,752.8,1032.9z"/>
			</g>
			<g>
				<ellipse class="st0" cx="1081.2" cy="991.4" rx="127.1" ry="60.6"/>
				<g>
					<path class="st1" d="M1153,1016.8h-143.6c-2.6,0-4.8-1-4.8-2.3v-46.2c0-1.3,2.1-2.3,4.8-2.3H1153c2.6,0,4.8,1,4.8,2.3v46.2
						C1157.8,1015.8,1155.7,1016.8,1153,1016.8z M1014.1,1012.3h134.1v-41.6h-134.1V1012.3z"/>
					<path class="st1" d="M1081.2,998.6c-5,0-10-0.9-14-2.6l-61-26c-1.5-0.6-2-1.6-1.3-2.5c0.7-0.9,2.5-1.5,4.4-1.5H1153
						c2,0,3.7,0.6,4.4,1.5c0.7,0.9,0.2,1.9-1.3,2.5l-61,26C1091.2,997.7,1086.2,998.6,1081.2,998.6z M1021.9,970.6l51.7,22
						c4.4,1.9,11,1.9,15.4,0l0,0l51.7-22H1021.9z"/>
					<path class="st1" d="M1153,1016.5h-143.6c-2,0-3.7-0.6-4.4-1.5c-0.7-0.9-0.2-1.9,1.3-2.5l53.5-22.8c2-0.8,5-0.8,6.7,0.2
						c1.8,0.9,1.6,2.4-0.4,3.2l-44.2,18.8h118.7l-44.2-18.8c-2-0.8-2.1-2.3-0.4-3.2c1.8-0.9,4.8-1,6.7-0.2l53.5,22.8
						c1.5,0.6,2,1.6,1.3,2.5C1156.8,1015.9,1155,1016.5,1153,1016.5z"/>
				</g>
			</g>
			<g>
				<polygon class="st0" points="311.8,1028.3 311.8,954.9 225.3,990.9 				"/>
				<path class="st0" d="M58.1,953.4c0,0-0.1,0.1-0.1,0.1v74.2l86.5-37.4L58.1,953.4z"/>
				<path class="st0" d="M200.7,992.3l103-42.8c-0.2,0-0.4-0.1-0.6-0.1H69.5l99.9,42.7C178.3,995.9,191.7,996,200.7,992.3z"/>
				<path class="st0" d="M209.9,997.3c-7.1,2.9-15.9,4.4-24.7,4.4c-9,0-18-1.5-25.1-4.6l-5.3-2.2l-89.1,38.5c0.3,0,0.6,0.1,0.9,0.1
					H303l-88.3-38.2L209.9,997.3z"/>
			</g>
		</g>
		<text transform="matrix(2.0989 0 0 1 1525.3848 1003.0352)" class="st0 st2 st3">MAIL</text>
	</g>
	<line class="st4" x1="1373.9" y1="38" x2="1373.9" y2="1052"/>
</g>
</svg>
