<?xml version="1.0" encoding="utf-8"?>
<!-- Generator: Adobe Illustrator 24.2.3, SVG Export Plug-In . SVG Version: 6.00 Build 0)  -->
<svg version="1.1" xmlns="http://www.w3.org/2000/svg" xmlns:xlink="http://www.w3.org/1999/xlink" x="0px" y="0px"
	 viewBox="0 0 750 500" style="enable-background:new 0 0 750 500;" xml:space="preserve">
<style type="text/css">
	.st0{fill:#FFFFFF;}
	.st1{fill:#71BF9D;}
	.st2{fill:none;stroke:#E57E55;stroke-width:0.9971;stroke-linecap:round;stroke-linejoin:round;stroke-miterlimit:10;}
	.st3{fill:none;stroke:#E57E55;stroke-width:0.7983;stroke-linecap:round;stroke-linejoin:round;stroke-miterlimit:10;}
	.st4{fill:#FFD25A;}
	.st5{fill:#FFBE57;}
	.st6{fill:none;stroke:#FFFFFF;stroke-width:0.9735;stroke-miterlimit:10;}
	.st7{fill:#764582;}
	.st8{fill:#9D68AA;}
	.st9{fill:#FFFFFF;stroke:#764582;stroke-width:0.9736;stroke-miterlimit:10;}
	.st10{fill-rule:evenodd;clip-rule:evenodd;fill:#764582;}
	.st11{fill-rule:evenodd;clip-rule:evenodd;fill:#FFFFFF;stroke:#764582;stroke-width:1.0244;stroke-miterlimit:10;}
	.st12{fill:none;stroke:#764582;stroke-width:1.265;stroke-miterlimit:10;}
	.st13{fill:#FFFFFF;stroke:#764582;stroke-width:1.0244;stroke-linecap:round;stroke-linejoin:round;stroke-miterlimit:10;}
	.st14{opacity:0.7;fill:#A1ABAD;}
	.st15{fill:#DD4026;}
	.st16{fill:#E2E2E2;}
	.st17{fill:#FD6141;}
	.st18{fill:none;}
	.st19{fill:none;stroke:#EFE9DA;stroke-width:1.1573;stroke-linecap:round;stroke-miterlimit:10;}
	.st20{fill:none;stroke:#EFE9DA;stroke-width:1.1573;stroke-miterlimit:10;}
	.st21{fill:#3C8460;}
	.st22{opacity:0.2;fill:#764582;}
	.st23{fill:#E4BCE8;}
	.st24{fill:none;stroke:#FFFFFF;stroke-width:0.9734;stroke-miterlimit:10;}
	.st25{fill:#FDEEFF;}
	.st26{fill:#A1ABAD;}
	.st27{fill:#FFCC5A;stroke:#764582;stroke-width:0.9736;stroke-miterlimit:10;}
	.st28{fill-rule:evenodd;clip-rule:evenodd;fill:#9D68AA;}
	.st29{fill:#FFB072;}
	.st30{fill:#3E2344;}
	.st31{fill:#FFDCAE;}
	.st32{fill:#FFFFFF;stroke:#FD6141;stroke-width:1.8544;stroke-linecap:round;stroke-linejoin:round;stroke-miterlimit:10;}
	.st33{fill:#FF8976;}
	.st34{fill:#F99441;}
	.st35{clip-path:url(#SVGID_2_);fill:#FFAEC1;}
	.st36{clip-path:url(#SVGID_2_);fill:#FFB072;}
	.st37{fill:#552F5E;}
	.st38{fill:#F29353;}
	.st39{clip-path:url(#SVGID_4_);fill:#FFAEC1;}
	.st40{clip-path:url(#SVGID_4_);fill:#FFB072;}
	.st41{fill:none;stroke:#FFFFFF;stroke-width:0.4986;stroke-miterlimit:10;}
	.st42{fill-rule:evenodd;clip-rule:evenodd;fill:#FFB072;}
	.st43{fill:#E57E55;}
	.st44{opacity:0.5;fill:#E57E55;}
	.st45{opacity:0.7;fill-rule:evenodd;clip-rule:evenodd;fill:#A1ABAD;}
	.st46{fill:none;stroke:#FFFFFF;stroke-width:0.4986;stroke-linecap:round;stroke-linejoin:round;stroke-miterlimit:10;}
	.st47{fill-rule:evenodd;clip-rule:evenodd;fill:#FD6141;}
	.st48{opacity:0.5;}
	.st49{fill-rule:evenodd;clip-rule:evenodd;fill:#DD4026;}
	.st50{clip-path:url(#SVGID_6_);fill:#DD4026;}
	.st51{fill:#F7B614;}
	.st52{opacity:0.5;fill:#FFBE57;}
	.st53{clip-path:url(#SVGID_8_);fill:#DD4026;}
	.st54{fill:none;stroke:#FFFFFF;stroke-width:0.4986;stroke-linecap:round;stroke-miterlimit:10;}
	.st55{opacity:0.3;fill:#764582;}
	.st56{fill:#112129;}
</style>
<g id="BACKGROUND">
	<rect class="st0" width="750" height="500"/>
</g>
<g id="OBJECTS">
	<g>
		<g>
			<path class="st1" d="M649.2,329.2c-2.3-11.1-24.1-12.9-24.1-12.9s12.8-20,3.7-29.1c-9-9.1-29.8,12.2-29.8,12.2s-6.9-13.5-17.1,0
				c0,0-17-12.2-31.7-5.9c-10.5,4.5-9,16.4-7.2,22.8H254c-0.2-0.5-0.5-0.9-0.9-1.4c-9.8-11.1-38.1-5.4-38.1-5.4s11.8-27.5-7.7-35.8
				c-19.5-8.3-42,7.9-42,7.9c-13.5-17.8-22.6,0-22.6,0s-27.5-28.2-39.5-16.2c-12,12,4.9,38.6,4.9,38.6s-28.9,2.4-31.9,17.1
				c-3,14.7,50,29.9,50,29.9l485.2,0.9C611.4,351.8,651.5,340.3,649.2,329.2z"/>
			<g>
				<path class="st2" d="M152.9,346.6c-8.7-23.3-22-45-38.9-63.9"/>
				<path class="st2" d="M152.9,347.4c0.7-18.4,2.7-36.7,6.1-54.8"/>
				<path class="st2" d="M147.6,334.7c-12.6-5.9-26.1-10-40-12.2"/>
				<path class="st2" d="M134.8,309.7c2.5-5.6,4.3-11.4,5.1-17.4"/>
			</g>
			<g>
				<path class="st3" d="M589.5,348.6c7-18.6,17.6-36.1,31.1-51.1"/>
				<path class="st3" d="M589.5,349.3c-0.5-14.7-2.2-29.4-4.9-43.9"/>
				<path class="st3" d="M593.7,339.1c10.1-4.7,20.9-8,32-9.7"/>
				<path class="st3" d="M604,319.1c-2-4.4-3.4-9.2-4.1-14"/>
			</g>
			<g>
				<g>
					<g>
						<path class="st0" d="M128.2,271.9c0.2,0,0.4,0.2,0.6,0.3c0.2,0.1,0.3,0.3,0.4,0.5c0.1,0.3,0,0.5-0.3,0.7c-0.1,0-0.2,0.1-0.3,0
							c-0.2,0-0.4-0.2-0.6-0.3c-0.2-0.1-0.3-0.3-0.4-0.5c-0.1-0.2,0-0.5,0.3-0.7C127.9,271.8,128.1,271.8,128.2,271.9z"/>
					</g>
					<g>
						<path class="st0" d="M130.1,273.4c0.2,0.1,0.4,0.2,0.6,0.3c0.2,0.1,0.3,0.3,0.4,0.5c0.1,0.3,0,0.5-0.3,0.7
							c-0.1,0-0.2,0.1-0.3,0c-0.2-0.1-0.4-0.2-0.6-0.3c-0.2-0.1-0.3-0.3-0.4-0.5c-0.1-0.2,0-0.5,0.3-0.7
							C129.9,273.3,130,273.3,130.1,273.4z"/>
					</g>
					<g>
						<path class="st0" d="M132.1,274.9c0.2,0.1,0.4,0.2,0.6,0.3c0.2,0.2,0.3,0.3,0.4,0.5c0.1,0.3,0,0.5-0.3,0.7c-0.1,0-0.2,0-0.3,0
							c-0.2-0.1-0.4-0.2-0.6-0.3c-0.2-0.1-0.3-0.3-0.4-0.5c-0.1-0.3,0-0.5,0.3-0.7C131.8,274.9,132,274.9,132.1,274.9z"/>
					</g>
					<g>
						<path class="st0" d="M135.4,277.8c0.2,0.1,0.4,0.2,0.6,0.3c0.1,0.2,0.3,0.3,0.4,0.5c0.1,0.3-0.1,0.5-0.3,0.6
							c-0.1,0-0.2,0-0.3,0c-0.2-0.1-0.4-0.2-0.6-0.3c-0.1-0.2-0.3-0.3-0.4-0.5c-0.1-0.3,0-0.5,0.3-0.6
							C135.2,277.7,135.3,277.7,135.4,277.8z"/>
					</g>
					<g>
						<path class="st0" d="M137.7,279.8c0.2,0,0.3,0.1,0.4,0.2c0.1,0.1,0.2,0.2,0.2,0.4c0,0.3-0.2,0.6-0.6,0.6c0,0-0.1,0-0.1,0
							c-0.2,0-0.3-0.1-0.4-0.2c-0.1-0.1-0.2-0.2-0.2-0.4c0-0.3,0.2-0.6,0.6-0.6C137.6,279.8,137.7,279.8,137.7,279.8z"/>
					</g>
					<g>
						<path class="st0" d="M139.6,281.7c0.2,0,0.3,0.1,0.4,0.2c0.1,0.1,0.2,0.2,0.2,0.4c0,0.3-0.2,0.6-0.6,0.6c0,0-0.1,0-0.1,0
							c-0.2,0-0.3-0.1-0.4-0.2c-0.1-0.1-0.2-0.2-0.2-0.4c0-0.3,0.2-0.6,0.6-0.6C139.5,281.7,139.6,281.7,139.6,281.7z"/>
					</g>
				</g>
				<g>
					<g>
						<path class="st0" d="M106.1,265.7c1.7-1,3.7-1.4,5.6-1.4c2,0,3.8,0.5,5.6,1.2c1.8,0.7,3.4,1.6,5,2.5c1.6,0.9,3.1,2,4.6,3.1
							c0.2,0.2,0.2,0.4,0.1,0.6c-0.2,0.2-0.4,0.2-0.6,0.1c-1.5-1-3-2-4.6-2.9c-1.6-0.9-3.2-1.7-4.9-2.4c-1.7-0.7-3.4-1.1-5.2-1.2
							c-1.8,0-3.5,0.2-5.1,1.1c-0.2,0.1-0.5,0-0.6-0.2C105.8,266,105.9,265.8,106.1,265.7z"/>
					</g>
					<g>
						<path class="st0" d="M105.5,267c-0.1,0.2-0.2,0.3-0.3,0.4c-0.1,0.1-0.2,0.2-0.5,0.3c-0.3,0.1-0.6-0.1-0.7-0.3
							c0-0.1,0-0.2,0-0.3c0-0.2,0.2-0.4,0.3-0.5c0.1-0.1,0.3-0.2,0.5-0.3c0.3-0.1,0.6,0.2,0.6,0.4
							C105.6,266.8,105.6,266.9,105.5,267z"/>
					</g>
					<g>
						<path class="st0" d="M104.2,268.4c0,0.2-0.1,0.3-0.2,0.5c-0.1,0.1-0.2,0.3-0.4,0.4c-0.2,0.1-0.6,0.1-0.8-0.2
							c-0.1-0.1-0.1-0.2-0.1-0.3c0-0.2,0.1-0.4,0.2-0.6c0.1-0.1,0.2-0.3,0.4-0.4c0.3-0.1,0.6,0,0.7,0.3
							C104.2,268.2,104.2,268.3,104.2,268.4z"/>
					</g>
					<g>
						<path class="st0" d="M103.2,270.1c-0.1,0.3-0.2,0.7-0.3,1l-0.3,1c-0.2,0.7-0.3,1.3-0.5,2c-0.1,0.2-0.3,0.4-0.6,0.3
							c-0.2-0.1-0.4-0.2-0.4-0.4c0-0.7,0.1-1.5,0.3-2.2l0.4-1.1c0.2-0.3,0.3-0.7,0.5-1c0.1-0.2,0.5-0.3,0.7-0.1
							C103.2,269.7,103.2,269.9,103.2,270.1z"/>
					</g>
					<g>
						<path class="st0" d="M101.9,275.9c0.1,0.1,0.1,0.2,0.1,0.3c0,0.1,0,0.2-0.1,0.3c-0.3,0.2-0.7,0.2-0.9,0l0,0
							c-0.1-0.1-0.1-0.2-0.1-0.3c0-0.1,0-0.2,0.1-0.3C101.3,275.6,101.7,275.6,101.9,275.9L101.9,275.9z"/>
					</g>
					<g>
						<path class="st0" d="M102,278c0.1,0.1,0.1,0.2,0.1,0.3c0,0.1,0,0.2-0.1,0.3c-0.2,0.3-0.7,0.3-0.9,0.1l0,0
							c-0.1-0.1-0.1-0.2-0.1-0.3c0-0.1,0-0.2,0.1-0.3C101.2,277.8,101.7,277.8,102,278L102,278z"/>
					</g>
				</g>
			</g>
			<g>
				<g>
					<g>
						<path class="st0" d="M628.1,300.7c0.1,0.2,0,0.5,0,0.7c-0.1,0.2-0.1,0.4-0.3,0.6c-0.2,0.2-0.5,0.3-0.8,0.1
							c-0.1-0.1-0.2-0.2-0.2-0.3c-0.1-0.2,0-0.5,0-0.7c0.1-0.2,0.1-0.4,0.3-0.6c0.2-0.2,0.5-0.3,0.8-0.1
							C628,300.5,628.1,300.6,628.1,300.7z"/>
					</g>
					<g>
						<path class="st0" d="M627.5,303.2c0,0.2,0,0.5-0.1,0.7c-0.1,0.2-0.2,0.4-0.3,0.6c-0.2,0.2-0.5,0.2-0.8,0
							c-0.1-0.1-0.1-0.2-0.2-0.3c0-0.2,0-0.5,0.1-0.7c0.1-0.2,0.1-0.4,0.3-0.6c0.2-0.2,0.5-0.2,0.8-0.1
							C627.4,303,627.5,303.1,627.5,303.2z"/>
					</g>
					<g>
						<path class="st0" d="M626.7,305.7c0,0.2,0,0.5-0.1,0.7c-0.1,0.2-0.2,0.4-0.3,0.6c-0.2,0.2-0.5,0.2-0.8,0
							c-0.1-0.1-0.1-0.2-0.2-0.3c0-0.2,0-0.5,0.1-0.7c0.1-0.2,0.2-0.4,0.3-0.6c0.2-0.2,0.5-0.2,0.8,0
							C626.7,305.5,626.7,305.6,626.7,305.7z"/>
					</g>
					<g>
						<path class="st0" d="M625.2,310c0,0.2-0.1,0.5-0.1,0.7c-0.1,0.2-0.2,0.4-0.4,0.6c-0.2,0.2-0.6,0.2-0.8,0
							c-0.1-0.1-0.1-0.2-0.1-0.3c0-0.2,0.1-0.5,0.1-0.7c0.1-0.2,0.2-0.4,0.4-0.6c0.2-0.2,0.6-0.2,0.8,0
							C625.2,309.8,625.2,309.9,625.2,310z"/>
					</g>
					<g>
						<path class="st0" d="M624,313c0.1,0.2,0,0.3,0,0.4c-0.1,0.1-0.1,0.2-0.3,0.3c-0.3,0.2-0.7,0.1-0.8-0.2c0,0,0-0.1,0-0.1
							c-0.1-0.2,0-0.3,0-0.4c0.1-0.1,0.1-0.2,0.3-0.3c0.3-0.2,0.7-0.1,0.8,0.2C624,312.9,624,313,624,313z"/>
					</g>
					<g>
						<path class="st0" d="M622.9,315.5c0,0.2,0,0.3,0,0.4c-0.1,0.1-0.1,0.2-0.3,0.3c-0.3,0.2-0.7,0-0.8-0.3c0,0,0-0.1,0-0.1
							c0-0.2,0-0.3,0-0.4c0.1-0.1,0.1-0.2,0.3-0.3c0.3-0.2,0.7-0.1,0.8,0.2C622.8,315.4,622.9,315.5,622.9,315.5z"/>
					</g>
				</g>
				<g>
					<g>
						<path class="st0" d="M614.4,290.1c1.7-1,3.5-1.9,5.5-2.4c2-0.5,4.3-0.6,6.2,0.4c1,0.6,1.7,1.5,2.1,2.4
							c0.4,0.9,0.6,1.9,0.6,2.9c0.1,1.9-0.1,3.8-0.5,5.7c-0.1,0.3-0.3,0.4-0.6,0.4c-0.3-0.1-0.4-0.3-0.4-0.5
							c0.3-1.8,0.5-3.7,0.3-5.5c-0.2-1.8-0.7-3.6-2.2-4.4c-1.5-0.9-3.5-0.8-5.3-0.4c-1.8,0.4-3.6,1.2-5.4,2.1
							c-0.2,0.1-0.5,0-0.7-0.2C614.1,290.5,614.2,290.2,614.4,290.1z"/>
					</g>
					<g>
						<path class="st0" d="M613.7,291.5c-0.1,0.2-0.3,0.3-0.4,0.4c-0.2,0.1-0.3,0.2-0.6,0.2c-0.3,0-0.6-0.2-0.6-0.5
							c0-0.1,0-0.2,0.1-0.3c0.1-0.2,0.3-0.3,0.4-0.4c0.2-0.1,0.4-0.2,0.6-0.2c0.3,0,0.6,0.2,0.6,0.5
							C613.7,291.3,613.7,291.4,613.7,291.5z"/>
					</g>
					<g>
						<path class="st0" d="M611.8,292.6c-0.1,0.2-0.3,0.3-0.4,0.4c-0.2,0.1-0.3,0.2-0.6,0.2c-0.3,0-0.6-0.2-0.6-0.5
							c0-0.1,0-0.2,0.1-0.3c0.1-0.2,0.3-0.3,0.4-0.4c0.2-0.1,0.3-0.2,0.6-0.2c0.3,0,0.6,0.2,0.6,0.5
							C611.8,292.5,611.8,292.5,611.8,292.6z"/>
					</g>
					<g>
						<path class="st0" d="M609.9,293.9c-0.6,0.5-1.2,1-1.8,1.5c-0.6,0.5-1.3,0.9-1.9,1.4c-0.2,0.1-0.5,0.1-0.7-0.1
							c-0.1-0.2-0.1-0.4,0.1-0.6c0.5-0.6,1.2-1.1,1.8-1.6c0.6-0.5,1.3-0.9,2-1.3c0.2-0.1,0.5-0.1,0.7,0.2
							C610.1,293.5,610.1,293.7,609.9,293.9z"/>
					</g>
					<g>
						<path class="st0" d="M604.6,298c0,0.2-0.1,0.2-0.2,0.3c-0.1,0.1-0.2,0.1-0.4,0.1c-0.4,0-0.7-0.3-0.7-0.6l0,0
							c0-0.2,0.1-0.2,0.2-0.3c0.1-0.1,0.2-0.1,0.4-0.1C604.4,297.4,604.7,297.7,604.6,298L604.6,298z"/>
					</g>
					<g>
						<path class="st0" d="M602.9,299.6c0,0.2-0.1,0.2-0.2,0.3c-0.1,0.1-0.2,0.1-0.3,0.1c-0.4,0-0.7-0.3-0.7-0.6l0,0
							c0-0.2,0.1-0.2,0.2-0.3c0.1-0.1,0.2-0.1,0.4-0.1C602.6,298.9,602.9,299.2,602.9,299.6L602.9,299.6z"/>
					</g>
				</g>
			</g>
		</g>
		<g>
			<path class="st4" d="M368.8,229.7c-73.9-1.1-271.5,56.5-295.6,0c-19.9-46.6,54.4-43,58.7-81.6c4.3-38.6-15-55,15.8-72.8
				c30.8-17.9,81.1,6.9,114.3-17.9c33.2-24.8,50.5-42.9,125.2-51.4c74.7-8.6,130,70.7,161.9,78.6c32,7.9,77.7-12.1,100.2,12.1
				c22.5,24.3-50.1,78-34.6,100.4c15.5,22.4,53.6,34.6,38.9,66C638.9,294.6,440.7,230.8,368.8,229.7z"/>
			<g>
				<g>
					<g>
						<path class="st0" d="M73.8,208.2c0-0.3,0.1-0.6,0.2-0.9c0.1-0.3,0.3-0.5,0.5-0.8c0.3-0.3,0.6-0.3,0.8,0
							c0.1,0.1,0.1,0.2,0.1,0.4c0,0.3-0.1,0.6-0.2,0.8c-0.1,0.3-0.2,0.5-0.4,0.8c-0.2,0.3-0.6,0.3-0.8,0.1
							C73.9,208.5,73.8,208.3,73.8,208.2z"/>
					</g>
					<g>
						<path class="st0" d="M75.2,205.1c0-0.3,0.2-0.6,0.3-0.8c0.2-0.3,0.3-0.5,0.6-0.7c0.3-0.2,0.7-0.2,0.8,0.1
							c0.1,0.1,0.1,0.2,0,0.4c-0.1,0.3-0.2,0.6-0.3,0.8c-0.2,0.2-0.3,0.5-0.5,0.7c-0.3,0.2-0.6,0.2-0.8,0
							C75.2,205.3,75.2,205.2,75.2,205.1z"/>
					</g>
					<g>
						<path class="st0" d="M77,202.1c0.1-0.3,0.2-0.6,0.4-0.8c0.2-0.2,0.4-0.5,0.7-0.6c0.3-0.2,0.7-0.1,0.8,0.2c0,0.1,0,0.3,0,0.4
							c-0.1,0.3-0.3,0.5-0.4,0.8c-0.2,0.2-0.4,0.5-0.6,0.6c-0.3,0.2-0.7,0.2-0.8-0.1C76.9,202.4,76.9,202.3,77,202.1z"/>
					</g>
					<g>
						<path class="st0" d="M80.9,197.5c0.1-0.3,0.4-0.5,0.6-0.7c0.2-0.2,0.5-0.4,0.8-0.5c0.4-0.1,0.7,0,0.7,0.3c0,0.1,0,0.3-0.1,0.4
							c-0.1,0.3-0.4,0.5-0.6,0.7c-0.2,0.2-0.4,0.4-0.7,0.5c-0.3,0.2-0.7,0.1-0.7-0.2C80.8,197.7,80.8,197.6,80.9,197.5z"/>
					</g>
					<g>
						<path class="st0" d="M84.1,194.5c0.1-0.2,0.2-0.3,0.3-0.4c0.2-0.1,0.3-0.2,0.5-0.2c0.4-0.1,0.7,0.2,0.6,0.6c0,0,0,0.1,0,0.1
							c-0.1,0.2-0.2,0.3-0.3,0.4c-0.2,0.1-0.3,0.2-0.5,0.2c-0.4,0.1-0.7-0.2-0.7-0.6C84.1,194.6,84.1,194.6,84.1,194.5z"/>
					</g>
					<g>
						<path class="st0" d="M87.2,192.4c0.1-0.2,0.2-0.3,0.4-0.4c0.2-0.1,0.3-0.2,0.6-0.2c0.4,0,0.7,0.3,0.6,0.6c0,0,0,0.1-0.1,0.1
							c-0.1,0.2-0.2,0.3-0.4,0.4c-0.2,0.1-0.3,0.2-0.5,0.2c-0.4,0-0.7-0.2-0.6-0.6C87.2,192.5,87.2,192.4,87.2,192.4z"/>
					</g>
				</g>
				<g>
					<g>
						<path class="st0" d="M81.9,237.6c-0.9-0.9-1.7-1.9-2.5-2.9c-0.7-1-1.4-2.1-2.1-3.1c-0.6-1.1-1.2-2.2-1.8-3.3l-1.4-3.4
							c-0.8-2.4-1.4-4.8-1.6-7.3c-0.2-2.5,0.1-5,0.8-7.4c0.1-0.3,0.4-0.5,0.6-0.5c0.2,0.1,0.4,0.4,0.3,0.7c-0.6,2.3-0.8,4.7-0.6,7.1
							c0.2,2.4,0.7,4.7,1.6,7l1.4,3.4c0.5,1.1,1.1,2.2,1.7,3.2c0.6,1,1.3,2.1,2,3.1c0.8,0.9,1.5,2,2.3,2.9c0.2,0.2,0.3,0.6,0.1,0.7
							C82.5,237.9,82.1,237.9,81.9,237.6z"/>
					</g>
					<g>
						<path class="st0" d="M83.7,238.4c0.3,0.1,0.4,0.3,0.6,0.4c0.2,0.2,0.4,0.3,0.5,0.6c0.2,0.3,0,0.6-0.3,0.7c-0.1,0-0.2,0-0.3,0
							c-0.3-0.1-0.5-0.3-0.7-0.4c-0.2-0.2-0.3-0.4-0.4-0.6c-0.1-0.4,0-0.7,0.4-0.7C83.5,238.3,83.6,238.3,83.7,238.4z"/>
					</g>
					<g>
						<path class="st0" d="M85.8,240.3c0.3,0.1,0.4,0.3,0.7,0.4c0.2,0.2,0.4,0.3,0.5,0.5c0.2,0.3,0.1,0.6-0.3,0.7
							c-0.1,0-0.2,0-0.3,0c-0.3-0.1-0.5-0.2-0.7-0.4c-0.2-0.2-0.4-0.3-0.5-0.6c-0.2-0.3,0-0.7,0.3-0.7
							C85.6,240.2,85.7,240.2,85.8,240.3z"/>
					</g>
					<g>
						<path class="st0" d="M88.1,242c0.9,0.5,1.8,1,2.7,1.5c0.9,0.5,1.8,0.9,2.7,1.4c0.3,0.2,0.4,0.5,0.3,0.7
							c-0.1,0.2-0.4,0.2-0.7,0.1c-1-0.3-2-0.8-2.9-1.3c-0.9-0.5-1.8-1.1-2.6-1.7c-0.3-0.2-0.3-0.6-0.1-0.7
							C87.6,241.8,87.9,241.8,88.1,242z"/>
					</g>
					<g>
						<path class="st0" d="M96,245.8c0.2-0.1,0.3,0,0.5,0c0.1,0.1,0.3,0.1,0.4,0.3c0.3,0.3,0.2,0.7-0.3,0.9l0,0
							c-0.2,0.1-0.3,0-0.5,0c-0.1-0.1-0.3-0.1-0.4-0.3C95.4,246.3,95.6,245.9,96,245.8L96,245.8z"/>
					</g>
					<g>
						<path class="st0" d="M99,246.5c0.2-0.1,0.3-0.1,0.5,0c0.1,0,0.3,0.1,0.4,0.2c0.3,0.3,0.3,0.7-0.1,0.9l0,0
							c-0.2,0.1-0.3,0.1-0.5,0.1c-0.2,0-0.3-0.1-0.5-0.2C98.5,247.1,98.6,246.7,99,246.5L99,246.5z"/>
					</g>
				</g>
			</g>
			<path class="st5" d="M371.3,42.1c-34.6,5.3-61.5,20.1-80.8,44.5c-17.9,22.3-14.1,50.9,1.3,73.1c14.1,21.2,41,28.6,66.7,33.9
				c71.8,15.9,137.2,36,205.1,56.2c29.5,8.5,64.1,21.2,89.7,2.1c0,0,0,0,0,0c2.5-1.9,3.6-4.7,3-7.5c-4.1-18.8-29.6-30-41.7-47.3
				c-15.5-22.4,57-76.1,34.6-100.4c-22.5-24.3-68.2-4.3-100.2-12.1c-3.8-0.9-7.9-2.9-12.3-5.5C479.6,67.1,434.4,32.9,371.3,42.1z"/>
			<path class="st6" d="M625.9,266.6c-30.2,0-82.1-10.9-132.2-21.5c-49.4-10.4-96-20.2-124.8-20.6c-0.7,0-1.5,0-2.2,0
				c-23.7,0-58.5,5.3-95.4,11c-42.5,6.5-90.8,13.9-128.2,13.9c-36.8,0-57.7-7-63.9-21.3c-9.5-22.2,4.5-30.1,23.8-41.1
				c15.5-8.8,33.1-18.8,35.3-38.3c1.5-13.8,0.2-24.9-0.9-33.9c-2.1-16.7-3.1-25.1,14-35.1c7.4-4.3,16.6-6.1,30.7-6.1
				c5.4,0,10.9,0.2,16.7,0.5c5.9,0.3,12,0.5,18,0.5c14.8,0,33.7-1.5,49.4-13.2c3.1-2.3,6-4.5,8.8-6.7c27.3-20.8,47.1-35.9,113-43.4
				c3.5-0.4,7-0.6,10.4-0.6c41.8,0,77.4,28.5,106,51.5c17.1,13.7,30.5,24.5,42.8,27.5c6,1.5,12.8,2.2,20.8,2.2
				c7.5,0,15.3-0.6,22.7-1.2c7.5-0.6,14.5-1.1,21.3-1.1c15.7,0,25.3,3.1,32.1,10.4c9.3,10-4.9,30.4-17.5,48.4
				c-13.7,19.7-26.7,38.2-17.5,51.4c5.3,7.6,12.8,14,20,20.1c15.1,12.8,27.1,23,18.5,41.4C646.1,264.7,638.3,266.6,625.9,266.6z"/>
		</g>
		<g>
			<path class="st7" d="M579.4,324H191.7c-2.1,0-3.9-1.7-3.9-3.9V122.2c0-2.1,1.7-3.9,3.9-3.9h387.7c2.1,0,3.9,1.7,3.9,3.9v197.9
				C583.3,322.3,581.6,324,579.4,324z"/>
			<path class="st8" d="M572.5,316.3H184.8c-2.1,0-3.9-1.7-3.9-3.9V114.5c0-2.1,1.7-3.9,3.9-3.9h387.7c2.1,0,3.9,1.7,3.9,3.9v197.9
				C576.4,314.6,574.6,316.3,572.5,316.3z"/>
			<g>
				<path class="st9" d="M567.3,308.5H176.1c-1.2,0-2.1-1-2.1-2.1V105c0-1.2,1-2.1,2.1-2.1h391.2c1.2,0,2.1,1,2.1,2.1v201.4
					C569.4,307.6,568.5,308.5,567.3,308.5z"/>
				<path class="st10" d="M196.1,120.5h25.3v-1.4h-25.3V120.5z M190.1,121.2h3v-2.8h-3V121.2z M196.1,128.2h25.3v-1.4h-25.3V128.2z
					 M190.1,128.9h3v-2.8h-3V128.9z M196.1,135.9h25.3v-1.4h-25.3V135.9z M190.1,136.6h3v-2.8h-3V136.6z"/>
				<path class="st11" d="M287.3,251.5h-82.1c-8.3,0-15.1-6.8-15.1-15.1v-72.3c0-8.3,6.8-15.1,15.1-15.1h82.1
					c8.3,0,15.1,6.8,15.1,15.1v72.3C302.4,244.8,295.7,251.5,287.3,251.5z"/>
				<path class="st11" d="M413.5,251.5h-82.1c-8.3,0-15.1-6.8-15.1-15.1v-72.3c0-8.3,6.8-15.1,15.1-15.1h82.1
					c8.3,0,15.1,6.8,15.1,15.1v72.3C428.6,244.8,421.8,251.5,413.5,251.5z"/>
				<path class="st11" d="M539.6,251.5h-82.1c-8.3,0-15.1-6.8-15.1-15.1v-72.3c0-8.3,6.8-15.1,15.1-15.1h82.1
					c8.3,0,15.1,6.8,15.1,15.1v72.3C554.7,244.8,547.9,251.5,539.6,251.5z"/>
				<g>
					<g>
						<g>
							<path class="st7" d="M527.2,128.9l-1.9-11.8c-0.1-0.3-0.3-0.6-0.7-0.6l-3.4,0l0-1.5l3.4,0c1.1,0,2.1,0.8,2.2,1.8l0.2,1.3
								l21.3,0.1l-2.2,9.3L527.2,128.9z M527.3,119.6l1.2,7.7l16.4-1.1l1.5-6.5L527.3,119.6z"/>
						</g>
						<g>
							<path class="st7" d="M546.5,131.7l-18.4-0.1c-0.4,0-0.8-0.2-1-0.5c-0.3-0.3-0.4-0.7-0.3-1l0.4-2.1l1.5,0.2l-0.3,1.9l18.2,0.1
								L546.5,131.7z"/>
						</g>
						<path class="st12" d="M532.8,134.6c0,1.1-1,2-2.1,2c-1.2,0-2.1-0.9-2.1-2c0-1.1,1-2,2.1-2
							C531.9,132.6,532.8,133.5,532.8,134.6z"/>
						<path class="st12" d="M543.8,134.6c0,1.1-1,2-2.1,2c-1.2,0-2.1-0.9-2.1-2c0-1.1,1-2,2.1-2
							C542.9,132.6,543.8,133.5,543.8,134.6z"/>
					</g>
				</g>
				<line class="st13" x1="315.7" y1="258.6" x2="428.6" y2="258.6"/>
			</g>
			<g>
				<path class="st14" d="M416.1,214.1c0,1.5-18.4,2.6-41.2,2.6s-41.2-1.2-41.2-2.6c0-1.5,18.4-2.6,41.2-2.6
					S416.1,212.6,416.1,214.1z"/>
				<g>
					<g>
						<path class="st15" d="M342.1,186.7c0,0,0.8-2,8,0.6c3.9,1.4,9,4.8,18.9,0.7c0,0,3,9.4-9.6,8.6
							C346.8,195.8,342.1,186.7,342.1,186.7z"/>
						<path class="st16" d="M412.4,201.9l2.9,0.7c1.7,0.8,1.6,5,0.2,6.3c0,0-11.8,6.5-46.4,7.1c-19.9-0.4-33.2-3.6-33.8-4.8
							c-0.6-1.3-0.7-4.1-0.5-6.1l3.8-4.1L412.4,201.9z"/>
						<path class="st17" d="M342.1,186.7c0,0-3.9,3.5-4.4,6.4c-0.7,4.2-1.4,6.2-0.9,10.5c0,0,11.2,4.1,29.9,4.3
							c9.2,0.1,22.5-0.4,32.2-2.1c8.2-1.4,16.4-3.2,16.4-3.2c-2.4-7.8-9.6-4.9-19.8-8c-7-2.1-23.6-15-23.6-15s-3.9,2.7-4.1,4.1
							c-0.1,0.9,1.7,3.1,1.7,3.1s-0.5,7.4-8.3,7.9C353.5,195.2,342.1,186.7,342.1,186.7z"/>
						<path class="st18" d="M415.3,202.6c0,0-6.2,4-15.3,5.6c-9.3,1.7-24.4,2.3-33.8,1.9c-10.4-0.4-31.5-5.2-31.5-5.2"/>
						<path class="st19" d="M369.5,186.8c0,0,4,0,5.4,0.5c3.3,1.1,12.9,8.3,20.1,9.2"/>
						<path class="st16" d="M381.4,186.5l-3.2,4.9c-0.4,0.6-2.4-0.7-1.9-1.3l3-5.2C379.9,184.2,382.1,185.7,381.4,186.5z"/>
						<path class="st16" d="M386.1,189.1l-3.4,5.2c-0.4,0.9-2.6,0-2.2-0.9l3.4-5.8C384.6,186.8,386.7,188.3,386.1,189.1z"/>
						<path class="st16" d="M390.8,191.7l-3.4,5.2c-0.4,0.7-2.5-0.2-2.1-0.9l3.4-5.8C389.2,189.4,391.4,190.9,390.8,191.7z"/>
						<path class="st16" d="M371.7,189.2c0.1-1.4,2.5-1.3,2.4,0.1l-1,8.7c0,1.3-1.4,1.3-1.4,0L371.7,189.2z"/>
						<path class="st19" d="M363.1,207.9c0,0,1.1-3.9,5.1-5.6c4.4-2,14.9,1.7,20.7-1.3c1.7-0.9,6.1-4.6,6.1-4.6"/>
						<path class="st19" d="M338.8,190.8c0,0,6.2,2.6,9.1,6.1c1.3,1.6,3.1,10,3.1,10"/>
					</g>
				</g>
			</g>
			<g>
				<path class="st14" d="M286.7,214.1c0,1.5-18.4,2.6-41.2,2.6c-22.7,0-41.2-1.2-41.2-2.6c0-1.5,18.4-2.6,41.2-2.6
					C268.3,211.4,286.7,212.6,286.7,214.1z"/>
				<g>
					<g>
						<path class="st15" d="M212.8,186.7c0,0,0.8-2,8,0.6c3.9,1.4,9,4.8,18.9,0.7c0,0,3,9.4-9.6,8.6
							C217.5,195.8,212.8,186.7,212.8,186.7z"/>
						<path class="st16" d="M283.1,201.9l2.9,0.7c1.7,0.8,1.6,5,0.2,6.3c0,0-11.8,6.5-46.4,7.1c-19.9-0.4-33.2-3.6-33.8-4.8
							c-0.6-1.3-0.7-4.1-0.5-6.1l3.8-4.1L283.1,201.9z"/>
						<path class="st4" d="M212.8,186.7c0,0-3.9,3.5-4.4,6.4c-0.7,4.2-1.4,6.2-0.9,10.5c0,0,11.2,4.1,29.9,4.3
							c9.2,0.1,22.5-0.4,32.2-2.1c8.2-1.4,16.4-3.2,16.4-3.2c-2.4-7.8-9.6-4.9-19.8-8c-7-2.1-23.6-15-23.6-15s-3.9,2.7-4.1,4.1
							c-0.1,0.9,1.7,3.1,1.7,3.1s-0.5,7.4-8.3,7.9C224.2,195.2,212.8,186.7,212.8,186.7z"/>
						<path class="st18" d="M286,202.6c0,0-6.2,4-15.3,5.6c-9.3,1.7-24.4,2.3-33.8,1.9c-10.4-0.4-31.5-5.2-31.5-5.2"/>
						<path class="st20" d="M240.2,186.8c0,0,4,0,5.4,0.5c3.3,1.1,12.9,8.3,20.1,9.2"/>
						<path class="st16" d="M252.1,186.5l-3.2,4.9c-0.4,0.6-2.4-0.7-1.9-1.3l3-5.2C250.6,184.2,252.7,185.7,252.1,186.5z"/>
						<path class="st16" d="M256.8,189.1l-3.4,5.2c-0.4,0.9-2.6,0-2.2-0.9l3.4-5.8C255.2,186.8,257.4,188.3,256.8,189.1z"/>
						<path class="st16" d="M261.4,191.7l-3.4,5.2c-0.4,0.7-2.5-0.2-2.1-0.9l3.4-5.8C259.9,189.4,262.1,190.9,261.4,191.7z"/>
						<path class="st16" d="M242.3,189.2c0.1-1.4,2.5-1.3,2.4,0.1l-1,8.7c0,1.3-1.4,1.3-1.4,0L242.3,189.2z"/>
						<path class="st20" d="M233.8,207.9c0,0,1.1-3.9,5.1-5.6c4.4-2,14.9,1.7,20.7-1.3c1.7-0.9,6.1-4.6,6.1-4.6"/>
						<path class="st20" d="M209.5,190.8c0,0,6.2,2.6,9.1,6.1c1.3,1.6,3.1,10,3.1,10"/>
					</g>
				</g>
			</g>
			<g>
				<path class="st14" d="M539.5,214.1c0,1.5-18.4,2.6-41.2,2.6c-22.7,0-41.2-1.2-41.2-2.6c0-1.5,18.4-2.6,41.2-2.6
					C521,211.4,539.5,212.6,539.5,214.1z"/>
				<g>
					<g>
						<path class="st21" d="M465.5,186.7c0,0,0.8-2,8,0.6c3.9,1.4,9,4.8,18.9,0.7c0,0,3,9.4-9.6,8.6
							C470.2,195.8,465.5,186.7,465.5,186.7z"/>
						<path class="st16" d="M535.8,201.9l2.9,0.7c1.7,0.8,1.6,5,0.2,6.3c0,0-11.8,6.5-46.4,7.1c-19.9-0.4-33.2-3.6-33.8-4.8
							c-0.6-1.3-0.7-4.1-0.5-6.1l3.8-4.1L535.8,201.9z"/>
						<path class="st1" d="M465.5,186.7c0,0-3.9,3.5-4.4,6.4c-0.7,4.2-1.4,6.2-0.9,10.5c0,0,11.2,4.1,29.9,4.3
							c9.2,0.1,22.5-0.4,32.2-2.1c8.2-1.4,16.4-3.2,16.4-3.2c-2.4-7.8-9.6-4.9-19.8-8c-7-2.1-23.6-15-23.6-15s-3.9,2.7-4.1,4.1
							c-0.1,0.9,1.7,3.1,1.7,3.1s-0.5,7.4-8.3,7.9C476.9,195.2,465.5,186.7,465.5,186.7z"/>
						<path class="st18" d="M538.7,202.6c0,0-6.2,4-15.3,5.6c-9.3,1.7-24.4,2.3-33.8,1.9c-10.4-0.4-31.5-5.2-31.5-5.2"/>
						<path class="st20" d="M492.9,186.8c0,0,4,0,5.4,0.5c3.3,1.1,12.9,8.3,20.1,9.2"/>
						<path class="st16" d="M504.8,186.5l-3.2,4.9c-0.4,0.6-2.4-0.7-1.9-1.3l3-5.2C503.3,184.2,505.5,185.7,504.8,186.5z"/>
						<path class="st16" d="M509.5,189.1l-3.4,5.2c-0.4,0.9-2.6,0-2.2-0.9l3.4-5.8C508,186.8,510.1,188.3,509.5,189.1z"/>
						<path class="st16" d="M514.2,191.7l-3.4,5.2c-0.4,0.7-2.5-0.2-2.1-0.9l3.4-5.8C512.7,189.4,514.8,190.9,514.2,191.7z"/>
						<path class="st16" d="M495.1,189.2c0.1-1.4,2.5-1.3,2.4,0.1l-1,8.7c0,1.3-1.4,1.3-1.4,0L495.1,189.2z"/>
						<path class="st20" d="M486.6,207.9c0,0,1.1-3.9,5.1-5.6c4.4-2,14.9,1.7,20.7-1.3c1.7-0.9,6.1-4.6,6.1-4.6"/>
						<path class="st20" d="M462.2,190.8c0,0,6.2,2.6,9.1,6.1c1.3,1.6,3.1,10,3.1,10"/>
					</g>
				</g>
			</g>
			<g>
				<path class="st7" d="M328.4,167.9v0.1c0,0.6-0.2,0.9-0.5,0.9h-3.6c-0.4,0-0.5-0.3-0.5-0.9v-0.1c0-0.6,0.2-0.9,0.5-0.9h3.6
					C328.3,167,328.4,167.3,328.4,167.9z"/>
				<path class="st7" d="M336.7,163.2c0,2.4-1.4,2.9-2.6,2.9s-2.6-0.5-2.6-2.9c0-2.4,1.4-2.9,2.6-2.9S336.7,160.8,336.7,163.2z
					 M333.2,163.2c0,0.7,0.2,1.5,0.8,1.5c0.7,0,0.8-0.8,0.8-1.5c0-0.7-0.1-1.4-0.8-1.4C333.4,161.8,333.2,162.5,333.2,163.2z
					 M341.6,160.7c0,0.1,0,0.1-0.1,0.2l-6.3,11.1c-0.2,0.3-0.4,0.5-0.8,0.5h-0.8c-0.2,0-0.4-0.1-0.4-0.2c0-0.1,0-0.2,0.1-0.3
					l6.3-11.1c0.2-0.3,0.4-0.5,0.8-0.5h0.8C341.5,160.4,341.6,160.5,341.6,160.7z M343.5,169.7c0,2.4-1.4,2.9-2.6,2.9
					c-1.2,0-2.6-0.5-2.6-2.9c0-2.4,1.4-2.9,2.6-2.9C342.1,166.9,343.5,167.4,343.5,169.7z M340,169.7c0,0.7,0.2,1.5,0.8,1.5
					c0.7,0,0.8-0.8,0.8-1.5c0-0.7-0.1-1.4-0.8-1.4C340.2,168.3,340,169.1,340,169.7z"/>
			</g>
			<g>
				<g>
					<path class="st17" d="M403.3,224.1v1.1c1.7,0,4.8,0.7,4.8,1.6c0,0.4-0.7,1.5-1,1.5c-0.5,0-1.5-1-3.8-1.1v6.6
						c2.7,0.9,5.8,1.9,5.8,5.8c0,3.2-2.2,5.3-5.8,5.6v1.4c0,0.3-0.2,0.5-0.6,0.5s-0.6-0.1-0.6-0.5v-1.4c-3.4-0.1-6-1.3-6-2.1
						c0-0.5,0.7-1.5,1.1-1.5c0.4,0,2,1.5,4.9,1.6v-7.3c-2.6-1-5.6-2-5.6-5.6c0-2.8,2.2-4.7,5.6-5v-1.2c0-0.3,0.2-0.5,0.6-0.5
						S403.3,223.8,403.3,224.1z M399.3,230.4c0,1.6,1.2,2.4,2.8,3v-6.1C400.4,227.6,399.3,228.6,399.3,230.4z M403.3,243.2
						c1.8-0.3,3-1.6,3-3.5c0-1.8-1.4-2.6-3-3.3V243.2z"/>
				</g>
				<path class="st17" d="M390.7,246.2h-50c-2.2,0-3.9-1.8-3.9-3.9v-2c0-2.2,1.8-3.9,3.9-3.9h50c2.2,0,3.9,1.8,3.9,3.9v2
					C394.6,244.4,392.8,246.2,390.7,246.2z"/>
			</g>
		</g>
		<g>
			<path class="st22" d="M741.4,459.4H11c-2.7,0-3.9-3.2-1.8-4.8l109.4-82.3c2.3-1.8,5.3-2.7,8.4-2.7h498.4c3.1,0,6.1,1,8.4,2.7
				l109.4,82.3C745.3,456.2,744.1,459.4,741.4,459.4z"/>
			<g>
				<path class="st23" d="M738.6,425.7H13.8l112.4-84.6c2.3-1.7,5.2-2.7,8.2-2.7H618c3,0,5.9,0.9,8.2,2.7L738.6,425.7z"/>
				<polygon class="st8" points="666.7,418.2 85.6,418.2 167.5,346.1 584.9,346.1 				"/>
				<polygon class="st0" points="659.6,418.2 92.8,418.2 172.6,349.2 579.8,349.2 				"/>
				<path class="st8" d="M724.3,448.4H28.1c-7.9,0-14.3-6.4-14.3-14.3v-8.4h724.8v8.4C738.6,442,732.2,448.4,724.3,448.4z"/>
				<line class="st24" x1="13.8" y1="434.6" x2="738.6" y2="434.6"/>
				<path class="st7" d="M258.5,441.2H157.1c-2.6,0-4.8-2.1-4.8-4.8V434c0-2.6,2.1-4.8,4.8-4.8h101.4c2.6,0,4.8,2.1,4.8,4.8v2.4
					C263.3,439.1,261.1,441.2,258.5,441.2z"/>
				<path class="st23" d="M259,441.2H156.6c-2.3,0-4.2-1.9-4.2-4.2v-2.1c0-2.3,1.9-4.2,4.2-4.2H259c2.3,0,4.2,1.9,4.2,4.2v2.1
					C263.3,439.3,261.4,441.2,259,441.2z"/>
				<g>
					<polygon class="st8" points="613.1,359.3 654.3,393.6 676.4,393.6 676.4,390.9 613.1,356.6 					"/>
					<polygon class="st25" points="613.1,356.6 654.3,390.9 676.4,390.9 630.6,356.6 					"/>
				</g>
				<ellipse class="st0" cx="110.1" cy="373" rx="17.3" ry="7.1"/>
				<path class="st7" d="M122.2,372.5c0,2.5-5.4,4.4-12.1,4.4c-6.7,0-12.1-2-12.1-4.4c0-2.5,5.4-4.4,12.1-4.4
					C116.8,368,122.2,370,122.2,372.5z"/>
				<path class="st0" d="M111.5,371.4c0,0.8-1.9,1.5-4.2,1.5s-4.2-0.7-4.2-1.5c0-0.8,1.9-1.5,4.2-1.5S111.5,370.6,111.5,371.4z"/>
			</g>
		</g>
		<g>
			<g>
				<g>
					<g>
						<path class="st23" d="M598.2,84.9H192.7c-7.4,0-13.4-6-13.4-13.4v-6.6c0-7.4,6-13.4,13.4-13.4h405.5c7.4,0,13.4,6,13.4,13.4
							v6.6C611.6,78.9,605.6,84.9,598.2,84.9z"/>
						<ellipse class="st23" cx="114.4" cy="68.2" rx="17.7" ry="16.7"/>
						<ellipse class="st23" cx="155.7" cy="68.2" rx="17.7" ry="16.7"/>
					</g>
				</g>
				<polygon class="st23" points="636.2,50.6 642,62.4 655.8,64 645.7,72.9 648.3,85.7 636.2,79.4 624.1,85.7 626.7,72.9 616.6,64 
					630.3,62.4 				"/>
				<g>
					<g>
						<path class="st9" d="M598.2,79.1H192.7c-7.4,0-13.4-6-13.4-13.4v-6.6c0-7.4,6-13.4,13.4-13.4h405.5c7.4,0,13.4,6,13.4,13.4
							v6.6C611.6,73.1,605.6,79.1,598.2,79.1z"/>
						<g>
							<path class="st26" d="M283.7,56.3v0.6c1.6,0.1,3.1,0.6,3.1,1.2c0,0.4-0.5,1.4-0.9,1.4c-0.3,0-0.9-0.5-2.2-0.5v3.3
								c1.7,0.6,3.7,1.4,3.7,3.8c0,2.5-1.7,3.7-3.7,3.9v0.8c0,0.3-0.2,0.5-0.5,0.5c-0.4,0-0.5-0.1-0.5-0.5v-0.8
								c-2.5-0.1-4-0.9-4-1.5c0-0.5,0.7-1.4,1-1.4c0.3,0,1.4,0.9,3,0.9v-3.6c-1.7-0.6-3.8-1.3-3.8-3.8c0-2.2,1.7-3.3,3.8-3.5v-0.6
								c0-0.3,0.2-0.5,0.5-0.5C283.5,55.8,283.7,55.9,283.7,56.3z M281.4,60.3c0,0.7,0.5,1.1,1.3,1.5V59
								C281.7,59.2,281.4,59.7,281.4,60.3z M283.7,67.7c0.7-0.2,1.2-0.7,1.2-1.5c0-0.7-0.5-1.2-1.2-1.5V67.7z"/>
							<path class="st26" d="M293.3,64.8V65c0,0.5-0.2,0.8-0.5,0.8h-3.9c-0.3,0-0.5-0.2-0.5-0.8v-0.1c0-0.5,0.2-0.8,0.5-0.8h3.9
								C293.1,64,293.3,64.3,293.3,64.8z"/>
							<path class="st26" d="M300.6,59.9c0,2.5-1.5,3-2.8,3c-1.3,0-2.8-0.5-2.8-3c0-2.5,1.5-3,2.8-3C299,56.8,300.6,57.4,300.6,59.9
								z M296.7,59.9c0,0.8,0.2,1.7,1.1,1.7c0.9,0,1.1-0.9,1.1-1.7c0-0.8-0.1-1.7-1.1-1.7C296.8,58.2,296.7,59.1,296.7,59.9z
								 M305.9,57.1c0,0.1,0,0.1-0.1,0.2l-7,12c-0.2,0.3-0.4,0.5-0.8,0.5h-0.6c-0.3,0-0.4-0.1-0.4-0.2c0-0.1,0-0.1,0.1-0.2l7-12
								c0.2-0.3,0.4-0.4,0.8-0.4h0.6C305.8,56.9,305.9,57,305.9,57.1z M308,66.8c0,2.5-1.5,3-2.8,3c-1.3,0-2.8-0.5-2.8-3
								c0-2.5,1.5-3,2.8-3C306.4,63.8,308,64.3,308,66.8z M304.1,66.8c0,0.8,0.2,1.7,1.1,1.7c0.9,0,1.1-0.9,1.1-1.7
								c0-0.7-0.1-1.7-1.1-1.7C304.2,65.2,304.1,66.1,304.1,66.8z"/>
						</g>
						<path class="st26" d="M266.2,71.1h-34.8c-4.5,0-8.1-3.4-8.1-7.7l0,0c0-4.2,3.6-7.7,8.1-7.7h34.8c4.5,0,8.1,3.4,8.1,7.7l0,0
							C274.3,67.7,270.7,71.1,266.2,71.1z"/>
						<ellipse class="st9" cx="114.4" cy="62.4" rx="17.7" ry="16.7"/>
						<ellipse class="st9" cx="155.7" cy="62.4" rx="17.7" ry="16.7"/>
					</g>
				</g>
				<polygon class="st27" points="636.2,44.9 642,56.7 655.8,58.3 645.7,67.2 648.3,79.9 636.2,73.6 624.1,79.9 626.7,67.2 
					616.6,58.3 630.3,56.7 				"/>
			</g>
			<polygon class="st7" points="116.6,52.2 105.3,62.7 116.6,73.4 118.7,71.4 109.6,62.7 118.7,54.2 			"/>
			<polygon class="st7" points="154.1,73.4 165.3,62.9 154.1,52.2 152,54.2 161,62.9 152,71.4 			"/>
			<path class="st7" d="M215.8,72l-7.2-6.7c1-1.4,1.5-3.1,1.5-4.8c0-4.8-4.2-8.7-9.4-8.7c-2.4,0-4.9,0.9-6.6,2.5
				c-1.7,1.6-2.7,3.9-2.7,6.1c0,4.8,4.2,8.7,9.4,8.7c0,0,0,0,0,0c1.8,0,3.6-0.5,5.1-1.4l7.1,6.7L215.8,72z M207.4,60.6
				c0,1.6-0.7,3.2-1.9,4.3c-1.2,1.1-2.9,1.8-4.6,1.8c0,0,0,0,0,0c-3.6,0-6.6-2.8-6.6-6.1c0-1.6,0.7-3.2,1.9-4.3
				c1.2-1.1,2.9-1.8,4.6-1.8C204.4,54.5,207.3,57.2,207.4,60.6z"/>
			<path class="st28" d="M587.6,62.8l-4,3.8c-0.5,0.5-0.5,1.2,0,1.6c0.5,0.5,1.2,0.5,1.7,0l4-3.8l4,3.8c0.5,0.5,1.2,0.5,1.7,0
				c0.5-0.5,0.5-1.2,0-1.6l-4-3.8l4-3.8c0.5-0.5,0.5-1.2,0-1.6c-0.5-0.5-1.2-0.5-1.7,0l-4,3.8l-4-3.8c-0.5-0.5-1.2-0.5-1.7,0
				c-0.5,0.5-0.5,1.2,0,1.6L587.6,62.8z M589.3,75.1c-7.2,0-13-5.5-13-12.3c0-6.8,5.8-12.3,13-12.3c7.2,0,13,5.5,13,12.3
				C602.3,69.6,596.5,75.1,589.3,75.1z"/>
		</g>
		<g>
			<path class="st17" d="M140.5,140.1c0-12.5-10.7-22.6-24-22.6c-13.3,0-24,10.1-24,22.6c0,0,0,0,0,0c0,5.2-1.7,8.6,24,51.9
				C142.2,148.5,140.4,142.8,140.5,140.1z"/>
			<path class="st0" d="M116.5,150.7c-5.9,0-10.6-4.5-10.6-10c0-5.5,4.7-10,10.6-10c5.9,0,10.6,4.5,10.6,10
				C127.1,146.2,122.3,150.7,116.5,150.7z"/>
		</g>
		<path class="st29" d="M447.8,239.9"/>
		<g>
			<g>
				<g>
					<path class="st22" d="M309,372l-9.7,15.9c-2,3.2,0.7,7.1,4.9,7.1H400c3.8,0,6.5-3.2,5.3-6.4l-6.1-15.9c-0.8-2-2.9-3.3-5.3-3.3
						H314C311.9,369.4,310,370.4,309,372z"/>
					<g>
						<g>
							<path class="st7" d="M328.6,367.6c0,4.4-3.8,8-8.5,8c-4.7,0-8.5-3.6-8.5-8c0-4.4,3.8-8,8.5-8
								C324.8,359.6,328.6,363.2,328.6,367.6z"/>
							<ellipse class="st30" cx="320.1" cy="367.6" rx="5.1" ry="4.8"/>
							<path class="st31" d="M316.8,366.7l2.9-7.2c0.2-0.4,0.6-0.6,1-0.6h10.1c0.9,0,1.4,1,0.8,1.7l-9.1,9.3c-0.8,0.8-1.9,1.1-3,0.7
								l-0.9-0.3C317,369.8,316.2,368.2,316.8,366.7z"/>
							<ellipse class="st7" cx="320.1" cy="367.6" rx="2" ry="1.8"/>
						</g>
						<g>
							<path class="st7" d="M377.9,367.6c0,4.4,3.8,8,8.5,8c4.7,0,8.5-3.6,8.5-8c0-4.4-3.8-8-8.5-8
								C381.7,359.6,377.9,363.2,377.9,367.6z"/>
							<path class="st30" d="M381.3,367.6c0,2.7,2.3,4.8,5.1,4.8c2.8,0,5.1-2.2,5.1-4.8c0-2.7-2.3-4.8-5.1-4.8
								C383.6,362.8,381.3,364.9,381.3,367.6z"/>
							<path class="st31" d="M389.8,366.7l-2.9-7.2c-0.2-0.4-0.6-0.6-1-0.6h-10.1c-0.9,0-1.4,1-0.8,1.7l9.1,9.3
								c0.8,0.8,1.9,1.1,3,0.7l0.9-0.3C389.5,369.8,390.3,368.2,389.8,366.7z"/>
							<ellipse class="st7" cx="386.4" cy="367.6" rx="2" ry="1.8"/>
						</g>
						<g>
							<path class="st17" d="M297.9,293.2c-0.5,0-1-0.3-1.2-0.7c-2.9-6.3-7.7-16.5-8.5-17.8c-1.3-0.9-11-4.1-19.8-6.8
								c-0.5-0.2-0.9-0.6-0.9-1.1s0.4-1,0.9-1.1l15.6-4.8c0.2-0.1,0.5-0.1,0.7,0c1.5,0.4,14.7,3.8,17.5,6.3c2.3,2,8.9,15,10.2,17.6
								c0.3,0.6,0,1.3-0.6,1.6c-0.6,0.3-1.4,0-1.7-0.6c-3-5.9-8.2-15.6-9.6-16.9c-1.8-1.5-10.6-4.2-16.1-5.7l-11.6,3.5
								c8.1,2.5,16.4,5.3,17.3,6.5c1,1.3,7.6,15.5,8.9,18.3c0.3,0.6,0,1.3-0.7,1.6C298.2,293.2,298.1,293.2,297.9,293.2z"/>
						</g>
						<polygon class="st32" points="294.5,287.2 308.7,278.9 418.4,283.9 420.9,290.4 						"/>
						<path class="st17" d="M293.4,287.4l16.6,51.5c0.5,1.5,2,2.6,3.7,2.5l91.8-2.7c1.7,0,3.2-1.2,3.6-2.7l11.7-45.7L293.4,287.4z"
							/>
						<path class="st33" d="M318.1,308.9c5.9,11.6,19,14,31.5,13.4c26.8-1.3,50.2-11.1,65.9-32.1c0,0-97.6-2.3-97.6-2.3
							c-1.4,0-2.2,8.8-2.2,9.9C315.5,301.7,316.4,305.5,318.1,308.9z"/>
						<path class="st17" d="M405.4,367.4c-1.1-4.2-3.4-8.4-5.1-10.6c-0.9-1.1-2.3-2.4-5.6-2.4h-76c-1.2,0-3.3-0.2-4.2-1.4
							c-0.9-1.2-0.4-3,0.2-4.4c2.2-5.4,4.2-8.8,4.3-8.9l-3,0.2c-0.1,0.1-1.3,2.2-3.6,7.8c-1.1,2.7-1.1,4.9,0.1,6.6
							c1.2,1.6,3.4,2.5,6.3,2.5h4.1v1.6c0,1,0.9,1.8,1.9,1.8h1.5c1.1,0,1.9-0.8,1.9-1.8v-1.6h50.3v1.6c0,1,0.9,1.8,1.9,1.8h1.5
							c1.1,0,1.9-0.8,1.9-1.8v-1.6h11.1c2.3,0,3.1,0.7,3.6,1.4c1.6,2,3.7,6,4.7,9.8c0.2,0.8,0.2,1.5-0.2,1.9c-0.7,0.8-2.4,1-2.9,1
							c-17.6,0.4-55.6,0.2-76,0.1c-6.1,0-10.7-0.1-12.8-0.1c-3.1,0-5.4-0.8-6.5-2.3c-1-1.5-1-3.6,0.1-6.2c2.4-5.7,9.6-22.7,9.6-22.7
							l-2.3-0.9c0,0-7.1,17-9.6,22.7c-1.8,4.2-0.9,6.9,0.2,8.4c1.6,2.2,4.6,3.4,8.6,3.4c1.4,0,3.9,0,7.2,0v1.6c0,1,0.9,1.8,1.9,1.8
							h1.5c1.1,0,1.9-0.8,1.9-1.8v-1.2c0.1-0.1,0.2-0.2,0.4-0.4c11.6,0.1,29,0.2,45,0.2c4.4,0,8.6,0,12.6,0v1.4c0,1,0.9,1.8,1.9,1.8
							h1.5c1.1,0,1.9-0.8,1.9-1.8v-1.4c5,0,9.5-0.1,13.2-0.2c1.3,0,3.6-0.3,4.9-1.9C405.6,370.3,405.8,368.9,405.4,367.4z"/>
						<g>
							<path class="st0" d="M417.2,289.4l-11.4,44.2c-0.3,1.2-1.5,2.1-2.8,2.1l-42.9,1.2c3.3-3.4,6.6-6.8,9.9-10.2
								c0.2-0.3,0.3-0.6,0.2-0.7c-0.2-0.2-0.5-0.1-0.8,0.2c-3.5,3.4-7,6.9-10.5,10.4l0,0c-0.1,0.1-0.2,0.3-0.3,0.4l-37.8,1.1
								c3.5-3.6,7-7.2,10.5-10.8c0.3-0.3,0.3-0.6,0.2-0.7c-0.2-0.2-0.5-0.1-0.8,0.2c-3.7,3.6-7.4,7.2-11,10.9l0,0
								c-0.2,0.2-0.3,0.4-0.3,0.5l-3.4,0.1c-1.3,0-2.5-0.8-2.9-2l-7.6-23.5c2-2,3.9-4,5.8-6.1c0.1-0.1,0.1-0.4,0-0.5
								c-0.2-0.1-0.4-0.2-0.6,0c-1.9,1.8-3.7,3.6-5.6,5.4l-8.1-25.2l-1.2,0.3l16,49.8c0.5,1.7,2.2,2.8,4,2.8c0,0,0.1,0,0.1,0l87-2.5
								c1.9-0.1,3.5-1.3,4-3l11.4-44.2L417.2,289.4z"/>
							<path class="st0" d="M312.3,305.8c0.3-0.2,0.6-0.5,0.9-0.7c0.3-0.3,0.5-0.5,0.7-0.9c0.1-0.1,0.1-0.3,0-0.4
								c-0.1-0.2-0.4-0.3-0.6-0.1c-0.3,0.2-0.6,0.5-0.9,0.7c-0.3,0.3-0.5,0.5-0.7,0.9c-0.1,0.1-0.1,0.3,0,0.4
								C311.8,305.9,312.1,305.9,312.3,305.8z"/>
							<path class="st0" d="M314.7,303.4c0.1,0,0.2-0.1,0.3-0.1c0.1-0.1,0.1-0.2,0.1-0.3c0,0,0,0,0,0c0-0.3-0.3-0.6-0.7-0.6
								c-0.1,0-0.2,0.1-0.3,0.1c-0.1,0.1-0.1,0.2-0.1,0.3c0,0,0,0,0,0C314,303.2,314.3,303.5,314.7,303.4z"/>
							<path class="st0" d="M325.1,292.8c2.6-2.5,5.1-4.9,7.6-7.4l0,0c0.2-0.2,0.2-0.6,0-0.8c-0.2-0.2-0.6-0.2-0.8,0
								c-2.5,2.5-4.9,5.1-7.3,7.6c-0.1,0.1-0.1,0.4,0,0.5C324.7,293,325,293,325.1,292.8z"/>
							<path class="st0" d="M323.8,294.2c0.1,0,0.2-0.1,0.3-0.1c0.1-0.1,0.1-0.2,0.1-0.3c0,0,0,0,0,0c0-0.3-0.3-0.6-0.7-0.6
								c-0.1,0-0.2,0.1-0.3,0.1c-0.1,0.1-0.1,0.2-0.1,0.3c0,0,0,0,0,0C323.2,294,323.5,294.2,323.8,294.2z"/>
							<path class="st0" d="M322.4,295.6c0.1,0,0.2-0.1,0.3-0.1c0.1-0.1,0.1-0.2,0.1-0.3c0,0,0,0,0,0c0-0.3-0.3-0.6-0.7-0.6
								c-0.1,0-0.2,0.1-0.3,0.1c-0.1,0.1-0.1,0.2-0.1,0.3c0,0,0,0,0,0C321.8,295.4,322.1,295.6,322.4,295.6z"/>
							<path class="st0" d="M321,297c0.1,0,0.2-0.1,0.3-0.1c0.1-0.1,0.1-0.2,0.1-0.3c0,0,0,0,0,0c0-0.3-0.3-0.6-0.7-0.6
								c-0.1,0-0.2,0.1-0.3,0.1c-0.1,0.1-0.1,0.2-0.1,0.3c0,0,0,0,0,0C320.4,296.8,320.7,297,321,297z"/>
							<path class="st0" d="M316.3,301.9c0.7-0.5,1.2-1.1,1.8-1.7c0.6-0.6,1.1-1.2,1.7-1.8c0.1-0.2,0.1-0.4,0-0.5
								c-0.2-0.2-0.4-0.2-0.6-0.1c-0.7,0.5-1.2,1.1-1.8,1.7c-0.6,0.6-1.1,1.2-1.7,1.8c-0.1,0.2-0.1,0.4,0,0.5
								C315.8,302,316.1,302,316.3,301.9z"/>
							<path class="st0" d="M332.4,325.5c0.1,0.2,0.5,0.2,0.8,0c0.6-0.4,1-0.9,1.5-1.4c0.5-0.5,0.9-1,1.3-1.5
								c0.2-0.2,0.2-0.5,0.2-0.6c-0.1-0.2-0.5-0.2-0.8,0c-0.6,0.4-1,0.9-1.5,1.4c-0.5,0.5-0.9,1-1.3,1.5
								C332.4,325.1,332.3,325.4,332.4,325.5z"/>
							<path class="st0" d="M337.4,321.2c0.2-0.1,0.3-0.2,0.5-0.3c0.1-0.1,0.2-0.3,0.3-0.5c0,0,0,0,0,0c0.1-0.5-0.2-0.7-0.7-0.6
								c-0.2,0.1-0.3,0.2-0.5,0.3c-0.1,0.1-0.2,0.3-0.3,0.5c0,0,0,0,0,0C336.6,321.1,336.9,321.4,337.4,321.2z"/>
							<path class="st0" d="M356.4,302c4.6-4.5,9.1-9,13.6-13.6l0,0c0.4-0.4,0.5-0.9,0.3-1.1c-0.2-0.2-0.7,0-1.1,0.3
								c-4.5,4.6-9,9.1-13.4,13.8c-0.3,0.3-0.3,0.6-0.2,0.7C355.8,302.4,356.1,302.3,356.4,302z"/>
							<path class="st0" d="M354,304.5c0.2-0.1,0.3-0.2,0.5-0.3c0.1-0.1,0.2-0.3,0.3-0.5c0,0,0,0,0,0c0.1-0.5-0.2-0.7-0.7-0.6
								c-0.2,0.1-0.3,0.2-0.5,0.3c-0.1,0.1-0.2,0.3-0.3,0.5c0,0,0,0,0,0C353.2,304.4,353.5,304.7,354,304.5z"/>
							<path class="st0" d="M351.5,307.1c0.2-0.1,0.3-0.2,0.5-0.3c0.1-0.1,0.2-0.3,0.3-0.5c0,0,0,0,0,0c0.1-0.5-0.2-0.7-0.7-0.6
								c-0.2,0.1-0.3,0.2-0.5,0.3c-0.1,0.1-0.2,0.3-0.3,0.5c0,0,0,0,0,0C350.7,307,351,307.2,351.5,307.1z"/>
							<path class="st0" d="M348.9,309.6c0.2-0.1,0.3-0.2,0.5-0.3c0.1-0.1,0.2-0.3,0.3-0.5c0,0,0,0,0,0c0.1-0.5-0.2-0.7-0.7-0.6
								c-0.2,0.1-0.3,0.2-0.5,0.3c-0.1,0.1-0.2,0.3-0.3,0.5c0,0,0,0,0,0C348.2,309.5,348.5,309.8,348.9,309.6z"/>
							<path class="st0" d="M340.3,318.3c1.1-1,2.2-2.1,3.3-3.1c1-1.1,2.1-2.1,3.1-3.3c0.2-0.3,0.3-0.6,0.2-0.7
								c-0.1-0.2-0.5-0.1-0.8,0.2c-1.1,1-2.2,2.1-3.3,3.1c-1,1.1-2.1,2.1-3.1,3.3c-0.2,0.3-0.3,0.6-0.2,0.7
								C339.6,318.7,340,318.6,340.3,318.3z"/>
							<path class="st0" d="M371.8,325.1c0.5-0.4,1-0.8,1.5-1.3c0.4-0.5,0.9-0.9,1.3-1.5c0.1-0.2,0.2-0.4,0.1-0.6
								c-0.1-0.2-0.5-0.2-0.8,0c-0.5,0.4-1,0.8-1.5,1.3c-0.4,0.5-0.9,0.9-1.3,1.5c-0.1,0.2-0.2,0.4-0.1,0.6
								C371.1,325.3,371.4,325.3,371.8,325.1z"/>
							<path class="st0" d="M375.8,321c0.2-0.1,0.3-0.2,0.5-0.3c0.1-0.1,0.2-0.3,0.3-0.5c0,0,0,0,0,0c0.1-0.4-0.2-0.7-0.7-0.6
								c-0.2,0.1-0.3,0.2-0.5,0.3c-0.1,0.1-0.2,0.3-0.3,0.5c0,0,0,0,0,0C375.1,320.9,375.4,321.1,375.8,321z"/>
							<path class="st0" d="M394,302.6c4.4-4.3,8.7-8.6,13-12.9l0,0c0.4-0.4,0.5-0.8,0.2-1c-0.2-0.2-0.7-0.1-1.1,0.3
								c-4.3,4.4-8.6,8.7-12.8,13.1c-0.2,0.3-0.3,0.6-0.2,0.7C393.4,303,393.7,302.9,394,302.6z"/>
							<path class="st0" d="M391.7,305c0.2-0.1,0.3-0.2,0.5-0.3c0.1-0.1,0.2-0.3,0.3-0.5c0,0,0,0,0,0c0.1-0.4-0.2-0.7-0.7-0.6
								c-0.2,0.1-0.3,0.2-0.5,0.3c-0.1,0.1-0.2,0.3-0.3,0.5c0,0,0,0,0,0C390.9,304.9,391.2,305.2,391.7,305z"/>
							<path class="st0" d="M389.3,307.4c0.2-0.1,0.3-0.2,0.5-0.3c0.1-0.1,0.2-0.3,0.3-0.5c0,0,0,0,0,0c0.1-0.4-0.2-0.7-0.7-0.6
								c-0.2,0.1-0.3,0.2-0.5,0.3c-0.1,0.1-0.2,0.3-0.3,0.5c0,0,0,0,0,0C388.5,307.3,388.8,307.6,389.3,307.4z"/>
							<path class="st0" d="M386.8,309.9c0.2-0.1,0.3-0.2,0.5-0.3c0.1-0.1,0.2-0.3,0.3-0.5c0,0,0,0,0,0c0.1-0.4-0.2-0.7-0.7-0.6
								c-0.2,0.1-0.3,0.2-0.5,0.3c-0.1,0.1-0.2,0.3-0.3,0.5c0,0,0,0,0,0C386.1,309.8,386.4,310,386.8,309.9z"/>
							<path class="st0" d="M378.6,318.2c1.1-0.9,2.1-2,3.1-3c1-1,2-2,2.9-3.1c0.2-0.3,0.3-0.5,0.2-0.7c-0.1-0.2-0.5-0.1-0.8,0.1
								c-1.1,0.9-2.1,2-3.1,3c-1,1-2,2-2.9,3.1c-0.2,0.3-0.3,0.5-0.2,0.7C377.9,318.6,378.3,318.5,378.6,318.2z"/>
						</g>
						<polygon class="st33" points="326.8,370.9 331.2,356 378.6,356 381.2,370.9 						"/>
						<g>
							<ellipse class="st7" cx="314.5" cy="385.6" rx="10" ry="9.4"/>
							<path class="st30" d="M320.5,385.6c0,3.1-2.7,5.7-6,5.7c-3.3,0-6-2.5-6-5.7c0-3.1,2.7-5.7,6-5.7
								C317.8,379.9,320.5,382.5,320.5,385.6z"/>
							<path class="st31" d="M310.5,384.6l3.4-8.5c0.2-0.5,0.6-0.8,1.2-0.8H327c1.1,0,1.7,1.2,0.9,2l-10.7,10.9
								c-0.9,0.9-2.3,1.2-3.5,0.9l-1.1-0.3C310.8,388.1,309.8,386.3,310.5,384.6z"/>
							<path class="st7" d="M316.8,385.6c0,1.2-1,2.2-2.3,2.2c-1.3,0-2.3-1-2.3-2.2c0-1.2,1-2.2,2.3-2.2
								C315.7,383.4,316.8,384.4,316.8,385.6z"/>
						</g>
						<g>
							<ellipse class="st7" cx="390.8" cy="385.6" rx="10" ry="9.4"/>
							<path class="st30" d="M384.8,385.6c0,3.1,2.7,5.7,6,5.7c3.3,0,6-2.5,6-5.7c0-3.1-2.7-5.7-6-5.7
								C387.5,379.9,384.8,382.5,384.8,385.6z"/>
							<path class="st31" d="M394.7,384.6l-3.4-8.5c-0.2-0.5-0.6-0.8-1.2-0.8h-11.9c-1.1,0-1.7,1.2-0.9,2l10.7,10.9
								c0.9,0.9,2.3,1.2,3.5,0.9l1.1-0.3C394.5,388.1,395.4,386.3,394.7,384.6z"/>
							<path class="st7" d="M388.5,385.6c0,1.2,1,2.2,2.3,2.2s2.3-1,2.3-2.2c0-1.2-1-2.2-2.3-2.2S388.5,384.4,388.5,385.6z"/>
						</g>
					</g>
					<g>
						<ellipse class="st4" cx="417" cy="286.2" rx="22.6" ry="21.3"/>
						<g>
							<path class="st7" d="M421.2,274.8v18.8h3.8c0.7,0,1.1,0.5,1.1,1.7v0.6c0,1.2-0.3,1.7-1.1,1.7h-13.7c-0.7,0-1.1-0.5-1.1-1.7
								v-0.6c0-1.2,0.3-1.7,1.1-1.7h4.7v-15l-4.8,0.7c-0.9,0-1.1-1.9-1.1-2.8c0-0.5,0.3-0.8,0.9-0.9l8.8-1.5
								C420.4,274,421.2,274.4,421.2,274.8z"/>
						</g>
					</g>
				</g>
				<g>
					<polygon class="st5" points="326.5,270.2 326.5,286.9 368.5,288 368.5,268.4 					"/>
					<polygon class="st34" points="368.5,268.4 368.5,288 388.6,288.6 388.6,271.9 					"/>
					<polygon class="st4" points="325.3,267 369.5,265.3 369.5,270.7 325.3,272.5 					"/>
					<polygon class="st5" points="369.5,270.7 390,274 390,268.9 369.5,265.3 					"/>
				</g>
			</g>
			<g>
				<ellipse class="st22" cx="229.3" cy="385.4" rx="60.8" ry="3.3"/>
			</g>
			<g>
				<g>
					<g>
						<path class="st29" d="M258.6,347.6c1,9.2,9.2,22.7,12.4,30.2c0.9,2.2,5.4,1,4.9-1.4c-1.7-8-2.9-24.1-3.7-32.3
							C271.3,334.5,257.7,338.9,258.6,347.6z"/>
						<g>
							<defs>
								<path id="SVGID_1_" d="M271.2,377.8c0,0-1,2.5,0.7,5.9c-0.3,0.1-0.1,1.3,0.5,1.5c0.6,0.3,5.1,0.2,6-0.5c0.2-0.3,0-0.8,0-0.8
									s1.1,0.4,4.3-0.2c3.2-0.6,4.9-1.4,6.2-2.2c0.4-0.2,0.1-1-0.3-0.9c0,0-0.3-2.1-2.1-2c-3.8,0.2-6.5-1.2-8.5-2.3
									c-1-0.5-1.9-1-2.5-1C273.8,375.3,271.8,376.1,271.2,377.8z"/>
							</defs>
							<use xlink:href="#SVGID_1_"  style="overflow:visible;fill:#ED0C37;"/>
							<clipPath id="SVGID_2_">
								<use xlink:href="#SVGID_1_"  style="overflow:visible;"/>
							</clipPath>
							<path class="st35" d="M271.8,383.7c2.7,0.3,6.5-0.1,6.5-0.1s7.3-0.1,10.2-2.9c2.9-2.8,5.4,0.2,5.4,0.2l-12,9l-7.8-0.6
								l-3.5-2.8C270.6,386.5,270.3,383.6,271.8,383.7z"/>
							<path class="st36" d="M270.6,378c0,0,1,1.7,3.2,1.3c2.2-0.4,2.4-1.7,1.9-3.8C275.2,373.3,268.3,374.7,270.6,378z"/>
						</g>
					</g>
					<g>
						<path class="st37" d="M226.7,281.7c0,0,14.1,23.8,18.7,33.5c4.6,9.7,10.5,33.8,10.5,33.8s11.6,2.3,17.6-2.8
							c0,0-1.9-25.4-5.2-36.7c-3.3-11.4-15.8-39.3-15.8-39.3C247.4,260.1,221.6,271.7,226.7,281.7z"/>
						<path class="st30" d="M238.2,300.4c0.2-0.2,1.1-4.3,4-9c2.5-4.1,8.5-7.3,9.1-6.8c1.1,0.9-7.8,7.1-9.5,11.6
							c0,0,9.9-6.8,10.6-5.9C253,291.1,242.1,296.7,238.2,300.4z"/>
					</g>
				</g>
				<g>
					<path class="st15" d="M236.7,223c2.3,10.1,5.9,23.5,13.8,30c7.9,6.5,25.1,10.2,26,10.2c1.9,0.4,4-9.1,2.5-10.2
						c-1.5-1.1-15.1-6.3-17.5-8.4c-4.3-3.9-2.5-27.7-7.3-32.9C249.3,206.5,234,211.3,236.7,223z"/>
					<path class="st38" d="M280,254.7c0,0,6,4.7,6.4,6c0.4,1.3,0.2,3.4-0.3,3.9c-0.5,0.5-4.2,2.3-5.6,1.4c-1.4-0.9-3.4-3-3.4-3
						l0.7-2.3c0,0-0.5,1.6-4.1-0.6C270,258,276.5,251.5,280,254.7z"/>
				</g>
				<g>
					<g>
						<path class="st29" d="M195.8,340.8c-7.3,6.2-13.9,20.4-18.4,27.3c-1.3,2,2.4,4.7,4.1,2.9c5.8-6,18.8-16.5,25.4-22
							C214.6,342.6,202.8,334.9,195.8,340.8z"/>
						<g>
							<defs>
								<path id="SVGID_3_" d="M178.2,367.4c0,0-2.8,0.6-4.9,3.8c-0.3-0.2-1.2,0.6-1.1,1.2c0.1,0.6,2.6,4.2,3.7,4.5
									c0.4,0,0.7-0.4,0.7-0.4s0.3,1.1,2.5,3.3c2.3,2.2,4,3.1,5.3,3.7c0.4,0.2,1-0.5,0.6-0.7c0,0,1.7-1.4,0.6-2.8
									c-2.3-2.9-2.5-5.8-2.6-8c0-1.1-0.2-2.1-0.5-2.6C181.9,368.1,180,367,178.2,367.4z"/>
							</defs>
							<use xlink:href="#SVGID_3_"  style="overflow:visible;fill:#ED0C37;"/>
							<clipPath id="SVGID_4_">
								<use xlink:href="#SVGID_3_"  style="overflow:visible;"/>
							</clipPath>
							<path class="st39" d="M173.3,371.2c1.2,2.3,3.6,5.1,3.6,5.1s4.1,5.7,8.1,6.5c4,0.8,2.8,4.3,2.8,4.3l-14.5-4.6l-3.7-6.5
								l0.6-4.3C170.1,371.7,172.6,369.9,173.3,371.2z"/>
							<path class="st40" d="M177.7,367.1c0,0-1,1.8,0.6,3.2c1.6,1.5,2.8,1,4.4-0.6C184.4,368.1,179.4,363.5,177.7,367.1z"/>
						</g>
					</g>
					<g>
						<path class="st7" d="M211.8,272.8c0,0,1.9,34.9-2.2,44.1c-4.2,9.1-15,24-15,24s3,8.7,13.9,9.9c0,0,16.5-11,23-27.6
							c6.5-16.6,11.9-34.9,9.3-48.4C239.4,267.2,213.9,261.7,211.8,272.8z"/>
						<path class="st41" d="M216.6,272.5c0,0,0.2,29.1-1.2,40.3c-1.4,10.9-19.2,31-19.2,31"/>
					</g>
				</g>
				<g>
					<g>
						<path class="st0" d="M253.3,212.5c2.9,5.4-2.2,25.7-2.2,34.5c0,7.2,1.3,19.3,2.4,23.8c0.3,1.2-0.3,2.5-1.4,3.1
							c-4.4,2.4-10.3,3.7-13.9,4.1c-14,1.3-20.7-1-23.9-2.2c-1.7-0.6-2.7-2.2-2.5-4c0.7-4.4,2.7-15.3,1-25.3
							c-2.2-13.1-5.9-30.8,0.6-36.3c6.5-5.5,18.7-8.9,18.7-8.9S249.8,205.9,253.3,212.5z"/>
						<g>
							<path class="st30" d="M235.1,195.8c0,0-3.1-0.5-7.4-5.5c-2.8-3.3-6.7-18.2,5.7-20.4c12.4-2.3,16.1,5.6,16.6,10.8
								c0.6,5.2-5.6,9.4-8.4,11.3C238.8,193.8,235.1,195.8,235.1,195.8z"/>
							<path class="st29" d="M232.1,189.8c0,0-0.4,4.5-1.8,8c-1.4,3.5-2.9,4.6-4.7,6.1c-1.8,1.5,7.1,10.4,15.1,12.7
								c0,0,5.8-6.6,3.1-10.3c-2.6-3.7-4.7-4-3.8-8.9c0.8-4.3,1.3-6.7,1.3-6.7L232.1,189.8z"/>
							<g>
								<g>
									<g>
										<path class="st42" d="M232.1,189.8c0,0-0.4,3.3,1,4.8c1.4,1.4,4,4.9,9.8,4.5c7.8-0.5,4.8-12.2,4.8-12.2s0.8-4.5,0-8.1
											c-0.8-3.7-8.5-5.6-14.8-3.8c0,0-1.8,1.6-1.1,8.8c0,0-1.2-1.3-3-0.4c-1.4,0.7-1.5,2.4-1.1,4
											C228.3,189.3,230.4,190.9,232.1,189.8z"/>
									</g>
									<path class="st43" d="M231.4,189.1l-0.7-1.7l1.2-0.5c0,0-0.8-3.2-2.7-2C227.7,185.9,229.5,189.8,231.4,189.1z"/>
								</g>
								<path class="st30" d="M232.2,186.6c0,0-0.8,4.5-0.7,6.5c0.1,2,2.2,8.3,12,7.7c9.7-0.6,6.2-10.4,4.6-11.1
									c0.1,0.7-0.3,1.7-1,2.2c-0.4-0.9-1.5-1.6-3.1-1.3c-1.4-0.7-3-0.3-4.6,0.7l-1.2,0.8c-3-0.7-4.6-2.6-5-5.4L232.2,186.6z"/>
								<g>
									<path class="st0" d="M240.6,192.3c0,0,5.1,0,5.2,0.3c0.1,0.3-0.6,1-2.6,1C241.2,193.6,240.6,192.3,240.6,192.3z"/>
									<path class="st43" d="M240.5,192.2c0.2-0.1,0.1,0,0.2-0.1l0,0l0.1,0l0.2,0l0.4,0l0.7,0l1.4,0c0.5,0,0.9,0,1.4,0.1
										c0.2,0,0.5,0,0.7,0.1c0.1,0,0.1,0,0.2,0c0,0,0.1,0,0.1,0c0.1,0,0.1,0.1,0.1,0.1c0,0.2-0.1,0.3-0.2,0.4
										c-0.4,0.3-0.9,0.5-1.3,0.6c-0.5,0.1-1,0.1-1.4,0.1c-0.5,0-1-0.1-1.4-0.3c-0.2-0.1-0.4-0.2-0.6-0.4
										c-0.1-0.1-0.2-0.2-0.3-0.3l-0.1-0.1l-0.1-0.1l0,0l0,0C240.5,192.4,240.5,192.2,240.5,192.2z M240.7,192.3
										c0.1,0,0-0.2,0-0.1l0,0L240.7,192.3L240.7,192.3l0.2,0.1c0.1,0.1,0.1,0.2,0.2,0.3c0.2,0.2,0.3,0.3,0.5,0.4
										c0.4,0.2,0.9,0.3,1.3,0.3c0.5,0,0.9,0,1.4-0.1c0.5-0.1,0.9-0.2,1.3-0.5c0.1-0.1,0.1-0.2,0.1-0.3c0,0-0.1-0.1-0.2-0.1
										c-0.2,0-0.5-0.1-0.7-0.1c-0.5,0-0.9-0.1-1.4-0.1l-1.4,0l-0.7,0l-0.4,0L240.7,192.3L240.7,192.3L240.7,192.3
										C240.7,192.4,240.6,192.5,240.7,192.3z"/>
								</g>
								<g>
									<path class="st30" d="M241.3,186.3c0,0.4-0.6,0.4-1.3,0.4c-0.7-0.1-1.2-0.2-1.2-0.6c0-0.4,0.6-0.7,1.3-0.6
										C240.8,185.5,241.3,185.9,241.3,186.3z"/>
									<path class="st30" d="M236.7,184.4c0,0.1,2-0.6,2.6-0.6c0.6,0,3,0.4,3.2,0.1c0.2-0.2,0.4-1,0.4-1s-3.2-0.3-3.9-0.1
										C238.3,183,236.9,183.8,236.7,184.4z"/>
								</g>
								<g>
									<path class="st30" d="M247.6,186.8c0,0.4-0.6,0.4-1.3,0.4c-0.7-0.1-1.2-0.2-1.2-0.6c0-0.4,0.6-0.7,1.3-0.6
										C247.1,186,247.7,186.4,247.6,186.8z"/>
									<path class="st30" d="M248.5,185.3c0,0.1-0.9-1-1.3-1c-0.4-0.1-2.5,0.1-2.6-0.2c-0.1-0.2-0.1-1-0.1-1s2.8,0.2,3.2,0.4
										C248.1,183.8,248.5,184.8,248.5,185.3z"/>
								</g>
								<g>
									<path class="st44" d="M244.1,190.3c0,0-1.6-0.1-1.6-0.5c0-0.4,3.4-0.9,3.6-0.6C246.2,189.5,244.8,190.1,244.1,190.3z"/>
									<path class="st43" d="M244.3,184c0,0-0.5,1.9-0.2,2.6c0.2,0.7,1.7,2.2,1.7,2.5c0,0.3-1.7,1.1-1.8,1.2
										c-0.1,0,2.4-0.3,2.3-1.1c-0.1-0.7-2-2.6-2-3C244.3,185.9,244.3,184,244.3,184z"/>
								</g>
								<path class="st30" d="M232.9,187.1c0.5-0.3,1.3-3,0.4-5.7c-0.8-2.3,1.2-4.1,2.6-4.2c1.6-0.2,6.7,1.2,8.8,1
									c4.5-0.5,7.9-1.8,7.9-2.5c0-0.8-3.3,0-3.3,0s5-1.2,4.5-5.1c0,0-3.7,0.3-7.1-0.8c-3.3-1.1-11.3-2.3-15.6,0.6
									c-2.8,1.9-4.8,8.3-1.1,11.5C231.8,183.4,232,187.7,232.9,187.1z"/>
							</g>
						</g>
						<path class="st45" d="M244.5,212.6c0,0-2.1,39.8-1.7,43.5c0.5,3.7-0.3,18.1,9.3,20.9c0,0-4.3-20.7-3.7-33.2
							C249.1,231.3,244.5,212.6,244.5,212.6z"/>
					</g>
					<path class="st17" d="M241.4,203.6c0,0,4.1,12.4,3.9,28.7c-0.2,16.2-0.9,49.5,11.8,48.7c0,0-5.4-20.4-5-27.9
						c0.3-7.4,4.6-34.7,3-39.4C252.9,207,241.4,203.6,241.4,203.6z"/>
					<g>
						<path class="st17" d="M226.8,203c0,0,8.6,12.7,11.4,34.1c1.3,10.2-0.2,26.5-1.8,36.8c-1.9,11.9-26.7,11.9-28.3,8.8
							c-1.6-3.1,5.5-22.9,3.3-34.2c-2.2-11.3-3.5-29.6-0.9-35.7C213.2,206.9,226.8,203,226.8,203z"/>
						<path class="st46" d="M214.4,224.5c0,0,4.2,19.2,3.7,29.3c-0.5,10.1-4,30.6-4,30.6"/>
						<path class="st15" d="M211.4,214.4c-0.5,1.2-0.9,2.9-1.1,5c2.3,16.7,12.3,35.4,27.6,42.2c0.5-5.4,0.8-11.2,0.7-16.3
							c-10.3-9.6-18.1-22.2-24.1-34.5C213.1,211.9,212,213.1,211.4,214.4z"/>
					</g>
				</g>
				<g>
					<path class="st29" d="M271.4,258.1c0,0,7.6,1.7,8.6,2.7c0.9,1,2.5,4.4,2.3,5.1c-0.2,0.7-4.2,2.2-5.9,2
						c-1.7-0.2-3.5-1.1-3.5-1.1c0.3-0.8,0.2-1.6-0.8-1.9c-1-0.3-2,0.2-3.8,0.9C264.4,267.4,266.8,256.6,271.4,258.1z"/>
					<path class="st33" d="M210.2,223.2C212.2,234,226.8,250,233,255c5.5,4.4,32.4,11.9,33.6,12c2.8,0.6,6.3-8.8,4.1-10
						c-2.1-1.2-26.2-11.6-28.8-14.4c-2.6-2.7-12.2-26.9-18.9-32.5C216.3,204.6,207.9,211.1,210.2,223.2z"/>
				</g>
			</g>
		</g>
		<g>
			<g>
				<path class="st47" d="M649,206c11.1-15,22.5-11.8,26.6-5.4c4.2,6.3,1.2,15.7-7.6,23.5c-6.3,5.9-18.8,10-28.9,12.3
					c-7-7.1-15-17.1-16.8-25.3c-2.7-11,0.3-20.4,7.6-23.5C637.2,184.5,648.6,187.7,649,206z"/>
			</g>
			<g class="st48">
				<path class="st49" d="M675.6,200.6c-3.6-5.4-12.4-8.6-21.8,0c8-5.9,19.5-6.1,20.5,4.8c1.1,11.4-8.7,19.2-19.8,17.2
					c-14.7-2.6-11.1-14.2-18-19.9c-5.4-4.3-11.9,2.2-12.2,7.6c-0.1,2.4,0.1,4.9,0.6,7.2c3.3,6.6,9.1,13.6,14.4,18.9
					c10.1-2.3,22.6-6.4,28.9-12.3C676.8,216.3,679.8,206.9,675.6,200.6z"/>
			</g>
		</g>
		<g>
			<ellipse class="st22" cx="513.7" cy="384.3" rx="60.8" ry="3.3"/>
			<g>
				<g>
					<g>
						<g>
							<g>
								<g>
									<defs>
										<path id="SVGID_5_" d="M524.9,371.4c0,0,2.5,2.1,2.9,2.7c0.4,0.6,2,4.9,2,4.9c-0.3,0.6-1.5,1.5-2.5,1.7l-2-2.5
											c0,0-1,4.3-2.1,5.7c-1.3,1.7-8.6,3.7-9.7,3.1c0,0-1.3-2.5,0.9-3.9c4.2-2.6,4.3-7.9,4.3-7.9
											C518.2,372,521.9,369.6,524.9,371.4z"/>
									</defs>
									<use xlink:href="#SVGID_5_"  style="overflow:visible;fill:#FD6141;"/>
									<clipPath id="SVGID_6_">
										<use xlink:href="#SVGID_5_"  style="overflow:visible;"/>
									</clipPath>
									<path class="st50" d="M512.7,386.6c0.1-0.1,9.4-1.2,10.5-3.8c0.9-2,1.4-5.4,1.9-5.8c0.5-0.4,2.8-3,2.8-3l3.7,6.1l-13.9,11
										L512.7,386.6z"/>
								</g>
								<path class="st51" d="M517.1,380.8l1.3,0.3c0,0,0.9-1.2,0.8-2.2l-1.2-0.4c-0.2-0.1-0.5,0-0.5,0.2l-0.6,1.6
									C516.7,380.5,516.9,380.8,517.1,380.8z"/>
							</g>
							<path class="st29" d="M508.7,251.3c0-0.4-11.7,48.7-11.3,61.8c0.3,8.2,16.6,46,21.4,62c0.9,3.1,6-0.5,5.6-3.7
								c-1.9-15.3-1.8-23.4-9-56.6c-1.1-5.2,18.6-51.6,17.1-62.5C531,241.5,514.9,235.6,508.7,251.3z"/>
							<path class="st52" d="M532.5,252.4c-1.6-10.9-17.7-16.8-23.8-1.1c0-0.4-10.6,44-11.3,59.7c5.3-3.8,12.3-1.8,18.3,1.2
								C518,300.9,533.9,262.2,532.5,252.4z"/>
						</g>
						<g>
							<g>
								<g>
									<defs>
										<path id="SVGID_7_" d="M541.8,374.6c0,0,1.6,2.8,1.7,3.5c0.2,0.7,0.1,5.3,0.1,5.3c-0.6,0.5-2,0.9-3,0.7l-1-3
											c0,0-1.5,2.9-3,3.9c-1.8,1.2-8.4,2.6-9.5,2.1c0,0-1.5-2.7,0.9-3.9c6.1-2.9,6.6-7,6.6-7
											C535.2,372.9,539.6,371.9,541.8,374.6z"/>
									</defs>
									<use xlink:href="#SVGID_7_"  style="overflow:visible;fill:#FD6141;"/>
									<clipPath id="SVGID_8_">
										<use xlink:href="#SVGID_7_"  style="overflow:visible;"/>
									</clipPath>
									<path class="st53" d="M526.3,386.7c0.1,0,7.6-0.7,9.4-2c1.8-1.3,3.4-4.6,4-4.8c0.6-0.2,3.8-1.9,3.8-1.9l1.2,6.9l-17.2,5.6
										L526.3,386.7z"/>
								</g>
								<path class="st51" d="M531.2,381.2l1.1,0.7c0,0,1.3-0.8,1.6-1.8l-1-0.8c-0.2-0.1-0.5-0.1-0.6,0l-1.2,1.3
									C530.9,380.8,530.9,381.1,531.2,381.2z"/>
							</g>
							<path class="st29" d="M520.3,254.5c-0.1,4.3,0.6,49.8,4.8,62.3c2.6,7.8,8.1,45.1,9.9,57.8c0.7,4.6,6,4.6,6.4,0.2
								c1.4-16.5,7.1-39.5,0.7-59.6c-1.6-5,5.8-57.1,1.2-67C538.7,238.3,520.6,238.7,520.3,254.5z"/>
							<path class="st52" d="M541.9,311.8c0.1-12.9,5.5-54.8,1.5-63.6c-4.6-9.9-22.7-9.5-23.1,6.3c-0.1,3.9,0.5,42.8,3.9,58.7
								C529.3,310.4,536,310.2,541.9,311.8z"/>
						</g>
						<g>
							<path class="st17" d="M509.2,246l-0.5,4.5c0,0-8.5,20.3-12.2,53.3c9.1-2.4,26.2,5.5,51.6,2.2c0,0,10.1-42.2-7.4-61
								C523.2,226.1,510.1,236,509.2,246z"/>
							<path class="st15" d="M509.3,250.3c0,0-0.7,6.3,10.9,7.4c11.6,1.1,23.1-6.8,22.8-9.1C542.7,246.3,509.3,250.3,509.3,250.3z"
								/>
							<path class="st54" d="M537.9,247.1c0,0,13.3,20.8,5.1,58"/>
						</g>
					</g>
					<g>
						<g>
							<path class="st29" d="M461.9,234c-0.1,0-4.9-0.3-5.7-0.1c-0.8,0.2-2.7,1.1-3.3,1.4c-1.3,0.6,0,1.5,1,1.4
								c1.4-0.1,2-0.4,2.5-0.3c0.3,0,0.6,0.1,0.9,0.2c-0.5,0.4-2.7,1.9-4.4,2.5c-0.9,0.3-1.8,0.6-3.2,1c-0.6,0.2-0.5,0.9,0.2,1.1
								c0.5,0.1,2.2,0.1,3.7-0.4c0.6-0.2,1.2-0.4,1.7-0.7c0,0.1-1.3,0.8-1.9,1c-0.9,0.4-1.8,0.5-3.1,1c-0.6,0.2-0.4,0.9,0.3,1
								c0.2,0,0.5,0.1,1,0c-0.2,0.3-0.1,0.8,0.5,0.8c0.3,0,0.8,0,1.5-0.1c0.1,0.2,0.3,0.3,0.5,0.3c4.9,0,7.8-2.5,10.5-3.1
								C468.8,237.1,465.1,234.6,461.9,234z"/>
							<path class="st37" d="M519,201.1c-3.3-1.8-9-2.4-13.5,3.6s-6.5,20.2-11.2,25c-2.8,2.9-28.6,3.7-30.4,4.5
								c-1.2,0.6-0.5,6-0.1,7c0.8,2.1,28.7,3.2,36.3,0.4C507.6,238.8,526.1,205,519,201.1z"/>
						</g>
						<path class="st30" d="M508.2,174.3c0.2-2.2,0.2-5.8,3-9c2.8-3.2,13.6-6.3,19.3-2.6c7,4.5,4.7,8.8,13.4,12.1
							c8.7,3.3,6.1,7,3.6,10.7c-2.5,3.7-1.6,4.4,2.4,8.3c4,3.9,9.4,13.7,0,19.3c-9.4,5.6-29.6,1.9-37.7-5.4
							c-8.1-7.4,1.5-12.2-0.8-16.6c-2.3-4.4-4.9-3.4-4.9-8.1C506.4,179.4,507.9,177.7,508.2,174.3z"/>
						<path class="st7" d="M525.8,195.9c0,0-18.4,2.9-19.1,8.2c-0.3,2.2,3,6.7,2.1,9c-1.2,3.3-3.1,5.3,0.4,13.2
							c2.9,6.4-2.1,19.6-1.9,21.2c0.6,5.9,10.5,7,14.5,6.9c5.8-0.1,22.4-3.6,22.4-7.1c0-3-7.7-9.4-8.5-14.5
							c-0.7-5.1,13.4-25.6,10.6-30C541,194.1,525.8,195.9,525.8,195.9z"/>
						<g>
							<path class="st29" d="M543.5,250.7c-0.1,0-4.8,1.1-5.5,1.6c-0.7,0.4-2.3,1.8-2.7,2.3c-1.1,1,0.5,1.5,1.4,1.1
								c1.3-0.5,1.7-0.9,2.3-1c0.3,0,0.6-0.1,0.9-0.1c-0.4,0.6-2,2.6-3.4,3.6c-0.8,0.6-1.5,1.1-2.7,1.9c-0.5,0.4-0.2,1,0.5,1
								c0.5-0.1,2.1-0.5,3.3-1.5c0.5-0.4,1-0.8,1.4-1.1c0,0-1,1.1-1.5,1.5c-0.7,0.6-1.5,1-2.6,1.8c-0.5,0.4-0.1,1,0.6,0.8
								c0.2,0,0.5-0.1,1-0.2c-0.1,0.4,0.2,0.8,0.7,0.7c0.3,0,0.8-0.2,1.4-0.5c0.1,0.1,0.3,0.2,0.6,0.2c2.9-0.6,7.9-4.6,9-6
								C551,251.6,546.7,250.3,543.5,250.7z"/>
							<path class="st7" d="M539.4,198.4c-3,2.3-5.6,7-1.3,13.2s16.5,12.5,19.5,18.4c1.8,3.5-14.8,18.7-14.8,20.6
								c0,1.9,3.1,6.6,4.3,7.2c2.1,1,25.4-20.3,25.4-27.9C572.5,222.2,545.8,193.6,539.4,198.4z"/>
						</g>
						<path class="st29" d="M528.6,182.5c0,0,0.4,4.5,1.8,8c1.4,3.5,2.9,4.6,4.7,6.1c1.8,1.5-7.1,10.4-15.1,12.7
							c0,0-5.8-6.6-3.1-10.3c2.6-3.7,4.7-4,3.8-8.9c-0.8-4.3-1.3-6.7-1.3-6.7L528.6,182.5z"/>
						<g>
							<g>
								<path class="st0" d="M516.3,184.8c0,2.1-0.9,3.8-2.1,3.8c-1.1,0-2.1-1.7-2.1-3.8c0-1.4,0.4-2.7,1.1-3.3
									c0.2-0.2-0.1-0.4-0.2-0.2c-0.7,0.7-1.1,2-1.1,3.5c0,2.3,1,4.1,2.4,4.1s2.4-1.8,2.4-4.1c0-1.2-0.2-2.1-0.7-2.9
									c0,0.1-0.2,0.2-0.2,0.2C516.1,182.8,516.3,183.7,516.3,184.8z"/>
							</g>
							<g>
								<path class="st42" d="M528.6,182.5c0,0-1.3,9.2-10.4,8.5c-4.6-0.3-6.9-9.2-5.2-11.4c0,0-0.8-4.5,0-8.1
									c0.8-3.7,8.5-5.6,14.8-3.8c0,0,1.8,1.6,1.1,8.8c0,0,1.2-1.3,3-0.4c1.4,0.7,1.5,2.4,1.1,4C532.3,182,530.2,183.6,528.6,182.5
									z"/>
								<path class="st43" d="M529.2,181.8l0.7-1.7l-1.2-0.5c0,0,0.8-3.2,2.7-2C533,178.6,531.2,182.5,529.2,181.8z"/>
								<g>
									<path class="st0" d="M532.1,184.8c0,2.1-0.9,3.8-2.1,3.8s-2.1-1.7-2.1-3.8c0-1.4,0.4-2.7,1.1-3.3c0.2-0.2-0.1-0.4-0.2-0.2
										c-0.7,0.7-1.1,2-1.1,3.5c0,2.3,1,4.1,2.4,4.1s2.4-1.8,2.4-4.1c0-1.2-0.2-2.1-0.7-2.9c0,0.1-0.2,0.2-0.2,0.2
										C531.9,182.8,532.1,183.7,532.1,184.8z"/>
								</g>
							</g>
							<g>
								<g>
									<path class="st17" d="M515.7,185.3c0,0,0.6-1.4,5.4-1C520.6,186.7,516.1,187.9,515.7,185.3z"/>
									<g>
										<path class="st43" d="M515.7,185.3c0,0,2.9,0,5.4-1"/>
										<path class="st43" d="M515.7,185.3c1.8-0.2,3.6-0.5,5.4-1c-0.8,0.4-1.7,0.7-2.7,0.8C517.6,185.3,516.6,185.4,515.7,185.3z
											"/>
									</g>
								</g>
								<g>
									<path class="st30" d="M513,179.5c0,0.4,0.6,0.4,1.3,0.4s1.2-0.2,1.2-0.6c0-0.4-0.6-0.7-1.3-0.6S513,179.1,513,179.5z"/>
									<path class="st30" d="M511.6,177.8c0,0.1,1.6-1.3,2-1.3c0.4,0,2.1,0.6,2.2,0.4c0.2-0.2,0.3-0.7,0.3-0.7s-2.3-0.4-2.8-0.3
										C512.9,176.1,511.7,177.3,511.6,177.8z"/>
								</g>
								<g>
									<path class="st30" d="M519.3,179c0,0.4,0.6,0.4,1.3,0.4c0.7-0.1,1.2-0.2,1.2-0.6c0-0.4-0.6-0.7-1.3-0.6
										S519.3,178.6,519.3,179z"/>
									<path class="st30" d="M523.4,176.4c0,0.1-2.2-0.8-2.7-0.7c-0.5,0.1-2.3,1-2.5,0.8c-0.2-0.2-0.5-0.6-0.5-0.6
										s2.6-0.8,3.2-0.8C521.5,175.1,523.2,175.9,523.4,176.4z"/>
								</g>
								<g>
									<path class="st44" d="M516.6,182.9c0,0,1.6-0.1,1.6-0.5c0-0.4-3.4-0.9-3.6-0.6C514.4,182.2,515.8,182.8,516.6,182.9z"/>
									<path class="st43" d="M516.3,176.7c0,0,0.5,1.9,0.2,2.6c-0.2,0.7-1.7,2.2-1.7,2.5c0,0.3,1.7,1.1,1.8,1.2
										c0.1,0-2.4-0.3-2.3-1.1c0.1-0.7,2-2.6,2-3C516.3,178.6,516.3,176.7,516.3,176.7z"/>
								</g>
							</g>
						</g>
						<path class="st30" d="M525.8,168.3c-7.6,0.8-11,7.5-16.6,7.5c-3.5-5.7,7.1-20,19.6-8.9c5.7,5.1,0.6,9,0.6,9l-1.3,4.1
							c0,0,0.1-3.1-1.1-4.3C523.5,172.3,525.8,168.3,525.8,168.3z"/>
					</g>
				</g>
			</g>
		</g>
		<g>
			<path class="st55" d="M475.8,130.2L397.4,112l0,0l-9.9-2.3c-3.9-0.9-7.8,1.3-8.7,5l-7.8,29.8l0,0l-0.4,1.7l-3.6,13.6
				c-0.9,3.6,1.4,7.3,5.3,8.2l86.9,20.1c3.9,0.9,7.8-1.3,8.7-5l1-4l0,0l3-11.3l0,0l4.3-16.5l0,0l3.8-14.6
				C480.8,133.8,478.9,130.9,475.8,130.2z"/>
			<g>
				<path class="st5" d="M457.8,185.5l-86.9-20.1c-3.9-0.9-6.2-4.6-5.3-8.2l11.8-45.1c0.9-3.6,4.8-5.9,8.7-5l86.9,20.1
					c3.9,0.9,6.2,4.6,5.3,8.2l-11.8,45.1C465.6,184.1,461.7,186.4,457.8,185.5z"/>
				<path class="st4" d="M383.4,123.3c-3,7.4-2,17.6,5.9,21.4c28.2,15.8,58.3,14.4,85.5,4l3.8-14.6c0.8-2.9-1.1-5.8-4.2-6.6
					L396,109.3C390.2,112.5,385.9,117.9,383.4,123.3z"/>
				<polygon class="st7" points="467.5,176.5 366.7,153.1 369.6,141.8 470.5,165.2 				"/>
				<path class="st7" d="M413.4,126.1l-30.5-7.1c-1.5-0.4-2.5-1.8-2.1-3.3l0.1-0.4c0.4-1.5,1.9-2.4,3.5-2l30.5,7.1
					c1.5,0.4,2.5,1.8,2.1,3.3l-0.1,0.4C416.5,125.6,414.9,126.5,413.4,126.1z"/>
				<path class="st7" d="M440.1,138.3L380,124.4c-0.8-0.2-1.2-0.9-1.1-1.6l0.1-0.2c0.2-0.7,1-1.2,1.7-1l60.1,13.9
					c0.8,0.2,1.2,0.9,1.1,1.6l-0.1,0.2C441.7,138.1,440.9,138.5,440.1,138.3z"/>
				<g>
					<path class="st0" d="M427.8,149.1l-2-0.5c-1.1-0.3-1.8-1.3-1.5-2.3l0.1-0.3c0.3-1,1.4-1.7,2.5-1.4l2,0.5
						c1.1,0.3,1.8,1.3,1.5,2.3l-0.1,0.3C430,148.7,428.9,149.4,427.8,149.1z"/>
					<path class="st0" d="M435.3,150.8l-2-0.5c-1.1-0.3-1.8-1.3-1.5-2.3l0.1-0.3c0.3-1,1.4-1.7,2.5-1.4l2,0.5
						c1.1,0.3,1.8,1.3,1.5,2.3l-0.1,0.3C437.5,150.5,436.4,151.1,435.3,150.8z"/>
					<path class="st0" d="M442.8,152.6l-2-0.5c-1.1-0.3-1.8-1.3-1.5-2.3l0.1-0.3c0.3-1,1.4-1.7,2.5-1.4l2,0.5
						c1.1,0.3,1.8,1.3,1.5,2.3l-0.1,0.3C445,152.2,443.9,152.8,442.8,152.6z"/>
				</g>
				<g>
					<path class="st17" d="M460.6,131.7c-0.9-1.5-2.4-2.6-4.2-3c-3.6-0.8-7.3,1.2-8.2,4.7c-0.9,3.4,1.3,6.9,4.9,7.7
						c1.9,0.4,3.7,0.1,5.3-0.8c-0.8-1.4-1.1-3-0.7-4.7C458.1,133.8,459.1,132.5,460.6,131.7z"/>
					<path class="st17" d="M465.8,130.8c-1.9-0.4-3.7-0.1-5.3,0.8c0.8,1.4,1.1,3,0.7,4.7c-0.4,1.7-1.5,3-2.9,3.8
						c0.9,1.5,2.4,2.6,4.2,3c3.6,0.8,7.3-1.2,8.2-4.7C471.6,135.1,469.4,131.7,465.8,130.8z"/>
				</g>
			</g>
		</g>
	</g>
</g>
<g id="DESIGNED_BY_FREEPIK">
	<g>
		<g id="XMLID_319_">
			<g id="XMLID_338_">
				<path id="XMLID_346_" class="st56" d="M388.7,480.5c-0.5,0.5-1,1.1-1.4,1.7l-0.6-0.3c-0.1-0.3-0.4-0.6-0.8-0.5
					c-0.4,0-0.7,0.4-0.7,0.8c0,0.4,0.4,0.7,0.8,0.6c0.1,0,0.2,0,0.2-0.1l0.6,0.3c-0.3,0.6-0.5,1.3-0.7,2l0.9,0.2
					c0.3-1.5,1-2.9,2.2-4L388.7,480.5z"/>
				<path id="XMLID_345_" class="st56" d="M395.4,477.8c-0.2,0-0.4,0-0.6,0l-0.1-0.7c0.2-0.2,0.4-0.5,0.3-0.7
					c-0.1-0.5-0.5-0.8-1-0.7c-0.5,0.1-0.8,0.5-0.8,0.9c0,0.3,0.2,0.5,0.5,0.7l0.1,0.7c-0.9,0.1-1.7,0.4-2.5,0.8l0.4,0.8
					c1.2-0.5,2.4-0.8,3.7-0.8c0.6,0,1.2,0.1,1.8,0.2l0.2-0.9C396.8,477.9,396.1,477.8,395.4,477.8z"/>
				<path id="XMLID_344_" class="st56" d="M403.6,480.8c0.4,0,0.7-0.4,0.6-0.8c0-0.4-0.4-0.7-0.8-0.6c-0.4,0-0.7,0.4-0.7,0.7
					l-0.5,0.4c-0.5-0.5-1.1-0.9-1.7-1.3l-0.5,0.7c1.4,0.8,2.5,2,3.2,3.4l0.9-0.4c-0.3-0.6-0.7-1.2-1.2-1.8l0.5-0.4
					C403.4,480.8,403.5,480.8,403.6,480.8z"/>
				<path id="XMLID_343_" class="st56" d="M394.8,489.7c-0.5,0-1,0-1.4,0c-1.1,0-2.1-0.1-3.1-0.2c-0.5-0.1-1-0.2-1.6-0.3
					c1.3,2.2,3.8,3.6,6.6,3.6c3.5,0,6.5-2.2,7.3-5.2c-0.8,0.5-1.9,1-3,1.3C398.2,489.3,396.5,489.6,394.8,489.7z"/>
				<path id="XMLID_339_" class="st56" d="M395.4,479.6c-4.1,0-7.5,3.1-7.5,6.9c0,0.5,0.1,1,0.2,1.5c0.8,0.6,3.3,1,6.6,0.8
					c3.6-0.2,6.5-1.1,8.2-2.5c0-0.2,0-0.5-0.1-0.7C402.4,482.2,399.2,479.6,395.4,479.6z M392.8,487.1c-1.3,0-2.3-1-2.3-2.1
					c0-1.2,1-2.1,2.3-2.1c1.3,0,2.3,1,2.3,2.1C395.1,486.2,394,487.1,392.8,487.1z M398.6,486.1c-0.9,0-1.7-0.7-1.7-1.6
					s0.8-1.6,1.7-1.6c0.9,0,1.7,0.7,1.7,1.6S399.5,486.1,398.6,486.1z"/>
			</g>
			<path id="XMLID_336_" class="st56" d="M415.2,481.7c-0.4-0.1-1-0.4-1.7-0.3c-0.7,0.1-1,0.4-1,1.2v1h2.7v2h-2.7v6.3h-2.4v-6.3
				h-1.7v-2h1.7v-1c0-2,1.1-3.2,3.2-3.2c0.8,0,1.4,0.1,2,0.4L415.2,481.7z"/>
			<path id="XMLID_334_" class="st56" d="M421,485.6c-0.2,0-0.4-0.1-0.6-0.1c-1.1,0-1.9,0.6-1.9,1.9v4.5h-2.4v-8.3h2.3v0.9
				c0.6-0.8,1.4-1.1,2.5-1.1c0.5,0,1,0.1,1.4,0.4L421,485.6z"/>
			<path id="XMLID_331_" class="st56" d="M430.4,487.8c0,0.3,0,0.6,0,0.8h-6.3c0.3,1.2,1.2,1.7,2.3,1.7c0.8,0,1.6-0.3,2.2-0.8
				l1.4,1.4c-1,0.9-2.3,1.3-3.8,1.3c-2.7,0-4.6-1.7-4.6-4.4c0-2.6,1.8-4.4,4.5-4.4C428.7,483.4,430.4,485.2,430.4,487.8z M424.1,487
				h3.9c-0.2-1.1-0.9-1.7-1.9-1.7C425,485.4,424.3,486,424.1,487z"/>
			<path id="XMLID_328_" class="st56" d="M439.9,487.8c0,0.3,0,0.6,0,0.8h-6.3c0.3,1.2,1.2,1.7,2.3,1.7c0.8,0,1.6-0.3,2.2-0.8
				l1.4,1.4c-1,0.9-2.3,1.3-3.8,1.3c-2.7,0-4.6-1.7-4.6-4.4c0-2.6,1.8-4.4,4.5-4.4C438.1,483.4,439.9,485.2,439.9,487.8z M433.6,487
				h3.9c-0.2-1.1-0.9-1.7-1.9-1.7C434.4,485.4,433.8,486,433.6,487z"/>
			<path id="XMLID_325_" class="st56" d="M450.2,487.8c0,2.5-1.8,4.4-4.3,4.4c-1.2,0-2-0.4-2.6-1.1v4.3h-2.4v-11.8h2.3v0.9
				c0.6-0.7,1.4-1.1,2.6-1.1C448.3,483.4,450.2,485.3,450.2,487.8z M443.2,487.8c0,1.3,0.9,2.3,2.3,2.3c1.4,0,2.3-1,2.3-2.3
				c0-1.3-0.9-2.3-2.3-2.3C444.1,485.5,443.2,486.5,443.2,487.8z"/>
			<path id="XMLID_322_" class="st56" d="M454,480.9c0,0.8-0.7,1.4-1.5,1.4c-0.9,0-1.5-0.6-1.5-1.4c0-0.8,0.7-1.4,1.5-1.4
				C453.3,479.5,454,480.1,454,480.9z M453.7,492h-2.4v-8.3h2.4V492z"/>
			<path id="XMLID_320_" class="st56" d="M457.7,486.6l3.3-3h2.9l-4.3,3.9l4.3,4.4H461l-3.4-3.4v3.4h-2.4v-12.4h2.4V486.6z"/>
		</g>
		<g>
			<path class="st56" d="M295.3,491.9v-1.2c-0.7,0.8-1.7,1.4-2.9,1.4c-2.3,0-3.9-1.6-3.9-4.3c0-2.6,1.6-4.3,3.9-4.3
				c1.2,0,2.2,0.5,2.9,1.4v-4.4h1.4v11.4H295.3z M295.3,489.7v-3.7c-0.5-0.7-1.5-1.3-2.6-1.3c-1.8,0-2.8,1.4-2.8,3.2
				c0,1.8,1,3.2,2.8,3.2C293.7,491,294.8,490.4,295.3,489.7z"/>
			<path class="st56" d="M298.4,487.8c0-2.4,1.8-4.3,4.3-4.3c2.6,0,4.2,1.9,4.2,4.4v0.3h-7.1c0.1,1.5,1.3,2.8,3.1,2.8
				c1,0,2-0.4,2.7-1l0.7,0.8c-0.9,0.8-2,1.3-3.5,1.3C300.2,492.1,298.4,490.4,298.4,487.8z M302.7,484.5c-1.9,0-2.8,1.5-2.9,2.7h5.7
				C305.5,486,304.7,484.5,302.7,484.5z"/>
			<path class="st56" d="M307.8,490.8l0.7-0.9c0.6,0.6,1.7,1.2,2.9,1.2c1.3,0,2.1-0.6,2.1-1.4c0-2-5.4-0.8-5.4-3.8
				c0-1.3,1.2-2.4,3.3-2.4c1.5,0,2.5,0.5,3.2,1.2l-0.6,0.9c-0.5-0.6-1.5-1-2.6-1c-1.2,0-1.9,0.6-1.9,1.3c0,1.8,5.4,0.6,5.4,3.8
				c0,1.4-1.2,2.5-3.4,2.5C309.9,492.1,308.7,491.7,307.8,490.8z"/>
			<path class="st56" d="M316.3,481.7c0-0.5,0.4-0.9,0.9-0.9c0.5,0,0.9,0.4,0.9,0.9c0,0.5-0.4,0.9-0.9,0.9
				C316.7,482.5,316.3,482.1,316.3,481.7z M316.6,491.9v-8.2h1.4v8.2H316.6z"/>
			<path class="st56" d="M320.2,494l0.7-1c0.7,0.8,1.6,1.1,2.8,1.1c1.4,0,2.8-0.7,2.8-2.5v-1.2c-0.6,0.8-1.7,1.5-2.9,1.5
				c-2.3,0-3.9-1.6-3.9-4.3c0-2.6,1.6-4.3,3.9-4.3c1.2,0,2.2,0.5,2.9,1.4v-1.2h1.4v8c0,2.7-2,3.6-4.2,3.6
				C322.2,495.2,321.2,495,320.2,494z M326.5,489.5v-3.6c-0.5-0.7-1.5-1.3-2.6-1.3c-1.8,0-2.8,1.3-2.8,3.1c0,1.8,1,3.1,2.8,3.1
				C325,490.9,326,490.3,326.5,489.5z"/>
			<path class="st56" d="M336,491.9v-5.4c0-1.4-0.8-1.9-2-1.9c-1.1,0-2.1,0.6-2.6,1.3v6h-1.4v-8.2h1.4v1.2c0.6-0.7,1.8-1.4,3.1-1.4
				c1.8,0,2.8,0.9,2.8,2.7v5.8H336z"/>
			<path class="st56" d="M339.1,487.8c0-2.4,1.8-4.3,4.3-4.3c2.6,0,4.2,1.9,4.2,4.4v0.3h-7.1c0.1,1.5,1.3,2.8,3.1,2.8
				c1,0,2-0.4,2.7-1l0.7,0.8c-0.9,0.8-2,1.3-3.5,1.3C341,492.1,339.1,490.4,339.1,487.8z M343.4,484.5c-1.9,0-2.8,1.5-2.9,2.7h5.7
				C346.2,486,345.4,484.5,343.4,484.5z"/>
			<path class="st56" d="M355.7,491.9v-1.2c-0.7,0.8-1.7,1.4-2.9,1.4c-2.3,0-3.9-1.6-3.9-4.3c0-2.6,1.6-4.3,3.9-4.3
				c1.2,0,2.2,0.5,2.9,1.4v-4.4h1.4v11.4H355.7z M355.7,489.7v-3.7c-0.5-0.7-1.5-1.3-2.6-1.3c-1.8,0-2.8,1.4-2.8,3.2
				c0,1.8,1,3.2,2.8,3.2C354.1,491,355.2,490.4,355.7,489.7z"/>
			<path class="st56" d="M363.5,491.9v-11.4h1.4v4.4c0.7-0.9,1.8-1.4,2.9-1.4c2.3,0,3.9,1.7,3.9,4.3c0,2.7-1.6,4.3-3.9,4.3
				c-1.2,0-2.3-0.6-2.9-1.4v1.2H363.5z M367.4,491c1.8,0,2.8-1.3,2.8-3.2c0-1.8-1-3.2-2.8-3.2c-1.1,0-2.1,0.6-2.6,1.3v3.7
				C365.3,490.4,366.4,491,367.4,491z"/>
			<path class="st56" d="M373.1,494c0.2,0.1,0.5,0.1,0.7,0.1c0.6,0,1-0.2,1.3-0.9l0.6-1.2l-3.7-8.3h1.5l2.9,6.7l2.9-6.7h1.5
				l-4.4,9.9c-0.5,1.2-1.4,1.7-2.6,1.7c-0.3,0-0.7-0.1-1-0.1L373.1,494z"/>
		</g>
	</g>
</g>
</svg>
