<?xml version="1.0" encoding="utf-8"?>
<!-- Generator: Adobe Illustrator 24.2.3, SVG Export Plug-In . SVG Version: 6.00 Build 0)  -->
<svg version="1.1" id="Layer_1" xmlns="http://www.w3.org/2000/svg" xmlns:xlink="http://www.w3.org/1999/xlink" x="0px" y="0px"
	 viewBox="0 0 1920 1080" style="enable-background:new 0 0 1920 1080;" xml:space="preserve">
<style type="text/css">
	.st0{fill:#ECECEC;}
	.st1{fill:#E1E1E1;}
	.st2{fill:#F5F5F5;}
	.st3{fill:#FFFFFF;}
	.st4{fill:#FAFAFA;}
	.st5{fill:#1A2E35;}
	.st6{fill:#FF4F5B;}
	.st7{opacity:0.1;}
	.st8{fill:#375A64;}
	.st9{opacity:0.3;}
	.st10{fill:#FFBF9D;}
	.st11{opacity:0.5;}
	.st12{opacity:0.4;}
</style>
<g>
	<g>
		<path class="st0" d="M46.7,997.9v64.4h24.9c0,0-2.4-12.8,0-20.4c2.4-7.6,29.4-27.2,28.6-44H46.7z"/>
		<path class="st1" d="M246,997.9v64.4h24.9c0,0-2.4-12.8,0-20.4c2.4-7.6,29.4-27.2,28.6-44H246z"/>
		<path class="st0" d="M441.1,997.9v64.4h-24.9c0,0,2.4-12.8,0-20.4c-2.4-7.6-29.4-27.2-28.6-44H441.1z"/>
		<path class="st1" d="M613.6,997.9v64.4h-24.9c0,0,2.4-12.8,0-20.4c-2.4-7.6-29.4-27.2-28.6-44H613.6z"/>
		<rect x="29.7" y="680.1" class="st2" width="597" height="319.9"/>
		<polygon class="st1" points="465.9,680.1 470.3,1000 626.7,1000 626.7,680 		"/>
		<rect x="56.6" y="703.6" class="st0" width="383.3" height="81.4"/>
		<rect x="56.6" y="801.2" class="st0" width="383.3" height="81.4"/>
		<rect x="56.6" y="898.9" class="st0" width="383.3" height="81.4"/>
		<g>
			<g>
				<g>
					<polygon class="st1" points="203.5,588.1 187,679.7 398.8,679.7 416.3,588.1 					"/>
				</g>
			</g>
			<g>
				<g>
					<polygon class="st3" points="212.2,594.7 196.1,674.8 387.3,674.8 402.7,594.7 					"/>
				</g>
			</g>
			<g>
				<g>
					<polygon class="st0" points="244.4,608.2 234.5,661.3 355.1,661.3 361.3,608.2 					"/>
				</g>
			</g>
		</g>
		<polyline class="st0" points="408.8,627.5 452.5,680 398.8,679.7 408.8,627.5 		"/>
	</g>
	<path class="st1" d="M262.2,748.5c0,4.6-6.3,8.4-14,8.4c-7.7,0-14-3.7-14-8.4s6.3-8.4,14-8.4C255.9,740.2,262.2,743.9,262.2,748.5z
		"/>
	<path class="st1" d="M262.2,847.2c0,4.6-6.3,8.4-14,8.4c-7.7,0-14-3.7-14-8.4c0-4.6,6.3-8.4,14-8.4
		C255.9,838.8,262.2,842.5,262.2,847.2z"/>
	<path class="st1" d="M262.2,945.8c0,4.6-6.3,8.4-14,8.4c-7.7,0-14-3.7-14-8.4c0-4.6,6.3-8.4,14-8.4
		C255.9,937.4,262.2,941.1,262.2,945.8z"/>
</g>
<g>
	<g>
		<g>
			<polygon class="st1" points="439.2,159.9 100.7,158 110.2,421.2 448.7,422 			"/>
		</g>
	</g>
	<g>
		<g>
			<polygon class="st4" points="417.4,171.7 121.1,167.1 129.7,405.9 425.9,408 			"/>
		</g>
	</g>
	<g>
		<g>
			<polygon class="st0" points="366.8,207.4 170.2,205.4 176.2,372.3 372.7,369.8 			"/>
		</g>
	</g>
	<g>
		<g>
			<polygon class="st2" points="176.2,372.3 369.6,284 170.2,205.4 			"/>
		</g>
	</g>
</g>
<g>
	<g>
		<g>
			<polygon class="st1" points="1895.7,22.7 1598.8,21 1607.1,252 1904,252.6 			"/>
		</g>
	</g>
	<g>
		<g>
			<polygon class="st4" points="1876.6,33 1616.6,29 1624.2,238.5 1884,240.4 			"/>
		</g>
	</g>
	<g>
		<g>
			<polygon class="st0" points="1832.2,64.3 1659.8,62.6 1665,209 1837.3,206.8 			"/>
		</g>
	</g>
	<g>
		<g>
			<polygon class="st2" points="1665,209 1834.6,131.6 1659.8,62.6 			"/>
		</g>
	</g>
</g>
<g>
	<g>
		<path class="st0" d="M1563.1,891.1c-1.3,2.3,43,102.7,43,102.7l30.4-3.8l-41.8-99H1563.1z"/>
	</g>
	<g>
		<polygon class="st2" points="1798.5,876.7 1737.8,993.8 1773.2,993.8 1831.5,885 		"/>
	</g>
	<g>
		<polygon class="st0" points="1854.2,858.6 1784.6,993.8 1820.1,993.8 1887.1,866.9 		"/>
	</g>
	<g>
		<polygon class="st1" points="1584.6,985.5 1620.1,1058.8 1798.5,1058.8 1831.5,985.5 		"/>
	</g>
	<g>
		<g>
			<path class="st1" d="M1676.7,985.5c0,0-0.2-0.3-0.4-0.8c-0.2-0.6-0.6-1.3-0.9-2.2c-0.8-2.1-2-5-3.4-8.7
				c-2.9-7.6-7.1-18.5-12.3-32c-10.2-27.2-24.3-64.8-40.1-106.7l1.1,0.5c-5,0-10.4,0-15.8,0c-5.3,0-10.6,0-15.5,0l1.1-0.8
				c15.8,42,30,79.6,40.3,106.8c5,13.5,9,24.4,11.9,32.1c1.3,3.7,2.4,6.6,3.1,8.7c0.3,0.9,0.6,1.7,0.8,2.3c0.2,0.5,0.2,0.8,0.2,0.8
				c0,0-0.2-0.2-0.4-0.8c-0.2-0.6-0.6-1.3-1-2.2c-0.8-2.1-2-5-3.5-8.7c-3-7.6-7.3-18.5-12.5-32c-10.4-27.2-24.9-64.8-41-106.7
				l-0.3-0.8l1.4,0c4.9,0,10.2,0,15.5,0c5.4,0,10.8,0,15.8,0l0.9,0l0.2,0.5c15.5,42,29.3,79.6,39.4,106.8
				c4.9,13.5,8.8,24.4,11.6,32.1c1.3,3.7,2.3,6.6,3,8.7c0.3,0.9,0.5,1.7,0.7,2.3C1676.7,985.2,1676.7,985.5,1676.7,985.5z"/>
		</g>
	</g>
</g>
<g>
	<g>
		<path class="st5" d="M1851.1,1061.9c0,0.4-408.6,0.7-912.5,0.7c-504.1,0-912.6-0.3-912.6-0.7c0-0.4,408.5-0.7,912.6-0.7
			C1442.5,1061.2,1851.1,1061.5,1851.1,1061.9z"/>
	</g>
</g>
<g>
	<g>
		<g>
			<path class="st5" d="M1733.6,360.8c0,0-1-0.3-3.1-0.6c-2-0.3-5.3-0.5-9.3,0.1c-4,0.5-8.8,1.9-13.6,4.2c-4.8,2.3-9.3,5.6-13.8,9.6
				c-8.8,8.1-15.8,19.2-23.8,32.2c-8,13-16.9,28.1-24.3,45.3l0,0.1l0,0c-1.3,1.4-2.9,2.7-5,3.7c-2.1,1-4.9,1.8-7.8,1.5
				c-2.9-0.3-5.2-1.4-7.2-2.5c-2-1.1-3.9-2.3-5.8-3.5c-3.8-2.4-7.6-4.8-11.9-6.9c-4.3-2-9.5-4-15.1-3.7c-5.5,0.4-10.7,2.6-13.8,5.5
				c-3.1,3-4.5,6.6-4.8,10.2c-0.7,7.4,2.8,14.8,5,22.5c2.4,7.7,4.9,15.5,7.4,23.6c1.3,4,2.5,8.1,3.8,12.2c0.6,2.1,1.3,4.1,1.9,6.2
				c0.8,2,1.2,4.6-1.2,6.6c-1.2,1.1-3.8,1.5-5.7,1.2c-2-0.3-3.6-0.9-5.1-1.6c-2.9-1.3-5.8-2.6-8.7-3.9c-5.8-2.6-11.9-5.1-18.2-7.3
				c-6.4-2.2-13.1-4.2-20.4-5.1c-3.6-0.4-7.4-0.5-10.9,0c-3.5,0.5-6.6,1.8-8.8,3.5c-4.5,3.5-5.7,8.3-5.8,12.8
				c-0.1,4.6,0.8,9.3,2.3,13.9c2.9,9.3,7.6,18.5,13.1,27.7c1.3,2.3,3.2,4.5,3.8,7.1c0.3,1.3,0,2.8-1.6,4c-0.4,0.3-0.8,0.5-1.2,0.7
				c-0.5,0.2-0.7,0.4-1.7,0.6c-1.7,0.2-2.8-0.2-3.7-0.5c-3.8-1.3-6.8-3.1-10-4.7c-3.1-1.7-6.1-3.4-9.2-5.1
				c-6.2-3.4-12.5-6.7-19.6-9.4c-3.5-1.3-7.3-2.5-11.3-3.1c-3.9-0.7-8.2-0.5-11.5,0.9c-3.3,1.3-5.5,3.5-6.5,5.9
				c-1.1,2.4-1.5,5-1.5,7.5c-0.1,5.1,1.2,10.3,3.2,15.3c3.9,10.2,10.7,20,18.7,29.5c8,9.5,17.5,18.7,27.9,27.6
				c4.9,4.6,11.1,8.6,16.8,12.9c5.8,4.2,11.6,8.5,17.5,12.8l0.2,0.1l-1-0.2c9.2-0.8,18.3-1.6,27.4-2.4c9.1-0.9,18.2-1.3,27-2.8
				c17.7-2.4,35.1-5.4,51.8-9.3c16.6-3.9,32.8-8.4,47.1-14.4c7.2-2.9,14-6.2,19.7-10.1c2.9-1.9,5.4-4,7.3-6.2c2-2.2,2.9-4.7,1.9-7
				c-1-2.3-3.9-4.2-7.6-5.3c-3.6-1.1-7.7-1.8-11.8-2.3c-8.3-0.9-16.7-0.9-25.1-0.9c-4.2,0-8.4,0.1-12.6,0.1c-4.2,0-8.4,0.1-12.7-0.5
				c-1-0.2-2.3-0.3-3.3-1.1c-0.5-0.5-0.4-0.7-0.6-1.1c-0.1-0.3-0.1-0.7-0.1-1.1c0.1-1.5,1.6-2.7,3.3-3.6c3.4-1.7,7.3-2.6,10.8-3.8
				c14.4-4.6,28.3-9.5,40.9-15.2c6.3-2.9,12.2-5.9,17.4-9.4c5-3.4,9.5-7.4,10.2-11.8c0.3-2.2-0.6-4.4-2.6-6.2c-2-1.8-4.8-3.3-8-4.4
				c-6.4-2.2-13.6-3.5-20.8-4.4c-7.2-0.9-14.5-1.5-21.8-1.9c-3.6-0.2-7.3-0.4-10.9-0.6c-1.8-0.1-3.8-0.3-5.5-0.9
				c-1.8-0.5-3.2-1.9-2.9-3.2c0.5-2.5,3.7-4.2,6.5-5.3c2.8-1.3,5.6-2.5,8.4-3.8c5.6-2.5,11.1-5,16.6-7.5c10.9-4.9,21.6-9.8,32-14.5
				c10.3-4.8,21.2-8.9,29-14.6c3.9-2.8,7-6,8-9.5c0.9-3.4-0.5-7.1-4.1-9.6c-1.8-1.3-4.4-2-7-2.5c-2.7-0.5-5.5-0.7-8.3-0.8
				c-5.6-0.2-11.2,0.1-16.6,0.4c-2.7,0.1-5.5,0.2-8.2,0.3c-2.7,0-5.7-0.1-8.1-1.1c-2.5-0.9-3.7-2.7-4.1-4.2
				c-0.4-1.6-0.1-3.2,0.5-4.8l0,0l0-0.1c13.9-15.7,24.2-30.4,33-43.2c8.6-12.8,16-23.9,18.7-33.3c1.2-4.7,1.8-9,0.9-12.6
				c-0.8-3.6-2.7-6.5-5-8.6c-2.3-2.1-4.9-3.3-6.7-3.9c-1.8-0.6-2.9-0.8-2.9-0.8s1.1,0.1,3,0.7c1.9,0.6,4.5,1.8,6.9,3.9
				c2.4,2.1,4.4,5,5.2,8.7c1,3.7,0.5,8-0.7,12.7c-2.6,9.5-9.9,20.6-18.4,33.5c-8.7,12.9-18.9,27.6-32.8,43.3l0.1-0.1
				c-0.5,1.4-0.7,3-0.4,4.4c0.4,1.4,1.4,2.9,3.5,3.7c2.1,0.8,4.7,0.9,7.3,0.9c2.7,0,5.4-0.1,8.1-0.3c5.5-0.3,11.1-0.5,16.8-0.4
				c2.9,0.1,5.8,0.3,8.6,0.8c2.8,0.5,5.7,1.3,7.7,2.8c4,2.8,5.4,6.7,4.5,10.4c-1.1,3.7-4.3,7-8.3,9.9c-7.9,5.9-19,10-29.2,14.8
				c-10.4,4.7-21.1,9.6-32,14.5c-5.5,2.5-11,5-16.5,7.5c-2.8,1.3-5.6,2.5-8.4,3.8c-1.4,0.7-2.8,1.2-3.8,2c-1,0.8-1.9,1.7-2,2.6
				c-0.2,0.9,0.6,1.6,2,2.1c1.4,0.5,3.1,0.6,4.8,0.7c3.6,0.2,7.2,0.4,10.8,0.6c7.3,0.4,14.6,1,22,1.9c7.3,0.9,14.7,2.2,21.4,4.6
				c3.3,1.2,6.4,2.7,8.7,4.7c2.2,2,3.3,4.5,2.9,6.9c-0.7,4.9-5.5,9-10.6,12.5c-5.2,3.6-11.3,6.7-17.6,9.6
				c-12.7,5.8-26.7,10.8-41.2,15.4c-3.6,1.2-7.5,2.1-10.4,3.6c-1.4,0.7-2.5,1.7-2.6,2.7c0,0.3,0,0.5,0.1,0.8
				c0.1,0.2,0.2,0.7,0.3,0.6c0.1,0.2,1.1,0.4,2,0.6c3.8,0.5,8.1,0.4,12.2,0.5c4.2,0,8.4-0.1,12.6-0.1c8.4,0,17,0,25.5,0.9
				c4.2,0.5,8.5,1.1,12.5,2.4c4,1.2,7.5,3.3,8.6,6.1c1.1,2.7,0,5.6-2.1,7.9c-2.1,2.4-4.7,4.5-7.7,6.5c-5.9,3.9-12.8,7.3-20.1,10.3
				c-14.6,6-30.8,10.6-47.6,14.5c-16.8,3.9-34.2,6.9-52.1,9.3c-8.9,1.4-18,1.9-27.1,2.8c-9.1,0.8-18.2,1.6-27.4,2.4l-0.6,0.1
				l-0.4-0.3l-0.2-0.1c-5.9-4.3-11.7-8.5-17.5-12.8c-5.7-4.3-11.9-8.3-16.8-13c-10.4-9-20-18.2-28-27.8c-8-9.6-14.9-19.5-18.8-29.8
				c-2.1-5.1-3.3-10.4-3.3-15.7c0-2.6,0.5-5.3,1.6-7.9c1.1-2.6,3.5-5.1,7.4-6.7c3.9-1.6,9-1.7,13.2-1c4.3,0.7,8.2,1.9,11.9,3.2
				c7.3,2.7,13.7,6.2,19.9,9.6c3.1,1.7,6.1,3.4,9.2,5.1c3.1,1.6,6.2,3.4,9.5,4.6c0.8,0.3,1.8,0.5,2.1,0.4c0,0.1,0.7-0.2,1-0.4
				c0.4-0.2,0.7-0.4,0.9-0.6c1.1-0.8,1.4-1.9,1.1-3c-0.4-2.3-2.3-4.5-3.6-6.9c-5.6-9.2-10.3-18.5-13.2-27.9
				c-1.4-4.7-2.4-9.4-2.3-14.2c0.2-4.7,1.3-9.6,6.2-13.5c2.4-1.9,6-3.4,9.9-4c3.9-0.6,8-0.5,11.8-0.1c7.6,0.9,14.5,3,21,5.2
				c6.5,2.3,12.5,4.8,18.4,7.4c2.9,1.3,5.8,2.6,8.7,3.9c1.4,0.6,2.9,1.2,4.4,1.4c1.5,0.2,3,0,3.8-0.8c0.9-0.7,1.3-1.7,1.4-2.7
				c0.1-1-0.2-2-0.6-3c-0.6-2.1-1.3-4.1-1.9-6.2c-1.3-4.1-2.5-8.2-3.8-12.2c-2.5-8-4.9-15.9-7.3-23.6c-2.1-7.7-5.7-15.1-4.9-22.7
				c0.3-3.7,1.7-7.5,5.1-10.7c3.5-3.1,8.8-5.4,15-5.9c3.1-0.2,6.2,0.3,8.8,1.1c2.7,0.7,5.1,1.8,7.3,2.8c4.4,2.2,8.3,4.7,12,7
				c1.9,1.2,3.8,2.4,5.7,3.5c2,1.1,4,2,6.5,2.3c2.4,0.3,4.8-0.4,6.7-1.3c1.9-1,3.5-2.2,4.7-3.4l-0.1,0.1
				c7.5-17.3,16.5-32.3,24.6-45.3c8.2-13,15.3-24.1,24.2-32.2c4.6-4,9.1-7.3,14-9.6c4.9-2.3,9.7-3.6,13.8-4.1c4.1-0.5,7.4-0.3,9.5,0
				C1732.7,360.5,1733.6,360.8,1733.6,360.8z"/>
		</g>
	</g>
	<g>
		<g>
			<path class="st5" d="M1711,395.8c0,0-0.1,0.3-0.4,0.8c-0.4,0.6-0.9,1.4-1.5,2.4c-1.4,2.2-3.4,5.3-5.9,9.2
				c-5.2,8.1-12.7,19.7-21.9,33.9c-18.3,28.8-43.6,68.3-71.5,112.1c-27.8,43.8-53.3,83.4-72.1,112c-9.4,14.3-17.1,25.8-22.6,33.8
				c-2.7,3.9-4.8,7-6.3,9.1c-0.7,1-1.3,1.8-1.7,2.4c-0.4,0.5-0.6,0.8-0.6,0.8c0,0,0.1-0.3,0.4-0.8c0.4-0.6,0.9-1.4,1.5-2.4
				c1.4-2.2,3.4-5.3,5.9-9.2c5.2-8.1,12.7-19.7,21.9-33.9c18.3-28.8,43.6-68.3,71.5-112.1c27.8-43.8,53.2-83.4,72.1-111.9
				c9.4-14.3,17.1-25.8,22.6-33.8c2.7-3.9,4.8-7,6.3-9.1c0.7-1,1.3-1.8,1.7-2.4C1710.8,396,1711,395.8,1711,395.8z"/>
		</g>
	</g>
	<g>
		<g>
			<path class="st5" d="M1713.3,484.4c0.1,0.2-4,1.6-10.8,3.8c-7.4,2.4-16.4,5.4-26.4,8.8c-10.3,3.4-19.7,6.5-26.6,8.5
				c-6.9,2.1-11.4,3.2-11.5,3c-0.1-0.2,4-1.5,10.7-3.8c7.4-2.5,16.3-5.5,26.3-8.9c10.3-3.4,19.8-6.4,26.7-8.4
				C1708.8,485.4,1713.2,484.2,1713.3,484.4z"/>
		</g>
	</g>
	<g>
		<g>
			<path class="st5" d="M1634.6,506.9c-0.6,0.2-10.8-11.5-22.9-26c-12.1-14.5-21.4-26.5-20.8-26.6c0.6-0.2,10.8,11.5,22.9,26
				C1625.8,494.9,1635.2,506.8,1634.6,506.9z"/>
		</g>
	</g>
	<g>
		<g>
			<path class="st5" d="M1597,575.4c-0.2,0.1-3.9-1.8-9.5-5.1c-5.6-3.3-13.1-8.1-20.9-13.6c-7.8-5.5-14.4-10.7-19-14.5
				c-4.6-3.8-7.2-6.3-6.9-6.4c0.3-0.1,3.3,2.2,8.2,5.9c4.9,3.7,11.7,8.8,19.4,14.2c7.7,5.5,15,10.3,20.3,13.8
				C1594,573,1597.2,575.2,1597,575.4z"/>
		</g>
	</g>
	<g>
		<g>
			<path class="st5" d="M1675.7,564.3c0.1,0.2-4.3,0.9-11.3,2c-7.1,1.1-16.9,2.4-27.7,3.9c-10.9,1.4-20.7,2.7-27.9,3.5
				s-11.6,1.2-11.7,1.1c-0.1-0.2,4.3-0.9,11.3-2c7.1-1.1,16.9-2.4,27.7-3.9c10.9-1.4,20.7-2.7,27.9-3.5S1675.7,564.1,1675.7,564.3z"
				/>
		</g>
	</g>
	<g>
		<g>
			<path class="st5" d="M1655.4,627.2c0.1,0.2-5.5,1.1-14.6,2.3c-9.1,1.3-21.7,2.9-35.6,4.7c-13.9,1.8-26.6,3.3-35.8,4.3
				c-9.2,1-14.9,1.6-15,1.4c-0.1-0.2,5.5-1.1,14.6-2.3c9.1-1.3,21.7-2.9,35.6-4.7c13.9-1.8,26.6-3.3,35.8-4.3
				C1649.6,627.6,1655.3,627.1,1655.4,627.2z"/>
		</g>
	</g>
	<g>
		<g>
			<path class="st5" d="M1556.6,639.3c-0.1,0.1-1.3-0.6-3.2-1.8c-2-1.2-4.8-2.9-8.1-5.1c-6.8-4.4-15.9-10.6-25.4-17.8
				c-9.6-7.1-17.8-13.8-23.5-18.7c-2.9-2.4-5.1-4.5-6.6-5.9c-1.5-1.4-2.3-2.2-2.2-2.3c0.1-0.1,1.1,0.7,2.9,2c2,1.6,4.4,3.4,7.2,5.6
				c6,4.8,14.4,11.3,24,18.4c9.5,7.1,18.4,13.4,24.8,18C1552.9,636.3,1556.9,639.1,1556.6,639.3z"/>
		</g>
	</g>
</g>
<g>
	<g>
		<g>
			<path class="st6" d="M1513.6,811.3c-74.7-35.9-85.6-97.4-76.2-151.9c1.6-9.1,1-18.8,9.2-26.5c8.2-7.7,25.8-12.5,39-8.1
				c11,3.7,15,11.7,20.6,18.5c7.4,9,19.2,16.7,33.5,21.9c9.4,3.4,21.2,5.7,31.2,3c13.7-3.8,16.5-14.6,17.4-23.7
				c1.8-16.9,3.5-33.8,5.3-50.7c0.9-9.1,2-18.3,7.7-26.7c5.7-8.4,17.1-16,31.8-17.8c14.7-1.8,32,3.9,34.1,12.9
				c0.8,3.7-0.9,7.5-0.9,11.3c0,3.8,2.4,8.1,8.3,9.4c5.9,1.3,12.3-1,17.2-3.5c16.7-8.5,28.7-19.9,40-31.2
				c11.3-11.3,22.3-22.9,37.7-32.3c15.4-9.4,36-16.5,57.8-16.4c21.8,0.2,44.1,9.1,48.1,22.1c4,13-9.9,25.5-24.7,35.3
				c-21.9,14.5-47.4,27.1-75.2,37.3c-5,1.8-10.5,3.8-12.7,7.1c-4,5.9,4.9,12.3,14.7,14.7c11.1,2.7,23.4,2.5,35.2,3.8
				c11.7,1.3,24.2,5,27.9,11.8c5.2,9.5-8.9,18.7-22.5,24.5c-27,11.7-57.4,20.6-89.4,26.1c-11.5,2-23.5,3.6-33,8
				c-9.6,4.3-15.9,12.2-11.2,18.8c4.7,6.6,18.5,9.2,30.3,8.4c11.8-0.8,22.8-4.2,34.2-6.2c21.4-3.8,48.3-1.9,60.4,9.4
				c8,7.4,7.6,17.3,2.2,25.6c-5.4,8.3-15.3,15.2-25.6,21.5c-36.1,22.1-81.1,39.2-130.7,47.2C1605.7,822.9,1560.5,823.8,1513.6,811.3
				"/>
		</g>
	</g>
	<g class="st7">
		<g>
			<path d="M1513.6,811.3c-74.7-35.9-85.6-97.4-76.2-151.9c1.6-9.1,1-18.8,9.2-26.5c8.2-7.7,25.8-12.5,39-8.1
				c11,3.7,15,11.7,20.6,18.5c7.4,9,19.2,16.7,33.5,21.9c9.4,3.4,21.2,5.7,31.2,3c13.7-3.8,16.5-14.6,17.4-23.7
				c1.8-16.9,3.5-33.8,5.3-50.7c0.9-9.1,2-18.3,7.7-26.7c5.7-8.4,17.1-16,31.8-17.8c14.7-1.8,32,3.9,34.1,12.9
				c0.8,3.7-0.9,7.5-0.9,11.3c0,3.8,2.4,8.1,8.3,9.4c5.9,1.3,12.3-1,17.2-3.5c16.7-8.5,28.7-19.9,40-31.2
				c11.3-11.3,22.3-22.9,37.7-32.3c15.4-9.4,36-16.5,57.8-16.4c21.8,0.2,44.1,9.1,48.1,22.1c4,13-9.9,25.5-24.7,35.3
				c-21.9,14.5-47.4,27.1-75.2,37.3c-5,1.8-10.5,3.8-12.7,7.1c-4,5.9,4.9,12.3,14.7,14.7c11.1,2.7,23.4,2.5,35.2,3.8
				c11.7,1.3,24.2,5,27.9,11.8c5.2,9.5-8.9,18.7-22.5,24.5c-27,11.7-57.4,20.6-89.4,26.1c-11.5,2-23.5,3.6-33,8
				c-9.6,4.3-15.9,12.2-11.2,18.8c4.7,6.6,18.5,9.2,30.3,8.4c11.8-0.8,22.8-4.2,34.2-6.2c21.4-3.8,48.3-1.9,60.4,9.4
				c8,7.4,7.6,17.3,2.2,25.6c-5.4,8.3-15.3,15.2-25.6,21.5c-36.1,22.1-81.1,39.2-130.7,47.2C1605.7,822.9,1560.5,823.8,1513.6,811.3
				"/>
		</g>
	</g>
	<g>
		<g>
			<g>
				<path class="st5" d="M1507.7,851.7c5.8-21.5,16.7-46.7,33.4-73.7c16.6-27,39-55.7,64.1-85.2c6.3-7.4,12.6-14.7,18.7-21.8
					c6.2-7.2,12.3-14.3,19-21c13.3-13.5,27.8-25.8,42.2-37.3c14.4-11.5,28.8-22.1,42.3-31.9c13.6-9.8,26.5-18.8,38.9-26.7
					c24.7-15.9,47.2-27.3,63.1-34.7c8-3.7,14.3-6.5,18.6-8.4c2.1-0.9,3.7-1.6,4.9-2.1c1.1-0.5,1.7-0.7,1.7-0.7c0,0-0.5,0.3-1.6,0.8
					c-1.2,0.6-2.8,1.3-4.8,2.2c-4.2,1.9-10.4,4.8-18.3,8.6c-15.7,7.6-37.9,19.1-62.3,35c-12.3,7.9-25.1,17-38.6,26.8
					c-13.5,9.9-27.7,20.5-42,31.9c-14.3,11.5-28.7,23.8-41.9,37.2c-6.7,6.7-12.7,13.7-18.9,20.9c-6.1,7.2-12.4,14.5-18.7,21.8
					c-25.1,29.5-47.4,58.1-64.2,85c-16.8,26.9-27.8,52-33.9,73.3"/>
			</g>
		</g>
	</g>
	<g>
		<g>
			<g>
				<path class="st5" d="M1643.7,650c-0.2,0-0.5-1.4-1-3.9c-0.5-2.5-1-6.2-1.6-10.8c-1.1-9.1-1.9-21.7-2.7-35.6
					c-0.8-13.9-1.9-26.5-3.3-35.6c-0.6-4.5-1.2-8.2-1.7-10.7c-0.4-2.5-0.6-4-0.4-4c0.2,0,0.7,1.4,1.5,3.9c0.8,2.5,1.7,6.2,2.6,10.7
					c1.9,9.1,3.3,21.7,4.1,35.6c0.7,13.7,1.4,26.2,1.9,35.6c0.3,4.3,0.5,7.9,0.7,10.8C1643.9,648.5,1643.9,650,1643.7,650z"/>
			</g>
		</g>
	</g>
	<g>
		<g>
			<g>
				<path class="st5" d="M1841.5,636.2c0,0.1-2.8,0.2-7.9,0.2c-5,0.1-12.3,0.1-21.3,0.4c-18,0.4-42.9,1.5-70.2,3.5
					c-27.3,2-52,4.4-69.7,6.4c-8.9,1-16,1.9-21,2.5c-4.9,0.6-7.7,0.9-7.7,0.8c0-0.1,2.6-0.6,7.5-1.4c4.9-0.8,12-1.9,20.8-3
					c17.7-2.3,42.3-4.9,69.7-6.9c27.4-1.9,52.4-2.9,70.5-3c9-0.1,16.4,0,21.4,0.2C1838.7,635.9,1841.5,636.1,1841.5,636.2z"/>
			</g>
		</g>
	</g>
	<g>
		<g>
			<g>
				<path class="st5" d="M1543.8,776c-0.1,0-0.5-0.5-1.2-1.5c-0.8-1.2-1.7-2.6-2.9-4.4c-2.5-3.8-5.8-9.3-9.7-16.2
					c-7.9-13.7-17.8-32.9-28.2-54.2c-10.4-21.3-20-40.5-27.4-54.3c-3.6-6.7-6.6-12.2-8.8-16.4c-0.9-1.8-1.7-3.3-2.4-4.5
					c-0.5-1-0.7-1.6-0.6-1.6c0.1,0,0.5,0.5,1.2,1.5c0.8,1.2,1.7,2.6,2.9,4.4c2.5,3.8,5.8,9.3,9.7,16.2c7.9,13.7,17.8,32.9,28.2,54.2
					c10.4,21.3,20,40.5,27.4,54.3c3.6,6.7,6.6,12.2,8.8,16.3c0.9,1.8,1.7,3.3,2.4,4.5C1543.6,775.4,1543.9,776,1543.8,776z"/>
			</g>
		</g>
	</g>
	<g>
		<g>
			<g>
				<path class="st5" d="M1809,736.7c0,0.1-0.9,0.2-2.6,0.5c-2.1,0.3-4.6,0.7-7.7,1.2c-7.1,1.1-16.7,2.5-28.4,4.2
					c-24,3.6-57,8.8-93.5,14.5c-36.5,5.8-69.6,10.7-93.8,14c-12.1,1.6-21.8,2.9-28.6,3.7c-3.1,0.4-5.7,0.6-7.8,0.9
					c-1.8,0.2-2.8,0.3-2.8,0.2c0-0.1,0.9-0.2,2.6-0.5c2.1-0.3,4.6-0.7,7.7-1.2c7.1-1.1,16.7-2.5,28.4-4.2c24-3.6,57-8.8,93.5-14.5
					c36.5-5.7,69.6-10.7,93.7-14c12.1-1.6,21.8-2.9,28.6-3.7c3.1-0.4,5.7-0.7,7.8-0.9C1808.1,736.7,1809,736.7,1809,736.7z"/>
			</g>
		</g>
	</g>
</g>
<g>
	<g>
		<rect x="487.3" y="102.3" class="st8" width="1043.6" height="853.5"/>
	</g>
	<g>
		<polygon class="st1" points="1489.7,905 1296.4,905 574.2,905 574.2,136.8 1489.7,136.8 1489.7,809.5 		"/>
	</g>
	<g>
		<polygon class="st0" points="1475.2,890.8 1283.7,890.8 568,890.8 568,126.6 1475.2,126.6 1475.2,795.7 		"/>
	</g>
	<g>
		<g>
			<polygon class="st4" points="1377.8,831.3 1273.3,882.1 551.1,882.1 551.1,128.6 1466.6,128.6 1466.6,788.4 			"/>
		</g>
		<g>
			<g>
				<path class="st5" d="M1377.8,831.3c0,0,1.8-0.9,5.6-2.8c3.8-1.8,9.3-4.6,16.7-8.2c14.9-7.2,37-18,66.3-32.2l-0.1,0.2
					c-0.1-108.4-0.3-349.2-0.7-659.8l1,0.6c-272.6,0-581.5,0-907.5,0.1c-2.7,0-5.4,0-8,0l1.1-0.7c-0.1,283.3-0.2,544.6-0.2,753.5
					l-0.9-0.5c329.7,0.1,582.9,0.2,722.2,0.3l-0.2,0.1c34.9-16.9,61-29.5,78.5-38c8.7-4.2,15.3-7.4,19.7-9.5
					C1375.5,832.3,1377.8,831.3,1377.8,831.3s-2.1,1.1-6.5,3.2c-4.4,2.1-10.9,5.3-19.5,9.6c-17.4,8.5-43.5,21.2-78.2,38.2l-0.1,0.1
					h-0.1c-139.3,0.1-392.5,0.2-722.2,0.3l-0.9,0l0-0.5c-0.1-208.9-0.1-470.2-0.2-753.5v-0.7h1.1c2.6,0,5.3,0,8,0
					c326,0,634.9,0,907.5,0.1h1l0,0.6c-0.3,310.6-0.5,551.4-0.7,659.8v0.1l-0.1,0.1c-29.3,14.1-51.6,24.8-66.5,32
					c-7.5,3.6-13.1,6.3-16.9,8.1C1379.7,830.4,1377.8,831.3,1377.8,831.3z"/>
			</g>
		</g>
	</g>
	<g>
		<path class="st6" d="M1196.5,152.6H821.8V90.7c0-8.2,6.6-14.8,14.8-14.8h345.8c7.8,0,14.2,6.3,14.2,14.2V152.6z"/>
	</g>
	<g>
		<polygon class="st6" points="913.6,75.9 899.9,34.6 1115.6,34.6 1103.6,75.9 		"/>
	</g>
	<g>
		<g>
			<path class="st6" d="M801.1,340.7H646.8v-92h154.2V340.7z M651.1,338.1h145.6v-86.9H651.1V338.1z"/>
		</g>
		<g>
			<g>
				<path class="st5" d="M1346.1,270.9c0,0.4-107.4,0.7-239.8,0.7c-132.4,0-239.8-0.3-239.8-0.7c0-0.4,107.3-0.7,239.8-0.7
					C1238.7,270.2,1346.1,270.5,1346.1,270.9z"/>
			</g>
		</g>
		<g>
			<g>
				<path class="st5" d="M1346.1,290c0,0.4-107.4,0.7-239.8,0.7c-132.4,0-239.8-0.3-239.8-0.7c0-0.4,107.3-0.7,239.8-0.7
					C1238.7,289.3,1346.1,289.6,1346.1,290z"/>
			</g>
		</g>
		<g>
			<g>
				<path class="st5" d="M1346.1,309.1c0,0.4-107.4,0.7-239.8,0.7c-132.4,0-239.8-0.3-239.8-0.7c0-0.4,107.3-0.7,239.8-0.7
					C1238.7,308.4,1346.1,308.7,1346.1,309.1z"/>
			</g>
		</g>
		<g>
			<g>
				<path class="st5" d="M1346.1,328.2c0,0.4-107.4,0.7-239.8,0.7c-132.4,0-239.8-0.3-239.8-0.7c0-0.4,107.3-0.7,239.8-0.7
					C1238.7,327.6,1346.1,327.9,1346.1,328.2z"/>
			</g>
		</g>
	</g>
	<g>
		<g>
			<path class="st6" d="M801.1,482.5H646.8v-92h154.2V482.5z M651.1,480h145.6v-86.9H651.1V480z"/>
		</g>
		<g>
			<polygon class="st6" points="677.5,438.4 698,425.3 732.1,441.6 810.2,396.3 828.9,409.5 730.6,467.4 			"/>
		</g>
		<g>
			<g>
				<path class="st5" d="M1346.1,412.7c0,0.4-107.4,0.7-239.8,0.7c-132.4,0-239.8-0.3-239.8-0.7c0-0.4,107.3-0.7,239.8-0.7
					C1238.7,412.1,1346.1,412.4,1346.1,412.7z"/>
			</g>
		</g>
		<g>
			<g>
				<path class="st5" d="M1346.1,431.8c0,0.4-107.4,0.7-239.8,0.7c-132.4,0-239.8-0.3-239.8-0.7c0-0.4,107.3-0.7,239.8-0.7
					C1238.7,431.2,1346.1,431.5,1346.1,431.8z"/>
			</g>
		</g>
		<g>
			<g>
				<path class="st5" d="M1346.1,451c0,0.4-107.4,0.7-239.8,0.7c-132.4,0-239.8-0.3-239.8-0.7c0-0.4,107.3-0.7,239.8-0.7
					C1238.7,450.3,1346.1,450.6,1346.1,451z"/>
			</g>
		</g>
		<g>
			<g>
				<path class="st5" d="M1346.1,470.1c0,0.4-107.4,0.7-239.8,0.7c-132.4,0-239.8-0.3-239.8-0.7c0-0.4,107.3-0.7,239.8-0.7
					C1238.7,469.4,1346.1,469.7,1346.1,470.1z"/>
			</g>
		</g>
	</g>
	<g>
		<g>
			<path class="st6" d="M801.1,619.8H646.8v-92h154.2V619.8z M651.1,617.2h145.6v-86.9H651.1V617.2z"/>
		</g>
		<g>
			<polygon class="st6" points="677.5,575.7 698,562.6 732.1,578.9 810.2,533.6 828.9,546.8 730.6,604.6 			"/>
		</g>
		<g>
			<g>
				<path class="st5" d="M1346.1,550c0,0.4-107.4,0.7-239.8,0.7c-132.4,0-239.8-0.3-239.8-0.7s107.3-0.7,239.8-0.7
					C1238.7,549.3,1346.1,549.6,1346.1,550z"/>
			</g>
		</g>
		<g>
			<g>
				<path class="st5" d="M1346.1,569.1c0,0.4-107.4,0.7-239.8,0.7c-132.4,0-239.8-0.3-239.8-0.7s107.3-0.7,239.8-0.7
					C1238.7,568.5,1346.1,568.8,1346.1,569.1z"/>
			</g>
		</g>
		<g>
			<g>
				<path class="st5" d="M1346.1,588.2c0,0.4-107.4,0.7-239.8,0.7c-132.4,0-239.8-0.3-239.8-0.7c0-0.4,107.3-0.7,239.8-0.7
					C1238.7,587.6,1346.1,587.9,1346.1,588.2z"/>
			</g>
		</g>
		<g>
			<g>
				<path class="st5" d="M1346.1,607.4c0,0.4-107.4,0.7-239.8,0.7c-132.4,0-239.8-0.3-239.8-0.7c0-0.4,107.3-0.7,239.8-0.7
					C1238.7,606.7,1346.1,607,1346.1,607.4z"/>
			</g>
		</g>
	</g>
	<g>
		<g>
			<path class="st6" d="M801.1,752.4H646.8v-92h154.2V752.4z M651.1,749.8h145.6v-86.9H651.1V749.8z"/>
		</g>
		<g>
			<polygon class="st6" points="677.5,708.2 698,695.1 732.1,711.4 810.2,666.1 828.9,679.3 730.6,737.2 			"/>
		</g>
		<g>
			<g>
				<path class="st5" d="M1346.1,682.5c0,0.4-107.4,0.7-239.8,0.7c-132.4,0-239.8-0.3-239.8-0.7c0-0.4,107.3-0.7,239.8-0.7
					C1238.7,681.9,1346.1,682.2,1346.1,682.5z"/>
			</g>
		</g>
		<g>
			<g>
				<path class="st5" d="M1346.1,701.7c0,0.4-107.4,0.7-239.8,0.7c-132.4,0-239.8-0.3-239.8-0.7c0-0.4,107.3-0.7,239.8-0.7
					C1238.7,701,1346.1,701.3,1346.1,701.7z"/>
			</g>
		</g>
		<g>
			<g>
				<path class="st5" d="M1346.1,720.8c0,0.4-107.4,0.7-239.8,0.7c-132.4,0-239.8-0.3-239.8-0.7c0-0.4,107.3-0.7,239.8-0.7
					C1238.7,720.1,1346.1,720.4,1346.1,720.8z"/>
			</g>
		</g>
		<g>
			<g>
				<path class="st5" d="M1346.1,739.9c0,0.4-107.4,0.7-239.8,0.7c-132.4,0-239.8-0.3-239.8-0.7c0-0.4,107.3-0.7,239.8-0.7
					C1238.7,739.3,1346.1,739.6,1346.1,739.9z"/>
			</g>
		</g>
	</g>
	<g>
		<polygon class="st1" points="1302,757.3 1201.6,881.4 1273.3,881.4 		"/>
	</g>
	<g>
		<g>
			<polygon class="st4" points="1273.3,882.1 1302,758 1466.6,788.4 			"/>
		</g>
		<g>
			<g>
				<path class="st5" d="M1273.3,882.1c4-2,21.8-10.7,55.3-27.2c34.4-16.8,82.4-40.3,137.3-67.1l0.4,1.1
					c-20.4-3.8-41.7-7.7-63.5-11.7c-35.6-6.6-69.8-12.9-101-18.6l1.4-0.5c-8.6,36-16,66.9-21.2,88.8
					C1276.6,868.3,1273.9,879.3,1273.3,882.1c0,0,0-0.2,0.1-0.6c0.1-0.4,0.2-1,0.4-1.7c0.4-1.6,0.8-3.9,1.5-6.8
					c1.3-6,3.2-14.7,5.7-25.6c5-22.1,11.9-53.2,20.1-89.5l0.2-0.7l1.2,0.2c31.2,5.7,65.4,12,101.1,18.6c21.8,4,43.1,8,63.5,11.7
					l2,0.4l-1.6,0.8c-55.5,26.7-104.1,50.1-138.9,66.9c-17.2,8.2-31,14.9-40.6,19.5c-4.6,2.2-8.3,4-10.8,5.2c-1.2,0.5-2.1,1-2.8,1.3
					C1273.5,882,1273.2,882.1,1273.3,882.1z"/>
			</g>
		</g>
	</g>
	<g class="st9">
		<polyline points="1100.7,34.6 1088.8,75.9 1103.6,75.9 1115.6,34.6 1096.7,34.6 		"/>
	</g>
</g>
<g>
	<g>
		<g>
			<g>
				<g>
					<g>
						<g>
							<g>
								<path class="st10" d="M468.8,470.7L468.8,470.7c21.9,1,40.8-9.1,41.6-22.2c0.8-12.6,1.5-25.3,1.5-25.3s31.9-1.8,34.2-20.6
									c2.3-18.9,1.3-62.4,1.3-62.4l0,0c-35.7-10.7-78.2-9.1-111.3,4.3l2,66.4v35.7C438.3,458.5,448.8,469.8,468.8,470.7z"/>
							</g>
						</g>
					</g>
				</g>
			</g>
		</g>
		<g>
			<path class="st5" d="M514.7,379.6c-5.5-4-14.3-5.6-21.6-2.8c-7.3,2.8-10.1,9.1-6.1,13.7c2.8,3.3,9.2,6.2,15.5,7
				c6,0.7,10.2,4.2,9.5,7.8c-0.9,4.7-5.1,9.2-11.1,13.1c-9.3,6.1-22.9,9.4-36.6,10.3c-13.5,0.9-28.9-0.7-36.7-7.3
				c-5.7-4.8-6.1-11.1-6.3-17c-0.5-13.9-1-27.8-1.4-41.7c-0.2-5-0.3-10.1,1.6-15c1.9-4.9,6.2-9.6,13.2-12.4c7.7-3,17.4-3.3,26.2-5
				c10.9-2.1,20.2-6.4,30.5-9.6c10.2-3.1,22.8-5,33.1-1.9c7.4,2.2,12.3,6.6,19.5,9c10.2,3.5,24.1,2.7,29.1,11.6
				c1.7,3.1,1.6,6.5-0.2,9.6c-6.9,12.2-32.3,17.1-50.5,11.8c-0.4,2.1,3.1,6.7-0.6,13.2C520.6,376.3,520.2,379.5,514.7,379.6"/>
		</g>
		<g>
			<path class="st5" d="M427.5,340.8c4.5-6.1,9-12.3,10.2-18.9c1.1-6.6-1.7-13.8-10-18.3c-5.6-3-13.3-4.5-20.8-4.4
				c-14.4,0.3-27.8,6.7-31.8,15c-3.9,8.3,1.5,17.8,12.8,23.2c11.3,5.4,27.6,6.5,40.9,3.2"/>
		</g>
		<g>
			<g>
				<path class="st6" d="M433.7,333.9c0.6,0,0.1,3.4-4.7,6.1c-4.7,2.8-10.3,3-10.3,2.6c-0.2-0.4,4.6-1.1,8.8-3.6
					C431.7,336.6,433.1,333.8,433.7,333.9z"/>
			</g>
		</g>
		<g>
			<g>
				<path class="st5" d="M423.3,338.5c0.1,0.1-2.8,1.8-8.6,3.7c-2.9,0.9-6.7,1.9-11.3,1.9c-4.4,0.1-9.9-0.8-13.2-3.5
					c-3.2-2.7-3.3-6-2.3-8.5c1.1-2.7,3.3-4.7,5.3-6.2c4.2-3.1,7.3-4.6,7.5-4.5c0.3,0.1-2.5,1.9-6.2,5.1c-1.8,1.6-3.8,3.6-4.6,6
					c-0.8,2.4-0.6,5.3,2.1,7.5c2.7,2.2,7.4,3.1,11.4,3.1c4.1,0,7.7-0.7,10.6-1.5C419.8,339.7,423.1,338.3,423.3,338.5z"/>
			</g>
		</g>
		<g>
			<g>
				<path class="st5" d="M369.6,359.8c0.2,0,0.7,0.7,1.5,2.1c0.9,1.3,2.1,3.4,4.7,5.4c2.5,1.9,7,4,12.4,3.4c5.3-0.6,10-3.5,11.9-7.2
					c2.1-3.7,2.2-7.5,3.2-11c1-3.5,2.9-6.6,6-8.6c3.1-2,6.7-2.9,9.2-3.1c2.5-0.2,3.9,0.1,3.9,0.2c0,0.1-1.4,0-3.7,0.3
					c-2.3,0.3-5.5,1.3-8.2,3.2c-2.7,1.9-4.4,4.9-5.2,8.2c-0.9,3.4-1,7.2-3.2,11.2c-2.1,3.9-7.4,7.3-13.7,7.9c-3.1,0.3-6.2-0.2-8.6-1
					c-2.4-0.8-4.1-1.9-5.4-3.1c-2.6-2.3-3.5-4.4-4.2-5.8C369.7,360.6,369.4,359.8,369.6,359.8z"/>
			</g>
		</g>
	</g>
	<g>
		<path class="st10" d="M354.1,518.2c0,0-16.1,70.4,0,79.4c16.1,8.9,31.6,6,31.6,6l30.7-15.3l6-70H354.1z"/>
	</g>
	<g>
		<g>
			<polygon class="st6" points="687.4,320.5 707.9,307.4 742,323.7 820.1,278.5 838.8,291.6 740.5,349.5 			"/>
		</g>
		<g>
			<path class="st10" d="M783.6,324.1l-29.7,11.4c-1.3-7-10.3-13.9-9.8-10.4c0.5,3.5,0.1,21.8,0.1,21.8l-53,66.5
				c-7.2,10.5-21.8,17.2-32.7,18.7l-49.4,8.8l19.3,39l68.7-13.6c17.8-3.5,31.8-11.9,37.7-22.5l47.4-86.1c0,0,5.6-9.8,7.7-17
				C791.8,333.5,783.6,324.1,783.6,324.1z"/>
		</g>
	</g>
	<g>
		<g>
			<g>
				<g>
					<g>
						<g>
							<path class="st6" d="M540.3,1051.4l-0.7-19.7l-61.9,0.6l0.6,28.9l3.8,0.1c17.1,0.4,87,1.3,98.3-0.8
								C593.1,1058,540.3,1051.4,540.3,1051.4z"/>
						</g>
					</g>
				</g>
				<g class="st11">
					<g>
						<g>
							<path class="st3" d="M500.7,1060.6c-1-3.1-3.9-5.9-8.1-7.8c-4.2-1.9-9.3-2.8-14.5-2.5l0.3,10.3L500.7,1060.6z"/>
						</g>
					</g>
				</g>
			</g>
			<g class="st12">
				<g>
					<g>
						<path class="st3" d="M566.1,1055.2c0,0,18.5,3,16.3,4.8c-2.3,1.8-72.9,2.5-104.1,1.1l0.1-0.8l82.4-0.3
							C560.8,1060,562.5,1055.3,566.1,1055.2z"/>
					</g>
				</g>
			</g>
			<g>
				<g>
					<g>
						<g>
							<path class="st5" d="M477.3,1060.3c0,0,0.4,0,1.1,0.1c0.9,0,1.9,0.1,3.1,0.1c3.1,0.1,6.8,0.1,11.3,0.2
								c9.5,0.1,22.6,0.2,37.2,0c14.5-0.1,27.6-0.4,37.1-0.7c4.4-0.2,8.2-0.3,11.2-0.4c1.1-0.1,2.1-0.1,3.1-0.1
								c0.7,0,1.1-0.1,1.1-0.1c0,0-0.4,0-1.1,0c-0.9,0-1.9,0-3.1,0.1c-3.1,0.1-6.8,0.1-11.3,0.2c-9.5,0.2-22.6,0.4-37.1,0.6
								c-14.5,0.1-27.6,0.1-37.1,0.1c-4.4,0-8.2,0-11.3,0c-1.1,0-2.1,0-3.1,0C477.7,1060.3,477.3,1060.3,477.3,1060.3z"/>
						</g>
					</g>
				</g>
			</g>
			<g>
				<g>
					<g>
						<g>
							<path class="st5" d="M560.8,1060.6c0.2,0,0.4-1.6,2-3.2c1.6-1.7,3.9-2.5,3.8-2.6c0-0.1-2.7,0.6-4.4,2.4
								C560.4,1058.9,560.6,1060.6,560.8,1060.6z"/>
						</g>
					</g>
				</g>
			</g>
			<g>
				<g>
					<g>
						<g>
							<path class="st5" d="M542.3,1055.2c0.2,0.1,1-0.6,1.9-1.4c0.9-0.9,1.5-1.6,1.3-1.7c-0.2-0.1-1,0.6-1.9,1.4
								C542.7,1054.4,542.2,1055.1,542.3,1055.2z"/>
						</g>
					</g>
				</g>
			</g>
			<g>
				<g>
					<g>
						<g>
							<path class="st5" d="M537.3,1053.7c0.1,0.1,1.1-0.3,2.2-0.9c1.1-0.6,1.8-1.1,1.6-1.2c-0.1-0.1-1.1,0.3-2.2,0.9
								C537.9,1053,537.2,1053.6,537.3,1053.7z"/>
						</g>
					</g>
				</g>
			</g>
			<g>
				<g>
					<g>
						<g>
							<path class="st5" d="M534,1050.2c0,0.1,1.4,0.2,3.2,0.2s3.2-0.1,3.2-0.2c0-0.1-1.4-0.2-3.2-0.2
								C535.5,1050,534,1050.1,534,1050.2z"/>
						</g>
					</g>
				</g>
			</g>
			<g>
				<g>
					<g>
						<g>
							<path class="st5" d="M532.9,1047.7c-0.1,0.1,1.5,0.5,3.6,0.6c2.1,0.1,3.8-0.2,3.7-0.3c0-0.1-1.7,0-3.7-0.1
								C534.6,1047.8,533,1047.6,532.9,1047.7z"/>
						</g>
					</g>
				</g>
			</g>
			<g>
				<g>
					<g>
						<g>
							<path class="st5" d="M544.4,1051.9c0,0.1,1.5,0.1,4-0.1c1.2-0.1,2.7-0.3,4.2-0.6c0.8-0.2,1.6-0.3,2.4-0.6
								c0.4-0.2,0.8-0.4,1-0.7c0.2-0.4-0.2-0.8-0.6-0.9c-3.8-1.1-7.6,0.2-9,1.4c-0.8,0.6-1.1,1.2-1.3,1.6c-0.1,0.4-0.1,0.6-0.1,0.6
								c0.1,0,0.2-0.9,1.8-2c0.7-0.5,1.9-1.1,3.4-1.3c1.4-0.3,3.4-0.3,4.7,0.1c0.6,0.3,0.4,0.7-0.3,1c-0.6,0.3-1.5,0.4-2.2,0.6
								c-1.5,0.3-2.9,0.5-4.1,0.7C545.9,1051.9,544.4,1051.9,544.4,1051.9z"/>
						</g>
					</g>
				</g>
			</g>
			<g>
				<g>
					<g>
						<g>
							<path class="st5" d="M545.4,1052.1c0.1,0,0.6-0.6,0.4-1.7c-0.1-0.5-0.4-1.1-1.1-1.7c-0.7-0.5-1.6-1.2-3.3-1.2
								c-0.9,0.1-1.4,0.7-1.2,1.1c0.1,0.4,0.4,0.8,0.7,1.1c0.6,0.6,1.3,1.1,1.9,1.4c1.3,0.7,2.3,1,2.3,0.9c0.1-0.1-0.8-0.4-1.9-1.2
								c-0.6-0.4-1.2-0.8-1.7-1.4c-0.6-0.5-1-1.4,0-1.5c1-0.1,2,0.5,2.6,1c0.6,0.5,1,1.1,1.2,1.5
								C545.6,1051.4,545.3,1052,545.4,1052.1z"/>
						</g>
					</g>
				</g>
			</g>
			<g>
				<g>
					<g>
						<g>
							<path class="st5" d="M478.3,1050.2c0,0.1,1.8-0.1,4.6,0.1c2.8,0.2,6.6,0.8,10,2.4c3.4,1.6,5.4,3.6,6.4,5.2
								c1,1.6,1.1,2.6,1.2,2.6c0,0,0.1-0.3,0-0.7c-0.1-0.5-0.3-1.2-0.7-2c-0.9-1.6-2.9-3.8-6.4-5.5c-3.5-1.6-7.6-2.2-10.5-2.3
								c-1.4,0-2.6,0-3.4,0.1C478.8,1050.1,478.3,1050.2,478.3,1050.2z"/>
						</g>
					</g>
				</g>
			</g>
			<g>
				<g>
					<g>
						<g>
							<path class="st5" d="M484.4,1034.8c-0.2,0-0.4,3.4-0.3,7.6c0,4.2,0.2,7.6,0.4,7.6c0.2,0,0.4-3.4,0.3-7.6
								C484.8,1038.1,484.6,1034.8,484.4,1034.8z"/>
						</g>
					</g>
				</g>
			</g>
			<g>
				<g>
					<g>
						<g>
							<path class="st5" d="M508.4,1057c0,0.1,4,0.5,9,0.5c5,0,9.1-0.4,9-0.5c0-0.1-4.1,0.1-9,0.1
								C512.4,1057,508.4,1056.8,508.4,1057z"/>
						</g>
					</g>
				</g>
			</g>
			<g>
				<g>
					<g>
						<g>
							<path class="st5" d="M496.2,1057.1c-0.1,0.1,0.3,0.5,0.8,1.1c0.4,0.5,0.7,1,0.9,1c0.2,0,0.3-0.6-0.2-1.2
								C497.2,1057.3,496.4,1057,496.2,1057.1z"/>
						</g>
					</g>
				</g>
			</g>
			<g>
				<g>
					<g>
						<g>
							<path class="st5" d="M491.6,1053.7c-0.1,0.1,0.3,0.5,0.9,0.9c0.7,0.4,1.3,0.6,1.4,0.5c0.1-0.1-0.3-0.5-0.9-0.9
								C492.4,1053.9,491.7,1053.6,491.6,1053.7z"/>
						</g>
					</g>
				</g>
			</g>
			<g>
				<g>
					<g>
						<g>
							<path class="st5" d="M485,1052.2c0,0.1,0.9,0.1,1.8,0.3c0.9,0.2,1.6,0.5,1.7,0.4c0.2-0.1-0.4-0.6-1.5-0.8
								C485.9,1051.9,484.9,1052.1,485,1052.2z"/>
						</g>
					</g>
				</g>
			</g>
			<g>
				<g>
					<g>
						<g>
							<path class="st5" d="M480.3,1051.5c-0.1,0.1,0.3,0.3,0.8,0.4c0.5,0.1,1,0.1,1.1,0c0.1-0.1-0.3-0.3-0.8-0.4
								C480.9,1051.4,480.4,1051.4,480.3,1051.5z"/>
						</g>
					</g>
				</g>
			</g>
		</g>
	</g>
	<g>
		<g>
			<g>
				<g>
					<g>
						<g>
							<path class="st6" d="M321.9,1045.1l21-15.2l-47.6-23.6l-31.1,22.1l2.8,1.6c12.5,7,64.5,34.9,75.5,37.6
								C354.7,1070.6,321.9,1045.1,321.9,1045.1z"/>
						</g>
					</g>
				</g>
				<g class="st11">
					<g>
						<g>
							<path class="st3" d="M281.7,1036.7c2.6-2.7,3.5-6,2.4-9.1c-1.1-3.1-4-5.8-8.2-7.6l-11.1,7.9L281.7,1036.7z"/>
						</g>
					</g>
				</g>
			</g>
			<g class="st12">
				<g>
					<g>
						<path class="st3" d="M337.3,1058c0,0,10.8,9.5,7.1,10c-3.7,0.5-58-26.5-80.2-39.7l1-0.6l62.9,31.8
							C328,1059.6,334.5,1056.7,337.3,1058z"/>
					</g>
				</g>
			</g>
			<g>
				<g>
					<g>
						<g>
							<path class="st5" d="M264.4,1027.3c0,0,0.2,0.2,0.7,0.5c0.7,0.4,1.4,0.8,2.2,1.3c2.3,1.2,5,2.7,8.3,4.5
								c7.1,3.8,17,8.9,28.1,14.5c11.1,5.6,21.4,10.4,28.9,13.9c3.5,1.6,6.5,3,8.9,4.1c0.9,0.4,1.7,0.8,2.5,1.1
								c0.6,0.2,0.9,0.4,0.9,0.4c0,0-0.3-0.2-0.8-0.4c-0.7-0.3-1.5-0.7-2.4-1.2c-2.4-1.1-5.3-2.5-8.8-4.2c-7.4-3.5-17.6-8.5-28.8-14
								c-11.1-5.5-21.1-10.7-28.2-14.4c-3.3-1.7-6.2-3.2-8.5-4.4c-0.9-0.4-1.6-0.8-2.3-1.2C264.7,1027.5,264.4,1027.3,264.4,1027.3z
								"/>
						</g>
					</g>
				</g>
			</g>
			<g>
				<g>
					<g>
						<g>
							<path class="st5" d="M327.4,1060c0.2,0.1,2-1.1,5.1-1.7c3-0.6,5.7-0.4,5.7-0.5c0.1-0.1-2.7-0.6-5.9,0.1
								C328.9,1058.6,327.2,1059.9,327.4,1060z"/>
						</g>
					</g>
				</g>
			</g>
			<g>
				<g>
					<g>
						<g>
							<path class="st5" d="M319.3,1048.8c0.1,0.1,1.4,0,3-0.3s2.9-0.7,2.8-0.8c-0.1-0.1-1.4,0-3,0.3
								C320.5,1048.3,319.2,1048.6,319.3,1048.8z"/>
						</g>
					</g>
				</g>
			</g>
			<g>
				<g>
					<g>
						<g>
							<path class="st5" d="M317.1,1045.6c0,0.1,1.2,0.2,2.6,0.2c1.4,0,2.6-0.2,2.6-0.3c0-0.1-1.2-0.2-2.6-0.2
								C318.3,1045.4,317.1,1045.5,317.1,1045.6z"/>
						</g>
					</g>
				</g>
			</g>
			<g>
				<g>
					<g>
						<g>
							<path class="st5" d="M318.5,1041.7c-0.1,0.1,0.9,0.7,2.2,1.4c1.4,0.7,2.6,1.2,2.7,1.1c0.1-0.1-0.9-0.7-2.2-1.4
								C319.8,1042.1,318.6,1041.7,318.5,1041.7z"/>
						</g>
					</g>
				</g>
			</g>
			<g>
				<g>
					<g>
						<g>
							<path class="st5" d="M320.3,1039.4c-0.2,0.1,0.6,1,2.1,1.9c1.5,0.9,3.1,1.3,3.2,1.2c0.1-0.1-1.2-0.7-2.7-1.5
								C321.4,1040.2,320.4,1039.4,320.3,1039.4z"/>
						</g>
					</g>
				</g>
			</g>
			<g>
				<g>
					<g>
						<g>
							<path class="st5" d="M324.4,1047.1c-0.1,0,1,0.7,3.1,1.5c1,0.4,2.3,0.8,3.9,1.2c0.8,0.2,1.5,0.4,2.5,0.5c0.5,0,1,0,1.5-0.2
								c0.5-0.2,0.7-0.6,0.6-1c-1.7-2.4-6-2.8-8.3-2.5c-1.2,0.2-2.1,0.5-2.7,0.7c-0.6,0.3-0.8,0.4-0.8,0.5c0.1,0.1,1.2-0.6,3.6-0.9
								c1.2-0.1,2.6-0.1,4,0.3c1.3,0.3,3,1.1,3.4,2c0.2,0.5-0.5,0.7-1.3,0.6c-0.8-0.1-1.6-0.3-2.3-0.4c-1.5-0.3-2.8-0.7-3.8-1.1
								C325.6,1047.6,324.4,1047,324.4,1047.1z"/>
						</g>
					</g>
				</g>
			</g>
			<g>
				<g>
					<g>
						<g>
							<path class="st5" d="M325,1047.6c0,0,1.1-0.2,2.1-1.1c0.5-0.4,0.9-1,1-1.7c0-0.7,0.1-1.6-1.2-2.2c-0.8-0.3-1.8,0-2.1,0.4
								c-0.4,0.3-0.5,0.7-0.6,1.1c-0.2,0.7-0.2,1.3-0.1,1.8c0.2,1,0.6,1.6,0.7,1.6c0.1,0-0.2-0.6-0.2-1.6c0-0.5,0-1.1,0.2-1.7
								c0.1-0.6,0.8-1.4,1.7-1.1c0.8,0.3,1,1.2,0.9,1.8c-0.1,0.6-0.4,1.2-0.8,1.6C325.9,1047.2,324.9,1047.5,325,1047.6z"/>
						</g>
					</g>
				</g>
			</g>
			<g>
				<g>
					<g>
						<g>
							<path class="st5" d="M276.2,1020.1c-0.1,0.1,1.5,0.6,3.4,1.8c1.9,1.2,4.2,3.2,5,5.7c0.9,2.5,0.1,4.9-0.9,6.4
								c-1,1.6-2,2.4-1.9,2.5c0,0,0.3-0.2,0.8-0.6c0.5-0.4,1.1-1,1.6-1.8c1.1-1.6,2-4,1.1-6.6c-0.9-2.6-3.3-4.7-5.4-5.8
								c-1-0.6-2-1-2.7-1.3C276.7,1020.1,276.3,1020,276.2,1020.1z"/>
						</g>
					</g>
				</g>
			</g>
			<g>
				<g>
					<g>
						<g>
							<path class="st5" d="M297.7,1010.7c-0.2-0.1-4,2.4-8.6,5.6c-4.6,3.2-8.1,5.8-8,5.9c0.2,0.1,4-2.4,8.6-5.6
								C294.3,1013.4,297.8,1010.8,297.7,1010.7z"/>
						</g>
					</g>
				</g>
			</g>
			<g>
				<g>
					<g>
						<g>
							<path class="st5" d="M291.6,1036.9c-0.1,0.1,2.5,1.9,6.4,3.9c3.8,1.9,7.3,3.2,7.4,3.1c0.1-0.1-3.1-1.5-6.9-3.5
								C294.6,1038.5,291.8,1036.8,291.6,1036.9z"/>
						</g>
					</g>
				</g>
			</g>
			<g>
				<g>
					<g>
						<g>
							<path class="st5" d="M282.3,1032.2c-0.2,0-0.3,0.5-0.6,1.1c-0.3,0.6-0.6,1-0.5,1.1c0.2,0.1,0.9-0.3,1.2-1
								C282.8,1032.8,282.5,1032.2,282.3,1032.2z"/>
						</g>
					</g>
				</g>
			</g>
			<g>
				<g>
					<g>
						<g>
							<path class="st5" d="M282.4,1027.9c-0.2,0-0.3,0.5-0.2,1c0.1,0.5,0.3,1,0.5,1c0.2,0,0.3-0.5,0.2-1
								C282.9,1028.3,282.6,1027.9,282.4,1027.9z"/>
						</g>
					</g>
				</g>
			</g>
			<g>
				<g>
					<g>
						<g>
							<path class="st5" d="M279.1,1024.2c-0.1,0.1,0.5,0.4,1,0.9c0.5,0.5,0.7,1,0.9,1c0.2,0,0.4-0.6-0.3-1.2
								C280.1,1024.3,279.1,1024.1,279.1,1024.2z"/>
						</g>
					</g>
				</g>
			</g>
			<g>
				<g>
					<g>
						<g>
							<path class="st5" d="M276.3,1021.8c-0.2,0.1-0.1,0.3,0.2,0.6c0.3,0.3,0.6,0.5,0.8,0.4c0.2-0.1,0.1-0.3-0.2-0.6
								S276.4,1021.8,276.3,1021.8z"/>
						</g>
					</g>
				</g>
			</g>
		</g>
	</g>
	<g>
		<g>
			<path class="st5" d="M450.7,632.4c0,0-20.6,52-14.8,62.3c5.8,10.3,43.6,16.2,43.6,16.2l-1.3,142.5l-208.8,154.1l77.1,37.7
				c0,0,226.1-154.3,246-182.3c19.9-27.9-12.7-232.8-12.7-232.8L450.7,632.4z"/>
		</g>
		<g>
			<path class="st5" d="M557.3,611.2l10.2,432.8l-106.2,0.3L408,691.8l0,0c-11.3-6.4-27.1-17.4-24.9-41.9l2.6-28.5L557.3,611.2z"/>
		</g>
		<g>
			<g>
				<path class="st8" d="M445.3,877.6c0,0,0.2-0.2,0.6-0.6c0.5-0.5,1.2-1.1,2-1.8c2-1.6,4.6-3.9,7.9-6.7c7.1-5.8,16.9-14,28.8-23.8
					l-0.2,0.3c-2.3-15-5.1-33.2-8.1-52.9c-3.9-25.7-7-49.1-8.8-66c-0.9-8.5-1.6-15.3-1.9-20c-0.1-2.3-0.2-4.1-0.3-5.5
					c0-1.2,0-1.9,0-1.9c0.1,0,0.2,0.6,0.4,1.9c0.2,1.4,0.4,3.2,0.7,5.4c0.6,4.9,1.5,11.7,2.6,20c2.2,16.9,5.6,40.2,9.5,65.9
					c2.9,19.7,5.8,37.9,7.8,53l0,0.2l-0.2,0.2c-12.1,9.7-22.2,17.8-29.5,23.5c-3.5,2.7-6.2,4.9-8.3,6.5c-0.9,0.7-1.6,1.2-2.2,1.7
					C445.7,877.4,445.4,877.6,445.3,877.6z"/>
			</g>
		</g>
		<g>
			<g>
				<path class="st8" d="M477.9,698.8c-0.1,0.4-12.8-0.6-28.1-2.5c-15.4-1.9-27.6-4.1-27.4-4.5c0.2-0.4,12.6,1.2,27.9,3.2
					C465.6,696.9,478,698.4,477.9,698.8z"/>
			</g>
		</g>
		<g>
			<g>
				<path class="st8" d="M550.7,846.6c-0.3,0.4-12.2-3.8-28.7-4.5c-16.5-0.8-29.3,2.1-29.5,1.7c-0.1-0.1,2.9-1.1,8.3-1.9
					c5.3-0.9,13-1.5,21.4-1.1c8.4,0.4,15.8,1.8,20.8,3.1C548.1,845.2,550.8,846.4,550.7,846.6z"/>
			</g>
		</g>
		<g>
			<g>
				<path class="st8" d="M588.2,866.6c0.5,0.2-29.4,24.2-66.7,53.5c-37.4,29.3-68,52.9-68.5,52.7c-0.5-0.2,29.4-24.2,66.7-53.5
					C557,890,587.7,866.4,588.2,866.6z"/>
			</g>
		</g>
		<g>
			<g>
				<path class="st8" d="M573.8,643.3c0.2,0-1.3,2.3-6,4.7c-4.6,2.4-13,4.9-22.6,4.3c-9.7-0.6-17-4.1-20.7-7c-3.8-3-4.4-5.3-4.2-5.3
					c0.4-0.1,1.6,2.1,5.4,4.8c3.7,2.6,10.7,5.7,19.7,6.3c8.9,0.5,16.8-1.6,21.4-3.7C571.5,645.2,573.5,643.2,573.8,643.3z"/>
			</g>
		</g>
	</g>
	<g>
		<path class="st5" d="M428.6,420.6c-17.3-9.8-27.9-23.7-28.8-37.9c-0.9-14.2,7.8-28.6,23.8-39.2"/>
	</g>
	<g>
		<g>
			<g>
				<path class="st6" d="M369,461c0,0-23.1,15.6-27.9,75.1c0,0,65.7,7.4,66.9,5.3C409.2,539.3,369,461,369,461z"/>
			</g>
			<g class="st9">
				<path d="M369,461c0,0-23.1,15.6-27.9,75.1c0,0,65.7,7.4,66.9,5.3C409.2,539.3,369,461,369,461z"/>
			</g>
			<g>
				<g>
					<g>
						<g>
							<path class="st8" d="M387.6,536.1"/>
						</g>
						<g>
							<path class="st6" d="M379.6,634.3h201.8l-3.3-18.8c0,0-23.1-71.6-22.9-72.5l3.6-4.6c9.5-11.9,9.8-25.8,0.9-37.9l0,0
								l98.8-20.2l-24.2-48.7c-44.8,4.5-112.6,9.6-112.6,9.6l-10.1,0.5c0,0-70,2.2-71.5,2.3c-29.3,2.1-63.3,3.5-75.8,22.1
								c-6.7,10-0.3,25,10.5,40.5l25.9,47.5c10.3,26.1-6.2,24.9-15.2,51.2C384.3,609.4,379.5,630.7,379.6,634.3z"/>
						</g>
						<g class="st9">
							<path d="M379.6,634.3h201.8l-3.3-18.8c0,0-23.1-71.6-22.9-72.5l3.6-4.6c9.5-11.9,9.8-25.8,0.9-37.9l0,0l98.8-20.2l-24.2-48.7
								c-44.8,4.5-112.6,9.6-112.6,9.6l-10.1,0.5c0,0-70,2.2-71.5,2.3c-29.3,2.1-63.3,3.5-75.8,22.1c-6.7,10-0.3,25,10.5,40.5
								l25.9,47.5c10.3,26.1-6.2,24.9-15.2,51.2C384.3,609.4,379.5,630.7,379.6,634.3z"/>
						</g>
					</g>
				</g>
			</g>
			<g>
				<g>
					<path class="st5" d="M657.7,481.2c0,0.1-1.5,0.5-4.4,1.1c-2.9,0.6-7,1.5-12.2,2.5c-10.3,2.1-24.7,4.8-40.5,7.9
						c-15.8,3-30,6-40.1,8.5c-5,1.2-9.1,2.3-11.9,3c-2.8,0.7-4.3,1.1-4.4,1c-0.1-0.1,1.4-0.6,4-1.5c2.7-0.9,6.6-2.1,11.6-3.4
						c10-2.7,24.1-5.9,40-8.9c15.9-3,30.3-5.6,40.7-7.5c5.2-0.9,9.5-1.6,12.4-2.1C656,481.3,657.6,481.1,657.7,481.2z"/>
				</g>
			</g>
		</g>
		<g>
			<g>
				<path class="st4" d="M645.9,455.3c0,0.4-59.7,0.7-133.2,0.7c-73.6,0-133.2-0.3-133.2-0.7c0-0.4,59.6-0.7,133.2-0.7
					C586.3,454.6,645.9,454.9,645.9,455.3z"/>
			</g>
		</g>
		<g>
			<g>
				<path class="st4" d="M652.1,479c0,0.4-66.4,0.7-148.3,0.7c-81.9,0-148.3-0.3-148.3-0.7s66.4-0.7,148.3-0.7
					C585.7,478.3,652.1,478.6,652.1,479z"/>
			</g>
		</g>
		<g>
			<g>
				<path class="st4" d="M372,505.9c0,0.4-5.5,0.7-12.4,0.7c-6.8,0-12.4-0.3-12.4-0.7c0-0.4,5.5-0.7,12.4-0.7
					C366.5,505.2,372,505.5,372,505.9z"/>
			</g>
		</g>
		<g>
			<g>
				<path class="st4" d="M566,506.7c0,0.4-43.4,0.7-97,0.7c-53.6,0-97-0.3-97-0.7s43.4-0.7,97-0.7C522.6,506,566,506.3,566,506.7z"
					/>
			</g>
		</g>
		<g>
			<g>
				<path class="st4" d="M561.7,534.4c0,0.4-39,0.7-87,0.7c-48.1,0-87-0.3-87-0.7c0-0.4,39-0.7,87-0.7
					C522.7,533.8,561.7,534.1,561.7,534.4z"/>
			</g>
		</g>
		<g>
			<g>
				<path class="st4" d="M560.4,560.1c0,0.4-35.3,0.7-78.9,0.7c-43.6,0-78.9-0.3-78.9-0.7s35.3-0.7,78.9-0.7
					C525.1,559.4,560.4,559.7,560.4,560.1z"/>
			</g>
		</g>
		<g>
			<g>
				<path class="st4" d="M567.3,580.9c0,0.4-37.8,0.7-84.4,0.7c-46.6,0-84.4-0.3-84.4-0.7c0-0.4,37.8-0.7,84.4-0.7
					C529.6,580.2,567.3,580.5,567.3,580.9z"/>
			</g>
		</g>
		<g>
			<g>
				<path class="st4" d="M578.3,607.4c0,0.4-43,0.7-96,0.7c-53,0-96-0.3-96-0.7c0-0.4,43-0.7,96-0.7
					C535.3,606.7,578.3,607,578.3,607.4z"/>
			</g>
		</g>
		<g>
			<g>
				<path class="st5" d="M399.7,552c-0.1,0-0.8-0.8-1.8-2.4c-1.2-1.8-2.6-4-4.2-6.6c-3.6-5.6-8.5-13.2-13.7-21.7
					c-5.2-8.5-9.5-16.4-12.2-22.1c-1.4-2.9-2.4-5.2-2.9-6.8c-0.6-1.6-0.9-2.5-0.7-2.6c0.3,0,2.1,3.5,5.2,9.1
					c3.1,5.6,7.6,13.4,12.8,21.9c5.2,8.5,10,16.2,13.1,21.9c1.6,2.8,2.8,5.1,3.6,6.7C399.5,551.1,399.8,552,399.7,552z"/>
			</g>
		</g>
	</g>
</g>
</svg>
